999
dxflib 3.17.0.0
  0
SECTION
  2
HEADER
  9
$ACADVER
  1
AC1015
  9
$HANDSEED
  5
FFFF
  9
$DIMADEC
 70
0
  9
$DIMASZ
 40
2.5
  9
$DIMAUNIT
 70
0
  9
$DIMAZIN
 70
2
  9
$DIMDEC
 70
4
  9
$DIMDLI
 40
5.0
  9
$DIMDSEP
 70
46
  9
$DIMEXE
 40
1.25
  9
$DIMEXO
 40
0.625
  9
$DIMGAP
 40
0.625
  9
$DIMLUNIT
 70
2
  9
$DIMSCALE
 40
1.0
  9
$DIMTSZ
 40
0.0
  9
$DIMTXT
 40
2.5
  9
$DIMZIN
 70
8
  9
$DWGCODEPAGE
  3
ANSI_1252
  9
$INSUNITS
 70
4
  9
$LTSCALE
 40
1.0
  9
$MAXACTVP
 70
64
  9
$MEASUREMENT
 70
1
  9
$MIRRTEXT
 70
0
  9
$PDMODE
 70
0
  9
$PDSIZE
 40
0.0
  0
ENDSEC
  0
SECTION
  2
TABLES
  0
TABLE
  2
VPORT
  5
8
100
AcDbSymbolTable
 70
1
  0
VPORT
  5
30
100
AcDbSymbolTableRecord
100
AcDbViewportTableRecord
  2
*Active
 70
0
 10
0.0
 20
0.0
 11
1.0
 21
1.0
 12
286.3055555555554861
 22
148.5
 13
0.0
 23
0.0
 14
10.0
 24
10.0
 15
10.0
 25
10.0
 16
0.0
 26
0.0
 36
1.0
 17
0.0
 27
0.0
 37
0.0
 40
297.0
 41
1.92798353909465
 42
50.0
 43
0.0
 44
0.0
 50
0.0
 51
0.0
 71
0
 72
100
 73
1
 74
3
 75
1
 76
1
 77
0
 78
0
281
0
 65
1
110
0.0
120
0.0
130
0.0
111
1.0
121
0.0
131
0.0
112
0.0
122
1.0
132
0.0
 79
0
146
0.0
  0
ENDTAB
  0
TABLE
  2
LTYPE
  5
5
100
AcDbSymbolTable
 70
41
  0
LTYPE
  5
16
100
AcDbSymbolTableRecord
100
AcDbLinetypeTableRecord
  2
Continuous
 70
0
  3
Solid line
 72
65
 73
0
 40
0.0
  0
LTYPE
  5
31
100
AcDbSymbolTableRecord
100
AcDbLinetypeTableRecord
  2
DASHED2
 70
0
  3
Dashed (.5x) _ _ _ _ _ _ _ _ _ _ _ _ _ _ _ _ _ 
 72
65
 73
2
 40
9.5249999999999986
 49
6.3499999999999996
 74
0
 49
-3.1749999999999998
 74
0
  0
LTYPE
  5
32
100
AcDbSymbolTableRecord
100
AcDbLinetypeTableRecord
  2
CENTER2
 70
0
  3
Center (.5x) ___ _ ___ _ ___ _ ___ _ ___ _ ___
 72
65
 73
4
 40
28.5750000000000028
 49
19.0500000000000007
 74
0
 49
-3.1749999999999998
 74
0
 49
3.1749999999999998
 74
0
 49
-3.1749999999999998
 74
0
  0
LTYPE
  5
33
100
AcDbSymbolTableRecord
100
AcDbLinetypeTableRecord
  2
ACAD_ISO09W100
 70
0
  3
ISO long-dash double-short-dash ____ __ __ ____
 72
65
 73
6
 40
45.0
 49
24.0
 74
0
 49
-3.0
 74
0
 49
6.0
 74
0
 49
-3.0
 74
0
 49
6.0
 74
0
 49
-3.0
 74
0
  0
LTYPE
  5
34
100
AcDbSymbolTableRecord
100
AcDbLinetypeTableRecord
  2
CENTERX2
 70
0
  3
Center (2x) ________  __  ________  __  _____
 72
65
 73
4
 40
101.6000000000000085
 49
63.5
 74
0
 49
-12.6999999999999993
 74
0
 49
12.6999999999999993
 74
0
 49
-12.6999999999999993
 74
0
  0
LTYPE
  5
35
100
AcDbSymbolTableRecord
100
AcDbLinetypeTableRecord
  2
DASHED
 70
0
  3
Dashed __ __ __ __ __ __ __ __ __ __ __ __ __ _
 72
65
 73
2
 40
19.0499999999999972
 49
12.6999999999999993
 74
0
 49
-6.3499999999999996
 74
0
  0
LTYPE
  5
36
100
AcDbSymbolTableRecord
100
AcDbLinetypeTableRecord
  2
PHANTOMX2
 70
0
  3
Phantom (2x) ____________    ____    ____   _
 72
65
 73
6
 40
127.0000000000000142
 49
63.5
 74
0
 49
-12.6999999999999993
 74
0
 49
12.6999999999999993
 74
0
 49
-12.6999999999999993
 74
0
 49
12.6999999999999993
 74
0
 49
-12.6999999999999993
 74
0
  0
LTYPE
  5
37
100
AcDbSymbolTableRecord
100
AcDbLinetypeTableRecord
  2
BORDERX2
 70
0
  3
Border (2x) ____  ____  .  ____  ____  .  ___
 72
65
 73
6
 40
88.8999999999999773
 49
25.3999999999999986
 74
0
 49
-12.6999999999999993
 74
0
 49
25.3999999999999986
 74
0
 49
-12.6499999999999986
 74
0
 49
0.1
 74
0
 49
-12.6499999999999986
 74
0
  0
LTYPE
  5
38
100
AcDbSymbolTableRecord
100
AcDbLinetypeTableRecord
  2
ACAD_ISO10W100
 70
0
  3
ISO dash dot __ . __ . __ . __ . __ . __ . __ . 
 72
65
 73
4
 40
18.0
 49
12.0
 74
0
 49
-2.9500000000000002
 74
0
 49
0.1
 74
0
 49
-2.9500000000000002
 74
0
  0
LTYPE
  5
39
100
AcDbSymbolTableRecord
100
AcDbLinetypeTableRecord
  2
DASHDOT2
 70
0
  3
Dash dot (.5x) _._._._._._._._._._._._._._._.
 72
65
 73
4
 40
12.6999999999999993
 49
6.3499999999999996
 74
0
 49
-3.125
 74
0
 49
0.1
 74
0
 49
-3.125
 74
0
  0
LTYPE
  5
3A
100
AcDbSymbolTableRecord
100
AcDbLinetypeTableRecord
  2
ACAD_ISO08W100
 70
0
  3
ISO long-dash short-dash ____ __ ____ __ ____ _
 72
65
 73
4
 40
36.0
 49
24.0
 74
0
 49
-3.0
 74
0
 49
6.0
 74
0
 49
-3.0
 74
0
  0
LTYPE
  5
3B
100
AcDbSymbolTableRecord
100
AcDbLinetypeTableRecord
  2
HIDDEN2
 70
0
  3
Hidden (.5x) _ _ _ _ _ _ _ _ _ _ _ _ _ _ _ _ _ 
 72
65
 73
2
 40
4.7624999999999993
 49
3.1749999999999998
 74
0
 49
-1.5874999999999999
 74
0
  0
LTYPE
  5
3C
100
AcDbSymbolTableRecord
100
AcDbLinetypeTableRecord
  2
HIDDEN
 70
0
  3
Hidden __ __ __ __ __ __ __ __ __ __ __ __ __ __
 72
65
 73
2
 40
9.5249999999999986
 49
6.3499999999999996
 74
0
 49
-3.1749999999999998
 74
0
  0
LTYPE
  5
3D
100
AcDbSymbolTableRecord
100
AcDbLinetypeTableRecord
  2
ACAD_ISO07W100
 70
0
  3
ISO dot . . . . . . . . . . . . . . . . . . . . 
 72
65
 73
2
 40
3.0
 49
0.1
 74
0
 49
-2.8999999999999999
 74
0
  0
LTYPE
  5
3E
100
AcDbSymbolTableRecord
100
AcDbLinetypeTableRecord
  2
BORDER
 70
0
  3
Border __ __ . __ __ . __ __ . __ __ . __ __ .
 72
65
 73
6
 40
44.4499999999999957
 49
12.6999999999999993
 74
0
 49
-6.3499999999999996
 74
0
 49
12.6999999999999993
 74
0
 49
-6.2999999999999998
 74
0
 49
0.1
 74
0
 49
-6.2999999999999998
 74
0
  0
LTYPE
  5
3F
100
AcDbSymbolTableRecord
100
AcDbLinetypeTableRecord
  2
DASHDOTX2
 70
0
  3
Dash dot (2x) ____  .  ____  .  ____  .  ___
 72
65
 73
4
 40
50.7999999999999972
 49
25.3999999999999986
 74
0
 49
-12.6499999999999986
 74
0
 49
0.1
 74
0
 49
-12.6499999999999986
 74
0
  0
LTYPE
  5
40
100
AcDbSymbolTableRecord
100
AcDbLinetypeTableRecord
  2
ACAD_ISO04W100
 70
0
  3
ISO long-dash dot ____ . ____ . ____ . ____ . _
 72
65
 73
4
 40
30.0
 49
24.0
 74
0
 49
-2.9500000000000002
 74
0
 49
0.1
 74
0
 49
-2.9500000000000002
 74
0
  0
LTYPE
  5
41
100
AcDbSymbolTableRecord
100
AcDbLinetypeTableRecord
  2
ACAD_ISO15W100
 70
0
  3
ISO double-dash triple-dot __ __ . . . __ __ . .
 72
65
 73
10
 40
39.0000000000000071
 49
12.0
 74
0
 49
-3.0
 74
0
 49
12.0
 74
0
 49
-2.9500000000000002
 74
0
 49
0.1
 74
0
 49
-2.9000000000000004
 74
0
 49
0.1
 74
0
 49
-2.9000000000000004
 74
0
 49
0.1
 74
0
 49
-2.9500000000000002
 74
0
  0
LTYPE
  5
42
100
AcDbSymbolTableRecord
100
AcDbLinetypeTableRecord
  2
ACAD_ISO11W100
 70
0
  3
ISO double-dash dot __ __ . __ __ . __ __ . __ _
 72
65
 73
6
 40
33.0
 49
12.0
 74
0
 49
-3.0
 74
0
 49
12.0
 74
0
 49
-2.9500000000000002
 74
0
 49
0.1
 74
0
 49
-2.9500000000000002
 74
0
  0
LTYPE
  5
43
100
AcDbSymbolTableRecord
100
AcDbLinetypeTableRecord
  2
DIVIDE
 70
0
  3
Divide ____ . . ____ . . ____ . . ____ . . ____
 72
65
 73
6
 40
31.7500000000000036
 49
12.6999999999999993
 74
0
 49
-6.2999999999999998
 74
0
 49
0.1
 74
0
 49
-6.25
 74
0
 49
0.1
 74
0
 49
-6.2999999999999998
 74
0
  0
LTYPE
  5
44
100
AcDbSymbolTableRecord
100
AcDbLinetypeTableRecord
  2
DASHEDX2
 70
0
  3
Dashed (2x) ____  ____  ____  ____  ____  ___
 72
65
 73
2
 40
38.0999999999999943
 49
25.3999999999999986
 74
0
 49
-12.6999999999999993
 74
0
  0
LTYPE
  5
45
100
AcDbSymbolTableRecord
100
AcDbLinetypeTableRecord
  2
BORDER2
 70
0
  3
Border (.5x) __.__.__.__.__.__.__.__.__.__.__.
 72
65
 73
6
 40
22.2250000000000014
 49
6.3499999999999996
 74
0
 49
-3.1749999999999998
 74
0
 49
6.3499999999999996
 74
0
 49
-3.125
 74
0
 49
0.1
 74
0
 49
-3.125
 74
0
  0
LTYPE
  5
46
100
AcDbSymbolTableRecord
100
AcDbLinetypeTableRecord
  2
ACAD_ISO12W100
 70
0
  3
ISO dash double-dot __ . . __ . . __ . . __ . . 
 72
65
 73
6
 40
21.0
 49
12.0
 74
0
 49
-2.9500000000000002
 74
0
 49
0.1
 74
0
 49
-2.9000000000000004
 74
0
 49
0.1
 74
0
 49
-2.9500000000000002
 74
0
  0
LTYPE
  5
15
100
AcDbSymbolTableRecord
100
AcDbLinetypeTableRecord
  2
BYLAYER
 70
0
  3

 72
65
 73
0
 40
0.0
  0
LTYPE
  5
47
100
AcDbSymbolTableRecord
100
AcDbLinetypeTableRecord
  2
DOT2
 70
0
  3
Dot (.5x) ........................................
 72
65
 73
2
 40
3.1749999999999998
 49
0.1
 74
0
 49
-3.0749999999999997
 74
0
  0
LTYPE
  5
48
100
AcDbSymbolTableRecord
100
AcDbLinetypeTableRecord
  2
ACAD_ISO03W100
 70
0
  3
ISO dash space __    __    __    __    __    __
 72
65
 73
2
 40
30.0
 49
12.0
 74
0
 49
-18.0
 74
0
  0
LTYPE
  5
49
100
AcDbSymbolTableRecord
100
AcDbLinetypeTableRecord
  2
ACAD_ISO05W100
 70
0
  3
ISO long-dash double-dot ____ .. ____ .. ____ . 
 72
65
 73
6
 40
33.0000000000000071
 49
24.0
 74
0
 49
-2.9500000000000002
 74
0
 49
0.1
 74
0
 49
-2.9000000000000004
 74
0
 49
0.1
 74
0
 49
-2.9500000000000002
 74
0
  0
LTYPE
  5
4A
100
AcDbSymbolTableRecord
100
AcDbLinetypeTableRecord
  2
DIVIDEX2
 70
0
  3
Divide (2x) ________  .  .  ________  .  .  _
 72
65
 73
6
 40
63.5
 49
25.3999999999999986
 74
0
 49
-12.6499999999999986
 74
0
 49
0.1
 74
0
 49
-12.5999999999999979
 74
0
 49
0.1
 74
0
 49
-12.6499999999999986
 74
0
  0
LTYPE
  5
4B
100
AcDbSymbolTableRecord
100
AcDbLinetypeTableRecord
  2
DIVIDE2
 70
0
  3
Divide (.5x) __..__..__..__..__..__..__..__.._
 72
65
 73
6
 40
15.8749999999999982
 49
6.3499999999999996
 74
0
 49
-3.125
 74
0
 49
0.1
 74
0
 49
-3.0750000000000002
 74
0
 49
0.1
 74
0
 49
-3.125
 74
0
  0
LTYPE
  5
4C
100
AcDbSymbolTableRecord
100
AcDbLinetypeTableRecord
  2
DOTX2
 70
0
  3
Dot (2x) .  .  .  .  .  .  .  .  .  .  .  .  .  .
 72
65
 73
2
 40
12.6999999999999993
 49
0.1
 74
0
 49
-12.5999999999999996
 74
0
  0
LTYPE
  5
4D
100
AcDbSymbolTableRecord
100
AcDbLinetypeTableRecord
  2
ACAD_ISO06W100
 70
0
  3
ISO long-dash triple-dot ____ ... ____ ... ____
 72
65
 73
8
 40
36.0000000000000071
 49
24.0
 74
0
 49
-2.9500000000000002
 74
0
 49
0.1
 74
0
 49
-2.9000000000000004
 74
0
 49
0.1
 74
0
 49
-2.9000000000000004
 74
0
 49
0.1
 74
0
 49
-2.9500000000000002
 74
0
  0
LTYPE
  5
4E
100
AcDbSymbolTableRecord
100
AcDbLinetypeTableRecord
  2
ACAD_ISO13W100
 70
0
  3
ISO double-dash double-dot __ __ . . __ __ . . _
 72
65
 73
8
 40
36.0000000000000071
 49
12.0
 74
0
 49
-3.0
 74
0
 49
12.0
 74
0
 49
-2.9500000000000002
 74
0
 49
0.1
 74
0
 49
-2.9000000000000004
 74
0
 49
0.1
 74
0
 49
-2.9500000000000002
 74
0
  0
LTYPE
  5
4F
100
AcDbSymbolTableRecord
100
AcDbLinetypeTableRecord
  2
HIDDENX2
 70
0
  3
Hidden (2x) ____ ____ ____ ____ ____ ____ ____ 
 72
65
 73
2
 40
19.0499999999999972
 49
12.6999999999999993
 74
0
 49
-6.3499999999999996
 74
0
  0
LTYPE
  5
50
100
AcDbSymbolTableRecord
100
AcDbLinetypeTableRecord
  2
ACAD_ISO14W100
 70
0
  3
ISO dash triple-dot __ . . . __ . . . __ . . . _
 72
65
 73
8
 40
24.0000000000000036
 49
12.0
 74
0
 49
-2.9500000000000002
 74
0
 49
0.1
 74
0
 49
-2.9000000000000004
 74
0
 49
0.1
 74
0
 49
-2.9000000000000004
 74
0
 49
0.1
 74
0
 49
-2.9500000000000002
 74
0
  0
LTYPE
  5
51
100
AcDbSymbolTableRecord
100
AcDbLinetypeTableRecord
  2
PHANTOM
 70
0
  3
Phantom ______  __  __  ______  __  __  ______ 
 72
65
 73
6
 40
63.5000000000000071
 49
31.75
 74
0
 49
-6.3499999999999996
 74
0
 49
6.3499999999999996
 74
0
 49
-6.3499999999999996
 74
0
 49
6.3499999999999996
 74
0
 49
-6.3499999999999996
 74
0
  0
LTYPE
  5
52
100
AcDbSymbolTableRecord
100
AcDbLinetypeTableRecord
  2
DASHDOT
 70
0
  3
Dash dot __ . __ . __ . __ . __ . __ . __ . __
 72
65
 73
4
 40
25.4000000000000021
 49
12.6999999999999993
 74
0
 49
-6.2999999999999998
 74
0
 49
0.1
 74
0
 49
-6.2999999999999998
 74
0
  0
LTYPE
  5
53
100
AcDbSymbolTableRecord
100
AcDbLinetypeTableRecord
  2
ACAD_ISO02W100
 70
0
  3
ISO dash __ __ __ __ __ __ __ __ __ __ __ __ __
 72
65
 73
2
 40
15.0
 49
12.0
 74
0
 49
-3.0
 74
0
  0
LTYPE
  5
54
100
AcDbSymbolTableRecord
100
AcDbLinetypeTableRecord
  2
PHANTOM2
 70
0
  3
Phantom (.5x) ___ _ _ ___ _ _ ___ _ _ ___ _ _
 72
65
 73
6
 40
31.7500000000000036
 49
15.875
 74
0
 49
-3.1749999999999998
 74
0
 49
3.1749999999999998
 74
0
 49
-3.1749999999999998
 74
0
 49
3.1749999999999998
 74
0
 49
-3.1749999999999998
 74
0
  0
LTYPE
  5
55
100
AcDbSymbolTableRecord
100
AcDbLinetypeTableRecord
  2
DOT
 70
0
  3
Dot . . . . . . . . . . . . . . . . . . . . . . . .
 72
65
 73
2
 40
6.3499999999999996
 49
0.1
 74
0
 49
-6.25
 74
0
  0
LTYPE
  5
14
100
AcDbSymbolTableRecord
100
AcDbLinetypeTableRecord
  2
BYBLOCK
 70
0
  3

 72
65
 73
0
 40
0.0
  0
LTYPE
  5
56
100
AcDbSymbolTableRecord
100
AcDbLinetypeTableRecord
  2
CENTER
 70
0
  3
Center ____ _ ____ _ ____ _ ____ _ ____ _ ____
 72
65
 73
4
 40
50.8000000000000043
 49
31.75
 74
0
 49
-6.3499999999999996
 74
0
 49
6.3499999999999996
 74
0
 49
-6.3499999999999996
 74
0
  0
ENDTAB
  0
TABLE
  2
LAYER
  5
2
100
AcDbSymbolTable
 70
21
  0
LAYER
  5
57
100
AcDbSymbolTableRecord
100
AcDbLayerTableRecord
  2
F.SilkS
 70
0
 62
134
420
32896
  6
Continuous
370
-3
390
F
  0
LAYER
  5
58
100
AcDbSymbolTableRecord
100
AcDbLayerTableRecord
  2
Eco2.User
 70
0
 62
54
420
8421376
  6
Continuous
370
-3
390
F
  0
LAYER
  5
59
100
AcDbSymbolTableRecord
100
AcDbLayerTableRecord
  2
Cmts.User
 70
0
 62
174
420
128
  6
Continuous
370
-3
390
F
  0
LAYER
  5
5A
100
AcDbSymbolTableRecord
100
AcDbLayerTableRecord
  2
Dwgs.User
 70
0
 62
7
420
16777215
  6
Continuous
370
-3
390
F
  0
LAYER
  5
5B
100
AcDbSymbolTableRecord
100
AcDbLayerTableRecord
  2
B.SilkS
 70
0
 62
214
420
8388736
  6
Continuous
370
-3
390
F
  0
LAYER
  5
5C
100
AcDbSymbolTableRecord
100
AcDbLayerTableRecord
  2
F.Fab
 70
0
 62
252
420
10526884
  6
Continuous
370
-3
390
F
  0
LAYER
  5
5D
100
AcDbSymbolTableRecord
100
AcDbLayerTableRecord
  2
B.Mask
 70
0
 62
54
420
8421376
  6
Continuous
370
-3
390
F
  0
LAYER
  5
5E
100
AcDbSymbolTableRecord
100
AcDbLayerTableRecord
  2
F.Mask
 70
0
 62
214
420
8388736
  6
Continuous
370
-3
390
F
  0
LAYER
  5
5F
100
AcDbSymbolTableRecord
100
AcDbLayerTableRecord
  2
Edge.Cuts
 70
0
 62
54
420
8421376
  6
Continuous
370
-3
390
F
  0
LAYER
  5
60
100
AcDbSymbolTableRecord
100
AcDbLayerTableRecord
  2
Margin
 70
0
 62
6
420
16711935
  6
Continuous
370
-3
390
F
  0
LAYER
  5
61
100
AcDbSymbolTableRecord
100
AcDbLayerTableRecord
  2
B.Paste
 70
0
 62
4
420
65535
  6
Continuous
370
-3
390
F
  0
LAYER
  5
10
100
AcDbSymbolTableRecord
100
AcDbLayerTableRecord
  2
0
 70
1
 62
7
420
16777215
  6
Continuous
370
-3
390
F
  0
LAYER
  5
62
100
AcDbSymbolTableRecord
100
AcDbLayerTableRecord
  2
F.Adhes
 70
0
 62
214
420
8388736
  6
Continuous
370
-3
390
F
  0
LAYER
  5
63
100
AcDbSymbolTableRecord
100
AcDbLayerTableRecord
  2
F.CrtYd
 70
0
 62
9
420
12632256
  6
Continuous
370
-3
390
F
  0
LAYER
  5
64
100
AcDbSymbolTableRecord
100
AcDbLayerTableRecord
  2
B.CrtYd
 70
0
 62
252
420
10526884
  6
Continuous
370
-3
390
F
  0
LAYER
  5
65
100
AcDbSymbolTableRecord
100
AcDbLayerTableRecord
  2
B.Fab
 70
0
 62
174
420
128
  6
Continuous
370
-3
390
F
  0
LAYER
  5
66
100
AcDbSymbolTableRecord
100
AcDbLayerTableRecord
  2
F.Paste
 70
0
 62
14
420
8388608
  6
Continuous
370
-3
390
F
  0
LAYER
  5
67
100
AcDbSymbolTableRecord
100
AcDbLayerTableRecord
  2
F.Cu
 70
0
 62
14
420
8388608
  6
Continuous
370
-3
390
F
  0
LAYER
  5
68
100
AcDbSymbolTableRecord
100
AcDbLayerTableRecord
  2
Eco1.User
 70
0
 62
94
420
32768
  6
Continuous
370
-3
390
F
  0
LAYER
  5
69
100
AcDbSymbolTableRecord
100
AcDbLayerTableRecord
  2
B.Adhes
 70
0
 62
174
420
128
  6
Continuous
370
-3
390
F
  0
LAYER
  5
6A
100
AcDbSymbolTableRecord
100
AcDbLayerTableRecord
  2
B.Cu
 70
0
 62
94
420
32768
  6
Continuous
370
-3
390
F
  0
ENDTAB
  0
TABLE
  2
STYLE
  5
3
100
AcDbSymbolTable
 70
1
  0
STYLE
  5
6B
100
AcDbSymbolTableRecord
100
AcDbTextStyleTableRecord
  2
Standard
 70
0
 40
0.0
 41
1.0
 50
0.0
 71
0
 42
2.5
  3

  4

1001
ACAD
1000
txt
1071
0
  0
ENDTAB
  0
TABLE
  2
VIEW
  5
6
100
AcDbSymbolTable
 70
0
  0
ENDTAB
  0
TABLE
  2
UCS
  5
7
100
AcDbSymbolTable
 70
0
  0
ENDTAB
  0
TABLE
  2
APPID
  5
9
100
AcDbSymbolTable
 70
1
  0
APPID
  5
12
100
AcDbSymbolTableRecord
100
AcDbRegAppTableRecord
  2
ACAD
 70
0
  0
APPID
  5
6C
100
AcDbSymbolTableRecord
100
AcDbRegAppTableRecord
  2
QCAD
 70
0
  0
ENDTAB
  0
TABLE
  2
DIMSTYLE
  5
A
100
AcDbSymbolTable
 70
1
100
AcDbDimStyleTable
 71
0
  0
DIMSTYLE
105
27
100
AcDbSymbolTableRecord
100
AcDbDimStyleTableRecord
  2
Standard
 41
2.5
 42
0.625
 43
3.75
 44
1.25
 70
0
 73
0
 74
0
 77
1
 78
8
140
2.5
141
2.5
143
0.03937007874016
147
0.625
171
3
172
1
271
2
272
2
274
3
278
44
283
0
284
8
340
6B
  0
ENDTAB
  0
TABLE
  2
BLOCK_RECORD
  5
1
100
AcDbSymbolTable
 70
1
  0
BLOCK_RECORD
  5
1F
100
AcDbSymbolTableRecord
100
AcDbBlockTableRecord
  2
*Model_Space
340
22
  0
BLOCK_RECORD
  5
1B
100
AcDbSymbolTableRecord
100
AcDbBlockTableRecord
  2
*Paper_Space
340
1E
  0
BLOCK_RECORD
  5
23
100
AcDbSymbolTableRecord
100
AcDbBlockTableRecord
  2
*Paper_Space0
340
26
  0
ENDTAB
  0
ENDSEC
  0
SECTION
  2
BLOCKS
  0
BLOCK
  5
20
100
AcDbEntity
  8
0
100
AcDbBlockBegin
  2
*Model_Space
 70
0
 10
0.0
 20
0.0
 30
0.0
  3
*Model_Space
  1

  0
ENDBLK
  5
21
100
AcDbEntity
  8
0
100
AcDbBlockEnd
  0
BLOCK
  5
1C
100
AcDbEntity
 67
1
  8
0
100
AcDbBlockBegin
  2
*Paper_Space
 70
0
 10
0.0
 20
0.0
 30
0.0
  3
*Paper_Space
  1

  0
ENDBLK
  5
1D
100
AcDbEntity
 67
1
  8
0
100
AcDbBlockEnd
  0
BLOCK
  5
24
100
AcDbEntity
  8
0
100
AcDbBlockBegin
  2
*Paper_Space0
 70
0
 10
0.0
 20
0.0
 30
0.0
  3
*Paper_Space0
  1

  0
ENDBLK
  5
25
100
AcDbEntity
  8
0
100
AcDbBlockEnd
  0
ENDSEC
  0
SECTION
  2
ENTITIES
  0
LWPOLYLINE
  5
6D
100
AcDbEntity
  8
F.Fab
 62
256
370
-1
 48
1.0
  6
BYLAYER
100
AcDbPolyline
 90
2
 70
128
 10
-9.6499259102455994
 20
-0.5000529212532001
 10
-9.849968247248114
 20
-0.5000529212532001
  0
LWPOLYLINE
  5
6E
100
AcDbEntity
  8
F.Fab
 62
256
370
-1
 48
1.0
  6
BYLAYER
100
AcDbPolyline
 90
2
 70
128
 10
-9.1499259102455994
 20
-0.5000529212532001
 10
-9.349968247248114
 20
-0.5000529212532001
  0
LWPOLYLINE
  5
6F
100
AcDbEntity
  8
F.Fab
 62
256
370
-1
 48
1.0
  6
BYLAYER
100
AcDbPolyline
 90
2
 70
128
 10
-8.6499259102455994
 20
-0.5000529212532001
 10
-8.849968247248114
 20
-0.5000529212532001
  0
LWPOLYLINE
  5
70
100
AcDbEntity
  8
F.Fab
 62
256
370
-1
 48
1.0
  6
BYLAYER
100
AcDbPolyline
 90
2
 70
128
 10
-8.1499259102455994
 20
-0.5000529212532001
 10
-8.349968247248114
 20
-0.5000529212532001
  0
LWPOLYLINE
  5
71
100
AcDbEntity
  8
F.Fab
 62
256
370
-1
 48
1.0
  6
BYLAYER
100
AcDbPolyline
 90
2
 70
128
 10
-7.6499259102455994
 20
-0.5000529212532001
 10
-7.849968247248114
 20
-0.5000529212532001
  0
LWPOLYLINE
  5
72
100
AcDbEntity
  8
F.Fab
 62
256
370
-1
 48
1.0
  6
BYLAYER
100
AcDbPolyline
 90
2
 70
128
 10
-7.1499259102455994
 20
-0.5000529212532001
 10
-7.349968247248114
 20
-0.5000529212532001
  0
LWPOLYLINE
  5
73
100
AcDbEntity
  8
F.Fab
 62
256
370
-1
 48
1.0
  6
BYLAYER
100
AcDbPolyline
 90
2
 70
128
 10
-6.6499259102455994
 20
-0.5000529212532001
 10
-6.849968247248114
 20
-0.5000529212532001
  0
LWPOLYLINE
  5
74
100
AcDbEntity
  8
F.Fab
 62
256
370
-1
 48
1.0
  6
BYLAYER
100
AcDbPolyline
 90
2
 70
128
 10
-6.1499259102455994
 20
-0.5000529212532001
 10
-6.349968247248114
 20
-0.5000529212532001
  0
LWPOLYLINE
  5
75
100
AcDbEntity
  8
F.Fab
 62
256
370
-1
 48
1.0
  6
BYLAYER
100
AcDbPolyline
 90
2
 70
128
 10
-5.6499259102455994
 20
-0.5000529212532001
 10
-5.849968247248114
 20
-0.5000529212532001
  0
LWPOLYLINE
  5
76
100
AcDbEntity
  8
F.Fab
 62
256
370
-1
 48
1.0
  6
BYLAYER
100
AcDbPolyline
 90
2
 70
128
 10
-5.1499259102455994
 20
-0.5000529212532001
 10
-5.349968247248114
 20
-0.5000529212532001
  0
LWPOLYLINE
  5
77
100
AcDbEntity
  8
F.Fab
 62
256
370
-1
 48
1.0
  6
BYLAYER
100
AcDbPolyline
 90
2
 70
128
 10
-4.6499259102455994
 20
-0.5000529212532001
 10
-4.849968247248114
 20
-0.5000529212532001
  0
LWPOLYLINE
  5
78
100
AcDbEntity
  8
F.Fab
 62
256
370
-1
 48
1.0
  6
BYLAYER
100
AcDbPolyline
 90
2
 70
128
 10
-4.1499259102455994
 20
-0.5000529212532001
 10
-4.349968247248114
 20
-0.5000529212532001
  0
LWPOLYLINE
  5
79
100
AcDbEntity
  8
F.Fab
 62
256
370
-1
 48
1.0
  6
BYLAYER
100
AcDbPolyline
 90
2
 70
128
 10
-3.6499259102455994
 20
-0.5000529212532001
 10
-3.849968247248114
 20
-0.5000529212532001
  0
LWPOLYLINE
  5
7A
100
AcDbEntity
  8
F.Fab
 62
256
370
-1
 48
1.0
  6
BYLAYER
100
AcDbPolyline
 90
2
 70
128
 10
-3.1499259102455994
 20
-0.5000529212532001
 10
-3.349968247248114
 20
-0.5000529212532001
  0
LWPOLYLINE
  5
7B
100
AcDbEntity
  8
F.Fab
 62
256
370
-1
 48
1.0
  6
BYLAYER
100
AcDbPolyline
 90
2
 70
128
 10
-2.6499259102455994
 20
-0.5000529212532001
 10
-2.849968247248114
 20
-0.5000529212532001
  0
LWPOLYLINE
  5
7C
100
AcDbEntity
  8
F.Fab
 62
256
370
-1
 48
1.0
  6
BYLAYER
100
AcDbPolyline
 90
2
 70
128
 10
-2.1499259102455994
 20
-0.5000529212532001
 10
-2.349968247248114
 20
-0.5000529212532001
  0
LWPOLYLINE
  5
7D
100
AcDbEntity
  8
F.Fab
 62
256
370
-1
 48
1.0
  6
BYLAYER
100
AcDbPolyline
 90
2
 70
128
 10
-1.6499259102455994
 20
-0.5000529212532001
 10
-1.849968247248114
 20
-0.5000529212532001
  0
LWPOLYLINE
  5
7E
100
AcDbEntity
  8
F.Fab
 62
256
370
-1
 48
1.0
  6
BYLAYER
100
AcDbPolyline
 90
2
 70
128
 10
-1.1499259102455994
 20
-0.5000529212532001
 10
-1.349968247248114
 20
-0.5000529212532001
  0
LWPOLYLINE
  5
7F
100
AcDbEntity
  8
F.Fab
 62
256
370
-1
 48
1.0
  6
BYLAYER
100
AcDbPolyline
 90
2
 70
128
 10
-0.6499259102455994
 20
-0.5000529212532001
 10
-0.849968247248114
 20
-0.5000529212532001
  0
LWPOLYLINE
  5
80
100
AcDbEntity
  8
F.Fab
 62
256
370
-1
 48
1.0
  6
BYLAYER
100
AcDbPolyline
 90
2
 70
128
 10
-0.1499259102455994
 20
-0.5000529212532001
 10
-0.349968247248114
 20
-0.5000529212532001
  0
LWPOLYLINE
  5
81
100
AcDbEntity
  8
F.Fab
 62
256
370
-1
 48
1.0
  6
BYLAYER
100
AcDbPolyline
 90
2
 70
128
 10
0.3500740897544006
 20
-0.5000529212532001
 10
0.150031752751886
 20
-0.5000529212532001
  0
LWPOLYLINE
  5
82
100
AcDbEntity
  8
F.Fab
 62
256
370
-1
 48
1.0
  6
BYLAYER
100
AcDbPolyline
 90
2
 70
128
 10
0.8500740897544006
 20
-0.5000529212532001
 10
0.650031752751886
 20
-0.5000529212532001
  0
LWPOLYLINE
  5
83
100
AcDbEntity
  8
F.Fab
 62
256
370
-1
 48
1.0
  6
BYLAYER
100
AcDbPolyline
 90
2
 70
128
 10
1.3500740897544006
 20
-0.5000529212532001
 10
1.150031752751886
 20
-0.5000529212532001
  0
LWPOLYLINE
  5
84
100
AcDbEntity
  8
F.Fab
 62
256
370
-1
 48
1.0
  6
BYLAYER
100
AcDbPolyline
 90
2
 70
128
 10
1.8500740897544006
 20
-0.5000529212532001
 10
1.650031752751886
 20
-0.5000529212532001
  0
LWPOLYLINE
  5
85
100
AcDbEntity
  8
F.Fab
 62
256
370
-1
 48
1.0
  6
BYLAYER
100
AcDbPolyline
 90
2
 70
128
 10
2.3500740897544006
 20
-0.5000529212532001
 10
2.150031752751886
 20
-0.5000529212532001
  0
LWPOLYLINE
  5
86
100
AcDbEntity
  8
F.Fab
 62
256
370
-1
 48
1.0
  6
BYLAYER
100
AcDbPolyline
 90
2
 70
128
 10
2.8500740897544006
 20
-0.5000529212532001
 10
2.650031752751886
 20
-0.5000529212532001
  0
LWPOLYLINE
  5
87
100
AcDbEntity
  8
F.Fab
 62
256
370
-1
 48
1.0
  6
BYLAYER
100
AcDbPolyline
 90
2
 70
128
 10
3.3500740897544006
 20
-0.5000529212532001
 10
3.150031752751886
 20
-0.5000529212532001
  0
LWPOLYLINE
  5
88
100
AcDbEntity
  8
F.Fab
 62
256
370
-1
 48
1.0
  6
BYLAYER
100
AcDbPolyline
 90
2
 70
128
 10
3.8500740897544006
 20
-0.5000529212532001
 10
3.650031752751886
 20
-0.5000529212532001
  0
LWPOLYLINE
  5
89
100
AcDbEntity
  8
F.Fab
 62
256
370
-1
 48
1.0
  6
BYLAYER
100
AcDbPolyline
 90
2
 70
128
 10
4.3500740897544006
 20
-0.5000529212532001
 10
4.150031752751886
 20
-0.5000529212532001
  0
LWPOLYLINE
  5
8A
100
AcDbEntity
  8
F.Fab
 62
256
370
-1
 48
1.0
  6
BYLAYER
100
AcDbPolyline
 90
2
 70
128
 10
4.8500740897544006
 20
-0.5000529212532001
 10
4.650031752751886
 20
-0.5000529212532001
  0
LWPOLYLINE
  5
8B
100
AcDbEntity
  8
F.Fab
 62
256
370
-1
 48
1.0
  6
BYLAYER
100
AcDbPolyline
 90
2
 70
128
 10
5.3500740897544006
 20
-0.5000529212532001
 10
5.150031752751886
 20
-0.5000529212532001
  0
LWPOLYLINE
  5
8C
100
AcDbEntity
  8
F.Fab
 62
256
370
-1
 48
1.0
  6
BYLAYER
100
AcDbPolyline
 90
2
 70
128
 10
5.8500740897544006
 20
-0.5000529212532001
 10
5.650031752751886
 20
-0.5000529212532001
  0
LWPOLYLINE
  5
8D
100
AcDbEntity
  8
F.Fab
 62
256
370
-1
 48
1.0
  6
BYLAYER
100
AcDbPolyline
 90
2
 70
128
 10
6.3500740897544006
 20
-0.5000529212532001
 10
6.150031752751886
 20
-0.5000529212532001
  0
LWPOLYLINE
  5
8E
100
AcDbEntity
  8
F.Fab
 62
256
370
-1
 48
1.0
  6
BYLAYER
100
AcDbPolyline
 90
2
 70
128
 10
6.8500740897544006
 20
-0.5000529212532001
 10
6.650031752751886
 20
-0.5000529212532001
  0
LWPOLYLINE
  5
8F
100
AcDbEntity
  8
F.Fab
 62
256
370
-1
 48
1.0
  6
BYLAYER
100
AcDbPolyline
 90
2
 70
128
 10
7.3500740897544006
 20
-0.5000529212532001
 10
7.150031752751886
 20
-0.5000529212532001
  0
LWPOLYLINE
  5
90
100
AcDbEntity
  8
F.Fab
 62
256
370
-1
 48
1.0
  6
BYLAYER
100
AcDbPolyline
 90
2
 70
128
 10
7.8500740897544006
 20
-0.5000529212532001
 10
7.650031752751886
 20
-0.5000529212532001
  0
LWPOLYLINE
  5
91
100
AcDbEntity
  8
F.Fab
 62
256
370
-1
 48
1.0
  6
BYLAYER
100
AcDbPolyline
 90
2
 70
128
 10
8.3500740897544006
 20
-0.5000529212532001
 10
8.150031752751886
 20
-0.5000529212532001
  0
LWPOLYLINE
  5
92
100
AcDbEntity
  8
F.Fab
 62
256
370
-1
 48
1.0
  6
BYLAYER
100
AcDbPolyline
 90
2
 70
128
 10
8.8500740897544006
 20
-0.5000529212532001
 10
8.650031752751886
 20
-0.5000529212532001
  0
LWPOLYLINE
  5
93
100
AcDbEntity
  8
F.Fab
 62
256
370
-1
 48
1.0
  6
BYLAYER
100
AcDbPolyline
 90
2
 70
128
 10
9.3500740897544006
 20
-0.5000529212532001
 10
9.150031752751886
 20
-0.5000529212532001
  0
LWPOLYLINE
  5
94
100
AcDbEntity
  8
F.Fab
 62
256
370
-1
 48
1.0
  6
BYLAYER
100
AcDbPolyline
 90
2
 70
128
 10
9.8500740897544006
 20
-0.5000529212532001
 10
9.650031752751886
 20
-0.5000529212532001
  0
LWPOLYLINE
  5
95
100
AcDbEntity
  8
F.Fab
 62
256
370
-1
 48
1.0
  6
BYLAYER
100
AcDbPolyline
 90
2
 70
128
 10
-9.6499259102455994
 20
0.3000105842506002
 10
-9.849968247248114
 20
0.3000105842506002
  0
LWPOLYLINE
  5
96
100
AcDbEntity
  8
F.Fab
 62
256
370
-1
 48
1.0
  6
BYLAYER
100
AcDbPolyline
 90
2
 70
128
 10
-9.1499259102455994
 20
0.3000105842506002
 10
-9.349968247248114
 20
0.3000105842506002
  0
LWPOLYLINE
  5
97
100
AcDbEntity
  8
F.Fab
 62
256
370
-1
 48
1.0
  6
BYLAYER
100
AcDbPolyline
 90
2
 70
128
 10
-8.6499259102455994
 20
0.3000105842506002
 10
-8.849968247248114
 20
0.3000105842506002
  0
LWPOLYLINE
  5
98
100
AcDbEntity
  8
F.Fab
 62
256
370
-1
 48
1.0
  6
BYLAYER
100
AcDbPolyline
 90
2
 70
128
 10
-8.1499259102455994
 20
0.3000105842506002
 10
-8.349968247248114
 20
0.3000105842506002
  0
LWPOLYLINE
  5
99
100
AcDbEntity
  8
F.Fab
 62
256
370
-1
 48
1.0
  6
BYLAYER
100
AcDbPolyline
 90
2
 70
128
 10
-7.6499259102455994
 20
0.3000105842506002
 10
-7.849968247248114
 20
0.3000105842506002
  0
LWPOLYLINE
  5
9A
100
AcDbEntity
  8
F.Fab
 62
256
370
-1
 48
1.0
  6
BYLAYER
100
AcDbPolyline
 90
2
 70
128
 10
-7.1499259102455994
 20
0.3000105842506002
 10
-7.349968247248114
 20
0.3000105842506002
  0
LWPOLYLINE
  5
9B
100
AcDbEntity
  8
F.Fab
 62
256
370
-1
 48
1.0
  6
BYLAYER
100
AcDbPolyline
 90
2
 70
128
 10
-6.6499259102455994
 20
0.3000105842506002
 10
-6.849968247248114
 20
0.3000105842506002
  0
LWPOLYLINE
  5
9C
100
AcDbEntity
  8
F.Fab
 62
256
370
-1
 48
1.0
  6
BYLAYER
100
AcDbPolyline
 90
2
 70
128
 10
-6.1499259102455994
 20
0.3000105842506002
 10
-6.349968247248114
 20
0.3000105842506002
  0
LWPOLYLINE
  5
9D
100
AcDbEntity
  8
F.Fab
 62
256
370
-1
 48
1.0
  6
BYLAYER
100
AcDbPolyline
 90
2
 70
128
 10
-5.6499259102455994
 20
0.3000105842506002
 10
-5.849968247248114
 20
0.3000105842506002
  0
LWPOLYLINE
  5
9E
100
AcDbEntity
  8
F.Fab
 62
256
370
-1
 48
1.0
  6
BYLAYER
100
AcDbPolyline
 90
2
 70
128
 10
-5.1499259102455994
 20
0.3000105842506002
 10
-5.349968247248114
 20
0.3000105842506002
  0
LWPOLYLINE
  5
9F
100
AcDbEntity
  8
F.Fab
 62
256
370
-1
 48
1.0
  6
BYLAYER
100
AcDbPolyline
 90
2
 70
128
 10
-4.6499259102455994
 20
0.3000105842506002
 10
-4.849968247248114
 20
0.3000105842506002
  0
LWPOLYLINE
  5
A0
100
AcDbEntity
  8
F.Fab
 62
256
370
-1
 48
1.0
  6
BYLAYER
100
AcDbPolyline
 90
2
 70
128
 10
-4.1499259102455994
 20
0.3000105842506002
 10
-4.349968247248114
 20
0.3000105842506002
  0
LWPOLYLINE
  5
A1
100
AcDbEntity
  8
F.Fab
 62
256
370
-1
 48
1.0
  6
BYLAYER
100
AcDbPolyline
 90
2
 70
128
 10
-3.6499259102455994
 20
0.3000105842506002
 10
-3.849968247248114
 20
0.3000105842506002
  0
LWPOLYLINE
  5
A2
100
AcDbEntity
  8
F.Fab
 62
256
370
-1
 48
1.0
  6
BYLAYER
100
AcDbPolyline
 90
2
 70
128
 10
-3.1499259102455994
 20
0.3000105842506002
 10
-3.349968247248114
 20
0.3000105842506002
  0
LWPOLYLINE
  5
A3
100
AcDbEntity
  8
F.Fab
 62
256
370
-1
 48
1.0
  6
BYLAYER
100
AcDbPolyline
 90
2
 70
128
 10
-2.6499259102455994
 20
0.3000105842506002
 10
-2.849968247248114
 20
0.3000105842506002
  0
LWPOLYLINE
  5
A4
100
AcDbEntity
  8
F.Fab
 62
256
370
-1
 48
1.0
  6
BYLAYER
100
AcDbPolyline
 90
2
 70
128
 10
-2.1499259102455994
 20
0.3000105842506002
 10
-2.349968247248114
 20
0.3000105842506002
  0
LWPOLYLINE
  5
A5
100
AcDbEntity
  8
F.Fab
 62
256
370
-1
 48
1.0
  6
BYLAYER
100
AcDbPolyline
 90
2
 70
128
 10
-1.6499259102455994
 20
0.3000105842506002
 10
-1.849968247248114
 20
0.3000105842506002
  0
LWPOLYLINE
  5
A6
100
AcDbEntity
  8
F.Fab
 62
256
370
-1
 48
1.0
  6
BYLAYER
100
AcDbPolyline
 90
2
 70
128
 10
-1.1499259102455994
 20
0.3000105842506002
 10
-1.349968247248114
 20
0.3000105842506002
  0
LWPOLYLINE
  5
A7
100
AcDbEntity
  8
F.Fab
 62
256
370
-1
 48
1.0
  6
BYLAYER
100
AcDbPolyline
 90
2
 70
128
 10
-0.6499259102455994
 20
0.3000105842506002
 10
-0.849968247248114
 20
0.3000105842506002
  0
LWPOLYLINE
  5
A8
100
AcDbEntity
  8
F.Fab
 62
256
370
-1
 48
1.0
  6
BYLAYER
100
AcDbPolyline
 90
2
 70
128
 10
-0.1499259102455994
 20
0.3000105842506002
 10
-0.349968247248114
 20
0.3000105842506002
  0
LWPOLYLINE
  5
A9
100
AcDbEntity
  8
F.Fab
 62
256
370
-1
 48
1.0
  6
BYLAYER
100
AcDbPolyline
 90
2
 70
128
 10
0.3500740897544006
 20
0.3000105842506002
 10
0.150031752751886
 20
0.3000105842506002
  0
LWPOLYLINE
  5
AA
100
AcDbEntity
  8
F.Fab
 62
256
370
-1
 48
1.0
  6
BYLAYER
100
AcDbPolyline
 90
2
 70
128
 10
0.8500740897544006
 20
0.3000105842506002
 10
0.650031752751886
 20
0.3000105842506002
  0
LWPOLYLINE
  5
AB
100
AcDbEntity
  8
F.Fab
 62
256
370
-1
 48
1.0
  6
BYLAYER
100
AcDbPolyline
 90
2
 70
128
 10
1.3500740897544006
 20
0.3000105842506002
 10
1.150031752751886
 20
0.3000105842506002
  0
LWPOLYLINE
  5
AC
100
AcDbEntity
  8
F.Fab
 62
256
370
-1
 48
1.0
  6
BYLAYER
100
AcDbPolyline
 90
2
 70
128
 10
1.8500740897544006
 20
0.3000105842506002
 10
1.650031752751886
 20
0.3000105842506002
  0
LWPOLYLINE
  5
AD
100
AcDbEntity
  8
F.Fab
 62
256
370
-1
 48
1.0
  6
BYLAYER
100
AcDbPolyline
 90
2
 70
128
 10
2.3500740897544006
 20
0.3000105842506002
 10
2.150031752751886
 20
0.3000105842506002
  0
LWPOLYLINE
  5
AE
100
AcDbEntity
  8
F.Fab
 62
256
370
-1
 48
1.0
  6
BYLAYER
100
AcDbPolyline
 90
2
 70
128
 10
2.8500740897544006
 20
0.3000105842506002
 10
2.650031752751886
 20
0.3000105842506002
  0
LWPOLYLINE
  5
AF
100
AcDbEntity
  8
F.Fab
 62
256
370
-1
 48
1.0
  6
BYLAYER
100
AcDbPolyline
 90
2
 70
128
 10
3.3500740897544006
 20
0.3000105842506002
 10
3.150031752751886
 20
0.3000105842506002
  0
LWPOLYLINE
  5
B0
100
AcDbEntity
  8
F.Fab
 62
256
370
-1
 48
1.0
  6
BYLAYER
100
AcDbPolyline
 90
2
 70
128
 10
3.8500740897544006
 20
0.3000105842506002
 10
3.650031752751886
 20
0.3000105842506002
  0
LWPOLYLINE
  5
B1
100
AcDbEntity
  8
F.Fab
 62
256
370
-1
 48
1.0
  6
BYLAYER
100
AcDbPolyline
 90
2
 70
128
 10
4.3500740897544006
 20
0.3000105842506002
 10
4.150031752751886
 20
0.3000105842506002
  0
LWPOLYLINE
  5
B2
100
AcDbEntity
  8
F.Fab
 62
256
370
-1
 48
1.0
  6
BYLAYER
100
AcDbPolyline
 90
2
 70
128
 10
4.8500740897544006
 20
0.3000105842506002
 10
4.650031752751886
 20
0.3000105842506002
  0
LWPOLYLINE
  5
B3
100
AcDbEntity
  8
F.Fab
 62
256
370
-1
 48
1.0
  6
BYLAYER
100
AcDbPolyline
 90
2
 70
128
 10
5.3500740897544006
 20
0.3000105842506002
 10
5.150031752751886
 20
0.3000105842506002
  0
LWPOLYLINE
  5
B4
100
AcDbEntity
  8
F.Fab
 62
256
370
-1
 48
1.0
  6
BYLAYER
100
AcDbPolyline
 90
2
 70
128
 10
5.8500740897544006
 20
0.3000105842506002
 10
5.650031752751886
 20
0.3000105842506002
  0
LWPOLYLINE
  5
B5
100
AcDbEntity
  8
F.Fab
 62
256
370
-1
 48
1.0
  6
BYLAYER
100
AcDbPolyline
 90
2
 70
128
 10
6.3500740897544006
 20
0.3000105842506002
 10
6.150031752751886
 20
0.3000105842506002
  0
LWPOLYLINE
  5
B6
100
AcDbEntity
  8
F.Fab
 62
256
370
-1
 48
1.0
  6
BYLAYER
100
AcDbPolyline
 90
2
 70
128
 10
6.8500740897544006
 20
0.3000105842506002
 10
6.650031752751886
 20
0.3000105842506002
  0
LWPOLYLINE
  5
B7
100
AcDbEntity
  8
F.Fab
 62
256
370
-1
 48
1.0
  6
BYLAYER
100
AcDbPolyline
 90
2
 70
128
 10
7.3500740897544006
 20
0.3000105842506002
 10
7.150031752751886
 20
0.3000105842506002
  0
LWPOLYLINE
  5
B8
100
AcDbEntity
  8
F.Fab
 62
256
370
-1
 48
1.0
  6
BYLAYER
100
AcDbPolyline
 90
2
 70
128
 10
7.8500740897544006
 20
0.3000105842506002
 10
7.650031752751886
 20
0.3000105842506002
  0
LWPOLYLINE
  5
B9
100
AcDbEntity
  8
F.Fab
 62
256
370
-1
 48
1.0
  6
BYLAYER
100
AcDbPolyline
 90
2
 70
128
 10
8.3500740897544006
 20
0.3000105842506002
 10
8.150031752751886
 20
0.3000105842506002
  0
LWPOLYLINE
  5
BA
100
AcDbEntity
  8
F.Fab
 62
256
370
-1
 48
1.0
  6
BYLAYER
100
AcDbPolyline
 90
2
 70
128
 10
8.8500740897544006
 20
0.3000105842506002
 10
8.650031752751886
 20
0.3000105842506002
  0
LWPOLYLINE
  5
BB
100
AcDbEntity
  8
F.Fab
 62
256
370
-1
 48
1.0
  6
BYLAYER
100
AcDbPolyline
 90
2
 70
128
 10
9.3500740897544006
 20
0.3000105842506002
 10
9.150031752751886
 20
0.3000105842506002
  0
LWPOLYLINE
  5
BC
100
AcDbEntity
  8
F.Fab
 62
256
370
-1
 48
1.0
  6
BYLAYER
100
AcDbPolyline
 90
2
 70
128
 10
9.8500740897544006
 20
0.3000105842506002
 10
9.650031752751886
 20
0.3000105842506002
  0
LWPOLYLINE
  5
BD
100
AcDbEntity
  8
F.Fab
 62
256
370
-1
 48
1.0
  6
BYLAYER
100
AcDbPolyline
 90
2
 70
128
 10
-9.6499259102455994
 20
0.3000105842506002
 10
-9.6499259102455994
 20
-0.5000529212532001
  0
LWPOLYLINE
  5
BE
100
AcDbEntity
  8
F.Fab
 62
256
370
-1
 48
1.0
  6
BYLAYER
100
AcDbPolyline
 90
2
 70
128
 10
-9.1499259102455994
 20
0.3000105842506002
 10
-9.1499259102455994
 20
-0.5000529212532001
  0
LWPOLYLINE
  5
BF
100
AcDbEntity
  8
F.Fab
 62
256
370
-1
 48
1.0
  6
BYLAYER
100
AcDbPolyline
 90
2
 70
128
 10
-8.6499259102455994
 20
0.3000105842506002
 10
-8.6499259102455994
 20
-0.5000529212532001
  0
LWPOLYLINE
  5
C0
100
AcDbEntity
  8
F.Fab
 62
256
370
-1
 48
1.0
  6
BYLAYER
100
AcDbPolyline
 90
2
 70
128
 10
-8.1499259102455994
 20
0.3000105842506002
 10
-8.1499259102455994
 20
-0.5000529212532001
  0
LWPOLYLINE
  5
C1
100
AcDbEntity
  8
F.Fab
 62
256
370
-1
 48
1.0
  6
BYLAYER
100
AcDbPolyline
 90
2
 70
128
 10
-7.6499259102455994
 20
0.3000105842506002
 10
-7.6499259102455994
 20
-0.5000529212532001
  0
LWPOLYLINE
  5
C2
100
AcDbEntity
  8
F.Fab
 62
256
370
-1
 48
1.0
  6
BYLAYER
100
AcDbPolyline
 90
2
 70
128
 10
-7.1499259102455994
 20
0.3000105842506002
 10
-7.1499259102455994
 20
-0.5000529212532001
  0
LWPOLYLINE
  5
C3
100
AcDbEntity
  8
F.Fab
 62
256
370
-1
 48
1.0
  6
BYLAYER
100
AcDbPolyline
 90
2
 70
128
 10
-6.6499259102455994
 20
0.3000105842506002
 10
-6.6499259102455994
 20
-0.5000529212532001
  0
LWPOLYLINE
  5
C4
100
AcDbEntity
  8
F.Fab
 62
256
370
-1
 48
1.0
  6
BYLAYER
100
AcDbPolyline
 90
2
 70
128
 10
-6.1499259102455994
 20
0.3000105842506002
 10
-6.1499259102455994
 20
-0.5000529212532001
  0
LWPOLYLINE
  5
C5
100
AcDbEntity
  8
F.Fab
 62
256
370
-1
 48
1.0
  6
BYLAYER
100
AcDbPolyline
 90
2
 70
128
 10
-5.6499259102455994
 20
0.3000105842506002
 10
-5.6499259102455994
 20
-0.5000529212532001
  0
LWPOLYLINE
  5
C6
100
AcDbEntity
  8
F.Fab
 62
256
370
-1
 48
1.0
  6
BYLAYER
100
AcDbPolyline
 90
2
 70
128
 10
-5.1499259102455994
 20
0.3000105842506002
 10
-5.1499259102455994
 20
-0.5000529212532001
  0
LWPOLYLINE
  5
C7
100
AcDbEntity
  8
F.Fab
 62
256
370
-1
 48
1.0
  6
BYLAYER
100
AcDbPolyline
 90
2
 70
128
 10
-4.6499259102455994
 20
0.3000105842506002
 10
-4.6499259102455994
 20
-0.5000529212532001
  0
LWPOLYLINE
  5
C8
100
AcDbEntity
  8
F.Fab
 62
256
370
-1
 48
1.0
  6
BYLAYER
100
AcDbPolyline
 90
2
 70
128
 10
-4.1499259102455994
 20
0.3000105842506002
 10
-4.1499259102455994
 20
-0.5000529212532001
  0
LWPOLYLINE
  5
C9
100
AcDbEntity
  8
F.Fab
 62
256
370
-1
 48
1.0
  6
BYLAYER
100
AcDbPolyline
 90
2
 70
128
 10
-3.6499259102455994
 20
0.3000105842506002
 10
-3.6499259102455994
 20
-0.5000529212532001
  0
LWPOLYLINE
  5
CA
100
AcDbEntity
  8
F.Fab
 62
256
370
-1
 48
1.0
  6
BYLAYER
100
AcDbPolyline
 90
2
 70
128
 10
-3.1499259102455994
 20
0.3000105842506002
 10
-3.1499259102455994
 20
-0.5000529212532001
  0
LWPOLYLINE
  5
CB
100
AcDbEntity
  8
F.Fab
 62
256
370
-1
 48
1.0
  6
BYLAYER
100
AcDbPolyline
 90
2
 70
128
 10
-2.6499259102455994
 20
0.3000105842506002
 10
-2.6499259102455994
 20
-0.5000529212532001
  0
LWPOLYLINE
  5
CC
100
AcDbEntity
  8
F.Fab
 62
256
370
-1
 48
1.0
  6
BYLAYER
100
AcDbPolyline
 90
2
 70
128
 10
-2.1499259102455994
 20
0.3000105842506002
 10
-2.1499259102455994
 20
-0.5000529212532001
  0
LWPOLYLINE
  5
CD
100
AcDbEntity
  8
F.Fab
 62
256
370
-1
 48
1.0
  6
BYLAYER
100
AcDbPolyline
 90
2
 70
128
 10
-1.6499259102455994
 20
0.3000105842506002
 10
-1.6499259102455994
 20
-0.5000529212532001
  0
LWPOLYLINE
  5
CE
100
AcDbEntity
  8
F.Fab
 62
256
370
-1
 48
1.0
  6
BYLAYER
100
AcDbPolyline
 90
2
 70
128
 10
-1.1499259102455994
 20
0.3000105842506002
 10
-1.1499259102455994
 20
-0.5000529212532001
  0
LWPOLYLINE
  5
CF
100
AcDbEntity
  8
F.Fab
 62
256
370
-1
 48
1.0
  6
BYLAYER
100
AcDbPolyline
 90
2
 70
128
 10
-0.6499259102455994
 20
0.3000105842506002
 10
-0.6499259102455994
 20
-0.5000529212532001
  0
LWPOLYLINE
  5
D0
100
AcDbEntity
  8
F.Fab
 62
256
370
-1
 48
1.0
  6
BYLAYER
100
AcDbPolyline
 90
2
 70
128
 10
-0.1499259102455994
 20
0.3000105842506002
 10
-0.1499259102455994
 20
-0.5000529212532001
  0
LWPOLYLINE
  5
D1
100
AcDbEntity
  8
F.Fab
 62
256
370
-1
 48
1.0
  6
BYLAYER
100
AcDbPolyline
 90
2
 70
128
 10
0.3500740897544006
 20
0.3000105842506002
 10
0.3500740897544006
 20
-0.5000529212532001
  0
LWPOLYLINE
  5
D2
100
AcDbEntity
  8
F.Fab
 62
256
370
-1
 48
1.0
  6
BYLAYER
100
AcDbPolyline
 90
2
 70
128
 10
0.8500740897544006
 20
0.3000105842506002
 10
0.8500740897544006
 20
-0.5000529212532001
  0
LWPOLYLINE
  5
D3
100
AcDbEntity
  8
F.Fab
 62
256
370
-1
 48
1.0
  6
BYLAYER
100
AcDbPolyline
 90
2
 70
128
 10
1.3500740897544006
 20
0.3000105842506002
 10
1.3500740897544006
 20
-0.5000529212532001
  0
LWPOLYLINE
  5
D4
100
AcDbEntity
  8
F.Fab
 62
256
370
-1
 48
1.0
  6
BYLAYER
100
AcDbPolyline
 90
2
 70
128
 10
1.8500740897544006
 20
0.3000105842506002
 10
1.8500740897544006
 20
-0.5000529212532001
  0
LWPOLYLINE
  5
D5
100
AcDbEntity
  8
F.Fab
 62
256
370
-1
 48
1.0
  6
BYLAYER
100
AcDbPolyline
 90
2
 70
128
 10
2.3500740897544006
 20
0.3000105842506002
 10
2.3500740897544006
 20
-0.5000529212532001
  0
LWPOLYLINE
  5
D6
100
AcDbEntity
  8
F.Fab
 62
256
370
-1
 48
1.0
  6
BYLAYER
100
AcDbPolyline
 90
2
 70
128
 10
2.8500740897544006
 20
0.3000105842506002
 10
2.8500740897544006
 20
-0.5000529212532001
  0
LWPOLYLINE
  5
D7
100
AcDbEntity
  8
F.Fab
 62
256
370
-1
 48
1.0
  6
BYLAYER
100
AcDbPolyline
 90
2
 70
128
 10
3.3500740897544006
 20
0.3000105842506002
 10
3.3500740897544006
 20
-0.5000529212532001
  0
LWPOLYLINE
  5
D8
100
AcDbEntity
  8
F.Fab
 62
256
370
-1
 48
1.0
  6
BYLAYER
100
AcDbPolyline
 90
2
 70
128
 10
3.8500740897544006
 20
0.3000105842506002
 10
3.8500740897544006
 20
-0.5000529212532001
  0
LWPOLYLINE
  5
D9
100
AcDbEntity
  8
F.Fab
 62
256
370
-1
 48
1.0
  6
BYLAYER
100
AcDbPolyline
 90
2
 70
128
 10
4.3500740897544006
 20
0.3000105842506002
 10
4.3500740897544006
 20
-0.5000529212532001
  0
LWPOLYLINE
  5
DA
100
AcDbEntity
  8
F.Fab
 62
256
370
-1
 48
1.0
  6
BYLAYER
100
AcDbPolyline
 90
2
 70
128
 10
4.8500740897544006
 20
0.3000105842506002
 10
4.8500740897544006
 20
-0.5000529212532001
  0
LWPOLYLINE
  5
DB
100
AcDbEntity
  8
F.Fab
 62
256
370
-1
 48
1.0
  6
BYLAYER
100
AcDbPolyline
 90
2
 70
128
 10
5.3500740897544006
 20
0.3000105842506002
 10
5.3500740897544006
 20
-0.5000529212532001
  0
LWPOLYLINE
  5
DC
100
AcDbEntity
  8
F.Fab
 62
256
370
-1
 48
1.0
  6
BYLAYER
100
AcDbPolyline
 90
2
 70
128
 10
5.8500740897544006
 20
0.3000105842506002
 10
5.8500740897544006
 20
-0.5000529212532001
  0
LWPOLYLINE
  5
DD
100
AcDbEntity
  8
F.Fab
 62
256
370
-1
 48
1.0
  6
BYLAYER
100
AcDbPolyline
 90
2
 70
128
 10
6.3500740897544006
 20
0.3000105842506002
 10
6.3500740897544006
 20
-0.5000529212532001
  0
LWPOLYLINE
  5
DE
100
AcDbEntity
  8
F.Fab
 62
256
370
-1
 48
1.0
  6
BYLAYER
100
AcDbPolyline
 90
2
 70
128
 10
6.8500740897544006
 20
0.3000105842506002
 10
6.8500740897544006
 20
-0.5000529212532001
  0
LWPOLYLINE
  5
DF
100
AcDbEntity
  8
F.Fab
 62
256
370
-1
 48
1.0
  6
BYLAYER
100
AcDbPolyline
 90
2
 70
128
 10
7.3500740897544006
 20
0.3000105842506002
 10
7.3500740897544006
 20
-0.5000529212532001
  0
LWPOLYLINE
  5
E0
100
AcDbEntity
  8
F.Fab
 62
256
370
-1
 48
1.0
  6
BYLAYER
100
AcDbPolyline
 90
2
 70
128
 10
7.8500740897544006
 20
0.3000105842506002
 10
7.8500740897544006
 20
-0.5000529212532001
  0
LWPOLYLINE
  5
E1
100
AcDbEntity
  8
F.Fab
 62
256
370
-1
 48
1.0
  6
BYLAYER
100
AcDbPolyline
 90
2
 70
128
 10
8.3500740897544006
 20
0.3000105842506002
 10
8.3500740897544006
 20
-0.5000529212532001
  0
LWPOLYLINE
  5
E2
100
AcDbEntity
  8
F.Fab
 62
256
370
-1
 48
1.0
  6
BYLAYER
100
AcDbPolyline
 90
2
 70
128
 10
8.8500740897544006
 20
0.3000105842506002
 10
8.8500740897544006
 20
-0.5000529212532001
  0
LWPOLYLINE
  5
E3
100
AcDbEntity
  8
F.Fab
 62
256
370
-1
 48
1.0
  6
BYLAYER
100
AcDbPolyline
 90
2
 70
128
 10
9.3500740897544006
 20
0.3000105842506002
 10
9.3500740897544006
 20
-0.5000529212532001
  0
LWPOLYLINE
  5
E4
100
AcDbEntity
  8
F.Fab
 62
256
370
-1
 48
1.0
  6
BYLAYER
100
AcDbPolyline
 90
2
 70
128
 10
9.8500740897544006
 20
0.3000105842506002
 10
9.8500740897544006
 20
-0.5000529212532001
  0
LWPOLYLINE
  5
E5
100
AcDbEntity
  8
F.Fab
 62
256
370
-1
 48
1.0
  6
BYLAYER
100
AcDbPolyline
 90
2
 70
128
 10
-9.849968247248114
 20
0.3000105842506002
 10
-9.849968247248114
 20
-0.5000529212532001
  0
LWPOLYLINE
  5
E6
100
AcDbEntity
  8
F.Fab
 62
256
370
-1
 48
1.0
  6
BYLAYER
100
AcDbPolyline
 90
2
 70
128
 10
-9.349968247248114
 20
0.3000105842506002
 10
-9.349968247248114
 20
-0.5000529212532001
  0
LWPOLYLINE
  5
E7
100
AcDbEntity
  8
F.Fab
 62
256
370
-1
 48
1.0
  6
BYLAYER
100
AcDbPolyline
 90
2
 70
128
 10
-8.849968247248114
 20
0.3000105842506002
 10
-8.849968247248114
 20
-0.5000529212532001
  0
LWPOLYLINE
  5
E8
100
AcDbEntity
  8
F.Fab
 62
256
370
-1
 48
1.0
  6
BYLAYER
100
AcDbPolyline
 90
2
 70
128
 10
-8.349968247248114
 20
0.3000105842506002
 10
-8.349968247248114
 20
-0.5000529212532001
  0
LWPOLYLINE
  5
E9
100
AcDbEntity
  8
F.Fab
 62
256
370
-1
 48
1.0
  6
BYLAYER
100
AcDbPolyline
 90
2
 70
128
 10
-7.849968247248114
 20
0.3000105842506002
 10
-7.849968247248114
 20
-0.5000529212532001
  0
LWPOLYLINE
  5
EA
100
AcDbEntity
  8
F.Fab
 62
256
370
-1
 48
1.0
  6
BYLAYER
100
AcDbPolyline
 90
2
 70
128
 10
-7.349968247248114
 20
0.3000105842506002
 10
-7.349968247248114
 20
-0.5000529212532001
  0
LWPOLYLINE
  5
EB
100
AcDbEntity
  8
F.Fab
 62
256
370
-1
 48
1.0
  6
BYLAYER
100
AcDbPolyline
 90
2
 70
128
 10
-6.849968247248114
 20
0.3000105842506002
 10
-6.849968247248114
 20
-0.5000529212532001
  0
LWPOLYLINE
  5
EC
100
AcDbEntity
  8
F.Fab
 62
256
370
-1
 48
1.0
  6
BYLAYER
100
AcDbPolyline
 90
2
 70
128
 10
-6.349968247248114
 20
0.3000105842506002
 10
-6.349968247248114
 20
-0.5000529212532001
  0
LWPOLYLINE
  5
ED
100
AcDbEntity
  8
F.Fab
 62
256
370
-1
 48
1.0
  6
BYLAYER
100
AcDbPolyline
 90
2
 70
128
 10
-5.849968247248114
 20
0.3000105842506002
 10
-5.849968247248114
 20
-0.5000529212532001
  0
LWPOLYLINE
  5
EE
100
AcDbEntity
  8
F.Fab
 62
256
370
-1
 48
1.0
  6
BYLAYER
100
AcDbPolyline
 90
2
 70
128
 10
-5.349968247248114
 20
0.3000105842506002
 10
-5.349968247248114
 20
-0.5000529212532001
  0
LWPOLYLINE
  5
EF
100
AcDbEntity
  8
F.Fab
 62
256
370
-1
 48
1.0
  6
BYLAYER
100
AcDbPolyline
 90
2
 70
128
 10
-4.849968247248114
 20
0.3000105842506002
 10
-4.849968247248114
 20
-0.5000529212532001
  0
LWPOLYLINE
  5
F0
100
AcDbEntity
  8
F.Fab
 62
256
370
-1
 48
1.0
  6
BYLAYER
100
AcDbPolyline
 90
2
 70
128
 10
-4.349968247248114
 20
0.3000105842506002
 10
-4.349968247248114
 20
-0.5000529212532001
  0
LWPOLYLINE
  5
F1
100
AcDbEntity
  8
F.Fab
 62
256
370
-1
 48
1.0
  6
BYLAYER
100
AcDbPolyline
 90
2
 70
128
 10
-3.849968247248114
 20
0.3000105842506002
 10
-3.849968247248114
 20
-0.5000529212532001
  0
LWPOLYLINE
  5
F2
100
AcDbEntity
  8
F.Fab
 62
256
370
-1
 48
1.0
  6
BYLAYER
100
AcDbPolyline
 90
2
 70
128
 10
-3.349968247248114
 20
0.3000105842506002
 10
-3.349968247248114
 20
-0.5000529212532001
  0
LWPOLYLINE
  5
F3
100
AcDbEntity
  8
F.Fab
 62
256
370
-1
 48
1.0
  6
BYLAYER
100
AcDbPolyline
 90
2
 70
128
 10
-2.849968247248114
 20
0.3000105842506002
 10
-2.849968247248114
 20
-0.5000529212532001
  0
LWPOLYLINE
  5
F4
100
AcDbEntity
  8
F.Fab
 62
256
370
-1
 48
1.0
  6
BYLAYER
100
AcDbPolyline
 90
2
 70
128
 10
-2.349968247248114
 20
0.3000105842506002
 10
-2.349968247248114
 20
-0.5000529212532001
  0
LWPOLYLINE
  5
F5
100
AcDbEntity
  8
F.Fab
 62
256
370
-1
 48
1.0
  6
BYLAYER
100
AcDbPolyline
 90
2
 70
128
 10
-1.849968247248114
 20
0.3000105842506002
 10
-1.849968247248114
 20
-0.5000529212532001
  0
LWPOLYLINE
  5
F6
100
AcDbEntity
  8
F.Fab
 62
256
370
-1
 48
1.0
  6
BYLAYER
100
AcDbPolyline
 90
2
 70
128
 10
-1.349968247248114
 20
0.3000105842506002
 10
-1.349968247248114
 20
-0.5000529212532001
  0
LWPOLYLINE
  5
F7
100
AcDbEntity
  8
F.Fab
 62
256
370
-1
 48
1.0
  6
BYLAYER
100
AcDbPolyline
 90
2
 70
128
 10
-0.849968247248114
 20
0.3000105842506002
 10
-0.849968247248114
 20
-0.5000529212532001
  0
LWPOLYLINE
  5
F8
100
AcDbEntity
  8
F.Fab
 62
256
370
-1
 48
1.0
  6
BYLAYER
100
AcDbPolyline
 90
2
 70
128
 10
-0.349968247248114
 20
0.3000105842506002
 10
-0.349968247248114
 20
-0.5000529212532001
  0
LWPOLYLINE
  5
F9
100
AcDbEntity
  8
F.Fab
 62
256
370
-1
 48
1.0
  6
BYLAYER
100
AcDbPolyline
 90
2
 70
128
 10
0.150031752751886
 20
0.3000105842506002
 10
0.150031752751886
 20
-0.5000529212532001
  0
LWPOLYLINE
  5
FA
100
AcDbEntity
  8
F.Fab
 62
256
370
-1
 48
1.0
  6
BYLAYER
100
AcDbPolyline
 90
2
 70
128
 10
0.650031752751886
 20
0.3000105842506002
 10
0.650031752751886
 20
-0.5000529212532001
  0
LWPOLYLINE
  5
FB
100
AcDbEntity
  8
F.Fab
 62
256
370
-1
 48
1.0
  6
BYLAYER
100
AcDbPolyline
 90
2
 70
128
 10
1.150031752751886
 20
0.3000105842506002
 10
1.150031752751886
 20
-0.5000529212532001
  0
LWPOLYLINE
  5
FC
100
AcDbEntity
  8
F.Fab
 62
256
370
-1
 48
1.0
  6
BYLAYER
100
AcDbPolyline
 90
2
 70
128
 10
1.650031752751886
 20
0.3000105842506002
 10
1.650031752751886
 20
-0.5000529212532001
  0
LWPOLYLINE
  5
FD
100
AcDbEntity
  8
F.Fab
 62
256
370
-1
 48
1.0
  6
BYLAYER
100
AcDbPolyline
 90
2
 70
128
 10
2.150031752751886
 20
0.3000105842506002
 10
2.150031752751886
 20
-0.5000529212532001
  0
LWPOLYLINE
  5
FE
100
AcDbEntity
  8
F.Fab
 62
256
370
-1
 48
1.0
  6
BYLAYER
100
AcDbPolyline
 90
2
 70
128
 10
2.650031752751886
 20
0.3000105842506002
 10
2.650031752751886
 20
-0.5000529212532001
  0
LWPOLYLINE
  5
FF
100
AcDbEntity
  8
F.Fab
 62
256
370
-1
 48
1.0
  6
BYLAYER
100
AcDbPolyline
 90
2
 70
128
 10
3.150031752751886
 20
0.3000105842506002
 10
3.150031752751886
 20
-0.5000529212532001
  0
LWPOLYLINE
  5
100
100
AcDbEntity
  8
F.Fab
 62
256
370
-1
 48
1.0
  6
BYLAYER
100
AcDbPolyline
 90
2
 70
128
 10
3.650031752751886
 20
0.3000105842506002
 10
3.650031752751886
 20
-0.5000529212532001
  0
LWPOLYLINE
  5
101
100
AcDbEntity
  8
F.Fab
 62
256
370
-1
 48
1.0
  6
BYLAYER
100
AcDbPolyline
 90
2
 70
128
 10
4.150031752751886
 20
0.3000105842506002
 10
4.150031752751886
 20
-0.5000529212532001
  0
LWPOLYLINE
  5
102
100
AcDbEntity
  8
F.Fab
 62
256
370
-1
 48
1.0
  6
BYLAYER
100
AcDbPolyline
 90
2
 70
128
 10
4.650031752751886
 20
0.3000105842506002
 10
4.650031752751886
 20
-0.5000529212532001
  0
LWPOLYLINE
  5
103
100
AcDbEntity
  8
F.Fab
 62
256
370
-1
 48
1.0
  6
BYLAYER
100
AcDbPolyline
 90
2
 70
128
 10
5.150031752751886
 20
0.3000105842506002
 10
5.150031752751886
 20
-0.5000529212532001
  0
LWPOLYLINE
  5
104
100
AcDbEntity
  8
F.Fab
 62
256
370
-1
 48
1.0
  6
BYLAYER
100
AcDbPolyline
 90
2
 70
128
 10
5.650031752751886
 20
0.3000105842506002
 10
5.650031752751886
 20
-0.5000529212532001
  0
LWPOLYLINE
  5
105
100
AcDbEntity
  8
F.Fab
 62
256
370
-1
 48
1.0
  6
BYLAYER
100
AcDbPolyline
 90
2
 70
128
 10
6.150031752751886
 20
0.3000105842506002
 10
6.150031752751886
 20
-0.5000529212532001
  0
LWPOLYLINE
  5
106
100
AcDbEntity
  8
F.Fab
 62
256
370
-1
 48
1.0
  6
BYLAYER
100
AcDbPolyline
 90
2
 70
128
 10
6.650031752751886
 20
0.3000105842506002
 10
6.650031752751886
 20
-0.5000529212532001
  0
LWPOLYLINE
  5
107
100
AcDbEntity
  8
F.Fab
 62
256
370
-1
 48
1.0
  6
BYLAYER
100
AcDbPolyline
 90
2
 70
128
 10
7.150031752751886
 20
0.3000105842506002
 10
7.150031752751886
 20
-0.5000529212532001
  0
LWPOLYLINE
  5
108
100
AcDbEntity
  8
F.Fab
 62
256
370
-1
 48
1.0
  6
BYLAYER
100
AcDbPolyline
 90
2
 70
128
 10
7.650031752751886
 20
0.3000105842506002
 10
7.650031752751886
 20
-0.5000529212532001
  0
LWPOLYLINE
  5
109
100
AcDbEntity
  8
F.Fab
 62
256
370
-1
 48
1.0
  6
BYLAYER
100
AcDbPolyline
 90
2
 70
128
 10
8.150031752751886
 20
0.3000105842506002
 10
8.150031752751886
 20
-0.5000529212532001
  0
LWPOLYLINE
  5
10A
100
AcDbEntity
  8
F.Fab
 62
256
370
-1
 48
1.0
  6
BYLAYER
100
AcDbPolyline
 90
2
 70
128
 10
8.650031752751886
 20
0.3000105842506002
 10
8.650031752751886
 20
-0.5000529212532001
  0
LWPOLYLINE
  5
10B
100
AcDbEntity
  8
F.Fab
 62
256
370
-1
 48
1.0
  6
BYLAYER
100
AcDbPolyline
 90
2
 70
128
 10
9.150031752751886
 20
0.3000105842506002
 10
9.150031752751886
 20
-0.5000529212532001
  0
LWPOLYLINE
  5
10C
100
AcDbEntity
  8
F.Fab
 62
256
370
-1
 48
1.0
  6
BYLAYER
100
AcDbPolyline
 90
2
 70
128
 10
9.650031752751886
 20
0.3000105842506002
 10
9.650031752751886
 20
-0.5000529212532001
  0
LWPOLYLINE
  5
10D
100
AcDbEntity
  8
F.Fab
 62
256
370
-1
 48
1.0
  6
BYLAYER
100
AcDbPolyline
 90
2
 70
128
 10
-9.9999470787468567
 20
-0.3998200677392276
 10
-10.2500529212532001
 20
-0.3998200677392276
  0
LWPOLYLINE
  5
10E
100
AcDbEntity
  8
F.Fab
 62
256
370
-1
 48
1.0
  6
BYLAYER
100
AcDbPolyline
 90
2
 70
128
 10
9.999947078746743
 20
-0.3998200677392276
 10
10.2500529212530864
 20
-0.3998200677392276
  0
LWPOLYLINE
  5
10F
100
AcDbEntity
  8
F.Fab
 62
256
370
-1
 48
1.0
  6
BYLAYER
100
AcDbPolyline
 90
2
 70
128
 10
-10.9500952582557147
 20
-1.9997353937341416
 10
-10.9500952582557147
 20
-2.3297523285351645
  0
LWPOLYLINE
  5
110
100
AcDbEntity
  8
F.Fab
 62
256
370
-1
 48
1.0
  6
BYLAYER
100
AcDbPolyline
 90
2
 70
128
 10
10.950095258255601
 20
-1.9997353937341416
 10
10.950095258255601
 20
-2.3297523285351645
  0
LWPOLYLINE
  5
111
100
AcDbEntity
  8
F.Fab
 62
256
370
-1
 48
1.0
  6
BYLAYER
100
AcDbPolyline
 90
2
 70
128
 10
-10.4800486875529373
 20
-2.4299851820491369
 10
-10.4800486875529373
 20
-3.3700783234546918
  0
LWPOLYLINE
  5
112
100
AcDbEntity
  8
F.Fab
 62
256
370
-1
 48
1.0
  6
BYLAYER
100
AcDbPolyline
 90
2
 70
128
 10
10.4800486875528236
 20
-2.4299851820491369
 10
10.4800486875528236
 20
-3.3700783234546918
  0
LWPOLYLINE
  5
113
100
AcDbEntity
  8
F.Fab
 62
256
370
-1
 48
1.0
  6
BYLAYER
100
AcDbPolyline
 90
2
 70
128
 10
-10.4800486875529373
 20
-3.3700783234546918
 10
-10.8500740897544574
 20
-3.3700783234546918
  0
LWPOLYLINE
  5
114
100
AcDbEntity
  8
F.Fab
 62
256
370
-1
 48
1.0
  6
BYLAYER
100
AcDbPolyline
 90
2
 70
128
 10
10.4800486875528236
 20
-3.3700783234546918
 10
10.8500740897543437
 20
-3.3700783234546918
  0
LWPOLYLINE
  5
115
100
AcDbEntity
  8
F.Fab
 62
256
370
-1
 48
1.0
  6
BYLAYER
100
AcDbPolyline
 90
2
 70
128
 10
-10.4800486875529373
 20
-2.4299851820491085
 10
-10.8500740897544574
 20
-2.4299851820491369
  0
LWPOLYLINE
  5
116
100
AcDbEntity
  8
F.Fab
 62
256
370
-1
 48
1.0
  6
BYLAYER
100
AcDbPolyline
 90
2
 70
128
 10
10.4800486875528236
 20
-2.4299851820491085
 10
10.8500740897543437
 20
-2.4299851820491369
  0
LWPOLYLINE
  5
117
100
AcDbEntity
  8
F.Fab
 62
256
370
-1
 48
1.0
  6
BYLAYER
100
AcDbPolyline
 90
2
 70
128
 10
-11.150031752751886
 20
-1.7997988992379419
 10
-11.7501587637595435
 20
-1.7997988992379419
  0
LWPOLYLINE
  5
118
100
AcDbEntity
  8
F.Fab
 62
256
370
-1
 48
1.0
  6
BYLAYER
100
AcDbPolyline
 90
2
 70
128
 10
11.1500317527517723
 20
-1.7997988992379419
 10
11.7501587637594298
 20
-1.7997988992379419
  0
LWPOLYLINE
  5
119
100
AcDbEntity
  8
F.Fab
 62
256
370
-1
 48
1.0
  6
BYLAYER
100
AcDbPolyline
 90
2
 70
128
 10
-12.2001905165114408
 20
-2.8500740897544574
 10
-12.2001905165114408
 20
-3.3498624047417422
  0
LWPOLYLINE
  5
11A
100
AcDbEntity
  8
F.Fab
 62
256
370
-1
 48
1.0
  6
BYLAYER
100
AcDbPolyline
 90
2
 70
128
 10
12.2001905165113271
 20
-2.8500740897544574
 10
12.2001905165113271
 20
-3.3498624047417422
  0
LWPOLYLINE
  5
11B
100
AcDbEntity
  8
F.Fab
 62
256
370
-1
 48
1.0
  6
BYLAYER
100
AcDbPolyline
 90
2
 70
128
 10
-12.7502011007620695
 20
-2.6000740897544574
 10
-12.7502011007620695
 20
-2.8500740897544574
  0
LWPOLYLINE
  5
11C
100
AcDbEntity
  8
F.Fab
 62
256
370
-1
 48
1.0
  6
BYLAYER
100
AcDbPolyline
 90
2
 70
128
 10
12.7502011007619558
 20
-2.6000740897544574
 10
12.7502011007619558
 20
-2.8500740897544574
  0
LWPOLYLINE
  5
11D
100
AcDbEntity
  8
F.Fab
 62
256
370
-1
 48
1.0
  6
BYLAYER
100
AcDbPolyline
 90
2
 70
128
 10
-12.7502011007620695
 20
-3.3498624047417707
 10
-12.7502011007620695
 20
-3.5998624047417707
  0
LWPOLYLINE
  5
11E
100
AcDbEntity
  8
F.Fab
 62
256
370
-1
 48
1.0
  6
BYLAYER
100
AcDbPolyline
 90
2
 70
128
 10
12.7502011007619558
 20
-3.3498624047417707
 10
12.7502011007619558
 20
-3.5998624047417707
  0
LWPOLYLINE
  5
11F
100
AcDbEntity
  8
F.Fab
 62
256
370
-1
 48
1.0
  6
BYLAYER
100
AcDbPolyline
 90
2
 70
128
 10
-11.9501375952582407
 20
-1.9997353937341131
 10
-11.9501375952582407
 20
-2.5000529212532001
  0
LWPOLYLINE
  5
120
100
AcDbEntity
  8
F.Fab
 62
256
370
-1
 48
1.0
  6
BYLAYER
100
AcDbPolyline
 90
2
 70
128
 10
11.950137595258127
 20
-1.9997353937341131
 10
11.950137595258127
 20
-2.5000529212532001
  0
LWPOLYLINE
  5
121
100
AcDbEntity
  8
F.Fab
 62
256
370
-1
 48
1.0
  6
BYLAYER
100
AcDbPolyline
 90
2
 70
128
 10
-12.2001905165114408
 20
-2.8500740897544574
 10
-12.7502011007620695
 20
-2.8500740897544574
  0
LWPOLYLINE
  5
122
100
AcDbEntity
  8
F.Fab
 62
256
370
-1
 48
1.0
  6
BYLAYER
100
AcDbPolyline
 90
2
 70
128
 10
12.2001905165113271
 20
-2.8500740897544574
 10
12.7502011007619558
 20
-2.8500740897544574
  0
LWPOLYLINE
  5
123
100
AcDbEntity
  8
F.Fab
 62
256
370
-1
 48
1.0
  6
BYLAYER
100
AcDbPolyline
 90
2
 70
128
 10
-12.2001905165114408
 20
-3.3498624047417422
 10
-12.7502011007620695
 20
-3.3498624047417707
  0
LWPOLYLINE
  5
124
100
AcDbEntity
  8
F.Fab
 62
256
370
-1
 48
1.0
  6
BYLAYER
100
AcDbPolyline
 90
2
 70
128
 10
12.2001905165113271
 20
-3.3498624047417422
 10
12.7502011007619558
 20
-3.3498624047417707
  0
LWPOLYLINE
  5
125
100
AcDbEntity
  8
F.Fab
 62
256
370
-1
 48
1.0
  6
BYLAYER
100
AcDbPolyline
 90
2
 70
128
 10
-11.0800698560541946
 20
-3.6000740897544574
 10
-12.7502011007620695
 20
-3.5998624047417707
  0
LWPOLYLINE
  5
126
100
AcDbEntity
  8
F.Fab
 62
256
370
-1
 48
1.0
  6
BYLAYER
100
AcDbPolyline
 90
2
 70
128
 10
11.0800698560540809
 20
-3.6000740897544574
 10
12.7502011007619558
 20
-3.5998624047417707
  0
LWPOLYLINE
  5
127
100
AcDbEntity
  8
F.Fab
 62
256
370
-1
 48
1.0
  6
BYLAYER
100
AcDbPolyline
 90
2
 70
128
 10
-12.050158763759498
 20
-2.6000740897544574
 10
-12.7502011007620695
 20
-2.6000740897544574
  0
LWPOLYLINE
  5
128
100
AcDbEntity
  8
F.Fab
 62
256
370
-1
 48
1.0
  6
BYLAYER
100
AcDbPolyline
 90
2
 70
128
 10
12.0501587637593843
 20
-2.6000740897544574
 10
12.7502011007619558
 20
-2.6000740897544574
  0
LWPOLYLINE
  5
129
100
AcDbEntity
  8
F.Fab
 62
256
370
-1
 48
1.0
  6
BYLAYER
100
AcDbPolyline
 90
2
 70
128
 10
-12.150169348010138
 20
-2.6000740897544574
 10
-12.150169348010138
 20
-0.2999047417443137
  0
LWPOLYLINE
  5
12A
100
AcDbEntity
  8
F.Fab
 62
256
370
-1
 48
1.0
  6
BYLAYER
100
AcDbPolyline
 90
2
 70
128
 10
12.1501693480100244
 20
-2.6000740897544574
 10
12.1501693480100244
 20
-0.2999047417443137
  0
LWPOLYLINE
  5
12B
100
AcDbEntity
  8
F.Fab
 62
256
370
-1
 48
1.0
  6
BYLAYER
100
AcDbPolyline
 90
2
 70
128
 10
-12.150169348010138
 20
-4.2290961049957616
 10
-12.150169348010138
 20
-3.6002857747671442
  0
LWPOLYLINE
  5
12C
100
AcDbEntity
  8
F.Fab
 62
256
370
-1
 48
1.0
  6
BYLAYER
100
AcDbPolyline
 90
2
 70
128
 10
12.1501693480100244
 20
-4.2290961049957616
 10
12.1501693480100244
 20
-3.6002857747671442
  0
LWPOLYLINE
  5
12D
100
AcDbEntity
  8
F.Fab
 62
256
370
-1
 48
1.0
  6
BYLAYER
100
AcDbPolyline
 90
2
 70
128
 10
-10.2500529212532001
 20
-0.2999047417443137
 10
-12.150169348010138
 20
-0.2999047417443137
  0
LWPOLYLINE
  5
12E
100
AcDbEntity
  8
F.Fab
 62
256
370
-1
 48
1.0
  6
BYLAYER
100
AcDbPolyline
 90
2
 70
128
 10
10.2500529212530864
 20
-0.2999047417443137
 10
12.1501693480100244
 20
-0.2999047417443137
  0
LWPOLYLINE
  5
12F
100
AcDbEntity
  8
F.Fab
 62
256
370
-1
 48
1.0
  6
BYLAYER
100
AcDbPolyline
 90
2
 70
128
 10
-10.2500529212532001
 20
-0.3998200677392276
 10
-10.2500529212532001
 20
-0.2999047417443137
  0
LWPOLYLINE
  5
130
100
AcDbEntity
  8
F.Fab
 62
256
370
-1
 48
1.0
  6
BYLAYER
100
AcDbPolyline
 90
2
 70
128
 10
10.2500529212530864
 20
-0.3998200677392276
 10
10.2500529212530864
 20
-0.2999047417443137
  0
LWPOLYLINE
  5
131
100
AcDbEntity
  8
F.Fab
 62
256
370
-1
 48
1.0
  6
BYLAYER
100
AcDbPolyline
 90
2
 70
128
 10
-12.8002328535139327
 20
-4.3499682472480856
 10
-12.8002328535139327
 20
-5.0502434377645784
  0
LWPOLYLINE
  5
132
100
AcDbEntity
  8
F.Fab
 62
256
370
-1
 48
1.0
  6
BYLAYER
100
AcDbPolyline
 90
2
 70
128
 10
12.800232853513819
 20
-4.3499682472480856
 10
12.800232853513819
 20
-5.0502434377645784
  0
LWPOLYLINE
  5
133
100
AcDbEntity
  8
F.Fab
 62
256
370
-1
 48
1.0
  6
BYLAYER
100
AcDbPolyline
 90
2
 70
128
 10
-12.7002222692632927
 20
-4.2499470787468283
 10
-12.2501799322607781
 20
-4.2499470787468283
  0
LWPOLYLINE
  5
134
100
AcDbEntity
  8
F.Fab
 62
256
370
-1
 48
1.0
  6
BYLAYER
100
AcDbPolyline
 90
2
 70
128
 10
12.700222269263179
 20
-4.2499470787468283
 10
12.2501799322606644
 20
-4.2499470787468283
  0
LWPOLYLINE
  5
135
100
AcDbEntity
  8
F.Fab
 62
256
370
-1
 48
1.0
  6
BYLAYER
100
AcDbPolyline
 90
2
 70
128
 10
-12.5502222692633154
 20
-5.3002963590177785
 10
12.5502222692632586
 20
-5.3002540220151388
  0
LWPOLYLINE
  5
136
100
AcDbEntity
  8
F.Cu
 62
256
370
-1
 48
1.0
  6
BYLAYER
100
AcDbPolyline
 90
2
 70
128
 10
-12.2501799322607781
 20
-1.5003704487722587
 10
-10.650031752751886
 20
-1.5001587637595435
  0
LWPOLYLINE
  5
137
100
AcDbEntity
  8
F.Cu
 62
256
370
-1
 48
1.0
  6
BYLAYER
100
AcDbPolyline
 90
2
 70
128
 10
12.2501799322606644
 20
-1.5003704487722587
 10
10.6500317527517723
 20
-1.5001587637595435
  0
LWPOLYLINE
  5
138
100
AcDbEntity
  8
F.Cu
 62
256
370
-1
 48
1.0
  6
BYLAYER
100
AcDbPolyline
 90
2
 70
128
 10
-12.2501799322607781
 20
-2.300433954276059
 10
-12.2501799322607781
 20
-1.5003704487722587
  0
LWPOLYLINE
  5
139
100
AcDbEntity
  8
F.Cu
 62
256
370
-1
 48
1.0
  6
BYLAYER
100
AcDbPolyline
 90
2
 70
128
 10
12.2501799322606644
 20
-2.300433954276059
 10
12.2501799322606644
 20
-1.5003704487722587
  0
LWPOLYLINE
  5
13A
100
AcDbEntity
  8
F.Cu
 62
256
370
-1
 48
1.0
  6
BYLAYER
100
AcDbPolyline
 90
2
 70
128
 10
-13.0502434377646068
 20
-2.300433954276059
 10
-12.2501799322607781
 20
-2.300433954276059
  0
LWPOLYLINE
  5
13B
100
AcDbEntity
  8
F.Cu
 62
256
370
-1
 48
1.0
  6
BYLAYER
100
AcDbPolyline
 90
2
 70
128
 10
13.0502434377644931
 20
-2.300433954276059
 10
12.2501799322606644
 20
-2.300433954276059
  0
LWPOLYLINE
  5
13C
100
AcDbEntity
  8
F.Cu
 62
256
370
-1
 48
1.0
  6
BYLAYER
100
AcDbPolyline
 90
2
 70
128
 10
-13.0502434377646068
 20
-3.9003492802709445
 10
-13.0502434377646068
 20
-2.300433954276059
  0
LWPOLYLINE
  5
13D
100
AcDbEntity
  8
F.Cu
 62
256
370
-1
 48
1.0
  6
BYLAYER
100
AcDbPolyline
 90
2
 70
128
 10
13.0502434377644931
 20
-3.9003492802709445
 10
13.0502434377644931
 20
-2.300433954276059
  0
LWPOLYLINE
  5
13E
100
AcDbEntity
  8
F.Cu
 62
256
370
-1
 48
1.0
  6
BYLAYER
100
AcDbPolyline
 90
2
 70
128
 10
-10.650031752751886
 20
-3.9003492802709445
 10
-13.0502434377646068
 20
-3.9003492802709445
  0
LWPOLYLINE
  5
13F
100
AcDbEntity
  8
F.Cu
 62
256
370
-1
 48
1.0
  6
BYLAYER
100
AcDbPolyline
 90
2
 70
128
 10
10.6500317527517723
 20
-3.9003492802709445
 10
13.0502434377644931
 20
-3.9003492802709445
  0
LWPOLYLINE
  5
140
100
AcDbEntity
  8
F.Cu
 62
256
370
-1
 48
1.0
  6
BYLAYER
100
AcDbPolyline
 90
2
 70
128
 10
-10.650031752751886
 20
-1.5001587637595435
 10
-10.650031752751886
 20
-3.9003492802709445
  0
LWPOLYLINE
  5
141
100
AcDbEntity
  8
F.Cu
 62
256
370
-1
 48
1.0
  6
BYLAYER
100
AcDbPolyline
 90
2
 70
128
 10
10.6500317527517723
 20
-1.5001587637595435
 10
10.6500317527517723
 20
-3.9003492802709445
  0
LWPOLYLINE
  5
142
100
AcDbEntity
  8
F.Cu
 62
256
370
-1
 48
1.0
  6
BYLAYER
100
AcDbPolyline
 90
2
 70
128
 10
-9.9000317527519428
 20
-0.6000740897544858
 10
-9.9000317527519428
 20
0.6000740897544006
  0
LWPOLYLINE
  5
143
100
AcDbEntity
  8
F.Cu
 62
256
370
-1
 48
1.0
  6
BYLAYER
100
AcDbPolyline
 90
2
 70
128
 10
-9.4000317527519428
 20
-0.6000740897544858
 10
-9.4000317527519428
 20
0.6000740897544006
  0
LWPOLYLINE
  5
144
100
AcDbEntity
  8
F.Cu
 62
256
370
-1
 48
1.0
  6
BYLAYER
100
AcDbPolyline
 90
2
 70
128
 10
-8.9000317527519428
 20
-0.6000740897544858
 10
-8.9000317527519428
 20
0.6000740897544006
  0
LWPOLYLINE
  5
145
100
AcDbEntity
  8
F.Cu
 62
256
370
-1
 48
1.0
  6
BYLAYER
100
AcDbPolyline
 90
2
 70
128
 10
-8.4000317527519428
 20
-0.6000740897544858
 10
-8.4000317527519428
 20
0.6000740897544006
  0
LWPOLYLINE
  5
146
100
AcDbEntity
  8
F.Cu
 62
256
370
-1
 48
1.0
  6
BYLAYER
100
AcDbPolyline
 90
2
 70
128
 10
-7.9000317527519428
 20
-0.6000740897544858
 10
-7.9000317527519428
 20
0.6000740897544006
  0
LWPOLYLINE
  5
147
100
AcDbEntity
  8
F.Cu
 62
256
370
-1
 48
1.0
  6
BYLAYER
100
AcDbPolyline
 90
2
 70
128
 10
-7.4000317527519428
 20
-0.6000740897544858
 10
-7.4000317527519428
 20
0.6000740897544006
  0
LWPOLYLINE
  5
148
100
AcDbEntity
  8
F.Cu
 62
256
370
-1
 48
1.0
  6
BYLAYER
100
AcDbPolyline
 90
2
 70
128
 10
-6.9000317527519428
 20
-0.6000740897544858
 10
-6.9000317527519428
 20
0.6000740897544006
  0
LWPOLYLINE
  5
149
100
AcDbEntity
  8
F.Cu
 62
256
370
-1
 48
1.0
  6
BYLAYER
100
AcDbPolyline
 90
2
 70
128
 10
-6.4000317527519428
 20
-0.6000740897544858
 10
-6.4000317527519428
 20
0.6000740897544006
  0
LWPOLYLINE
  5
14A
100
AcDbEntity
  8
F.Cu
 62
256
370
-1
 48
1.0
  6
BYLAYER
100
AcDbPolyline
 90
2
 70
128
 10
-5.9000317527519428
 20
-0.6000740897544858
 10
-5.9000317527519428
 20
0.6000740897544006
  0
LWPOLYLINE
  5
14B
100
AcDbEntity
  8
F.Cu
 62
256
370
-1
 48
1.0
  6
BYLAYER
100
AcDbPolyline
 90
2
 70
128
 10
-5.4000317527519428
 20
-0.6000740897544858
 10
-5.4000317527519428
 20
0.6000740897544006
  0
LWPOLYLINE
  5
14C
100
AcDbEntity
  8
F.Cu
 62
256
370
-1
 48
1.0
  6
BYLAYER
100
AcDbPolyline
 90
2
 70
128
 10
-4.9000317527519428
 20
-0.6000740897544858
 10
-4.9000317527519428
 20
0.6000740897544006
  0
LWPOLYLINE
  5
14D
100
AcDbEntity
  8
F.Cu
 62
256
370
-1
 48
1.0
  6
BYLAYER
100
AcDbPolyline
 90
2
 70
128
 10
-4.4000317527519428
 20
-0.6000740897544858
 10
-4.4000317527519428
 20
0.6000740897544006
  0
LWPOLYLINE
  5
14E
100
AcDbEntity
  8
F.Cu
 62
256
370
-1
 48
1.0
  6
BYLAYER
100
AcDbPolyline
 90
2
 70
128
 10
-3.9000317527519428
 20
-0.6000740897544858
 10
-3.9000317527519428
 20
0.6000740897544006
  0
LWPOLYLINE
  5
14F
100
AcDbEntity
  8
F.Cu
 62
256
370
-1
 48
1.0
  6
BYLAYER
100
AcDbPolyline
 90
2
 70
128
 10
-3.4000317527519428
 20
-0.6000740897544858
 10
-3.4000317527519428
 20
0.6000740897544006
  0
LWPOLYLINE
  5
150
100
AcDbEntity
  8
F.Cu
 62
256
370
-1
 48
1.0
  6
BYLAYER
100
AcDbPolyline
 90
2
 70
128
 10
-2.9000317527519428
 20
-0.6000740897544858
 10
-2.9000317527519428
 20
0.6000740897544006
  0
LWPOLYLINE
  5
151
100
AcDbEntity
  8
F.Cu
 62
256
370
-1
 48
1.0
  6
BYLAYER
100
AcDbPolyline
 90
2
 70
128
 10
-2.4000317527519428
 20
-0.6000740897544858
 10
-2.4000317527519428
 20
0.6000740897544006
  0
LWPOLYLINE
  5
152
100
AcDbEntity
  8
F.Cu
 62
256
370
-1
 48
1.0
  6
BYLAYER
100
AcDbPolyline
 90
2
 70
128
 10
-1.9000317527519428
 20
-0.6000740897544858
 10
-1.9000317527519428
 20
0.6000740897544006
  0
LWPOLYLINE
  5
153
100
AcDbEntity
  8
F.Cu
 62
256
370
-1
 48
1.0
  6
BYLAYER
100
AcDbPolyline
 90
2
 70
128
 10
-1.4000317527519428
 20
-0.6000740897544858
 10
-1.4000317527519428
 20
0.6000740897544006
  0
LWPOLYLINE
  5
154
100
AcDbEntity
  8
F.Cu
 62
256
370
-1
 48
1.0
  6
BYLAYER
100
AcDbPolyline
 90
2
 70
128
 10
-0.9000317527519428
 20
-0.6000740897544858
 10
-0.9000317527519428
 20
0.6000740897544006
  0
LWPOLYLINE
  5
155
100
AcDbEntity
  8
F.Cu
 62
256
370
-1
 48
1.0
  6
BYLAYER
100
AcDbPolyline
 90
2
 70
128
 10
-0.4000317527519428
 20
-0.6000740897544858
 10
-0.4000317527519428
 20
0.6000740897544006
  0
LWPOLYLINE
  5
156
100
AcDbEntity
  8
F.Cu
 62
256
370
-1
 48
1.0
  6
BYLAYER
100
AcDbPolyline
 90
2
 70
128
 10
0.0999682472480572
 20
-0.6000740897544858
 10
0.0999682472480572
 20
0.6000740897544006
  0
LWPOLYLINE
  5
157
100
AcDbEntity
  8
F.Cu
 62
256
370
-1
 48
1.0
  6
BYLAYER
100
AcDbPolyline
 90
2
 70
128
 10
0.5999682472480572
 20
-0.6000740897544858
 10
0.5999682472480572
 20
0.6000740897544006
  0
LWPOLYLINE
  5
158
100
AcDbEntity
  8
F.Cu
 62
256
370
-1
 48
1.0
  6
BYLAYER
100
AcDbPolyline
 90
2
 70
128
 10
1.0999682472480572
 20
-0.6000740897544858
 10
1.0999682472480572
 20
0.6000740897544006
  0
LWPOLYLINE
  5
159
100
AcDbEntity
  8
F.Cu
 62
256
370
-1
 48
1.0
  6
BYLAYER
100
AcDbPolyline
 90
2
 70
128
 10
1.5999682472480572
 20
-0.6000740897544858
 10
1.5999682472480572
 20
0.6000740897544006
  0
LWPOLYLINE
  5
15A
100
AcDbEntity
  8
F.Cu
 62
256
370
-1
 48
1.0
  6
BYLAYER
100
AcDbPolyline
 90
2
 70
128
 10
2.0999682472480572
 20
-0.6000740897544858
 10
2.0999682472480572
 20
0.6000740897544006
  0
LWPOLYLINE
  5
15B
100
AcDbEntity
  8
F.Cu
 62
256
370
-1
 48
1.0
  6
BYLAYER
100
AcDbPolyline
 90
2
 70
128
 10
2.5999682472480572
 20
-0.6000740897544858
 10
2.5999682472480572
 20
0.6000740897544006
  0
LWPOLYLINE
  5
15C
100
AcDbEntity
  8
F.Cu
 62
256
370
-1
 48
1.0
  6
BYLAYER
100
AcDbPolyline
 90
2
 70
128
 10
3.0999682472480572
 20
-0.6000740897544858
 10
3.0999682472480572
 20
0.6000740897544006
  0
LWPOLYLINE
  5
15D
100
AcDbEntity
  8
F.Cu
 62
256
370
-1
 48
1.0
  6
BYLAYER
100
AcDbPolyline
 90
2
 70
128
 10
3.5999682472480572
 20
-0.6000740897544858
 10
3.5999682472480572
 20
0.6000740897544006
  0
LWPOLYLINE
  5
15E
100
AcDbEntity
  8
F.Cu
 62
256
370
-1
 48
1.0
  6
BYLAYER
100
AcDbPolyline
 90
2
 70
128
 10
4.0999682472480572
 20
-0.6000740897544858
 10
4.0999682472480572
 20
0.6000740897544006
  0
LWPOLYLINE
  5
15F
100
AcDbEntity
  8
F.Cu
 62
256
370
-1
 48
1.0
  6
BYLAYER
100
AcDbPolyline
 90
2
 70
128
 10
4.5999682472480572
 20
-0.6000740897544858
 10
4.5999682472480572
 20
0.6000740897544006
  0
LWPOLYLINE
  5
160
100
AcDbEntity
  8
F.Cu
 62
256
370
-1
 48
1.0
  6
BYLAYER
100
AcDbPolyline
 90
2
 70
128
 10
5.0999682472480572
 20
-0.6000740897544858
 10
5.0999682472480572
 20
0.6000740897544006
  0
LWPOLYLINE
  5
161
100
AcDbEntity
  8
F.Cu
 62
256
370
-1
 48
1.0
  6
BYLAYER
100
AcDbPolyline
 90
2
 70
128
 10
5.5999682472480572
 20
-0.6000740897544858
 10
5.5999682472480572
 20
0.6000740897544006
  0
LWPOLYLINE
  5
162
100
AcDbEntity
  8
F.Cu
 62
256
370
-1
 48
1.0
  6
BYLAYER
100
AcDbPolyline
 90
2
 70
128
 10
6.0999682472480572
 20
-0.6000740897544858
 10
6.0999682472480572
 20
0.6000740897544006
  0
LWPOLYLINE
  5
163
100
AcDbEntity
  8
F.Cu
 62
256
370
-1
 48
1.0
  6
BYLAYER
100
AcDbPolyline
 90
2
 70
128
 10
6.5999682472480572
 20
-0.6000740897544858
 10
6.5999682472480572
 20
0.6000740897544006
  0
LWPOLYLINE
  5
164
100
AcDbEntity
  8
F.Cu
 62
256
370
-1
 48
1.0
  6
BYLAYER
100
AcDbPolyline
 90
2
 70
128
 10
7.0999682472480572
 20
-0.6000740897544858
 10
7.0999682472480572
 20
0.6000740897544006
  0
LWPOLYLINE
  5
165
100
AcDbEntity
  8
F.Cu
 62
256
370
-1
 48
1.0
  6
BYLAYER
100
AcDbPolyline
 90
2
 70
128
 10
7.5999682472480572
 20
-0.6000740897544858
 10
7.5999682472480572
 20
0.6000740897544006
  0
LWPOLYLINE
  5
166
100
AcDbEntity
  8
F.Cu
 62
256
370
-1
 48
1.0
  6
BYLAYER
100
AcDbPolyline
 90
2
 70
128
 10
8.0999682472480572
 20
-0.6000740897544858
 10
8.0999682472480572
 20
0.6000740897544006
  0
LWPOLYLINE
  5
167
100
AcDbEntity
  8
F.Cu
 62
256
370
-1
 48
1.0
  6
BYLAYER
100
AcDbPolyline
 90
2
 70
128
 10
8.5999682472480572
 20
-0.6000740897544858
 10
8.5999682472480572
 20
0.6000740897544006
  0
LWPOLYLINE
  5
168
100
AcDbEntity
  8
F.Cu
 62
256
370
-1
 48
1.0
  6
BYLAYER
100
AcDbPolyline
 90
2
 70
128
 10
9.0999682472480572
 20
-0.6000740897544858
 10
9.0999682472480572
 20
0.6000740897544006
  0
LWPOLYLINE
  5
169
100
AcDbEntity
  8
F.Cu
 62
256
370
-1
 48
1.0
  6
BYLAYER
100
AcDbPolyline
 90
2
 70
128
 10
9.5999682472480572
 20
-0.6000740897544858
 10
9.5999682472480572
 20
0.6000740897544006
  0
LWPOLYLINE
  5
16A
100
AcDbEntity
  8
F.Cu
 62
256
370
-1
 48
1.0
  6
BYLAYER
100
AcDbPolyline
 90
2
 70
128
 10
-9.599968247248114
 20
-0.6000740897544858
 10
-9.9000317527519428
 20
-0.6000740897544858
  0
LWPOLYLINE
  5
16B
100
AcDbEntity
  8
F.Cu
 62
256
370
-1
 48
1.0
  6
BYLAYER
100
AcDbPolyline
 90
2
 70
128
 10
-9.099968247248114
 20
-0.6000740897544858
 10
-9.4000317527519428
 20
-0.6000740897544858
  0
LWPOLYLINE
  5
16C
100
AcDbEntity
  8
F.Cu
 62
256
370
-1
 48
1.0
  6
BYLAYER
100
AcDbPolyline
 90
2
 70
128
 10
-8.599968247248114
 20
-0.6000740897544858
 10
-8.9000317527519428
 20
-0.6000740897544858
  0
LWPOLYLINE
  5
16D
100
AcDbEntity
  8
F.Cu
 62
256
370
-1
 48
1.0
  6
BYLAYER
100
AcDbPolyline
 90
2
 70
128
 10
-8.099968247248114
 20
-0.6000740897544858
 10
-8.4000317527519428
 20
-0.6000740897544858
  0
LWPOLYLINE
  5
16E
100
AcDbEntity
  8
F.Cu
 62
256
370
-1
 48
1.0
  6
BYLAYER
100
AcDbPolyline
 90
2
 70
128
 10
-7.599968247248114
 20
-0.6000740897544858
 10
-7.9000317527519428
 20
-0.6000740897544858
  0
LWPOLYLINE
  5
16F
100
AcDbEntity
  8
F.Cu
 62
256
370
-1
 48
1.0
  6
BYLAYER
100
AcDbPolyline
 90
2
 70
128
 10
-7.099968247248114
 20
-0.6000740897544858
 10
-7.4000317527519428
 20
-0.6000740897544858
  0
LWPOLYLINE
  5
170
100
AcDbEntity
  8
F.Cu
 62
256
370
-1
 48
1.0
  6
BYLAYER
100
AcDbPolyline
 90
2
 70
128
 10
-6.599968247248114
 20
-0.6000740897544858
 10
-6.9000317527519428
 20
-0.6000740897544858
  0
LWPOLYLINE
  5
171
100
AcDbEntity
  8
F.Cu
 62
256
370
-1
 48
1.0
  6
BYLAYER
100
AcDbPolyline
 90
2
 70
128
 10
-6.099968247248114
 20
-0.6000740897544858
 10
-6.4000317527519428
 20
-0.6000740897544858
  0
LWPOLYLINE
  5
172
100
AcDbEntity
  8
F.Cu
 62
256
370
-1
 48
1.0
  6
BYLAYER
100
AcDbPolyline
 90
2
 70
128
 10
-5.599968247248114
 20
-0.6000740897544858
 10
-5.9000317527519428
 20
-0.6000740897544858
  0
LWPOLYLINE
  5
173
100
AcDbEntity
  8
F.Cu
 62
256
370
-1
 48
1.0
  6
BYLAYER
100
AcDbPolyline
 90
2
 70
128
 10
-5.099968247248114
 20
-0.6000740897544858
 10
-5.4000317527519428
 20
-0.6000740897544858
  0
LWPOLYLINE
  5
174
100
AcDbEntity
  8
F.Cu
 62
256
370
-1
 48
1.0
  6
BYLAYER
100
AcDbPolyline
 90
2
 70
128
 10
-4.599968247248114
 20
-0.6000740897544858
 10
-4.9000317527519428
 20
-0.6000740897544858
  0
LWPOLYLINE
  5
175
100
AcDbEntity
  8
F.Cu
 62
256
370
-1
 48
1.0
  6
BYLAYER
100
AcDbPolyline
 90
2
 70
128
 10
-4.099968247248114
 20
-0.6000740897544858
 10
-4.4000317527519428
 20
-0.6000740897544858
  0
LWPOLYLINE
  5
176
100
AcDbEntity
  8
F.Cu
 62
256
370
-1
 48
1.0
  6
BYLAYER
100
AcDbPolyline
 90
2
 70
128
 10
-3.599968247248114
 20
-0.6000740897544858
 10
-3.9000317527519428
 20
-0.6000740897544858
  0
LWPOLYLINE
  5
177
100
AcDbEntity
  8
F.Cu
 62
256
370
-1
 48
1.0
  6
BYLAYER
100
AcDbPolyline
 90
2
 70
128
 10
-3.099968247248114
 20
-0.6000740897544858
 10
-3.4000317527519428
 20
-0.6000740897544858
  0
LWPOLYLINE
  5
178
100
AcDbEntity
  8
F.Cu
 62
256
370
-1
 48
1.0
  6
BYLAYER
100
AcDbPolyline
 90
2
 70
128
 10
-2.599968247248114
 20
-0.6000740897544858
 10
-2.9000317527519428
 20
-0.6000740897544858
  0
LWPOLYLINE
  5
179
100
AcDbEntity
  8
F.Cu
 62
256
370
-1
 48
1.0
  6
BYLAYER
100
AcDbPolyline
 90
2
 70
128
 10
-2.099968247248114
 20
-0.6000740897544858
 10
-2.4000317527519428
 20
-0.6000740897544858
  0
LWPOLYLINE
  5
17A
100
AcDbEntity
  8
F.Cu
 62
256
370
-1
 48
1.0
  6
BYLAYER
100
AcDbPolyline
 90
2
 70
128
 10
-1.599968247248114
 20
-0.6000740897544858
 10
-1.9000317527519428
 20
-0.6000740897544858
  0
LWPOLYLINE
  5
17B
100
AcDbEntity
  8
F.Cu
 62
256
370
-1
 48
1.0
  6
BYLAYER
100
AcDbPolyline
 90
2
 70
128
 10
-1.099968247248114
 20
-0.6000740897544858
 10
-1.4000317527519428
 20
-0.6000740897544858
  0
LWPOLYLINE
  5
17C
100
AcDbEntity
  8
F.Cu
 62
256
370
-1
 48
1.0
  6
BYLAYER
100
AcDbPolyline
 90
2
 70
128
 10
-0.599968247248114
 20
-0.6000740897544858
 10
-0.9000317527519428
 20
-0.6000740897544858
  0
LWPOLYLINE
  5
17D
100
AcDbEntity
  8
F.Cu
 62
256
370
-1
 48
1.0
  6
BYLAYER
100
AcDbPolyline
 90
2
 70
128
 10
-0.099968247248114
 20
-0.6000740897544858
 10
-0.4000317527519428
 20
-0.6000740897544858
  0
LWPOLYLINE
  5
17E
100
AcDbEntity
  8
F.Cu
 62
256
370
-1
 48
1.0
  6
BYLAYER
100
AcDbPolyline
 90
2
 70
128
 10
0.400031752751886
 20
-0.6000740897544858
 10
0.0999682472480572
 20
-0.6000740897544858
  0
LWPOLYLINE
  5
17F
100
AcDbEntity
  8
F.Cu
 62
256
370
-1
 48
1.0
  6
BYLAYER
100
AcDbPolyline
 90
2
 70
128
 10
0.900031752751886
 20
-0.6000740897544858
 10
0.5999682472480572
 20
-0.6000740897544858
  0
LWPOLYLINE
  5
180
100
AcDbEntity
  8
F.Cu
 62
256
370
-1
 48
1.0
  6
BYLAYER
100
AcDbPolyline
 90
2
 70
128
 10
1.400031752751886
 20
-0.6000740897544858
 10
1.0999682472480572
 20
-0.6000740897544858
  0
LWPOLYLINE
  5
181
100
AcDbEntity
  8
F.Cu
 62
256
370
-1
 48
1.0
  6
BYLAYER
100
AcDbPolyline
 90
2
 70
128
 10
1.900031752751886
 20
-0.6000740897544858
 10
1.5999682472480572
 20
-0.6000740897544858
  0
LWPOLYLINE
  5
182
100
AcDbEntity
  8
F.Cu
 62
256
370
-1
 48
1.0
  6
BYLAYER
100
AcDbPolyline
 90
2
 70
128
 10
2.400031752751886
 20
-0.6000740897544858
 10
2.0999682472480572
 20
-0.6000740897544858
  0
LWPOLYLINE
  5
183
100
AcDbEntity
  8
F.Cu
 62
256
370
-1
 48
1.0
  6
BYLAYER
100
AcDbPolyline
 90
2
 70
128
 10
2.900031752751886
 20
-0.6000740897544858
 10
2.5999682472480572
 20
-0.6000740897544858
  0
LWPOLYLINE
  5
184
100
AcDbEntity
  8
F.Cu
 62
256
370
-1
 48
1.0
  6
BYLAYER
100
AcDbPolyline
 90
2
 70
128
 10
3.400031752751886
 20
-0.6000740897544858
 10
3.0999682472480572
 20
-0.6000740897544858
  0
LWPOLYLINE
  5
185
100
AcDbEntity
  8
F.Cu
 62
256
370
-1
 48
1.0
  6
BYLAYER
100
AcDbPolyline
 90
2
 70
128
 10
3.900031752751886
 20
-0.6000740897544858
 10
3.5999682472480572
 20
-0.6000740897544858
  0
LWPOLYLINE
  5
186
100
AcDbEntity
  8
F.Cu
 62
256
370
-1
 48
1.0
  6
BYLAYER
100
AcDbPolyline
 90
2
 70
128
 10
4.400031752751886
 20
-0.6000740897544858
 10
4.0999682472480572
 20
-0.6000740897544858
  0
LWPOLYLINE
  5
187
100
AcDbEntity
  8
F.Cu
 62
256
370
-1
 48
1.0
  6
BYLAYER
100
AcDbPolyline
 90
2
 70
128
 10
4.900031752751886
 20
-0.6000740897544858
 10
4.5999682472480572
 20
-0.6000740897544858
  0
LWPOLYLINE
  5
188
100
AcDbEntity
  8
F.Cu
 62
256
370
-1
 48
1.0
  6
BYLAYER
100
AcDbPolyline
 90
2
 70
128
 10
5.400031752751886
 20
-0.6000740897544858
 10
5.0999682472480572
 20
-0.6000740897544858
  0
LWPOLYLINE
  5
189
100
AcDbEntity
  8
F.Cu
 62
256
370
-1
 48
1.0
  6
BYLAYER
100
AcDbPolyline
 90
2
 70
128
 10
5.900031752751886
 20
-0.6000740897544858
 10
5.5999682472480572
 20
-0.6000740897544858
  0
LWPOLYLINE
  5
18A
100
AcDbEntity
  8
F.Cu
 62
256
370
-1
 48
1.0
  6
BYLAYER
100
AcDbPolyline
 90
2
 70
128
 10
6.400031752751886
 20
-0.6000740897544858
 10
6.0999682472480572
 20
-0.6000740897544858
  0
LWPOLYLINE
  5
18B
100
AcDbEntity
  8
F.Cu
 62
256
370
-1
 48
1.0
  6
BYLAYER
100
AcDbPolyline
 90
2
 70
128
 10
6.900031752751886
 20
-0.6000740897544858
 10
6.5999682472480572
 20
-0.6000740897544858
  0
LWPOLYLINE
  5
18C
100
AcDbEntity
  8
F.Cu
 62
256
370
-1
 48
1.0
  6
BYLAYER
100
AcDbPolyline
 90
2
 70
128
 10
7.400031752751886
 20
-0.6000740897544858
 10
7.0999682472480572
 20
-0.6000740897544858
  0
LWPOLYLINE
  5
18D
100
AcDbEntity
  8
F.Cu
 62
256
370
-1
 48
1.0
  6
BYLAYER
100
AcDbPolyline
 90
2
 70
128
 10
7.900031752751886
 20
-0.6000740897544858
 10
7.5999682472480572
 20
-0.6000740897544858
  0
LWPOLYLINE
  5
18E
100
AcDbEntity
  8
F.Cu
 62
256
370
-1
 48
1.0
  6
BYLAYER
100
AcDbPolyline
 90
2
 70
128
 10
8.400031752751886
 20
-0.6000740897544858
 10
8.0999682472480572
 20
-0.6000740897544858
  0
LWPOLYLINE
  5
18F
100
AcDbEntity
  8
F.Cu
 62
256
370
-1
 48
1.0
  6
BYLAYER
100
AcDbPolyline
 90
2
 70
128
 10
8.900031752751886
 20
-0.6000740897544858
 10
8.5999682472480572
 20
-0.6000740897544858
  0
LWPOLYLINE
  5
190
100
AcDbEntity
  8
F.Cu
 62
256
370
-1
 48
1.0
  6
BYLAYER
100
AcDbPolyline
 90
2
 70
128
 10
9.400031752751886
 20
-0.6000740897544858
 10
9.0999682472480572
 20
-0.6000740897544858
  0
LWPOLYLINE
  5
191
100
AcDbEntity
  8
F.Cu
 62
256
370
-1
 48
1.0
  6
BYLAYER
100
AcDbPolyline
 90
2
 70
128
 10
9.900031752751886
 20
-0.6000740897544858
 10
9.5999682472480572
 20
-0.6000740897544858
  0
LWPOLYLINE
  5
192
100
AcDbEntity
  8
F.Cu
 62
256
370
-1
 48
1.0
  6
BYLAYER
100
AcDbPolyline
 90
2
 70
128
 10
-9.599968247248114
 20
0.6000740897544006
 10
-9.599968247248114
 20
-0.6000740897544858
  0
LWPOLYLINE
  5
193
100
AcDbEntity
  8
F.Cu
 62
256
370
-1
 48
1.0
  6
BYLAYER
100
AcDbPolyline
 90
2
 70
128
 10
-9.099968247248114
 20
0.6000740897544006
 10
-9.099968247248114
 20
-0.6000740897544858
  0
LWPOLYLINE
  5
194
100
AcDbEntity
  8
F.Cu
 62
256
370
-1
 48
1.0
  6
BYLAYER
100
AcDbPolyline
 90
2
 70
128
 10
-8.599968247248114
 20
0.6000740897544006
 10
-8.599968247248114
 20
-0.6000740897544858
  0
LWPOLYLINE
  5
195
100
AcDbEntity
  8
F.Cu
 62
256
370
-1
 48
1.0
  6
BYLAYER
100
AcDbPolyline
 90
2
 70
128
 10
-8.099968247248114
 20
0.6000740897544006
 10
-8.099968247248114
 20
-0.6000740897544858
  0
LWPOLYLINE
  5
196
100
AcDbEntity
  8
F.Cu
 62
256
370
-1
 48
1.0
  6
BYLAYER
100
AcDbPolyline
 90
2
 70
128
 10
-7.599968247248114
 20
0.6000740897544006
 10
-7.599968247248114
 20
-0.6000740897544858
  0
LWPOLYLINE
  5
197
100
AcDbEntity
  8
F.Cu
 62
256
370
-1
 48
1.0
  6
BYLAYER
100
AcDbPolyline
 90
2
 70
128
 10
-7.099968247248114
 20
0.6000740897544006
 10
-7.099968247248114
 20
-0.6000740897544858
  0
LWPOLYLINE
  5
198
100
AcDbEntity
  8
F.Cu
 62
256
370
-1
 48
1.0
  6
BYLAYER
100
AcDbPolyline
 90
2
 70
128
 10
-6.599968247248114
 20
0.6000740897544006
 10
-6.599968247248114
 20
-0.6000740897544858
  0
LWPOLYLINE
  5
199
100
AcDbEntity
  8
F.Cu
 62
256
370
-1
 48
1.0
  6
BYLAYER
100
AcDbPolyline
 90
2
 70
128
 10
-6.099968247248114
 20
0.6000740897544006
 10
-6.099968247248114
 20
-0.6000740897544858
  0
LWPOLYLINE
  5
19A
100
AcDbEntity
  8
F.Cu
 62
256
370
-1
 48
1.0
  6
BYLAYER
100
AcDbPolyline
 90
2
 70
128
 10
-5.599968247248114
 20
0.6000740897544006
 10
-5.599968247248114
 20
-0.6000740897544858
  0
LWPOLYLINE
  5
19B
100
AcDbEntity
  8
F.Cu
 62
256
370
-1
 48
1.0
  6
BYLAYER
100
AcDbPolyline
 90
2
 70
128
 10
-5.099968247248114
 20
0.6000740897544006
 10
-5.099968247248114
 20
-0.6000740897544858
  0
LWPOLYLINE
  5
19C
100
AcDbEntity
  8
F.Cu
 62
256
370
-1
 48
1.0
  6
BYLAYER
100
AcDbPolyline
 90
2
 70
128
 10
-4.599968247248114
 20
0.6000740897544006
 10
-4.599968247248114
 20
-0.6000740897544858
  0
LWPOLYLINE
  5
19D
100
AcDbEntity
  8
F.Cu
 62
256
370
-1
 48
1.0
  6
BYLAYER
100
AcDbPolyline
 90
2
 70
128
 10
-4.099968247248114
 20
0.6000740897544006
 10
-4.099968247248114
 20
-0.6000740897544858
  0
LWPOLYLINE
  5
19E
100
AcDbEntity
  8
F.Cu
 62
256
370
-1
 48
1.0
  6
BYLAYER
100
AcDbPolyline
 90
2
 70
128
 10
-3.599968247248114
 20
0.6000740897544006
 10
-3.599968247248114
 20
-0.6000740897544858
  0
LWPOLYLINE
  5
19F
100
AcDbEntity
  8
F.Cu
 62
256
370
-1
 48
1.0
  6
BYLAYER
100
AcDbPolyline
 90
2
 70
128
 10
-3.099968247248114
 20
0.6000740897544006
 10
-3.099968247248114
 20
-0.6000740897544858
  0
LWPOLYLINE
  5
1A0
100
AcDbEntity
  8
F.Cu
 62
256
370
-1
 48
1.0
  6
BYLAYER
100
AcDbPolyline
 90
2
 70
128
 10
-2.599968247248114
 20
0.6000740897544006
 10
-2.599968247248114
 20
-0.6000740897544858
  0
LWPOLYLINE
  5
1A1
100
AcDbEntity
  8
F.Cu
 62
256
370
-1
 48
1.0
  6
BYLAYER
100
AcDbPolyline
 90
2
 70
128
 10
-2.099968247248114
 20
0.6000740897544006
 10
-2.099968247248114
 20
-0.6000740897544858
  0
LWPOLYLINE
  5
1A2
100
AcDbEntity
  8
F.Cu
 62
256
370
-1
 48
1.0
  6
BYLAYER
100
AcDbPolyline
 90
2
 70
128
 10
-1.599968247248114
 20
0.6000740897544006
 10
-1.599968247248114
 20
-0.6000740897544858
  0
LWPOLYLINE
  5
1A3
100
AcDbEntity
  8
F.Cu
 62
256
370
-1
 48
1.0
  6
BYLAYER
100
AcDbPolyline
 90
2
 70
128
 10
-1.099968247248114
 20
0.6000740897544006
 10
-1.099968247248114
 20
-0.6000740897544858
  0
LWPOLYLINE
  5
1A4
100
AcDbEntity
  8
F.Cu
 62
256
370
-1
 48
1.0
  6
BYLAYER
100
AcDbPolyline
 90
2
 70
128
 10
-0.599968247248114
 20
0.6000740897544006
 10
-0.599968247248114
 20
-0.6000740897544858
  0
LWPOLYLINE
  5
1A5
100
AcDbEntity
  8
F.Cu
 62
256
370
-1
 48
1.0
  6
BYLAYER
100
AcDbPolyline
 90
2
 70
128
 10
-0.099968247248114
 20
0.6000740897544006
 10
-0.099968247248114
 20
-0.6000740897544858
  0
LWPOLYLINE
  5
1A6
100
AcDbEntity
  8
F.Cu
 62
256
370
-1
 48
1.0
  6
BYLAYER
100
AcDbPolyline
 90
2
 70
128
 10
0.400031752751886
 20
0.6000740897544006
 10
0.400031752751886
 20
-0.6000740897544858
  0
LWPOLYLINE
  5
1A7
100
AcDbEntity
  8
F.Cu
 62
256
370
-1
 48
1.0
  6
BYLAYER
100
AcDbPolyline
 90
2
 70
128
 10
0.900031752751886
 20
0.6000740897544006
 10
0.900031752751886
 20
-0.6000740897544858
  0
LWPOLYLINE
  5
1A8
100
AcDbEntity
  8
F.Cu
 62
256
370
-1
 48
1.0
  6
BYLAYER
100
AcDbPolyline
 90
2
 70
128
 10
1.400031752751886
 20
0.6000740897544006
 10
1.400031752751886
 20
-0.6000740897544858
  0
LWPOLYLINE
  5
1A9
100
AcDbEntity
  8
F.Cu
 62
256
370
-1
 48
1.0
  6
BYLAYER
100
AcDbPolyline
 90
2
 70
128
 10
1.900031752751886
 20
0.6000740897544006
 10
1.900031752751886
 20
-0.6000740897544858
  0
LWPOLYLINE
  5
1AA
100
AcDbEntity
  8
F.Cu
 62
256
370
-1
 48
1.0
  6
BYLAYER
100
AcDbPolyline
 90
2
 70
128
 10
2.400031752751886
 20
0.6000740897544006
 10
2.400031752751886
 20
-0.6000740897544858
  0
LWPOLYLINE
  5
1AB
100
AcDbEntity
  8
F.Cu
 62
256
370
-1
 48
1.0
  6
BYLAYER
100
AcDbPolyline
 90
2
 70
128
 10
2.900031752751886
 20
0.6000740897544006
 10
2.900031752751886
 20
-0.6000740897544858
  0
LWPOLYLINE
  5
1AC
100
AcDbEntity
  8
F.Cu
 62
256
370
-1
 48
1.0
  6
BYLAYER
100
AcDbPolyline
 90
2
 70
128
 10
3.400031752751886
 20
0.6000740897544006
 10
3.400031752751886
 20
-0.6000740897544858
  0
LWPOLYLINE
  5
1AD
100
AcDbEntity
  8
F.Cu
 62
256
370
-1
 48
1.0
  6
BYLAYER
100
AcDbPolyline
 90
2
 70
128
 10
3.900031752751886
 20
0.6000740897544006
 10
3.900031752751886
 20
-0.6000740897544858
  0
LWPOLYLINE
  5
1AE
100
AcDbEntity
  8
F.Cu
 62
256
370
-1
 48
1.0
  6
BYLAYER
100
AcDbPolyline
 90
2
 70
128
 10
4.400031752751886
 20
0.6000740897544006
 10
4.400031752751886
 20
-0.6000740897544858
  0
LWPOLYLINE
  5
1AF
100
AcDbEntity
  8
F.Cu
 62
256
370
-1
 48
1.0
  6
BYLAYER
100
AcDbPolyline
 90
2
 70
128
 10
4.900031752751886
 20
0.6000740897544006
 10
4.900031752751886
 20
-0.6000740897544858
  0
LWPOLYLINE
  5
1B0
100
AcDbEntity
  8
F.Cu
 62
256
370
-1
 48
1.0
  6
BYLAYER
100
AcDbPolyline
 90
2
 70
128
 10
5.400031752751886
 20
0.6000740897544006
 10
5.400031752751886
 20
-0.6000740897544858
  0
LWPOLYLINE
  5
1B1
100
AcDbEntity
  8
F.Cu
 62
256
370
-1
 48
1.0
  6
BYLAYER
100
AcDbPolyline
 90
2
 70
128
 10
5.900031752751886
 20
0.6000740897544006
 10
5.900031752751886
 20
-0.6000740897544858
  0
LWPOLYLINE
  5
1B2
100
AcDbEntity
  8
F.Cu
 62
256
370
-1
 48
1.0
  6
BYLAYER
100
AcDbPolyline
 90
2
 70
128
 10
6.400031752751886
 20
0.6000740897544006
 10
6.400031752751886
 20
-0.6000740897544858
  0
LWPOLYLINE
  5
1B3
100
AcDbEntity
  8
F.Cu
 62
256
370
-1
 48
1.0
  6
BYLAYER
100
AcDbPolyline
 90
2
 70
128
 10
6.900031752751886
 20
0.6000740897544006
 10
6.900031752751886
 20
-0.6000740897544858
  0
LWPOLYLINE
  5
1B4
100
AcDbEntity
  8
F.Cu
 62
256
370
-1
 48
1.0
  6
BYLAYER
100
AcDbPolyline
 90
2
 70
128
 10
7.400031752751886
 20
0.6000740897544006
 10
7.400031752751886
 20
-0.6000740897544858
  0
LWPOLYLINE
  5
1B5
100
AcDbEntity
  8
F.Cu
 62
256
370
-1
 48
1.0
  6
BYLAYER
100
AcDbPolyline
 90
2
 70
128
 10
7.900031752751886
 20
0.6000740897544006
 10
7.900031752751886
 20
-0.6000740897544858
  0
LWPOLYLINE
  5
1B6
100
AcDbEntity
  8
F.Cu
 62
256
370
-1
 48
1.0
  6
BYLAYER
100
AcDbPolyline
 90
2
 70
128
 10
8.400031752751886
 20
0.6000740897544006
 10
8.400031752751886
 20
-0.6000740897544858
  0
LWPOLYLINE
  5
1B7
100
AcDbEntity
  8
F.Cu
 62
256
370
-1
 48
1.0
  6
BYLAYER
100
AcDbPolyline
 90
2
 70
128
 10
8.900031752751886
 20
0.6000740897544006
 10
8.900031752751886
 20
-0.6000740897544858
  0
LWPOLYLINE
  5
1B8
100
AcDbEntity
  8
F.Cu
 62
256
370
-1
 48
1.0
  6
BYLAYER
100
AcDbPolyline
 90
2
 70
128
 10
9.400031752751886
 20
0.6000740897544006
 10
9.400031752751886
 20
-0.6000740897544858
  0
LWPOLYLINE
  5
1B9
100
AcDbEntity
  8
F.Cu
 62
256
370
-1
 48
1.0
  6
BYLAYER
100
AcDbPolyline
 90
2
 70
128
 10
9.900031752751886
 20
0.6000740897544006
 10
9.900031752751886
 20
-0.6000740897544858
  0
LWPOLYLINE
  5
1BA
100
AcDbEntity
  8
F.Cu
 62
256
370
-1
 48
1.0
  6
BYLAYER
100
AcDbPolyline
 90
2
 70
128
 10
-9.9000317527519428
 20
0.6000740897544006
 10
-9.599968247248114
 20
0.6000740897544006
  0
LWPOLYLINE
  5
1BB
100
AcDbEntity
  8
F.Cu
 62
256
370
-1
 48
1.0
  6
BYLAYER
100
AcDbPolyline
 90
2
 70
128
 10
-9.4000317527519428
 20
0.6000740897544006
 10
-9.099968247248114
 20
0.6000740897544006
  0
LWPOLYLINE
  5
1BC
100
AcDbEntity
  8
F.Cu
 62
256
370
-1
 48
1.0
  6
BYLAYER
100
AcDbPolyline
 90
2
 70
128
 10
-8.9000317527519428
 20
0.6000740897544006
 10
-8.599968247248114
 20
0.6000740897544006
  0
LWPOLYLINE
  5
1BD
100
AcDbEntity
  8
F.Cu
 62
256
370
-1
 48
1.0
  6
BYLAYER
100
AcDbPolyline
 90
2
 70
128
 10
-8.4000317527519428
 20
0.6000740897544006
 10
-8.099968247248114
 20
0.6000740897544006
  0
LWPOLYLINE
  5
1BE
100
AcDbEntity
  8
F.Cu
 62
256
370
-1
 48
1.0
  6
BYLAYER
100
AcDbPolyline
 90
2
 70
128
 10
-7.9000317527519428
 20
0.6000740897544006
 10
-7.599968247248114
 20
0.6000740897544006
  0
LWPOLYLINE
  5
1BF
100
AcDbEntity
  8
F.Cu
 62
256
370
-1
 48
1.0
  6
BYLAYER
100
AcDbPolyline
 90
2
 70
128
 10
-7.4000317527519428
 20
0.6000740897544006
 10
-7.099968247248114
 20
0.6000740897544006
  0
LWPOLYLINE
  5
1C0
100
AcDbEntity
  8
F.Cu
 62
256
370
-1
 48
1.0
  6
BYLAYER
100
AcDbPolyline
 90
2
 70
128
 10
-6.9000317527519428
 20
0.6000740897544006
 10
-6.599968247248114
 20
0.6000740897544006
  0
LWPOLYLINE
  5
1C1
100
AcDbEntity
  8
F.Cu
 62
256
370
-1
 48
1.0
  6
BYLAYER
100
AcDbPolyline
 90
2
 70
128
 10
-6.4000317527519428
 20
0.6000740897544006
 10
-6.099968247248114
 20
0.6000740897544006
  0
LWPOLYLINE
  5
1C2
100
AcDbEntity
  8
F.Cu
 62
256
370
-1
 48
1.0
  6
BYLAYER
100
AcDbPolyline
 90
2
 70
128
 10
-5.9000317527519428
 20
0.6000740897544006
 10
-5.599968247248114
 20
0.6000740897544006
  0
LWPOLYLINE
  5
1C3
100
AcDbEntity
  8
F.Cu
 62
256
370
-1
 48
1.0
  6
BYLAYER
100
AcDbPolyline
 90
2
 70
128
 10
-5.4000317527519428
 20
0.6000740897544006
 10
-5.099968247248114
 20
0.6000740897544006
  0
LWPOLYLINE
  5
1C4
100
AcDbEntity
  8
F.Cu
 62
256
370
-1
 48
1.0
  6
BYLAYER
100
AcDbPolyline
 90
2
 70
128
 10
-4.9000317527519428
 20
0.6000740897544006
 10
-4.599968247248114
 20
0.6000740897544006
  0
LWPOLYLINE
  5
1C5
100
AcDbEntity
  8
F.Cu
 62
256
370
-1
 48
1.0
  6
BYLAYER
100
AcDbPolyline
 90
2
 70
128
 10
-4.4000317527519428
 20
0.6000740897544006
 10
-4.099968247248114
 20
0.6000740897544006
  0
LWPOLYLINE
  5
1C6
100
AcDbEntity
  8
F.Cu
 62
256
370
-1
 48
1.0
  6
BYLAYER
100
AcDbPolyline
 90
2
 70
128
 10
-3.9000317527519428
 20
0.6000740897544006
 10
-3.599968247248114
 20
0.6000740897544006
  0
LWPOLYLINE
  5
1C7
100
AcDbEntity
  8
F.Cu
 62
256
370
-1
 48
1.0
  6
BYLAYER
100
AcDbPolyline
 90
2
 70
128
 10
-3.4000317527519428
 20
0.6000740897544006
 10
-3.099968247248114
 20
0.6000740897544006
  0
LWPOLYLINE
  5
1C8
100
AcDbEntity
  8
F.Cu
 62
256
370
-1
 48
1.0
  6
BYLAYER
100
AcDbPolyline
 90
2
 70
128
 10
-2.9000317527519428
 20
0.6000740897544006
 10
-2.599968247248114
 20
0.6000740897544006
  0
LWPOLYLINE
  5
1C9
100
AcDbEntity
  8
F.Cu
 62
256
370
-1
 48
1.0
  6
BYLAYER
100
AcDbPolyline
 90
2
 70
128
 10
-2.4000317527519428
 20
0.6000740897544006
 10
-2.099968247248114
 20
0.6000740897544006
  0
LWPOLYLINE
  5
1CA
100
AcDbEntity
  8
F.Cu
 62
256
370
-1
 48
1.0
  6
BYLAYER
100
AcDbPolyline
 90
2
 70
128
 10
-1.9000317527519428
 20
0.6000740897544006
 10
-1.599968247248114
 20
0.6000740897544006
  0
LWPOLYLINE
  5
1CB
100
AcDbEntity
  8
F.Cu
 62
256
370
-1
 48
1.0
  6
BYLAYER
100
AcDbPolyline
 90
2
 70
128
 10
-1.4000317527519428
 20
0.6000740897544006
 10
-1.099968247248114
 20
0.6000740897544006
  0
LWPOLYLINE
  5
1CC
100
AcDbEntity
  8
F.Cu
 62
256
370
-1
 48
1.0
  6
BYLAYER
100
AcDbPolyline
 90
2
 70
128
 10
-0.9000317527519428
 20
0.6000740897544006
 10
-0.599968247248114
 20
0.6000740897544006
  0
LWPOLYLINE
  5
1CD
100
AcDbEntity
  8
F.Cu
 62
256
370
-1
 48
1.0
  6
BYLAYER
100
AcDbPolyline
 90
2
 70
128
 10
-0.4000317527519428
 20
0.6000740897544006
 10
-0.099968247248114
 20
0.6000740897544006
  0
LWPOLYLINE
  5
1CE
100
AcDbEntity
  8
F.Cu
 62
256
370
-1
 48
1.0
  6
BYLAYER
100
AcDbPolyline
 90
2
 70
128
 10
0.0999682472480572
 20
0.6000740897544006
 10
0.400031752751886
 20
0.6000740897544006
  0
LWPOLYLINE
  5
1CF
100
AcDbEntity
  8
F.Cu
 62
256
370
-1
 48
1.0
  6
BYLAYER
100
AcDbPolyline
 90
2
 70
128
 10
0.5999682472480572
 20
0.6000740897544006
 10
0.900031752751886
 20
0.6000740897544006
  0
LWPOLYLINE
  5
1D0
100
AcDbEntity
  8
F.Cu
 62
256
370
-1
 48
1.0
  6
BYLAYER
100
AcDbPolyline
 90
2
 70
128
 10
1.0999682472480572
 20
0.6000740897544006
 10
1.400031752751886
 20
0.6000740897544006
  0
LWPOLYLINE
  5
1D1
100
AcDbEntity
  8
F.Cu
 62
256
370
-1
 48
1.0
  6
BYLAYER
100
AcDbPolyline
 90
2
 70
128
 10
1.5999682472480572
 20
0.6000740897544006
 10
1.900031752751886
 20
0.6000740897544006
  0
LWPOLYLINE
  5
1D2
100
AcDbEntity
  8
F.Cu
 62
256
370
-1
 48
1.0
  6
BYLAYER
100
AcDbPolyline
 90
2
 70
128
 10
2.0999682472480572
 20
0.6000740897544006
 10
2.400031752751886
 20
0.6000740897544006
  0
LWPOLYLINE
  5
1D3
100
AcDbEntity
  8
F.Cu
 62
256
370
-1
 48
1.0
  6
BYLAYER
100
AcDbPolyline
 90
2
 70
128
 10
2.5999682472480572
 20
0.6000740897544006
 10
2.900031752751886
 20
0.6000740897544006
  0
LWPOLYLINE
  5
1D4
100
AcDbEntity
  8
F.Cu
 62
256
370
-1
 48
1.0
  6
BYLAYER
100
AcDbPolyline
 90
2
 70
128
 10
3.0999682472480572
 20
0.6000740897544006
 10
3.400031752751886
 20
0.6000740897544006
  0
LWPOLYLINE
  5
1D5
100
AcDbEntity
  8
F.Cu
 62
256
370
-1
 48
1.0
  6
BYLAYER
100
AcDbPolyline
 90
2
 70
128
 10
3.5999682472480572
 20
0.6000740897544006
 10
3.900031752751886
 20
0.6000740897544006
  0
LWPOLYLINE
  5
1D6
100
AcDbEntity
  8
F.Cu
 62
256
370
-1
 48
1.0
  6
BYLAYER
100
AcDbPolyline
 90
2
 70
128
 10
4.0999682472480572
 20
0.6000740897544006
 10
4.400031752751886
 20
0.6000740897544006
  0
LWPOLYLINE
  5
1D7
100
AcDbEntity
  8
F.Cu
 62
256
370
-1
 48
1.0
  6
BYLAYER
100
AcDbPolyline
 90
2
 70
128
 10
4.5999682472480572
 20
0.6000740897544006
 10
4.900031752751886
 20
0.6000740897544006
  0
LWPOLYLINE
  5
1D8
100
AcDbEntity
  8
F.Cu
 62
256
370
-1
 48
1.0
  6
BYLAYER
100
AcDbPolyline
 90
2
 70
128
 10
5.0999682472480572
 20
0.6000740897544006
 10
5.400031752751886
 20
0.6000740897544006
  0
LWPOLYLINE
  5
1D9
100
AcDbEntity
  8
F.Cu
 62
256
370
-1
 48
1.0
  6
BYLAYER
100
AcDbPolyline
 90
2
 70
128
 10
5.5999682472480572
 20
0.6000740897544006
 10
5.900031752751886
 20
0.6000740897544006
  0
LWPOLYLINE
  5
1DA
100
AcDbEntity
  8
F.Cu
 62
256
370
-1
 48
1.0
  6
BYLAYER
100
AcDbPolyline
 90
2
 70
128
 10
6.0999682472480572
 20
0.6000740897544006
 10
6.400031752751886
 20
0.6000740897544006
  0
LWPOLYLINE
  5
1DB
100
AcDbEntity
  8
F.Cu
 62
256
370
-1
 48
1.0
  6
BYLAYER
100
AcDbPolyline
 90
2
 70
128
 10
6.5999682472480572
 20
0.6000740897544006
 10
6.900031752751886
 20
0.6000740897544006
  0
LWPOLYLINE
  5
1DC
100
AcDbEntity
  8
F.Cu
 62
256
370
-1
 48
1.0
  6
BYLAYER
100
AcDbPolyline
 90
2
 70
128
 10
7.0999682472480572
 20
0.6000740897544006
 10
7.400031752751886
 20
0.6000740897544006
  0
LWPOLYLINE
  5
1DD
100
AcDbEntity
  8
F.Cu
 62
256
370
-1
 48
1.0
  6
BYLAYER
100
AcDbPolyline
 90
2
 70
128
 10
7.5999682472480572
 20
0.6000740897544006
 10
7.900031752751886
 20
0.6000740897544006
  0
LWPOLYLINE
  5
1DE
100
AcDbEntity
  8
F.Cu
 62
256
370
-1
 48
1.0
  6
BYLAYER
100
AcDbPolyline
 90
2
 70
128
 10
8.0999682472480572
 20
0.6000740897544006
 10
8.400031752751886
 20
0.6000740897544006
  0
LWPOLYLINE
  5
1DF
100
AcDbEntity
  8
F.Cu
 62
256
370
-1
 48
1.0
  6
BYLAYER
100
AcDbPolyline
 90
2
 70
128
 10
8.5999682472480572
 20
0.6000740897544006
 10
8.900031752751886
 20
0.6000740897544006
  0
LWPOLYLINE
  5
1E0
100
AcDbEntity
  8
F.Cu
 62
256
370
-1
 48
1.0
  6
BYLAYER
100
AcDbPolyline
 90
2
 70
128
 10
9.0999682472480572
 20
0.6000740897544006
 10
9.400031752751886
 20
0.6000740897544006
  0
LWPOLYLINE
  5
1E1
100
AcDbEntity
  8
F.Cu
 62
256
370
-1
 48
1.0
  6
BYLAYER
100
AcDbPolyline
 90
2
 70
128
 10
9.5999682472480572
 20
0.6000740897544006
 10
9.900031752751886
 20
0.6000740897544006
  0
ARC
  5
1E2
100
AcDbEntity
  8
F.Fab
 62
256
370
-1
 48
1.0
  6
BYLAYER
100
AcDbCircle
 10
-9.4999470787468567
 20
-0.5398497036409537
 30
0.0
 40
0.140029635901783
100
AcDbArc
 50
0.0
 51
180.0
  0
ARC
  5
1E3
100
AcDbEntity
  8
F.Fab
 62
256
370
-1
 48
1.0
  6
BYLAYER
100
AcDbCircle
 10
-8.9999470787468567
 20
-0.5398497036409537
 30
0.0
 40
0.140029635901783
100
AcDbArc
 50
0.0
 51
180.0
  0
ARC
  5
1E4
100
AcDbEntity
  8
F.Fab
 62
256
370
-1
 48
1.0
  6
BYLAYER
100
AcDbCircle
 10
-8.4999470787468567
 20
-0.5398497036409537
 30
0.0
 40
0.140029635901783
100
AcDbArc
 50
0.0
 51
180.0
  0
ARC
  5
1E5
100
AcDbEntity
  8
F.Fab
 62
256
370
-1
 48
1.0
  6
BYLAYER
100
AcDbCircle
 10
-7.9999470787468567
 20
-0.5398497036409537
 30
0.0
 40
0.140029635901783
100
AcDbArc
 50
0.0
 51
180.0
  0
ARC
  5
1E6
100
AcDbEntity
  8
F.Fab
 62
256
370
-1
 48
1.0
  6
BYLAYER
100
AcDbCircle
 10
-7.4999470787468567
 20
-0.5398497036409537
 30
0.0
 40
0.140029635901783
100
AcDbArc
 50
0.0
 51
180.0
  0
ARC
  5
1E7
100
AcDbEntity
  8
F.Fab
 62
256
370
-1
 48
1.0
  6
BYLAYER
100
AcDbCircle
 10
-6.9999470787468567
 20
-0.5398497036409537
 30
0.0
 40
0.140029635901783
100
AcDbArc
 50
0.0
 51
180.0
  0
ARC
  5
1E8
100
AcDbEntity
  8
F.Fab
 62
256
370
-1
 48
1.0
  6
BYLAYER
100
AcDbCircle
 10
-6.4999470787468567
 20
-0.5398497036409537
 30
0.0
 40
0.140029635901783
100
AcDbArc
 50
0.0
 51
180.0
  0
ARC
  5
1E9
100
AcDbEntity
  8
F.Fab
 62
256
370
-1
 48
1.0
  6
BYLAYER
100
AcDbCircle
 10
-5.9999470787468567
 20
-0.5398497036409537
 30
0.0
 40
0.140029635901783
100
AcDbArc
 50
0.0
 51
180.0
  0
ARC
  5
1EA
100
AcDbEntity
  8
F.Fab
 62
256
370
-1
 48
1.0
  6
BYLAYER
100
AcDbCircle
 10
-5.4999470787468567
 20
-0.5398497036409537
 30
0.0
 40
0.140029635901783
100
AcDbArc
 50
0.0
 51
180.0
  0
ARC
  5
1EB
100
AcDbEntity
  8
F.Fab
 62
256
370
-1
 48
1.0
  6
BYLAYER
100
AcDbCircle
 10
-4.9999470787468567
 20
-0.5398497036409537
 30
0.0
 40
0.140029635901783
100
AcDbArc
 50
0.0
 51
180.0
  0
ARC
  5
1EC
100
AcDbEntity
  8
F.Fab
 62
256
370
-1
 48
1.0
  6
BYLAYER
100
AcDbCircle
 10
-4.4999470787468567
 20
-0.5398497036409537
 30
0.0
 40
0.140029635901783
100
AcDbArc
 50
0.0
 51
180.0
  0
ARC
  5
1ED
100
AcDbEntity
  8
F.Fab
 62
256
370
-1
 48
1.0
  6
BYLAYER
100
AcDbCircle
 10
-3.9999470787468567
 20
-0.5398497036409537
 30
0.0
 40
0.140029635901783
100
AcDbArc
 50
0.0
 51
180.0
  0
ARC
  5
1EE
100
AcDbEntity
  8
F.Fab
 62
256
370
-1
 48
1.0
  6
BYLAYER
100
AcDbCircle
 10
-3.4999470787468567
 20
-0.5398497036409537
 30
0.0
 40
0.140029635901783
100
AcDbArc
 50
0.0
 51
180.0
  0
ARC
  5
1EF
100
AcDbEntity
  8
F.Fab
 62
256
370
-1
 48
1.0
  6
BYLAYER
100
AcDbCircle
 10
-2.9999470787468567
 20
-0.5398497036409537
 30
0.0
 40
0.140029635901783
100
AcDbArc
 50
0.0
 51
180.0
  0
ARC
  5
1F0
100
AcDbEntity
  8
F.Fab
 62
256
370
-1
 48
1.0
  6
BYLAYER
100
AcDbCircle
 10
-2.4999470787468567
 20
-0.5398497036409537
 30
0.0
 40
0.140029635901783
100
AcDbArc
 50
0.0
 51
180.0
  0
ARC
  5
1F1
100
AcDbEntity
  8
F.Fab
 62
256
370
-1
 48
1.0
  6
BYLAYER
100
AcDbCircle
 10
-1.9999470787468567
 20
-0.5398497036409537
 30
0.0
 40
0.140029635901783
100
AcDbArc
 50
0.0
 51
180.0
  0
ARC
  5
1F2
100
AcDbEntity
  8
F.Fab
 62
256
370
-1
 48
1.0
  6
BYLAYER
100
AcDbCircle
 10
-1.4999470787468567
 20
-0.5398497036409537
 30
0.0
 40
0.140029635901783
100
AcDbArc
 50
0.0
 51
180.0
  0
ARC
  5
1F3
100
AcDbEntity
  8
F.Fab
 62
256
370
-1
 48
1.0
  6
BYLAYER
100
AcDbCircle
 10
-0.9999470787468567
 20
-0.5398497036409537
 30
0.0
 40
0.140029635901783
100
AcDbArc
 50
0.0
 51
180.0
  0
ARC
  5
1F4
100
AcDbEntity
  8
F.Fab
 62
256
370
-1
 48
1.0
  6
BYLAYER
100
AcDbCircle
 10
-0.4999470787468567
 20
-0.5398497036409537
 30
0.0
 40
0.140029635901783
100
AcDbArc
 50
0.0
 51
180.0
  0
ARC
  5
1F5
100
AcDbEntity
  8
F.Fab
 62
256
370
-1
 48
1.0
  6
BYLAYER
100
AcDbCircle
 10
0.0000529212531433
 20
-0.5398497036409537
 30
0.0
 40
0.140029635901783
100
AcDbArc
 50
0.0
 51
180.0
  0
ARC
  5
1F6
100
AcDbEntity
  8
F.Fab
 62
256
370
-1
 48
1.0
  6
BYLAYER
100
AcDbCircle
 10
0.5000529212531433
 20
-0.5398497036409537
 30
0.0
 40
0.140029635901783
100
AcDbArc
 50
0.0
 51
180.0
  0
ARC
  5
1F7
100
AcDbEntity
  8
F.Fab
 62
256
370
-1
 48
1.0
  6
BYLAYER
100
AcDbCircle
 10
1.0000529212531433
 20
-0.5398497036409537
 30
0.0
 40
0.140029635901783
100
AcDbArc
 50
0.0
 51
180.0
  0
ARC
  5
1F8
100
AcDbEntity
  8
F.Fab
 62
256
370
-1
 48
1.0
  6
BYLAYER
100
AcDbCircle
 10
1.5000529212531433
 20
-0.5398497036409537
 30
0.0
 40
0.140029635901783
100
AcDbArc
 50
0.0
 51
180.0
  0
ARC
  5
1F9
100
AcDbEntity
  8
F.Fab
 62
256
370
-1
 48
1.0
  6
BYLAYER
100
AcDbCircle
 10
2.0000529212531433
 20
-0.5398497036409537
 30
0.0
 40
0.140029635901783
100
AcDbArc
 50
0.0
 51
180.0
  0
ARC
  5
1FA
100
AcDbEntity
  8
F.Fab
 62
256
370
-1
 48
1.0
  6
BYLAYER
100
AcDbCircle
 10
2.5000529212531433
 20
-0.5398497036409537
 30
0.0
 40
0.140029635901783
100
AcDbArc
 50
0.0
 51
180.0
  0
ARC
  5
1FB
100
AcDbEntity
  8
F.Fab
 62
256
370
-1
 48
1.0
  6
BYLAYER
100
AcDbCircle
 10
3.0000529212531433
 20
-0.5398497036409537
 30
0.0
 40
0.140029635901783
100
AcDbArc
 50
0.0
 51
180.0
  0
ARC
  5
1FC
100
AcDbEntity
  8
F.Fab
 62
256
370
-1
 48
1.0
  6
BYLAYER
100
AcDbCircle
 10
3.5000529212531433
 20
-0.5398497036409537
 30
0.0
 40
0.140029635901783
100
AcDbArc
 50
0.0
 51
180.0
  0
ARC
  5
1FD
100
AcDbEntity
  8
F.Fab
 62
256
370
-1
 48
1.0
  6
BYLAYER
100
AcDbCircle
 10
4.0000529212531433
 20
-0.5398497036409537
 30
0.0
 40
0.140029635901783
100
AcDbArc
 50
0.0
 51
180.0
  0
ARC
  5
1FE
100
AcDbEntity
  8
F.Fab
 62
256
370
-1
 48
1.0
  6
BYLAYER
100
AcDbCircle
 10
4.5000529212531433
 20
-0.5398497036409537
 30
0.0
 40
0.140029635901783
100
AcDbArc
 50
0.0
 51
180.0
  0
ARC
  5
1FF
100
AcDbEntity
  8
F.Fab
 62
256
370
-1
 48
1.0
  6
BYLAYER
100
AcDbCircle
 10
5.0000529212531433
 20
-0.5398497036409537
 30
0.0
 40
0.140029635901783
100
AcDbArc
 50
0.0
 51
180.0
  0
ARC
  5
200
100
AcDbEntity
  8
F.Fab
 62
256
370
-1
 48
1.0
  6
BYLAYER
100
AcDbCircle
 10
5.5000529212531433
 20
-0.5398497036409537
 30
0.0
 40
0.140029635901783
100
AcDbArc
 50
0.0
 51
180.0
  0
ARC
  5
201
100
AcDbEntity
  8
F.Fab
 62
256
370
-1
 48
1.0
  6
BYLAYER
100
AcDbCircle
 10
6.0000529212531433
 20
-0.5398497036409537
 30
0.0
 40
0.140029635901783
100
AcDbArc
 50
0.0
 51
180.0
  0
ARC
  5
202
100
AcDbEntity
  8
F.Fab
 62
256
370
-1
 48
1.0
  6
BYLAYER
100
AcDbCircle
 10
6.5000529212531433
 20
-0.5398497036409537
 30
0.0
 40
0.140029635901783
100
AcDbArc
 50
0.0
 51
180.0
  0
ARC
  5
203
100
AcDbEntity
  8
F.Fab
 62
256
370
-1
 48
1.0
  6
BYLAYER
100
AcDbCircle
 10
7.0000529212531433
 20
-0.5398497036409537
 30
0.0
 40
0.140029635901783
100
AcDbArc
 50
0.0
 51
180.0
  0
ARC
  5
204
100
AcDbEntity
  8
F.Fab
 62
256
370
-1
 48
1.0
  6
BYLAYER
100
AcDbCircle
 10
7.5000529212531433
 20
-0.5398497036409537
 30
0.0
 40
0.140029635901783
100
AcDbArc
 50
0.0
 51
180.0
  0
ARC
  5
205
100
AcDbEntity
  8
F.Fab
 62
256
370
-1
 48
1.0
  6
BYLAYER
100
AcDbCircle
 10
8.0000529212531433
 20
-0.5398497036409537
 30
0.0
 40
0.140029635901783
100
AcDbArc
 50
0.0
 51
180.0
  0
ARC
  5
206
100
AcDbEntity
  8
F.Fab
 62
256
370
-1
 48
1.0
  6
BYLAYER
100
AcDbCircle
 10
8.5000529212531433
 20
-0.5398497036409537
 30
0.0
 40
0.140029635901783
100
AcDbArc
 50
0.0
 51
180.0
  0
ARC
  5
207
100
AcDbEntity
  8
F.Fab
 62
256
370
-1
 48
1.0
  6
BYLAYER
100
AcDbCircle
 10
9.0000529212531433
 20
-0.5398497036409537
 30
0.0
 40
0.140029635901783
100
AcDbArc
 50
0.0
 51
180.0
  0
ARC
  5
208
100
AcDbEntity
  8
F.Fab
 62
256
370
-1
 48
1.0
  6
BYLAYER
100
AcDbCircle
 10
9.5000529212531433
 20
-0.5398497036409537
 30
0.0
 40
0.140029635901783
100
AcDbArc
 50
0.0
 51
180.0
  0
ARC
  5
209
100
AcDbEntity
  8
F.Fab
 62
256
370
-1
 48
1.0
  6
BYLAYER
100
AcDbCircle
 10
-9.9999821849245905
 20
-0.5398848098188012
 30
0.0
 40
0.1400647464791238
100
AcDbArc
 50
0.0143607574236155
 51
89.9856392423991736
  0
ARC
  5
20A
100
AcDbEntity
  8
F.Fab
 62
256
370
-1
 48
1.0
  6
BYLAYER
100
AcDbCircle
 10
9.9999821849244768
 20
-0.5398848098188012
 30
0.0
 40
0.1400647464791238
100
AcDbArc
 50
90.0143607576008264
 51
179.9856392425763829
  0
ARC
  5
20B
100
AcDbEntity
  8
F.Fab
 62
256
370
-1
 48
1.0
  6
BYLAYER
100
AcDbCircle
 10
-11.7501587637595435
 20
-1.9997353937341131
 30
0.0
 40
0.1999788314986972
100
AcDbArc
 50
90.0000000000163141
 51
180.0
  0
ARC
  5
20C
100
AcDbEntity
  8
F.Fab
 62
256
370
-1
 48
1.0
  6
BYLAYER
100
AcDbCircle
 10
11.7501587637594298
 20
-1.9997353937341131
 30
0.0
 40
0.1999788314986972
100
AcDbArc
 50
0.0
 51
89.9999999999837001
  0
ARC
  5
20D
100
AcDbEntity
  8
F.Fab
 62
256
370
-1
 48
1.0
  6
BYLAYER
100
AcDbCircle
 10
-12.050158763759498
 20
-2.5000529212532001
 30
0.0
 40
0.1000211685012289
100
AcDbArc
 50
270.0
 51
0.0
  0
ARC
  5
20E
100
AcDbEntity
  8
F.Fab
 62
256
370
-1
 48
1.0
  6
BYLAYER
100
AcDbCircle
 10
12.0501587637593843
 20
-2.5000529212532001
 30
0.0
 40
0.1000211685012289
100
AcDbArc
 50
180.0
 51
270.0
  0
ARC
  5
20F
100
AcDbEntity
  8
F.Fab
 62
256
370
-1
 48
1.0
  6
BYLAYER
100
AcDbCircle
 10
-11.1496127887469925
 20
-1.9997353937341416
 30
0.0
 40
0.1995175304913346
100
AcDbArc
 50
0.0
 51
90.1200622936461713
  0
ARC
  5
210
100
AcDbEntity
  8
F.Fab
 62
256
370
-1
 48
1.0
  6
BYLAYER
100
AcDbCircle
 10
11.1496127887468788
 20
-1.9997353937341416
 30
0.0
 40
0.1995175304913346
100
AcDbArc
 50
89.8799377063538287
 51
180.0
  0
ARC
  5
211
100
AcDbEntity
  8
F.Fab
 62
256
370
-1
 48
1.0
  6
BYLAYER
100
AcDbCircle
 10
-10.8500740897544006
 20
-2.3297523285351645
 30
0.0
 40
0.1000211685013142
100
AcDbArc
 50
180.0
 51
270.0
  0
ARC
  5
212
100
AcDbEntity
  8
F.Fab
 62
256
370
-1
 48
1.0
  6
BYLAYER
100
AcDbCircle
 10
10.8500740897542869
 20
-2.3297523285351645
 30
0.0
 40
0.1000211685013142
100
AcDbArc
 50
270.0
 51
0.0
  0
ARC
  5
213
100
AcDbEntity
  8
F.Fab
 62
256
370
-1
 48
1.0
  6
BYLAYER
100
AcDbCircle
 10
-11.0800698562171647
 20
-3.4700994919559491
 30
0.0
 40
0.1299745977984799
100
AcDbArc
 50
270.0000000722919822
 51
360.0
  0
ARC
  5
214
100
AcDbEntity
  8
F.Fab
 62
256
370
-1
 48
1.0
  6
BYLAYER
100
AcDbCircle
 10
11.080069856217051
 20
-3.4700994919559491
 30
0.0
 40
0.1299745977984799
100
AcDbArc
 50
180.0
 51
269.9999999277080178
  0
ARC
  5
215
100
AcDbEntity
  8
F.Fab
 62
256
370
-1
 48
1.0
  6
BYLAYER
100
AcDbCircle
 10
-10.8500740897536048
 20
-3.4700994919556081
 30
0.0
 40
0.1000211685009447
100
AcDbArc
 50
90.0000000000651283
 51
180.0
  0
ARC
  5
216
100
AcDbEntity
  8
F.Fab
 62
256
370
-1
 48
1.0
  6
BYLAYER
100
AcDbCircle
 10
10.8500740897534911
 20
-3.4700994919556081
 30
0.0
 40
0.1000211685009447
100
AcDbArc
 50
0.0
 51
89.9999999999348717
  0
ARC
  5
217
100
AcDbEntity
  8
F.Fab
 62
256
370
-1
 48
1.0
  6
BYLAYER
100
AcDbCircle
 10
-12.7002222692632927
 20
-4.3499682472480856
 30
0.0
 40
0.1000211685012573
100
AcDbArc
 50
90.0
 51
180.0
  0
ARC
  5
218
100
AcDbEntity
  8
F.Fab
 62
256
370
-1
 48
1.0
  6
BYLAYER
100
AcDbCircle
 10
12.700222269263179
 20
-4.3499682472480856
 30
0.0
 40
0.1000211685012573
100
AcDbArc
 50
0.0
 51
90.0
  0
ARC
  5
219
100
AcDbEntity
  8
F.Fab
 62
256
370
-1
 48
1.0
  6
BYLAYER
100
AcDbCircle
 10
-12.5502222692633154
 20
-5.0502434377645784
 30
0.0
 40
0.2500105842505604
100
AcDbArc
 50
180.0
 51
269.9999999999869829
  0
ARC
  5
21A
100
AcDbEntity
  8
F.Fab
 62
256
370
-1
 48
1.0
  6
BYLAYER
100
AcDbCircle
 10
12.5502222692632017
 20
-5.0502434377645784
 30
0.0
 40
0.2500105842505604
100
AcDbArc
 50
270.0000000000130171
 51
0.0
  0
ARC
  5
21B
100
AcDbEntity
  8
F.Fab
 62
256
370
-1
 48
1.0
  6
BYLAYER
100
AcDbCircle
 10
-12.2532718895590165
 20
-3.984843465068451
 30
0.0
 40
0.2651216441282846
100
AcDbArc
 50
270.6682220169481639
 51
292.8853053985852739
  0
ARC
  5
21C
100
AcDbEntity
  8
F.Fab
 62
256
370
-1
 48
1.0
  6
BYLAYER
100
AcDbCircle
 10
12.2532718895589028
 20
-3.984843465068451
 30
0.0
 40
0.2651216441282846
100
AcDbArc
 50
247.1146946014147261
 51
269.3317779830518361
  0
LINE
  5
21D
100
AcDbEntity
  8
F.CrtYd
 62
256
370
-1
 48
1.0
  6
BYLAYER
100
AcDbLine
 10
-13.1999999999999993
 20
-5.4999999999999991
 30
0.0
 11
13.1999999999999993
 21
-5.4999999999999991
 31
0.0
  0
LINE
  5
21E
100
AcDbEntity
  8
F.CrtYd
 62
256
370
-1
 48
1.0
  6
BYLAYER
100
AcDbLine
 10
13.1999999999999993
 20
-5.4999999999999991
 30
0.0
 11
13.1999999999999993
 21
0.7
 31
0.0
  0
LINE
  5
21F
100
AcDbEntity
  8
F.CrtYd
 62
256
370
-1
 48
1.0
  6
BYLAYER
100
AcDbLine
 10
13.1999999999999993
 20
0.7
 30
0.0
 11
-13.1999999999999993
 21
0.7
 31
0.0
  0
LINE
  5
220
100
AcDbEntity
  8
F.CrtYd
 62
256
370
-1
 48
1.0
  6
BYLAYER
100
AcDbLine
 10
-13.1999999999999993
 20
0.7
 30
0.0
 11
-13.1999999999999993
 21
-5.4999999999999991
 31
0.0
  0
LINE
  5
221
100
AcDbEntity
  8
F.SilkS
 62
256
370
-1
 48
1.0
  6
BYLAYER
100
AcDbLine
 10
-12.8999999999999986
 20
-5.3999999999999995
 30
0.0
 11
-12.8999999999999986
 21
-4.1999999999999993
 31
0.0
  0
LINE
  5
222
100
AcDbEntity
  8
F.SilkS
 62
256
370
-1
 48
1.0
  6
BYLAYER
100
AcDbLine
 10
-12.8999999999999986
 20
-5.3999999999999995
 30
0.0
 11
12.8999999999999986
 21
-5.3999999999999995
 31
0.0
  0
LINE
  5
223
100
AcDbEntity
  8
F.SilkS
 62
256
370
-1
 48
1.0
  6
BYLAYER
100
AcDbLine
 10
12.8999999999999986
 20
-5.3999999999999995
 30
0.0
 11
12.8999999999999986
 21
-4.1999999999999993
 31
0.0
  0
LINE
  5
224
100
AcDbEntity
  8
F.SilkS
 62
256
370
-1
 48
1.0
  6
BYLAYER
100
AcDbLine
 10
-10.0999999999999996
 20
0.6
 30
0.0
 11
-10.0999999999999996
 21
-0.2
 31
0.0
  0
LINE
  5
225
100
AcDbEntity
  8
F.SilkS
 62
256
370
-1
 48
1.0
  6
BYLAYER
100
AcDbLine
 10
-10.0999999999999996
 20
-0.2
 30
0.0
 11
-12.8999999999999986
 21
-0.2
 31
0.0
  0
LINE
  5
226
100
AcDbEntity
  8
F.SilkS
 62
256
370
-1
 48
1.0
  6
BYLAYER
100
AcDbLine
 10
10.0999999999999996
 20
-0.2
 30
0.0
 11
12.8999999999999986
 21
-0.2
 31
0.0
  0
ENDSEC
  0
SECTION
  2
OBJECTS
  0
DICTIONARY
  5
C
100
AcDbDictionary
280
0
281
1
  3
ACAD_GROUP
350
D
  3
ACAD_LAYOUT
350
1A
  3
ACAD_MLINESTYLE
350
17
  3
ACAD_PLOTSETTINGS
350
19
  3
ACAD_PLOTSTYLENAME
350
E
  3
AcDbVariableDictionary
350
227
  3
QCAD_OBJECTS
350
228
  0
DICTIONARY
  5
D
100
AcDbDictionary
280
0
281
1
  0
ACDBDICTIONARYWDFLT
  5
E
100
AcDbDictionary
281
1
  3
Normal
350
F
100
AcDbDictionaryWithDefault
340
F
  0
ACDBPLACEHOLDER
  5
F
  0
DICTIONARY
  5
17
100
AcDbDictionary
280
0
281
1
  3
Standard
350
18
  0
MLINESTYLE
  5
18
100
AcDbMlineStyle
  2
STANDARD
 70
0
  3

 62
256
 51
90.0
 52
90.0
 71
2
 49
0.5
 62
256
  6
BYLAYER
 49
-0.5
 62
256
  6
BYLAYER
  0
DICTIONARY
  5
19
100
AcDbDictionary
280
0
281
1
  0
DICTIONARY
  5
1A
100
AcDbDictionary
281
1
  3
Layout1
350
1E
  3
Layout2
350
26
  3
Model
350
22
  0
LAYOUT
  5
1E
100
AcDbPlotSettings
  1

  2
none_device
  4

  6

 40
0.0
 41
0.0
 42
0.0
 43
0.0
 44
0.0
 45
0.0
 46
0.0
 47
0.0
 48
0.0
 49
0.0
140
0.0
141
0.0
142
1.0
143
1.0
 70
688
 72
0
 73
0
 74
5
  7

 75
16
147
1.0
148
0.0
149
0.0
100
AcDbLayout
  1
Layout1
 70
1
 71
1
 10
0.0
 20
0.0
 11
420.0
 21
297.0
 12
0.0
 22
0.0
 32
0.0
 14
100000000000000000000.0
 24
100000000000000000000.0
 34
100000000000000000000.0
 15
-100000000000000000000.0
 25
-100000000000000000000.0
 35
-100000000000000000000.0
146
0.0
 13
0.0
 23
0.0
 33
0.0
 16
1.0
 26
0.0
 36
0.0
 17
0.0
 27
1.0
 37
0.0
 76
0
330
1B
  0
LAYOUT
  5
22
100
AcDbPlotSettings
  1

  2
none_device
  4

  6

 40
0.0
 41
0.0
 42
0.0
 43
0.0
 44
0.0
 45
0.0
 46
0.0
 47
0.0
 48
0.0
 49
0.0
140
0.0
141
0.0
142
1.0
143
1.0
 70
1712
 72
0
 73
0
 74
0
  7

 75
0
147
1.0
148
0.0
149
0.0
100
AcDbLayout
  1
Model
 70
1
 71
0
 10
0.0
 20
0.0
 11
12.0
 21
9.0
 12
0.0
 22
0.0
 32
0.0
 14
0.0
 24
0.0
 34
0.0
 15
0.0
 25
0.0
 35
0.0
146
0.0
 13
0.0
 23
0.0
 33
0.0
 16
1.0
 26
0.0
 36
0.0
 17
0.0
 27
1.0
 37
0.0
 76
0
330
1F
  0
LAYOUT
  5
26
100
AcDbPlotSettings
  1

  2
none_device
  4

  6

 40
0.0
 41
0.0
 42
0.0
 43
0.0
 44
0.0
 45
0.0
 46
0.0
 47
0.0
 48
0.0
 49
0.0
140
0.0
141
0.0
142
1.0
143
1.0
 70
688
 72
0
 73
0
 74
5
  7

 75
16
147
1.0
148
0.0
149
0.0
100
AcDbLayout
  1
Layout2
 70
1
 71
2
 10
0.0
 20
0.0
 11
12.0
 21
9.0
 12
0.0
 22
0.0
 32
0.0
 14
0.0
 24
0.0
 34
0.0
 15
0.0
 25
0.0
 35
0.0
146
0.0
 13
0.0
 23
0.0
 33
0.0
 16
1.0
 26
0.0
 36
0.0
 17
0.0
 27
1.0
 37
0.0
 76
0
330
23
  0
DICTIONARY
  5
227
100
AcDbDictionary
281
1
  3
DIMASSOC
350
22A
  3
HIDETEXT
350
229
  0
DICTIONARYVAR
  5
229
100
DictionaryVariables
280
0
  1
2
  0
DICTIONARYVAR
  5
22A
100
DictionaryVariables
280
0
  1
1
  0
DICTIONARY
  5
228
100
AcDbDictionary
281
1
  3
ColorSettings/BackgroundColor
350
22B
  3
ColorSettings/ColorMode
350
22C
  3
Grid/DisplayGrid00
350
22D
  3
Grid/DisplayGrid01
350
22E
  3
Grid/DisplayGrid02
350
22F
  3
Grid/DisplayGrid03
350
230
  3
Grid/GridSpacingX00
350
231
  3
Grid/GridSpacingX01
350
232
  3
Grid/GridSpacingX02
350
233
  3
Grid/GridSpacingX03
350
234
  3
Grid/GridSpacingY00
350
235
  3
Grid/GridSpacingY01
350
236
  3
Grid/GridSpacingY02
350
237
  3
Grid/GridSpacingY03
350
238
  3
Grid/IsometricGrid00
350
239
  3
Grid/IsometricGrid01
350
23A
  3
Grid/IsometricGrid02
350
23B
  3
Grid/IsometricGrid03
350
23C
  3
Grid/IsometricProjection00
350
23D
  3
Grid/IsometricProjection01
350
23E
  3
Grid/IsometricProjection02
350
23F
  3
Grid/IsometricProjection03
350
240
  3
Grid/MetaGridSpacingX00
350
241
  3
Grid/MetaGridSpacingX01
350
242
  3
Grid/MetaGridSpacingX02
350
243
  3
Grid/MetaGridSpacingX03
350
244
  3
Grid/MetaGridSpacingY00
350
245
  3
Grid/MetaGridSpacingY01
350
246
  3
Grid/MetaGridSpacingY02
350
247
  3
Grid/MetaGridSpacingY03
350
248
  3
MultiPageSettings/Columns
350
249
  3
MultiPageSettings/GlueMarginsBottom
350
24A
  3
MultiPageSettings/GlueMarginsLeft
350
24B
  3
MultiPageSettings/GlueMarginsRight
350
24C
  3
MultiPageSettings/GlueMarginsTop
350
24D
  3
MultiPageSettings/PrintCropMarks
350
24E
  3
MultiPageSettings/Rows
350
24F
  3
PageSettings/OffsetX
350
250
  3
PageSettings/OffsetY
350
251
  3
PageSettings/PageOrientation
350
252
  3
PageSettings/PaperHeight
350
253
  3
PageSettings/PaperWidth
350
254
  3
PageSettings/Scale
350
255
  3
PageSettings/ShowPaperBorders
350
256
  3
PageTagSettings/EnablePageTags
350
257
  3
PageTagSettings/TagAlignment
350
258
  3
PageTagSettings/TagFont
350
259
  3
PageTagSettings/TagPosition
350
25A
  3
QCADVersion
350
25B
  3
UnitSettings/PaperUnit
350
25C
  3
ViewportCenter
350
25D
  3
ViewportHeight
350
25E
  3
ViewportWidth
350
25F
  0
XRECORD
  5
22B
330
228
100
AcDbXrecord
280
1
1000
White
  0
XRECORD
  5
22C
330
228
100
AcDbXrecord
280
1
1000
FullColor
  0
XRECORD
  5
22D
330
228
100
AcDbXrecord
280
1
290
1
  0
XRECORD
  5
22E
330
228
100
AcDbXrecord
280
1
290
1
  0
XRECORD
  5
22F
330
228
100
AcDbXrecord
280
1
290
1
  0
XRECORD
  5
230
330
228
100
AcDbXrecord
280
1
290
1
  0
XRECORD
  5
231
330
228
100
AcDbXrecord
280
1
1000
auto
  0
XRECORD
  5
232
330
228
100
AcDbXrecord
280
1
1000
auto
  0
XRECORD
  5
233
330
228
100
AcDbXrecord
280
1
1000
auto
  0
XRECORD
  5
234
330
228
100
AcDbXrecord
280
1
1000
auto
  0
XRECORD
  5
235
330
228
100
AcDbXrecord
280
1
1000
auto
  0
XRECORD
  5
236
330
228
100
AcDbXrecord
280
1
1000
auto
  0
XRECORD
  5
237
330
228
100
AcDbXrecord
280
1
1000
auto
  0
XRECORD
  5
238
330
228
100
AcDbXrecord
280
1
1000
auto
  0
XRECORD
  5
239
330
228
100
AcDbXrecord
280
1
290
0
  0
XRECORD
  5
23A
330
228
100
AcDbXrecord
280
1
290
0
  0
XRECORD
  5
23B
330
228
100
AcDbXrecord
280
1
290
0
  0
XRECORD
  5
23C
330
228
100
AcDbXrecord
280
1
290
0
  0
XRECORD
  5
23D
330
228
100
AcDbXrecord
280
1
 90
65537
  0
XRECORD
  5
23E
330
228
100
AcDbXrecord
280
1
 90
65537
  0
XRECORD
  5
23F
330
228
100
AcDbXrecord
280
1
 90
65537
  0
XRECORD
  5
240
330
228
100
AcDbXrecord
280
1
 90
65537
  0
XRECORD
  5
241
330
228
100
AcDbXrecord
280
1
1000
auto
  0
XRECORD
  5
242
330
228
100
AcDbXrecord
280
1
1000
auto
  0
XRECORD
  5
243
330
228
100
AcDbXrecord
280
1
1000
auto
  0
XRECORD
  5
244
330
228
100
AcDbXrecord
280
1
1000
auto
  0
XRECORD
  5
245
330
228
100
AcDbXrecord
280
1
1000
auto
  0
XRECORD
  5
246
330
228
100
AcDbXrecord
280
1
1000
auto
  0
XRECORD
  5
247
330
228
100
AcDbXrecord
280
1
1000
auto
  0
XRECORD
  5
248
330
228
100
AcDbXrecord
280
1
1000
auto
  0
XRECORD
  5
249
330
228
100
AcDbXrecord
280
1
 90
1
  0
XRECORD
  5
24A
330
228
100
AcDbXrecord
280
1
 40
10.0
  0
XRECORD
  5
24B
330
228
100
AcDbXrecord
280
1
 40
10.0
  0
XRECORD
  5
24C
330
228
100
AcDbXrecord
280
1
 40
10.0
  0
XRECORD
  5
24D
330
228
100
AcDbXrecord
280
1
 40
10.0
  0
XRECORD
  5
24E
330
228
100
AcDbXrecord
280
1
290
0
  0
XRECORD
  5
24F
330
228
100
AcDbXrecord
280
1
 90
1
  0
XRECORD
  5
250
330
228
100
AcDbXrecord
280
1
 40
0.0
  0
XRECORD
  5
251
330
228
100
AcDbXrecord
280
1
 40
0.0
  0
XRECORD
  5
252
330
228
100
AcDbXrecord
280
1
1000
Portrait
  0
XRECORD
  5
253
330
228
100
AcDbXrecord
280
1
 40
420.0
  0
XRECORD
  5
254
330
228
100
AcDbXrecord
280
1
 40
297.0
  0
XRECORD
  5
255
330
228
100
AcDbXrecord
280
1
1000
1:1
  0
XRECORD
  5
256
330
228
100
AcDbXrecord
280
1
290
1
  0
XRECORD
  5
257
330
228
100
AcDbXrecord
280
1
290
0
  0
XRECORD
  5
258
330
228
100
AcDbXrecord
280
1
1000
Inside
  0
XRECORD
  5
259
330
228
100
AcDbXrecord
280
1
1000
Arial,10,-1,5,50,0,0,0,0,0
  0
XRECORD
  5
25A
330
228
100
AcDbXrecord
280
1
1000
TopLeft
  0
XRECORD
  5
25B
330
228
100
AcDbXrecord
280
1
1000
3.26.1
  0
XRECORD
  5
25C
330
228
100
AcDbXrecord
280
1
 90
4
  0
XRECORD
  5
25E
330
228
100
AcDbXrecord
280
1
 40
25.3498834859888547
  0
XRECORD
  5
25F
330
228
100
AcDbXrecord
280
1
 40
21.2414049018781093
  0
ENDSEC
  0
EOF
