 0
SECTION
 2
HEADER
 0
ENDSEC
 0
SECTION
 2
TABLES
 0
ENDSEC
 0
SECTION
 2
BLOCKS
 0
BLOCK
 70
0
 2
21-0140L_T3255-5_MXM
 10
0
 20
0
 30
0
 999
##### POLY 9 ####
 0
SOLID
 5
36
 8
2
 10
-.0567126
 20
-.122311
 11
-.0567126
 21
-.132311
 12
-.0417126
 22
-.132311
 13
-.0417126
 23
-.132311
 999
##### POLY 9 ####
 0
SOLID
 5
36
 8
2
 10
-.0567126
 20
-.122311
 11
-.0417126
 21
-.132311
 12
-.0417126
 22
-.122311
 13
-.0417126
 23
-.122311
 999
##### POLY 18 ####
 0
SOLID
 5
36
 8
2
 10
.132311
 20
-.0023425
 11
.132311
 21
-.0173425
 12
.122311
 22
-.0173425
 13
.122311
 23
-.0173425
 999
##### POLY 18 ####
 0
SOLID
 5
36
 8
2
 10
.132311
 20
-.0023425
 11
.122311
 21
-.0173425
 12
.122311
 22
-.0023425
 13
.122311
 23
-.0023425
 999
##### POLY 27 ####
 0
SOLID
 5
36
 8
2
 10
-.0370276
 20
.122311
 11
-.0370276
 21
.132311
 12
-.0220276
 22
.132311
 13
-.0220276
 23
.132311
 999
##### POLY 27 ####
 0
SOLID
 5
36
 8
2
 10
-.0370276
 20
.122311
 11
-.0220276
 21
.132311
 12
-.0220276
 22
.122311
 13
-.0220276
 23
.122311
 999
##### POLY 69 ####
 0
SOLID
 5
36
 8
3
 10
-.059063
 20
.059063
 11
-.059063
 21
.003937
 12
-.003937
 22
.003937
 13
-.003937
 23
.003937
 999
##### POLY 69 ####
 0
SOLID
 5
36
 8
3
 10
-.059063
 20
.059063
 11
-.003937
 21
.003937
 12
-.003937
 22
.059063
 13
-.003937
 23
.059063
 999
##### POLY 70 ####
 0
SOLID
 5
36
 8
3
 10
-.059063
 20
-.003937
 11
-.059063
 21
-.059063
 12
-.003937
 22
-.059063
 13
-.003937
 23
-.059063
 999
##### POLY 70 ####
 0
SOLID
 5
36
 8
3
 10
-.059063
 20
-.003937
 11
-.003937
 21
-.059063
 12
-.003937
 22
-.003937
 13
-.003937
 23
-.003937
 999
##### POLY 71 ####
 0
SOLID
 5
36
 8
3
 10
.003937
 20
.059063
 11
.003937
 21
.003937
 12
.059063
 22
.003937
 13
.059063
 23
.003937
 999
##### POLY 71 ####
 0
SOLID
 5
36
 8
3
 10
.003937
 20
.059063
 11
.059063
 21
.003937
 12
.059063
 22
.059063
 13
.059063
 23
.059063
 999
##### POLY 72 ####
 0
SOLID
 5
36
 8
3
 10
.003937
 20
-.003937
 11
.003937
 21
-.059063
 12
.059063
 22
-.059063
 13
.059063
 23
-.059063
 999
##### POLY 72 ####
 0
SOLID
 5
36
 8
3
 10
.003937
 20
-.003937
 11
.059063
 21
-.059063
 12
.059063
 22
-.003937
 13
.059063
 23
-.003937
 999
##### LINE 73 ####
 0
SOLID
 5
36
 8
8
 10
-.1135
 20
-.1105
 11
-.1075
 21
-.1105
 12
-.1135
 22
-8.39133911132812E-02
 13
-.1075
 23
-8.39133911132812E-02
 999
##### LINE 74 ####
 0
SOLID
 5
36
 8
8
 10
-.1105
 20
-8.69133911132813E-02
 11
-.1105
 21
-8.09133911132812E-02
 12
-.122310997009277
 22
-8.69133911132813E-02
 13
-.122310997009277
 23
-8.09133911132812E-02
 999
##### LINE 75 ####
 0
SOLID
 5
36
 8
8
 10
-.125310997009277
 20
-8.39133911132812E-02
 11
-.119310997009277
 21
-8.39133911132812E-02
 12
-.125310997009277
 22
8.39133911132812E-02
 13
-.119310997009277
 23
8.39133911132812E-02
 999
##### LINE 76 ####
 0
SOLID
 5
36
 8
8
 10
-.122310997009277
 20
8.69133911132813E-02
 11
-.122310997009277
 21
8.09133911132812E-02
 12
-.1105
 22
8.69133911132813E-02
 13
-.1105
 23
8.09133911132812E-02
 999
##### LINE 77 ####
 0
SOLID
 5
36
 8
8
 10
-.1135
 20
8.39133911132812E-02
 11
-.1075
 21
8.39133911132812E-02
 12
-.1135
 22
.1105
 13
-.1075
 23
.1105
 999
##### LINE 78 ####
 0
SOLID
 5
36
 8
8
 10
-.1105
 20
.1135
 11
-.1105
 21
.1075
 12
-8.39133911132812E-02
 22
.1135
 13
-8.39133911132812E-02
 23
.1075
 999
##### LINE 79 ####
 0
SOLID
 5
36
 8
8
 10
-8.69133911132813E-02
 20
.1105
 11
-8.09133911132812E-02
 21
.1105
 12
-8.69133911132813E-02
 22
.122310997009277
 13
-8.09133911132812E-02
 23
.122310997009277
 999
##### LINE 80 ####
 0
SOLID
 5
36
 8
8
 10
-8.39133911132812E-02
 20
.125310997009277
 11
-8.39133911132812E-02
 21
.119310997009277
 12
8.39133911132812E-02
 22
.125310997009277
 13
8.39133911132812E-02
 23
.119310997009277
 999
##### LINE 81 ####
 0
SOLID
 5
36
 8
8
 10
8.69133911132813E-02
 20
.122310997009277
 11
8.09133911132812E-02
 21
.122310997009277
 12
8.69133911132813E-02
 22
.1105
 13
8.09133911132812E-02
 23
.1105
 999
##### LINE 82 ####
 0
SOLID
 5
36
 8
8
 10
8.39133911132812E-02
 20
.1135
 11
8.39133911132812E-02
 21
.1075
 12
.1105
 22
.1135
 13
.1105
 23
.1075
 999
##### LINE 83 ####
 0
SOLID
 5
36
 8
8
 10
.1135
 20
.1105
 11
.1075
 21
.1105
 12
.1135
 22
8.39133911132812E-02
 13
.1075
 23
8.39133911132812E-02
 999
##### LINE 84 ####
 0
SOLID
 5
36
 8
8
 10
.1105
 20
8.69133911132813E-02
 11
.1105
 21
8.09133911132812E-02
 12
.122310997009277
 22
8.69133911132813E-02
 13
.122310997009277
 23
8.09133911132812E-02
 999
##### LINE 85 ####
 0
SOLID
 5
36
 8
8
 10
.125310997009277
 20
8.39133911132812E-02
 11
.119310997009277
 21
8.39133911132812E-02
 12
.125310997009277
 22
-8.39133911132812E-02
 13
.119310997009277
 23
-8.39133911132812E-02
 999
##### LINE 86 ####
 0
SOLID
 5
36
 8
8
 10
.122310997009277
 20
-8.69133911132813E-02
 11
.122310997009277
 21
-8.09133911132812E-02
 12
.1105
 22
-8.69133911132813E-02
 13
.1105
 23
-8.09133911132812E-02
 999
##### LINE 87 ####
 0
SOLID
 5
36
 8
8
 10
.1135
 20
-8.39133911132812E-02
 11
.1075
 21
-8.39133911132812E-02
 12
.1135
 22
-.1105
 13
.1075
 23
-.1105
 999
##### LINE 88 ####
 0
SOLID
 5
36
 8
8
 10
.1105
 20
-.1135
 11
.1105
 21
-.1075
 12
8.39133911132812E-02
 22
-.1135
 13
8.39133911132812E-02
 23
-.1075
 999
##### LINE 89 ####
 0
SOLID
 5
36
 8
8
 10
8.69133911132813E-02
 20
-.1105
 11
8.09133911132812E-02
 21
-.1105
 12
8.69133911132813E-02
 22
-.122310997009277
 13
8.09133911132812E-02
 23
-.122310997009277
 999
##### LINE 90 ####
 0
SOLID
 5
36
 8
8
 10
8.39133911132812E-02
 20
-.125310997009277
 11
8.39133911132812E-02
 21
-.119310997009277
 12
-8.39133911132812E-02
 22
-.125310997009277
 13
-8.39133911132812E-02
 23
-.119310997009277
 999
##### LINE 91 ####
 0
SOLID
 5
36
 8
8
 10
-8.69133911132813E-02
 20
-.122310997009277
 11
-8.09133911132812E-02
 21
-.122310997009277
 12
-8.69133911132813E-02
 22
-.1105
 13
-8.09133911132812E-02
 23
-.1105
 999
##### LINE 92 ####
 0
SOLID
 5
36
 8
8
 10
-8.39133911132812E-02
 20
-.1135
 11
-8.39133911132812E-02
 21
-.1075
 12
-.1105
 22
-.1135
 13
-.1105
 23
-.1075
 999
##### POLY 93 ####
 0
SOLID
 5
36
 8
8
 10
-.1105
 20
-.1105
 11
-.1105
 21
-8.39133911132812E-02
 12
-8.39133911132812E-02
 22
.1105
 13
-8.39133911132812E-02
 23
.1105
 999
##### POLY 93 ####
 0
SOLID
 5
36
 8
8
 10
-.1105
 20
-8.39133911132812E-02
 11
-.122310997009277
 21
-8.39133911132812E-02
 12
-.122310997009277
 22
8.39133911132812E-02
 13
-.122310997009277
 23
8.39133911132812E-02
 999
##### POLY 93 ####
 0
SOLID
 5
36
 8
8
 10
-.1105
 20
-8.39133911132812E-02
 11
-.122310997009277
 21
8.39133911132812E-02
 12
-.1105
 22
8.39133911132812E-02
 13
-.1105
 23
8.39133911132812E-02
 999
##### POLY 93 ####
 0
SOLID
 5
36
 8
8
 10
-.1105
 20
-8.39133911132812E-02
 11
-.1105
 21
8.39133911132812E-02
 12
-8.39133911132812E-02
 22
.1105
 13
-8.39133911132812E-02
 23
.1105
 999
##### POLY 93 ####
 0
SOLID
 5
36
 8
8
 10
-.1105
 20
8.39133911132812E-02
 11
-.1105
 21
.1105
 12
-8.39133911132812E-02
 22
.1105
 13
-8.39133911132812E-02
 23
.1105
 999
##### POLY 93 ####
 0
SOLID
 5
36
 8
8
 10
-.1105
 20
-.1105
 11
-8.39133911132812E-02
 21
.1105
 12
8.39133911132812E-02
 22
.122310997009277
 13
8.39133911132812E-02
 23
.122310997009277
 999
##### POLY 93 ####
 0
SOLID
 5
36
 8
8
 10
-8.39133911132812E-02
 20
.1105
 11
-8.39133911132812E-02
 21
.122310997009277
 12
8.39133911132812E-02
 22
.122310997009277
 13
8.39133911132812E-02
 23
.122310997009277
 999
##### POLY 93 ####
 0
SOLID
 5
36
 8
8
 10
-.1105
 20
-.1105
 11
8.39133911132812E-02
 21
.122310997009277
 12
8.39133911132812E-02
 22
.1105
 13
8.39133911132812E-02
 23
.1105
 999
##### POLY 93 ####
 0
SOLID
 5
36
 8
8
 10
-.1105
 20
-.1105
 11
8.39133911132812E-02
 21
.1105
 12
.1105
 22
.1105
 13
.1105
 23
.1105
 999
##### POLY 93 ####
 0
SOLID
 5
36
 8
8
 10
-.1105
 20
-.1105
 11
.1105
 21
.1105
 12
.1105
 22
8.39133911132812E-02
 13
.1105
 23
8.39133911132812E-02
 999
##### POLY 93 ####
 0
SOLID
 5
36
 8
8
 10
-.1105
 20
-.1105
 11
.1105
 21
8.39133911132812E-02
 12
.122310997009277
 22
8.39133911132812E-02
 13
.122310997009277
 23
8.39133911132812E-02
 999
##### POLY 93 ####
 0
SOLID
 5
36
 8
8
 10
-.1105
 20
-.1105
 11
.122310997009277
 21
8.39133911132812E-02
 12
.1105
 22
-8.39133911132812E-02
 13
.1105
 23
-8.39133911132812E-02
 999
##### POLY 93 ####
 0
SOLID
 5
36
 8
8
 10
.122310997009277
 20
8.39133911132812E-02
 11
.122310997009277
 21
-8.39133911132812E-02
 12
.1105
 22
-8.39133911132812E-02
 13
.1105
 23
-8.39133911132812E-02
 999
##### POLY 93 ####
 0
SOLID
 5
36
 8
8
 10
-.1105
 20
-.1105
 11
.1105
 21
-8.39133911132812E-02
 12
-8.39133911132812E-02
 22
-.1105
 13
-8.39133911132812E-02
 23
-.1105
 999
##### POLY 93 ####
 0
SOLID
 5
36
 8
8
 10
.1105
 20
-8.39133911132812E-02
 11
.1105
 21
-.1105
 12
8.39133911132812E-02
 22
-.1105
 13
8.39133911132812E-02
 23
-.1105
 999
##### POLY 93 ####
 0
SOLID
 5
36
 8
8
 10
.1105
 20
-8.39133911132812E-02
 11
8.39133911132812E-02
 21
-.1105
 12
-8.39133911132812E-02
 22
-.122310997009277
 13
-8.39133911132812E-02
 23
-.122310997009277
 999
##### POLY 93 ####
 0
SOLID
 5
36
 8
8
 10
8.39133911132812E-02
 20
-.1105
 11
8.39133911132812E-02
 21
-.122310997009277
 12
-8.39133911132812E-02
 22
-.122310997009277
 13
-8.39133911132812E-02
 23
-.122310997009277
 999
##### POLY 93 ####
 0
SOLID
 5
36
 8
8
 10
.1105
 20
-8.39133911132812E-02
 11
-8.39133911132812E-02
 21
-.122310997009277
 12
-8.39133911132812E-02
 22
-.1105
 13
-8.39133911132812E-02
 23
-.1105
 999
##### POLY 125 ####
 0
SOLID
 5
36
 8
23
 10
-.137311004638672
 20
-.137311004638672
 11
-.137311004638672
 21
.137311004638672
 12
.137311004638672
 22
.137311004638672
 13
.137311004638672
 23
.137311004638672
 999
##### POLY 125 ####
 0
SOLID
 5
36
 8
23
 10
-.137311004638672
 20
-.137311004638672
 11
.137311004638672
 21
.137311004638672
 12
.137311004638672
 22
-.137311004638672
 13
.137311004638672
 23
-.137311004638672
 999
##### LINE 263 ####
 0
LINE
 5
36
 8
18
 6
CONTINUOUS
 10
-9.64055023193359E-02
 20
6.88976364135742E-02
 11
-.171405502319336
 21
6.88976364135742E-02
 999
##### LINE 264 ####
 0
LINE
 5
36
 8
18
 6
CONTINUOUS
 10
-9.64055023193359E-02
 20
4.92126007080078E-02
 11
-.171405502319336
 21
4.92126007080078E-02
 999
##### LINE 265 ####
 0
LINE
 5
36
 8
18
 6
CONTINUOUS
 10
-.156405502319336
 20
6.88976364135742E-02
 11
-.156405502319336
 21
.118897636413574
 999
##### LINE 266 ####
 0
LINE
 5
36
 8
18
 6
CONTINUOUS
 10
-.156405502319336
 20
4.92126007080078E-02
 11
-.156405502319336
 21
-7.87399291992188E-04
 999
##### LINE 267 ####
 0
LINE
 5
36
 8
18
 6
CONTINUOUS
 10
-.156405502319336
 20
6.88976364135742E-02
 11
-.161405502319336
 21
7.88976364135742E-02
 999
##### LINE 268 ####
 0
LINE
 5
36
 8
18
 6
CONTINUOUS
 10
-.156405502319336
 20
6.88976364135742E-02
 11
-.151405502319336
 21
7.88976364135742E-02
 999
##### LINE 269 ####
 0
LINE
 5
36
 8
18
 6
CONTINUOUS
 10
-.161405502319336
 20
7.88976364135742E-02
 11
-.151405502319336
 21
7.88976364135742E-02
 999
##### LINE 270 ####
 0
LINE
 5
36
 8
18
 6
CONTINUOUS
 10
-.156405502319336
 20
4.92126007080078E-02
 11
-.161405502319336
 21
3.92126007080078E-02
 999
##### LINE 271 ####
 0
LINE
 5
36
 8
18
 6
CONTINUOUS
 10
-.156405502319336
 20
4.92126007080078E-02
 11
-.151405502319336
 21
3.92126007080078E-02
 999
##### LINE 272 ####
 0
LINE
 5
36
 8
18
 6
CONTINUOUS
 10
-.161405502319336
 20
3.92126007080078E-02
 11
-.151405502319336
 21
3.92126007080078E-02
 999
##### TEXT 273 ####
 0
TEXT
 5
36
 8
18
 1
0.02in/0.5mm
 10
-.176405502319336
 20
.059055118560791
 11
-.176405502319336
 21
.059055118560791
 72
2
 73
2
 39
.001
 40
.025
 50
0
 999
##### LINE 274 ####
 0
LINE
 5
36
 8
18
 6
CONTINUOUS
 10
-.112310997009277
 20
6.88976364135742E-02
 11
-.112310997009277
 21
.211405502319336
 999
##### LINE 275 ####
 0
LINE
 5
36
 8
18
 6
CONTINUOUS
 10
-.0805
 20
6.88976364135742E-02
 11
-.0805
 21
.211405502319336
 999
##### LINE 276 ####
 0
LINE
 5
36
 8
18
 6
CONTINUOUS
 10
-.112310997009277
 20
.196405502319336
 11
-.162310997009277
 21
.196405502319336
 999
##### LINE 277 ####
 0
LINE
 5
36
 8
18
 6
CONTINUOUS
 10
-.0805
 20
.196405502319336
 11
-.0305
 21
.196405502319336
 999
##### LINE 278 ####
 0
LINE
 5
36
 8
18
 6
CONTINUOUS
 10
-.112310997009277
 20
.196405502319336
 11
-.122310997009277
 21
.201405502319336
 999
##### LINE 279 ####
 0
LINE
 5
36
 8
18
 6
CONTINUOUS
 10
-.112310997009277
 20
.196405502319336
 11
-.122310997009277
 21
.191405502319336
 999
##### LINE 280 ####
 0
LINE
 5
36
 8
18
 6
CONTINUOUS
 10
-.122310997009277
 20
.201405502319336
 11
-.122310997009277
 21
.191405502319336
 999
##### LINE 281 ####
 0
LINE
 5
36
 8
18
 6
CONTINUOUS
 10
-.0805
 20
.196405502319336
 11
-.0705
 21
.201405502319336
 999
##### LINE 282 ####
 0
LINE
 5
36
 8
18
 6
CONTINUOUS
 10
-.0805
 20
.196405502319336
 11
-.0705
 21
.191405502319336
 999
##### LINE 283 ####
 0
LINE
 5
36
 8
18
 6
CONTINUOUS
 10
-.0705
 20
.201405502319336
 11
-.0705
 21
.191405502319336
 999
##### TEXT 284 ####
 0
TEXT
 5
36
 8
18
 1
0.032in/0.808mm
 10
-9.64055023193359E-02
 20
.216405502319336
 11
-9.64055023193359E-02
 21
.216405502319336
 72
1
 73
1
 39
.001
 40
.025
 50
0
 999
##### LINE 285 ####
 0
LINE
 5
36
 8
18
 6
CONTINUOUS
 10
-9.64055023193359E-02
 20
-6.38818893432617E-02
 11
-.211405502319336
 21
-6.38818893432617E-02
 999
##### LINE 286 ####
 0
LINE
 5
36
 8
18
 6
CONTINUOUS
 10
-9.64055023193359E-02
 20
-7.39133911132813E-02
 11
-.211405502319336
 21
-7.39133911132813E-02
 999
##### LINE 287 ####
 0
LINE
 5
36
 8
18
 6
CONTINUOUS
 10
-.196405502319336
 20
-6.38818893432617E-02
 11
-.196405502319336
 21
-1.38818893432617E-02
 999
##### LINE 288 ####
 0
LINE
 5
36
 8
18
 6
CONTINUOUS
 10
-.196405502319336
 20
-7.39133911132813E-02
 11
-.196405502319336
 21
-.123913391113281
 999
##### LINE 289 ####
 0
LINE
 5
36
 8
18
 6
CONTINUOUS
 10
-.196405502319336
 20
-6.38818893432617E-02
 11
-.201405502319336
 21
-5.38818893432617E-02
 999
##### LINE 290 ####
 0
LINE
 5
36
 8
18
 6
CONTINUOUS
 10
-.196405502319336
 20
-6.38818893432617E-02
 11
-.191405502319336
 21
-5.38818893432617E-02
 999
##### LINE 291 ####
 0
LINE
 5
36
 8
18
 6
CONTINUOUS
 10
-.201405502319336
 20
-5.38818893432617E-02
 11
-.191405502319336
 21
-5.38818893432617E-02
 999
##### LINE 292 ####
 0
LINE
 5
36
 8
18
 6
CONTINUOUS
 10
-.196405502319336
 20
-7.39133911132813E-02
 11
-.201405502319336
 21
-8.39133911132812E-02
 999
##### LINE 293 ####
 0
LINE
 5
36
 8
18
 6
CONTINUOUS
 10
-.196405502319336
 20
-7.39133911132813E-02
 11
-.191405502319336
 21
-8.39133911132812E-02
 999
##### LINE 294 ####
 0
LINE
 5
36
 8
18
 6
CONTINUOUS
 10
-.201405502319336
 20
-8.39133911132812E-02
 11
-.191405502319336
 21
-8.39133911132812E-02
 999
##### TEXT 295 ####
 0
TEXT
 5
36
 8
18
 1
0.01in/0.255mm
 10
-.216405502319336
 20
-9.64055023193359E-02
 11
-.216405502319336
 21
-9.64055023193359E-02
 72
2
 73
2
 39
.001
 40
.025
 50
0
 999
##### LINE 296 ####
 0
LINE
 5
36
 8
18
 6
CONTINUOUS
 10
-9.64055023193359E-02
 20
-6.88976364135742E-02
 11
-9.64055023193359E-02
 21
-.311405487060547
 999
##### LINE 297 ####
 0
LINE
 5
36
 8
18
 6
CONTINUOUS
 10
9.64055023193359E-02
 20
-6.88976364135742E-02
 11
9.64055023193359E-02
 21
-.311405487060547
 999
##### LINE 298 ####
 0
LINE
 5
36
 8
18
 6
CONTINUOUS
 10
-9.64055023193359E-02
 20
-.296405487060547
 11
9.64055023193359E-02
 21
-.296405487060547
 999
##### LINE 299 ####
 0
LINE
 5
36
 8
18
 6
CONTINUOUS
 10
-9.64055023193359E-02
 20
-.296405487060547
 11
-8.64055023193359E-02
 21
-.291405487060547
 999
##### LINE 300 ####
 0
LINE
 5
36
 8
18
 6
CONTINUOUS
 10
-9.64055023193359E-02
 20
-.296405487060547
 11
-8.64055023193359E-02
 21
-.301405487060547
 999
##### LINE 301 ####
 0
LINE
 5
36
 8
18
 6
CONTINUOUS
 10
-8.64055023193359E-02
 20
-.291405487060547
 11
-8.64055023193359E-02
 21
-.301405487060547
 999
##### LINE 302 ####
 0
LINE
 5
36
 8
18
 6
CONTINUOUS
 10
9.64055023193359E-02
 20
-.296405487060547
 11
8.64055023193359E-02
 21
-.291405487060547
 999
##### LINE 303 ####
 0
LINE
 5
36
 8
18
 6
CONTINUOUS
 10
9.64055023193359E-02
 20
-.296405487060547
 11
8.64055023193359E-02
 21
-.301405487060547
 999
##### LINE 304 ####
 0
LINE
 5
36
 8
18
 6
CONTINUOUS
 10
8.64055023193359E-02
 20
-.291405487060547
 11
8.64055023193359E-02
 21
-.301405487060547
 999
##### TEXT 305 ####
 0
TEXT
 5
36
 8
18
 1
0.193in/4.897mm
 10
0
 20
-.316405487060547
 11
0
 21
-.316405487060547
 72
1
 73
3
 39
.001
 40
.025
 50
0
 999
##### LINE 306 ####
 0
LINE
 5
36
 8
18
 6
CONTINUOUS
 10
6.88976364135742E-02
 20
9.64055023193359E-02
 11
.311405487060547
 21
9.64055023193359E-02
 999
##### LINE 307 ####
 0
LINE
 5
36
 8
18
 6
CONTINUOUS
 10
6.88976364135742E-02
 20
-9.64055023193359E-02
 11
.311405487060547
 21
-9.64055023193359E-02
 999
##### LINE 308 ####
 0
LINE
 5
36
 8
18
 6
CONTINUOUS
 10
.296405487060547
 20
9.64055023193359E-02
 11
.296405487060547
 21
-9.64055023193359E-02
 999
##### LINE 309 ####
 0
LINE
 5
36
 8
18
 6
CONTINUOUS
 10
.296405487060547
 20
9.64055023193359E-02
 11
.291405487060547
 21
8.64055023193359E-02
 999
##### LINE 310 ####
 0
LINE
 5
36
 8
18
 6
CONTINUOUS
 10
.296405487060547
 20
9.64055023193359E-02
 11
.301405487060547
 21
8.64055023193359E-02
 999
##### LINE 311 ####
 0
LINE
 5
36
 8
18
 6
CONTINUOUS
 10
.291405487060547
 20
8.64055023193359E-02
 11
.301405487060547
 21
8.64055023193359E-02
 999
##### LINE 312 ####
 0
LINE
 5
36
 8
18
 6
CONTINUOUS
 10
.296405487060547
 20
-9.64055023193359E-02
 11
.291405487060547
 21
-8.64055023193359E-02
 999
##### LINE 313 ####
 0
LINE
 5
36
 8
18
 6
CONTINUOUS
 10
.296405487060547
 20
-9.64055023193359E-02
 11
.301405487060547
 21
-8.64055023193359E-02
 999
##### LINE 314 ####
 0
LINE
 5
36
 8
18
 6
CONTINUOUS
 10
.291405487060547
 20
-8.64055023193359E-02
 11
.301405487060547
 21
-8.64055023193359E-02
 999
##### TEXT 315 ####
 0
TEXT
 5
36
 8
18
 1
0.193in/4.897mm
 10
.316405487060547
 20
-.025
 11
.316405487060547
 21
-.025
 72
0
 73
2
 39
.001
 40
.025
 50
0
 999
##### LINE 316 ####
 0
LINE
 5
36
 8
18
 6
CONTINUOUS
 10
-.063
 20
-.063
 11
-.063
 21
-.178
 999
##### LINE 317 ####
 0
LINE
 5
36
 8
18
 6
CONTINUOUS
 10
.063
 20
-.063
 11
.063
 21
-.178
 999
##### LINE 318 ####
 0
LINE
 5
36
 8
18
 6
CONTINUOUS
 10
-.063
 20
-.163
 11
-.113
 21
-.163
 999
##### LINE 319 ####
 0
LINE
 5
36
 8
18
 6
CONTINUOUS
 10
.063
 20
-.163
 11
.113
 21
-.163
 999
##### LINE 320 ####
 0
LINE
 5
36
 8
18
 6
CONTINUOUS
 10
-.063
 20
-.163
 11
-.073
 21
-.158
 999
##### LINE 321 ####
 0
LINE
 5
36
 8
18
 6
CONTINUOUS
 10
-.063
 20
-.163
 11
-.073
 21
-.168
 999
##### LINE 322 ####
 0
LINE
 5
36
 8
18
 6
CONTINUOUS
 10
-.073
 20
-.158
 11
-.073
 21
-.168
 999
##### LINE 323 ####
 0
LINE
 5
36
 8
18
 6
CONTINUOUS
 10
.063
 20
-.163
 11
.073
 21
-.158
 999
##### LINE 324 ####
 0
LINE
 5
36
 8
18
 6
CONTINUOUS
 10
.063
 20
-.163
 11
.073
 21
-.168
 999
##### LINE 325 ####
 0
LINE
 5
36
 8
18
 6
CONTINUOUS
 10
.073
 20
-.158
 11
.073
 21
-.168
 999
##### TEXT 326 ####
 0
TEXT
 5
36
 8
18
 1
0.126in/3.2mm
 10
0
 20
-.183
 11
0
 21
-.183
 72
1
 73
3
 39
.001
 40
.025
 50
0
 999
##### LINE 327 ####
 0
LINE
 5
36
 8
18
 6
CONTINUOUS
 10
.063
 20
.063
 11
.178
 21
.063
 999
##### LINE 328 ####
 0
LINE
 5
36
 8
18
 6
CONTINUOUS
 10
.063
 20
-.063
 11
.178
 21
-.063
 999
##### LINE 329 ####
 0
LINE
 5
36
 8
18
 6
CONTINUOUS
 10
.163
 20
.063
 11
.163
 21
.113
 999
##### LINE 330 ####
 0
LINE
 5
36
 8
18
 6
CONTINUOUS
 10
.163
 20
-.063
 11
.163
 21
-.113
 999
##### LINE 331 ####
 0
LINE
 5
36
 8
18
 6
CONTINUOUS
 10
.163
 20
.063
 11
.158
 21
.073
 999
##### LINE 332 ####
 0
LINE
 5
36
 8
18
 6
CONTINUOUS
 10
.163
 20
.063
 11
.168
 21
.073
 999
##### LINE 333 ####
 0
LINE
 5
36
 8
18
 6
CONTINUOUS
 10
.158
 20
.073
 11
.168
 21
.073
 999
##### LINE 334 ####
 0
LINE
 5
36
 8
18
 6
CONTINUOUS
 10
.163
 20
-.063
 11
.158
 21
-.073
 999
##### LINE 335 ####
 0
LINE
 5
36
 8
18
 6
CONTINUOUS
 10
.163
 20
-.063
 11
.168
 21
-.073
 999
##### LINE 336 ####
 0
LINE
 5
36
 8
18
 6
CONTINUOUS
 10
.158
 20
-.073
 11
.168
 21
-.073
 999
##### TEXT 337 ####
 0
TEXT
 5
36
 8
18
 1
0.126in/3.2mm
 10
.183
 20
.025
 11
.183
 21
.025
 72
0
 73
2
 39
.001
 40
.025
 50
0
 999
##### ATTRIBUTE 338 ####
 0
TEXT
 5
36
 8
2
 1
RefDes
 10
0
 20
0
 11
0
 21
0
 72
1
 73
2
 39
.003
 40
.05
 41
.0005
 50
0
 999
##### LINE 340 ####
 0
SOLID
 5
36
 8
2
 10
-8.70133503128052E-02
 20
.1025
 11
-8.70133503128052E-02
 21
.1085
 12
-.1055
 22
.1025
 13
-.1055
 23
.1085
 999
##### LINE 341 ####
 0
SOLID
 5
36
 8
2
 10
.1025
 20
8.70133503128052E-02
 11
.1085
 21
8.70133503128052E-02
 12
.1025
 22
.1055
 13
.1085
 23
.1055
 999
##### LINE 342 ####
 0
SOLID
 5
36
 8
2
 10
8.70133503128052E-02
 20
-.1025
 11
8.70133503128052E-02
 21
-.1085
 12
.1055
 22
-.1025
 13
.1055
 23
-.1085
 999
##### TEXT 422 ####
 0
TEXT
 5
36
 8
2
 1
*
 10
-.137311004638672
 20
7.87401580810547E-02
 11
-.137311004638672
 21
7.87401580810547E-02
 72
1
 73
2
 39
.003
 40
.05
 41
.0005
 50
0
 999
##### TEXT 423 ####
 0
TEXT
 5
36
 8
1
 1
*
 10
-.0805
 20
7.87401580810547E-02
 11
-.0805
 21
7.87401580810547E-02
 72
1
 73
2
 39
.003
 40
.05
 41
.0005
 50
0
 999
##### LINE 424 ####
 0
LINE
 5
36
 8
1
 6
CONTINUOUS
 10
-.1005
 20
.0505
 11
-.0505
 21
.1005
 999
##### LINE 425 ####
 0
LINE
 5
36
 8
1
 6
CONTINUOUS
 10
6.28976364135742E-02
 20
.1005
 11
7.48976364135742E-02
 21
.1005
 999
##### LINE 426 ####
 0
LINE
 5
36
 8
1
 6
CONTINUOUS
 10
7.48976364135742E-02
 20
.1005
 11
7.48976364135742E-02
 21
.1005
 999
##### LINE 427 ####
 0
LINE
 5
36
 8
1
 6
CONTINUOUS
 10
7.48976364135742E-02
 20
.1005
 11
6.28976364135742E-02
 21
.1005
 999
##### LINE 428 ####
 0
LINE
 5
36
 8
1
 6
CONTINUOUS
 10
6.28976364135742E-02
 20
.1005
 11
6.28976364135742E-02
 21
.1005
 999
##### LINE 430 ####
 0
LINE
 5
36
 8
1
 6
CONTINUOUS
 10
4.32125968933105E-02
 20
.1005
 11
5.52125968933105E-02
 21
.1005
 999
##### LINE 431 ####
 0
LINE
 5
36
 8
1
 6
CONTINUOUS
 10
5.52125968933105E-02
 20
.1005
 11
5.52125968933105E-02
 21
.1005
 999
##### LINE 432 ####
 0
LINE
 5
36
 8
1
 6
CONTINUOUS
 10
5.52125968933105E-02
 20
.1005
 11
4.32125968933105E-02
 21
.1005
 999
##### LINE 433 ####
 0
LINE
 5
36
 8
1
 6
CONTINUOUS
 10
4.32125968933105E-02
 20
.1005
 11
4.32125968933105E-02
 21
.1005
 999
##### LINE 435 ####
 0
LINE
 5
36
 8
1
 6
CONTINUOUS
 10
2.35275573730469E-02
 20
.1005
 11
3.55275573730469E-02
 21
.1005
 999
##### LINE 436 ####
 0
LINE
 5
36
 8
1
 6
CONTINUOUS
 10
3.55275573730469E-02
 20
.1005
 11
3.55275573730469E-02
 21
.1005
 999
##### LINE 437 ####
 0
LINE
 5
36
 8
1
 6
CONTINUOUS
 10
3.55275573730469E-02
 20
.1005
 11
2.35275573730469E-02
 21
.1005
 999
##### LINE 438 ####
 0
LINE
 5
36
 8
1
 6
CONTINUOUS
 10
2.35275573730469E-02
 20
.1005
 11
2.35275573730469E-02
 21
.1005
 999
##### LINE 440 ####
 0
LINE
 5
36
 8
1
 6
CONTINUOUS
 10
3.8425178527832E-03
 20
.1005
 11
1.58425178527832E-02
 21
.1005
 999
##### LINE 441 ####
 0
LINE
 5
36
 8
1
 6
CONTINUOUS
 10
1.58425178527832E-02
 20
.1005
 11
1.58425178527832E-02
 21
.1005
 999
##### LINE 442 ####
 0
LINE
 5
36
 8
1
 6
CONTINUOUS
 10
1.58425178527832E-02
 20
.1005
 11
3.8425178527832E-03
 21
.1005
 999
##### LINE 443 ####
 0
LINE
 5
36
 8
1
 6
CONTINUOUS
 10
3.8425178527832E-03
 20
.1005
 11
3.8425178527832E-03
 21
.1005
 999
##### LINE 445 ####
 0
LINE
 5
36
 8
1
 6
CONTINUOUS
 10
-1.58425216674805E-02
 20
.1005
 11
-3.84252166748047E-03
 21
.1005
 999
##### LINE 446 ####
 0
LINE
 5
36
 8
1
 6
CONTINUOUS
 10
-3.84252166748047E-03
 20
.1005
 11
-3.84252166748047E-03
 21
.1005
 999
##### LINE 447 ####
 0
LINE
 5
36
 8
1
 6
CONTINUOUS
 10
-3.84252166748047E-03
 20
.1005
 11
-1.58425216674805E-02
 21
.1005
 999
##### LINE 448 ####
 0
LINE
 5
36
 8
1
 6
CONTINUOUS
 10
-1.58425216674805E-02
 20
.1005
 11
-1.58425216674805E-02
 21
.1005
 999
##### LINE 450 ####
 0
LINE
 5
36
 8
1
 6
CONTINUOUS
 10
-3.55275611877441E-02
 20
.1005
 11
-2.35275611877441E-02
 21
.1005
 999
##### LINE 451 ####
 0
LINE
 5
36
 8
1
 6
CONTINUOUS
 10
-2.35275611877441E-02
 20
.1005
 11
-2.35275611877441E-02
 21
.1005
 999
##### LINE 452 ####
 0
LINE
 5
36
 8
1
 6
CONTINUOUS
 10
-2.35275611877441E-02
 20
.1005
 11
-3.55275611877441E-02
 21
.1005
 999
##### LINE 453 ####
 0
LINE
 5
36
 8
1
 6
CONTINUOUS
 10
-3.55275611877441E-02
 20
.1005
 11
-3.55275611877441E-02
 21
.1005
 999
##### LINE 455 ####
 0
LINE
 5
36
 8
1
 6
CONTINUOUS
 10
-5.52126007080078E-02
 20
.1005
 11
-4.32126007080078E-02
 21
.1005
 999
##### LINE 456 ####
 0
LINE
 5
36
 8
1
 6
CONTINUOUS
 10
-4.32126007080078E-02
 20
.1005
 11
-4.32126007080078E-02
 21
.1005
 999
##### LINE 457 ####
 0
LINE
 5
36
 8
1
 6
CONTINUOUS
 10
-4.32126007080078E-02
 20
.1005
 11
-5.52126007080078E-02
 21
.1005
 999
##### LINE 458 ####
 0
LINE
 5
36
 8
1
 6
CONTINUOUS
 10
-5.52126007080078E-02
 20
.1005
 11
-5.52126007080078E-02
 21
.1005
 999
##### LINE 460 ####
 0
LINE
 5
36
 8
1
 6
CONTINUOUS
 10
-7.48976402282715E-02
 20
.1005
 11
-6.28976402282715E-02
 21
.1005
 999
##### LINE 461 ####
 0
LINE
 5
36
 8
1
 6
CONTINUOUS
 10
-6.28976402282715E-02
 20
.1005
 11
-6.28976402282715E-02
 21
.1005
 999
##### LINE 462 ####
 0
LINE
 5
36
 8
1
 6
CONTINUOUS
 10
-6.28976402282715E-02
 20
.1005
 11
-7.48976402282715E-02
 21
.1005
 999
##### LINE 463 ####
 0
LINE
 5
36
 8
1
 6
CONTINUOUS
 10
-7.48976402282715E-02
 20
.1005
 11
-7.48976402282715E-02
 21
.1005
 999
##### LINE 465 ####
 0
LINE
 5
36
 8
1
 6
CONTINUOUS
 10
-.1005
 20
6.28976364135742E-02
 11
-.1005
 21
7.48976364135742E-02
 999
##### LINE 466 ####
 0
LINE
 5
36
 8
1
 6
CONTINUOUS
 10
-.1005
 20
7.48976364135742E-02
 11
-.1005
 21
7.48976364135742E-02
 999
##### LINE 467 ####
 0
LINE
 5
36
 8
1
 6
CONTINUOUS
 10
-.1005
 20
7.48976364135742E-02
 11
-.1005
 21
6.28976364135742E-02
 999
##### LINE 468 ####
 0
LINE
 5
36
 8
1
 6
CONTINUOUS
 10
-.1005
 20
6.28976364135742E-02
 11
-.1005
 21
6.28976364135742E-02
 999
##### LINE 470 ####
 0
LINE
 5
36
 8
1
 6
CONTINUOUS
 10
-.1005
 20
4.32125968933105E-02
 11
-.1005
 21
5.52125968933105E-02
 999
##### LINE 471 ####
 0
LINE
 5
36
 8
1
 6
CONTINUOUS
 10
-.1005
 20
5.52125968933105E-02
 11
-.1005
 21
5.52125968933105E-02
 999
##### LINE 472 ####
 0
LINE
 5
36
 8
1
 6
CONTINUOUS
 10
-.1005
 20
5.52125968933105E-02
 11
-.1005
 21
4.32125968933105E-02
 999
##### LINE 473 ####
 0
LINE
 5
36
 8
1
 6
CONTINUOUS
 10
-.1005
 20
4.32125968933105E-02
 11
-.1005
 21
4.32125968933105E-02
 999
##### LINE 475 ####
 0
LINE
 5
36
 8
1
 6
CONTINUOUS
 10
-.1005
 20
2.35275573730469E-02
 11
-.1005
 21
3.55275573730469E-02
 999
##### LINE 476 ####
 0
LINE
 5
36
 8
1
 6
CONTINUOUS
 10
-.1005
 20
3.55275573730469E-02
 11
-.1005
 21
3.55275573730469E-02
 999
##### LINE 477 ####
 0
LINE
 5
36
 8
1
 6
CONTINUOUS
 10
-.1005
 20
3.55275573730469E-02
 11
-.1005
 21
2.35275573730469E-02
 999
##### LINE 478 ####
 0
LINE
 5
36
 8
1
 6
CONTINUOUS
 10
-.1005
 20
2.35275573730469E-02
 11
-.1005
 21
2.35275573730469E-02
 999
##### LINE 480 ####
 0
LINE
 5
36
 8
1
 6
CONTINUOUS
 10
-.1005
 20
3.8425178527832E-03
 11
-.1005
 21
1.58425178527832E-02
 999
##### LINE 481 ####
 0
LINE
 5
36
 8
1
 6
CONTINUOUS
 10
-.1005
 20
1.58425178527832E-02
 11
-.1005
 21
1.58425178527832E-02
 999
##### LINE 482 ####
 0
LINE
 5
36
 8
1
 6
CONTINUOUS
 10
-.1005
 20
1.58425178527832E-02
 11
-.1005
 21
3.8425178527832E-03
 999
##### LINE 483 ####
 0
LINE
 5
36
 8
1
 6
CONTINUOUS
 10
-.1005
 20
3.8425178527832E-03
 11
-.1005
 21
3.8425178527832E-03
 999
##### LINE 485 ####
 0
LINE
 5
36
 8
1
 6
CONTINUOUS
 10
-.1005
 20
-1.58425216674805E-02
 11
-.1005
 21
-3.84252166748047E-03
 999
##### LINE 486 ####
 0
LINE
 5
36
 8
1
 6
CONTINUOUS
 10
-.1005
 20
-3.84252166748047E-03
 11
-.1005
 21
-3.84252166748047E-03
 999
##### LINE 487 ####
 0
LINE
 5
36
 8
1
 6
CONTINUOUS
 10
-.1005
 20
-3.84252166748047E-03
 11
-.1005
 21
-1.58425216674805E-02
 999
##### LINE 488 ####
 0
LINE
 5
36
 8
1
 6
CONTINUOUS
 10
-.1005
 20
-1.58425216674805E-02
 11
-.1005
 21
-1.58425216674805E-02
 999
##### LINE 490 ####
 0
LINE
 5
36
 8
1
 6
CONTINUOUS
 10
-.1005
 20
-3.55275611877441E-02
 11
-.1005
 21
-2.35275611877441E-02
 999
##### LINE 491 ####
 0
LINE
 5
36
 8
1
 6
CONTINUOUS
 10
-.1005
 20
-2.35275611877441E-02
 11
-.1005
 21
-2.35275611877441E-02
 999
##### LINE 492 ####
 0
LINE
 5
36
 8
1
 6
CONTINUOUS
 10
-.1005
 20
-2.35275611877441E-02
 11
-.1005
 21
-3.55275611877441E-02
 999
##### LINE 493 ####
 0
LINE
 5
36
 8
1
 6
CONTINUOUS
 10
-.1005
 20
-3.55275611877441E-02
 11
-.1005
 21
-3.55275611877441E-02
 999
##### LINE 495 ####
 0
LINE
 5
36
 8
1
 6
CONTINUOUS
 10
-.1005
 20
-5.52126007080078E-02
 11
-.1005
 21
-4.32126007080078E-02
 999
##### LINE 496 ####
 0
LINE
 5
36
 8
1
 6
CONTINUOUS
 10
-.1005
 20
-4.32126007080078E-02
 11
-.1005
 21
-4.32126007080078E-02
 999
##### LINE 497 ####
 0
LINE
 5
36
 8
1
 6
CONTINUOUS
 10
-.1005
 20
-4.32126007080078E-02
 11
-.1005
 21
-5.52126007080078E-02
 999
##### LINE 498 ####
 0
LINE
 5
36
 8
1
 6
CONTINUOUS
 10
-.1005
 20
-5.52126007080078E-02
 11
-.1005
 21
-5.52126007080078E-02
 999
##### LINE 500 ####
 0
LINE
 5
36
 8
1
 6
CONTINUOUS
 10
-.1005
 20
-7.48976402282715E-02
 11
-.1005
 21
-6.28976402282715E-02
 999
##### LINE 501 ####
 0
LINE
 5
36
 8
1
 6
CONTINUOUS
 10
-.1005
 20
-6.28976402282715E-02
 11
-.1005
 21
-6.28976402282715E-02
 999
##### LINE 502 ####
 0
LINE
 5
36
 8
1
 6
CONTINUOUS
 10
-.1005
 20
-6.28976402282715E-02
 11
-.1005
 21
-7.48976402282715E-02
 999
##### LINE 503 ####
 0
LINE
 5
36
 8
1
 6
CONTINUOUS
 10
-.1005
 20
-7.48976402282715E-02
 11
-.1005
 21
-7.48976402282715E-02
 999
##### LINE 505 ####
 0
LINE
 5
36
 8
1
 6
CONTINUOUS
 10
-6.28976364135742E-02
 20
-.1005
 11
-7.48976364135742E-02
 21
-.1005
 999
##### LINE 506 ####
 0
LINE
 5
36
 8
1
 6
CONTINUOUS
 10
-7.48976364135742E-02
 20
-.1005
 11
-7.48976364135742E-02
 21
-.1005
 999
##### LINE 507 ####
 0
LINE
 5
36
 8
1
 6
CONTINUOUS
 10
-7.48976364135742E-02
 20
-.1005
 11
-6.28976364135742E-02
 21
-.1005
 999
##### LINE 508 ####
 0
LINE
 5
36
 8
1
 6
CONTINUOUS
 10
-6.28976364135742E-02
 20
-.1005
 11
-6.28976364135742E-02
 21
-.1005
 999
##### LINE 510 ####
 0
LINE
 5
36
 8
1
 6
CONTINUOUS
 10
-4.32125968933105E-02
 20
-.1005
 11
-5.52125968933105E-02
 21
-.1005
 999
##### LINE 511 ####
 0
LINE
 5
36
 8
1
 6
CONTINUOUS
 10
-5.52125968933105E-02
 20
-.1005
 11
-5.52125968933105E-02
 21
-.1005
 999
##### LINE 512 ####
 0
LINE
 5
36
 8
1
 6
CONTINUOUS
 10
-5.52125968933105E-02
 20
-.1005
 11
-4.32125968933105E-02
 21
-.1005
 999
##### LINE 513 ####
 0
LINE
 5
36
 8
1
 6
CONTINUOUS
 10
-4.32125968933105E-02
 20
-.1005
 11
-4.32125968933105E-02
 21
-.1005
 999
##### LINE 515 ####
 0
LINE
 5
36
 8
1
 6
CONTINUOUS
 10
-2.35275573730469E-02
 20
-.1005
 11
-3.55275573730469E-02
 21
-.1005
 999
##### LINE 516 ####
 0
LINE
 5
36
 8
1
 6
CONTINUOUS
 10
-3.55275573730469E-02
 20
-.1005
 11
-3.55275573730469E-02
 21
-.1005
 999
##### LINE 517 ####
 0
LINE
 5
36
 8
1
 6
CONTINUOUS
 10
-3.55275573730469E-02
 20
-.1005
 11
-2.35275573730469E-02
 21
-.1005
 999
##### LINE 518 ####
 0
LINE
 5
36
 8
1
 6
CONTINUOUS
 10
-2.35275573730469E-02
 20
-.1005
 11
-2.35275573730469E-02
 21
-.1005
 999
##### LINE 520 ####
 0
LINE
 5
36
 8
1
 6
CONTINUOUS
 10
-3.8425178527832E-03
 20
-.1005
 11
-1.58425178527832E-02
 21
-.1005
 999
##### LINE 521 ####
 0
LINE
 5
36
 8
1
 6
CONTINUOUS
 10
-1.58425178527832E-02
 20
-.1005
 11
-1.58425178527832E-02
 21
-.1005
 999
##### LINE 522 ####
 0
LINE
 5
36
 8
1
 6
CONTINUOUS
 10
-1.58425178527832E-02
 20
-.1005
 11
-3.8425178527832E-03
 21
-.1005
 999
##### LINE 523 ####
 0
LINE
 5
36
 8
1
 6
CONTINUOUS
 10
-3.8425178527832E-03
 20
-.1005
 11
-3.8425178527832E-03
 21
-.1005
 999
##### LINE 525 ####
 0
LINE
 5
36
 8
1
 6
CONTINUOUS
 10
1.58425216674805E-02
 20
-.1005
 11
3.84252166748047E-03
 21
-.1005
 999
##### LINE 526 ####
 0
LINE
 5
36
 8
1
 6
CONTINUOUS
 10
3.84252166748047E-03
 20
-.1005
 11
3.84252166748047E-03
 21
-.1005
 999
##### LINE 527 ####
 0
LINE
 5
36
 8
1
 6
CONTINUOUS
 10
3.84252166748047E-03
 20
-.1005
 11
1.58425216674805E-02
 21
-.1005
 999
##### LINE 528 ####
 0
LINE
 5
36
 8
1
 6
CONTINUOUS
 10
1.58425216674805E-02
 20
-.1005
 11
1.58425216674805E-02
 21
-.1005
 999
##### LINE 530 ####
 0
LINE
 5
36
 8
1
 6
CONTINUOUS
 10
3.55275611877441E-02
 20
-.1005
 11
2.35275611877441E-02
 21
-.1005
 999
##### LINE 531 ####
 0
LINE
 5
36
 8
1
 6
CONTINUOUS
 10
2.35275611877441E-02
 20
-.1005
 11
2.35275611877441E-02
 21
-.1005
 999
##### LINE 532 ####
 0
LINE
 5
36
 8
1
 6
CONTINUOUS
 10
2.35275611877441E-02
 20
-.1005
 11
3.55275611877441E-02
 21
-.1005
 999
##### LINE 533 ####
 0
LINE
 5
36
 8
1
 6
CONTINUOUS
 10
3.55275611877441E-02
 20
-.1005
 11
3.55275611877441E-02
 21
-.1005
 999
##### LINE 535 ####
 0
LINE
 5
36
 8
1
 6
CONTINUOUS
 10
5.52126007080078E-02
 20
-.1005
 11
4.32126007080078E-02
 21
-.1005
 999
##### LINE 536 ####
 0
LINE
 5
36
 8
1
 6
CONTINUOUS
 10
4.32126007080078E-02
 20
-.1005
 11
4.32126007080078E-02
 21
-.1005
 999
##### LINE 537 ####
 0
LINE
 5
36
 8
1
 6
CONTINUOUS
 10
4.32126007080078E-02
 20
-.1005
 11
5.52126007080078E-02
 21
-.1005
 999
##### LINE 538 ####
 0
LINE
 5
36
 8
1
 6
CONTINUOUS
 10
5.52126007080078E-02
 20
-.1005
 11
5.52126007080078E-02
 21
-.1005
 999
##### LINE 540 ####
 0
LINE
 5
36
 8
1
 6
CONTINUOUS
 10
7.48976402282715E-02
 20
-.1005
 11
6.28976402282715E-02
 21
-.1005
 999
##### LINE 541 ####
 0
LINE
 5
36
 8
1
 6
CONTINUOUS
 10
6.28976402282715E-02
 20
-.1005
 11
6.28976402282715E-02
 21
-.1005
 999
##### LINE 542 ####
 0
LINE
 5
36
 8
1
 6
CONTINUOUS
 10
6.28976402282715E-02
 20
-.1005
 11
7.48976402282715E-02
 21
-.1005
 999
##### LINE 543 ####
 0
LINE
 5
36
 8
1
 6
CONTINUOUS
 10
7.48976402282715E-02
 20
-.1005
 11
7.48976402282715E-02
 21
-.1005
 999
##### LINE 545 ####
 0
LINE
 5
36
 8
1
 6
CONTINUOUS
 10
.1005
 20
-6.28976364135742E-02
 11
.1005
 21
-7.48976364135742E-02
 999
##### LINE 546 ####
 0
LINE
 5
36
 8
1
 6
CONTINUOUS
 10
.1005
 20
-7.48976364135742E-02
 11
.1005
 21
-7.48976364135742E-02
 999
##### LINE 547 ####
 0
LINE
 5
36
 8
1
 6
CONTINUOUS
 10
.1005
 20
-7.48976364135742E-02
 11
.1005
 21
-6.28976364135742E-02
 999
##### LINE 548 ####
 0
LINE
 5
36
 8
1
 6
CONTINUOUS
 10
.1005
 20
-6.28976364135742E-02
 11
.1005
 21
-6.28976364135742E-02
 999
##### LINE 550 ####
 0
LINE
 5
36
 8
1
 6
CONTINUOUS
 10
.1005
 20
-4.32125968933105E-02
 11
.1005
 21
-5.52125968933105E-02
 999
##### LINE 551 ####
 0
LINE
 5
36
 8
1
 6
CONTINUOUS
 10
.1005
 20
-5.52125968933105E-02
 11
.1005
 21
-5.52125968933105E-02
 999
##### LINE 552 ####
 0
LINE
 5
36
 8
1
 6
CONTINUOUS
 10
.1005
 20
-5.52125968933105E-02
 11
.1005
 21
-4.32125968933105E-02
 999
##### LINE 553 ####
 0
LINE
 5
36
 8
1
 6
CONTINUOUS
 10
.1005
 20
-4.32125968933105E-02
 11
.1005
 21
-4.32125968933105E-02
 999
##### LINE 555 ####
 0
LINE
 5
36
 8
1
 6
CONTINUOUS
 10
.1005
 20
-2.35275573730469E-02
 11
.1005
 21
-3.55275573730469E-02
 999
##### LINE 556 ####
 0
LINE
 5
36
 8
1
 6
CONTINUOUS
 10
.1005
 20
-3.55275573730469E-02
 11
.1005
 21
-3.55275573730469E-02
 999
##### LINE 557 ####
 0
LINE
 5
36
 8
1
 6
CONTINUOUS
 10
.1005
 20
-3.55275573730469E-02
 11
.1005
 21
-2.35275573730469E-02
 999
##### LINE 558 ####
 0
LINE
 5
36
 8
1
 6
CONTINUOUS
 10
.1005
 20
-2.35275573730469E-02
 11
.1005
 21
-2.35275573730469E-02
 999
##### LINE 560 ####
 0
LINE
 5
36
 8
1
 6
CONTINUOUS
 10
.1005
 20
-3.8425178527832E-03
 11
.1005
 21
-1.58425178527832E-02
 999
##### LINE 561 ####
 0
LINE
 5
36
 8
1
 6
CONTINUOUS
 10
.1005
 20
-1.58425178527832E-02
 11
.1005
 21
-1.58425178527832E-02
 999
##### LINE 562 ####
 0
LINE
 5
36
 8
1
 6
CONTINUOUS
 10
.1005
 20
-1.58425178527832E-02
 11
.1005
 21
-3.8425178527832E-03
 999
##### LINE 563 ####
 0
LINE
 5
36
 8
1
 6
CONTINUOUS
 10
.1005
 20
-3.8425178527832E-03
 11
.1005
 21
-3.8425178527832E-03
 999
##### LINE 565 ####
 0
LINE
 5
36
 8
1
 6
CONTINUOUS
 10
.1005
 20
1.58425216674805E-02
 11
.1005
 21
3.84252166748047E-03
 999
##### LINE 566 ####
 0
LINE
 5
36
 8
1
 6
CONTINUOUS
 10
.1005
 20
3.84252166748047E-03
 11
.1005
 21
3.84252166748047E-03
 999
##### LINE 567 ####
 0
LINE
 5
36
 8
1
 6
CONTINUOUS
 10
.1005
 20
3.84252166748047E-03
 11
.1005
 21
1.58425216674805E-02
 999
##### LINE 568 ####
 0
LINE
 5
36
 8
1
 6
CONTINUOUS
 10
.1005
 20
1.58425216674805E-02
 11
.1005
 21
1.58425216674805E-02
 999
##### LINE 570 ####
 0
LINE
 5
36
 8
1
 6
CONTINUOUS
 10
.1005
 20
3.55275611877441E-02
 11
.1005
 21
2.35275611877441E-02
 999
##### LINE 571 ####
 0
LINE
 5
36
 8
1
 6
CONTINUOUS
 10
.1005
 20
2.35275611877441E-02
 11
.1005
 21
2.35275611877441E-02
 999
##### LINE 572 ####
 0
LINE
 5
36
 8
1
 6
CONTINUOUS
 10
.1005
 20
2.35275611877441E-02
 11
.1005
 21
3.55275611877441E-02
 999
##### LINE 573 ####
 0
LINE
 5
36
 8
1
 6
CONTINUOUS
 10
.1005
 20
3.55275611877441E-02
 11
.1005
 21
3.55275611877441E-02
 999
##### LINE 575 ####
 0
LINE
 5
36
 8
1
 6
CONTINUOUS
 10
.1005
 20
5.52126007080078E-02
 11
.1005
 21
4.32126007080078E-02
 999
##### LINE 576 ####
 0
LINE
 5
36
 8
1
 6
CONTINUOUS
 10
.1005
 20
4.32126007080078E-02
 11
.1005
 21
4.32126007080078E-02
 999
##### LINE 577 ####
 0
LINE
 5
36
 8
1
 6
CONTINUOUS
 10
.1005
 20
4.32126007080078E-02
 11
.1005
 21
5.52126007080078E-02
 999
##### LINE 578 ####
 0
LINE
 5
36
 8
1
 6
CONTINUOUS
 10
.1005
 20
5.52126007080078E-02
 11
.1005
 21
5.52126007080078E-02
 999
##### LINE 580 ####
 0
LINE
 5
36
 8
1
 6
CONTINUOUS
 10
.1005
 20
7.48976402282715E-02
 11
.1005
 21
6.28976402282715E-02
 999
##### LINE 581 ####
 0
LINE
 5
36
 8
1
 6
CONTINUOUS
 10
.1005
 20
6.28976402282715E-02
 11
.1005
 21
6.28976402282715E-02
 999
##### LINE 582 ####
 0
LINE
 5
36
 8
1
 6
CONTINUOUS
 10
.1005
 20
6.28976402282715E-02
 11
.1005
 21
7.48976402282715E-02
 999
##### LINE 583 ####
 0
LINE
 5
36
 8
1
 6
CONTINUOUS
 10
.1005
 20
7.48976402282715E-02
 11
.1005
 21
7.48976402282715E-02
 999
##### LINE 585 ####
 0
SOLID
 5
36
 8
2
 10
-.1055
 20
-.1025
 11
-.1055
 21
-.1085
 12
-8.70133503128052E-02
 22
-.1025
 13
-8.70133503128052E-02
 23
-.1085
 999
##### LINE 587 ####
 0
SOLID
 5
36
 8
2
 10
.1025
 20
-.1055
 11
.1085
 21
-.1055
 12
.1025
 22
-8.70133503128052E-02
 13
.1085
 23
-8.70133503128052E-02
 999
##### LINE 589 ####
 0
SOLID
 5
36
 8
2
 10
.1055
 20
.1025
 11
.1055
 21
.1085
 12
8.70133503128052E-02
 22
.1025
 13
8.70133503128052E-02
 23
.1085
 999
##### LINE 591 ####
 0
SOLID
 5
36
 8
2
 10
-.1025
 20
.1055
 11
-.1085
 21
.1055
 12
-.1025
 22
8.70133503128052E-02
 13
-.1085
 23
8.70133503128052E-02
 999
##### LINE 592 ####
 0
SOLID
 5
36
 8
2
 10
-.1025
 20
-8.70133503128052E-02
 11
-.1085
 21
-8.70133503128052E-02
 12
-.1025
 22
-.1055
 13
-.1085
 23
-.1055
 999
##### LINE 593 ####
 0
LINE
 5
36
 8
1
 6
CONTINUOUS
 10
-.1005
 20
-.1005
 11
.1005
 21
-.1005
 999
##### LINE 594 ####
 0
LINE
 5
36
 8
1
 6
CONTINUOUS
 10
.1005
 20
-.1005
 11
.1005
 21
-.1005
 999
##### LINE 595 ####
 0
LINE
 5
36
 8
1
 6
CONTINUOUS
 10
.1005
 20
-.1005
 11
.1005
 21
.1005
 999
##### LINE 596 ####
 0
LINE
 5
36
 8
1
 6
CONTINUOUS
 10
.1005
 20
.1005
 11
.1005
 21
.1005
 999
##### LINE 597 ####
 0
LINE
 5
36
 8
1
 6
CONTINUOUS
 10
.1005
 20
.1005
 11
-.1005
 21
.1005
 999
##### LINE 598 ####
 0
LINE
 5
36
 8
1
 6
CONTINUOUS
 10
-.1005
 20
.1005
 11
-.1005
 21
.1005
 999
##### LINE 599 ####
 0
LINE
 5
36
 8
1
 6
CONTINUOUS
 10
-.1005
 20
.1005
 11
-.1005
 21
-.1005
 999
##### LINE 600 ####
 0
LINE
 5
36
 8
1
 6
CONTINUOUS
 10
-.1005
 20
-.1005
 11
-.1005
 21
-.1005
 999
##### POLY 670 ####
 0
SOLID
 5
36
 8
6
 10
-.112311000411987
 20
7.39133499313354E-02
 11
-.112311000411987
 21
6.38818500686645E-02
 12
-8.04999995880127E-02
 22
6.38818500686646E-02
 13
-8.04999995880127E-02
 23
6.38818500686646E-02
 999
##### POLY 670 ####
 0
SOLID
 5
36
 8
6
 10
-.112311000411987
 20
7.39133499313354E-02
 11
-8.04999995880127E-02
 21
6.38818500686646E-02
 12
-8.04999995880127E-02
 22
7.39133499313355E-02
 13
-8.04999995880127E-02
 23
7.39133499313355E-02
 999
##### POLY 671 ####
 0
SOLID
 5
36
 8
3
 10
-.112311000411987
 20
7.39133499313354E-02
 11
-.112311000411987
 21
6.38818500686645E-02
 12
-8.04999995880127E-02
 22
6.38818500686646E-02
 13
-8.04999995880127E-02
 23
6.38818500686646E-02
 999
##### POLY 671 ####
 0
SOLID
 5
36
 8
3
 10
-.112311000411987
 20
7.39133499313354E-02
 11
-8.04999995880127E-02
 21
6.38818500686646E-02
 12
-8.04999995880127E-02
 22
7.39133499313355E-02
 13
-8.04999995880127E-02
 23
7.39133499313355E-02
 999
##### POLY 672 ####
 0
SOLID
 5
36
 8
7
 10
-.112311000411987
 20
7.39133499313354E-02
 11
-.112311000411987
 21
6.38818500686645E-02
 12
-8.04999995880127E-02
 22
6.38818500686646E-02
 13
-8.04999995880127E-02
 23
6.38818500686646E-02
 999
##### POLY 672 ####
 0
SOLID
 5
36
 8
7
 10
-.112311000411987
 20
7.39133499313354E-02
 11
-8.04999995880127E-02
 21
6.38818500686646E-02
 12
-8.04999995880127E-02
 22
7.39133499313355E-02
 13
-8.04999995880127E-02
 23
7.39133499313355E-02
 999
##### POLY 673 ####
 0
SOLID
 5
36
 8
6
 10
-.112311000411987
 20
5.42283499313354E-02
 11
-.112311000411987
 21
4.41968500686645E-02
 12
-8.04999995880127E-02
 22
4.41968500686646E-02
 13
-8.04999995880127E-02
 23
4.41968500686646E-02
 999
##### POLY 673 ####
 0
SOLID
 5
36
 8
6
 10
-.112311000411987
 20
5.42283499313354E-02
 11
-8.04999995880127E-02
 21
4.41968500686646E-02
 12
-8.04999995880127E-02
 22
5.42283499313355E-02
 13
-8.04999995880127E-02
 23
5.42283499313355E-02
 999
##### POLY 674 ####
 0
SOLID
 5
36
 8
3
 10
-.112311000411987
 20
5.42283499313354E-02
 11
-.112311000411987
 21
4.41968500686645E-02
 12
-8.04999995880127E-02
 22
4.41968500686646E-02
 13
-8.04999995880127E-02
 23
4.41968500686646E-02
 999
##### POLY 674 ####
 0
SOLID
 5
36
 8
3
 10
-.112311000411987
 20
5.42283499313354E-02
 11
-8.04999995880127E-02
 21
4.41968500686646E-02
 12
-8.04999995880127E-02
 22
5.42283499313355E-02
 13
-8.04999995880127E-02
 23
5.42283499313355E-02
 999
##### POLY 675 ####
 0
SOLID
 5
36
 8
7
 10
-.112311000411987
 20
5.42283499313354E-02
 11
-.112311000411987
 21
4.41968500686645E-02
 12
-8.04999995880127E-02
 22
4.41968500686646E-02
 13
-8.04999995880127E-02
 23
4.41968500686646E-02
 999
##### POLY 675 ####
 0
SOLID
 5
36
 8
7
 10
-.112311000411987
 20
5.42283499313354E-02
 11
-8.04999995880127E-02
 21
4.41968500686646E-02
 12
-8.04999995880127E-02
 22
5.42283499313355E-02
 13
-8.04999995880127E-02
 23
5.42283499313355E-02
 999
##### POLY 676 ####
 0
SOLID
 5
36
 8
6
 10
-.112311000411987
 20
3.45433499313354E-02
 11
-.112311000411987
 21
2.45118500686645E-02
 12
-8.04999995880127E-02
 22
2.45118500686646E-02
 13
-8.04999995880127E-02
 23
2.45118500686646E-02
 999
##### POLY 676 ####
 0
SOLID
 5
36
 8
6
 10
-.112311000411987
 20
3.45433499313354E-02
 11
-8.04999995880127E-02
 21
2.45118500686646E-02
 12
-8.04999995880127E-02
 22
3.45433499313355E-02
 13
-8.04999995880127E-02
 23
3.45433499313355E-02
 999
##### POLY 677 ####
 0
SOLID
 5
36
 8
3
 10
-.112311000411987
 20
3.45433499313354E-02
 11
-.112311000411987
 21
2.45118500686645E-02
 12
-8.04999995880127E-02
 22
2.45118500686646E-02
 13
-8.04999995880127E-02
 23
2.45118500686646E-02
 999
##### POLY 677 ####
 0
SOLID
 5
36
 8
3
 10
-.112311000411987
 20
3.45433499313354E-02
 11
-8.04999995880127E-02
 21
2.45118500686646E-02
 12
-8.04999995880127E-02
 22
3.45433499313355E-02
 13
-8.04999995880127E-02
 23
3.45433499313355E-02
 999
##### POLY 678 ####
 0
SOLID
 5
36
 8
7
 10
-.112311000411987
 20
3.45433499313354E-02
 11
-.112311000411987
 21
2.45118500686645E-02
 12
-8.04999995880127E-02
 22
2.45118500686646E-02
 13
-8.04999995880127E-02
 23
2.45118500686646E-02
 999
##### POLY 678 ####
 0
SOLID
 5
36
 8
7
 10
-.112311000411987
 20
3.45433499313354E-02
 11
-8.04999995880127E-02
 21
2.45118500686646E-02
 12
-8.04999995880127E-02
 22
3.45433499313355E-02
 13
-8.04999995880127E-02
 23
3.45433499313355E-02
 999
##### POLY 679 ####
 0
SOLID
 5
36
 8
6
 10
-.112311000411987
 20
1.48582499313354E-02
 11
-.112311000411987
 21
4.8267500686645E-03
 12
-8.04999995880127E-02
 22
4.82675006866456E-03
 13
-8.04999995880127E-02
 23
4.82675006866456E-03
 999
##### POLY 679 ####
 0
SOLID
 5
36
 8
6
 10
-.112311000411987
 20
1.48582499313354E-02
 11
-8.04999995880127E-02
 21
4.82675006866456E-03
 12
-8.04999995880127E-02
 22
1.48582499313355E-02
 13
-8.04999995880127E-02
 23
1.48582499313355E-02
 999
##### POLY 680 ####
 0
SOLID
 5
36
 8
3
 10
-.112311000411987
 20
1.48582499313354E-02
 11
-.112311000411987
 21
4.8267500686645E-03
 12
-8.04999995880127E-02
 22
4.82675006866456E-03
 13
-8.04999995880127E-02
 23
4.82675006866456E-03
 999
##### POLY 680 ####
 0
SOLID
 5
36
 8
3
 10
-.112311000411987
 20
1.48582499313354E-02
 11
-8.04999995880127E-02
 21
4.82675006866456E-03
 12
-8.04999995880127E-02
 22
1.48582499313355E-02
 13
-8.04999995880127E-02
 23
1.48582499313355E-02
 999
##### POLY 681 ####
 0
SOLID
 5
36
 8
7
 10
-.112311000411987
 20
1.48582499313354E-02
 11
-.112311000411987
 21
4.8267500686645E-03
 12
-8.04999995880127E-02
 22
4.82675006866456E-03
 13
-8.04999995880127E-02
 23
4.82675006866456E-03
 999
##### POLY 681 ####
 0
SOLID
 5
36
 8
7
 10
-.112311000411987
 20
1.48582499313354E-02
 11
-8.04999995880127E-02
 21
4.82675006866456E-03
 12
-8.04999995880127E-02
 22
1.48582499313355E-02
 13
-8.04999995880127E-02
 23
1.48582499313355E-02
 999
##### POLY 682 ####
 0
SOLID
 5
36
 8
6
 10
-.112311000411987
 20
-4.82675006866457E-03
 11
-.112311000411987
 21
-1.48582499313355E-02
 12
-8.04999995880127E-02
 22
-1.48582499313354E-02
 13
-8.04999995880127E-02
 23
-1.48582499313354E-02
 999
##### POLY 682 ####
 0
SOLID
 5
36
 8
6
 10
-.112311000411987
 20
-4.82675006866457E-03
 11
-8.04999995880127E-02
 21
-1.48582499313354E-02
 12
-8.04999995880127E-02
 22
-4.82675006866451E-03
 13
-8.04999995880127E-02
 23
-4.82675006866451E-03
 999
##### POLY 683 ####
 0
SOLID
 5
36
 8
3
 10
-.112311000411987
 20
-4.82675006866457E-03
 11
-.112311000411987
 21
-1.48582499313355E-02
 12
-8.04999995880127E-02
 22
-1.48582499313354E-02
 13
-8.04999995880127E-02
 23
-1.48582499313354E-02
 999
##### POLY 683 ####
 0
SOLID
 5
36
 8
3
 10
-.112311000411987
 20
-4.82675006866457E-03
 11
-8.04999995880127E-02
 21
-1.48582499313354E-02
 12
-8.04999995880127E-02
 22
-4.82675006866451E-03
 13
-8.04999995880127E-02
 23
-4.82675006866451E-03
 999
##### POLY 684 ####
 0
SOLID
 5
36
 8
7
 10
-.112311000411987
 20
-4.82675006866457E-03
 11
-.112311000411987
 21
-1.48582499313355E-02
 12
-8.04999995880127E-02
 22
-1.48582499313354E-02
 13
-8.04999995880127E-02
 23
-1.48582499313354E-02
 999
##### POLY 684 ####
 0
SOLID
 5
36
 8
7
 10
-.112311000411987
 20
-4.82675006866457E-03
 11
-8.04999995880127E-02
 21
-1.48582499313354E-02
 12
-8.04999995880127E-02
 22
-4.82675006866451E-03
 13
-8.04999995880127E-02
 23
-4.82675006866451E-03
 999
##### POLY 685 ####
 0
SOLID
 5
36
 8
6
 10
-.112311000411987
 20
-2.45118500686646E-02
 11
-.112311000411987
 21
-3.45433499313355E-02
 12
-8.04999995880127E-02
 22
-3.45433499313354E-02
 13
-8.04999995880127E-02
 23
-3.45433499313354E-02
 999
##### POLY 685 ####
 0
SOLID
 5
36
 8
6
 10
-.112311000411987
 20
-2.45118500686646E-02
 11
-8.04999995880127E-02
 21
-3.45433499313354E-02
 12
-8.04999995880127E-02
 22
-2.45118500686645E-02
 13
-8.04999995880127E-02
 23
-2.45118500686645E-02
 999
##### POLY 686 ####
 0
SOLID
 5
36
 8
3
 10
-.112311000411987
 20
-2.45118500686646E-02
 11
-.112311000411987
 21
-3.45433499313355E-02
 12
-8.04999995880127E-02
 22
-3.45433499313354E-02
 13
-8.04999995880127E-02
 23
-3.45433499313354E-02
 999
##### POLY 686 ####
 0
SOLID
 5
36
 8
3
 10
-.112311000411987
 20
-2.45118500686646E-02
 11
-8.04999995880127E-02
 21
-3.45433499313354E-02
 12
-8.04999995880127E-02
 22
-2.45118500686645E-02
 13
-8.04999995880127E-02
 23
-2.45118500686645E-02
 999
##### POLY 687 ####
 0
SOLID
 5
36
 8
7
 10
-.112311000411987
 20
-2.45118500686646E-02
 11
-.112311000411987
 21
-3.45433499313355E-02
 12
-8.04999995880127E-02
 22
-3.45433499313354E-02
 13
-8.04999995880127E-02
 23
-3.45433499313354E-02
 999
##### POLY 687 ####
 0
SOLID
 5
36
 8
7
 10
-.112311000411987
 20
-2.45118500686646E-02
 11
-8.04999995880127E-02
 21
-3.45433499313354E-02
 12
-8.04999995880127E-02
 22
-2.45118500686645E-02
 13
-8.04999995880127E-02
 23
-2.45118500686645E-02
 999
##### POLY 688 ####
 0
SOLID
 5
36
 8
6
 10
-.112311000411987
 20
-4.41968500686646E-02
 11
-.112311000411987
 21
-5.42283499313355E-02
 12
-8.04999995880127E-02
 22
-5.42283499313354E-02
 13
-8.04999995880127E-02
 23
-5.42283499313354E-02
 999
##### POLY 688 ####
 0
SOLID
 5
36
 8
6
 10
-.112311000411987
 20
-4.41968500686646E-02
 11
-8.04999995880127E-02
 21
-5.42283499313354E-02
 12
-8.04999995880127E-02
 22
-4.41968500686645E-02
 13
-8.04999995880127E-02
 23
-4.41968500686645E-02
 999
##### POLY 689 ####
 0
SOLID
 5
36
 8
3
 10
-.112311000411987
 20
-4.41968500686646E-02
 11
-.112311000411987
 21
-5.42283499313355E-02
 12
-8.04999995880127E-02
 22
-5.42283499313354E-02
 13
-8.04999995880127E-02
 23
-5.42283499313354E-02
 999
##### POLY 689 ####
 0
SOLID
 5
36
 8
3
 10
-.112311000411987
 20
-4.41968500686646E-02
 11
-8.04999995880127E-02
 21
-5.42283499313354E-02
 12
-8.04999995880127E-02
 22
-4.41968500686645E-02
 13
-8.04999995880127E-02
 23
-4.41968500686645E-02
 999
##### POLY 690 ####
 0
SOLID
 5
36
 8
7
 10
-.112311000411987
 20
-4.41968500686646E-02
 11
-.112311000411987
 21
-5.42283499313355E-02
 12
-8.04999995880127E-02
 22
-5.42283499313354E-02
 13
-8.04999995880127E-02
 23
-5.42283499313354E-02
 999
##### POLY 690 ####
 0
SOLID
 5
36
 8
7
 10
-.112311000411987
 20
-4.41968500686646E-02
 11
-8.04999995880127E-02
 21
-5.42283499313354E-02
 12
-8.04999995880127E-02
 22
-4.41968500686645E-02
 13
-8.04999995880127E-02
 23
-4.41968500686645E-02
 999
##### POLY 691 ####
 0
SOLID
 5
36
 8
6
 10
-.112311000411987
 20
-6.38818500686646E-02
 11
-.112311000411987
 21
-7.39133499313355E-02
 12
-8.04999995880127E-02
 22
-7.39133499313354E-02
 13
-8.04999995880127E-02
 23
-7.39133499313354E-02
 999
##### POLY 691 ####
 0
SOLID
 5
36
 8
6
 10
-.112311000411987
 20
-6.38818500686646E-02
 11
-8.04999995880127E-02
 21
-7.39133499313354E-02
 12
-8.04999995880127E-02
 22
-6.38818500686645E-02
 13
-8.04999995880127E-02
 23
-6.38818500686645E-02
 999
##### POLY 692 ####
 0
SOLID
 5
36
 8
3
 10
-.112311000411987
 20
-6.38818500686646E-02
 11
-.112311000411987
 21
-7.39133499313355E-02
 12
-8.04999995880127E-02
 22
-7.39133499313354E-02
 13
-8.04999995880127E-02
 23
-7.39133499313354E-02
 999
##### POLY 692 ####
 0
SOLID
 5
36
 8
3
 10
-.112311000411987
 20
-6.38818500686646E-02
 11
-8.04999995880127E-02
 21
-7.39133499313354E-02
 12
-8.04999995880127E-02
 22
-6.38818500686645E-02
 13
-8.04999995880127E-02
 23
-6.38818500686645E-02
 999
##### POLY 693 ####
 0
SOLID
 5
36
 8
7
 10
-.112311000411987
 20
-6.38818500686646E-02
 11
-.112311000411987
 21
-7.39133499313355E-02
 12
-8.04999995880127E-02
 22
-7.39133499313354E-02
 13
-8.04999995880127E-02
 23
-7.39133499313354E-02
 999
##### POLY 693 ####
 0
SOLID
 5
36
 8
7
 10
-.112311000411987
 20
-6.38818500686646E-02
 11
-8.04999995880127E-02
 21
-7.39133499313354E-02
 12
-8.04999995880127E-02
 22
-6.38818500686645E-02
 13
-8.04999995880127E-02
 23
-6.38818500686645E-02
 999
##### POLY 694 ####
 0
SOLID
 5
36
 8
6
 10
-6.38818500686646E-02
 20
-8.04999995880127E-02
 11
-7.39133499313355E-02
 21
-8.04999995880127E-02
 12
-7.39133499313354E-02
 22
-.112311000411987
 13
-7.39133499313354E-02
 23
-.112311000411987
 999
##### POLY 694 ####
 0
SOLID
 5
36
 8
6
 10
-6.38818500686646E-02
 20
-8.04999995880127E-02
 11
-7.39133499313354E-02
 21
-.112311000411987
 12
-6.38818500686645E-02
 22
-.112311000411987
 13
-6.38818500686645E-02
 23
-.112311000411987
 999
##### POLY 695 ####
 0
SOLID
 5
36
 8
3
 10
-6.38818500686646E-02
 20
-8.04999995880127E-02
 11
-7.39133499313355E-02
 21
-8.04999995880127E-02
 12
-7.39133499313354E-02
 22
-.112311000411987
 13
-7.39133499313354E-02
 23
-.112311000411987
 999
##### POLY 695 ####
 0
SOLID
 5
36
 8
3
 10
-6.38818500686646E-02
 20
-8.04999995880127E-02
 11
-7.39133499313354E-02
 21
-.112311000411987
 12
-6.38818500686645E-02
 22
-.112311000411987
 13
-6.38818500686645E-02
 23
-.112311000411987
 999
##### POLY 696 ####
 0
SOLID
 5
36
 8
7
 10
-6.38818500686646E-02
 20
-8.04999995880127E-02
 11
-7.39133499313355E-02
 21
-8.04999995880127E-02
 12
-7.39133499313354E-02
 22
-.112311000411987
 13
-7.39133499313354E-02
 23
-.112311000411987
 999
##### POLY 696 ####
 0
SOLID
 5
36
 8
7
 10
-6.38818500686646E-02
 20
-8.04999995880127E-02
 11
-7.39133499313354E-02
 21
-.112311000411987
 12
-6.38818500686645E-02
 22
-.112311000411987
 13
-6.38818500686645E-02
 23
-.112311000411987
 999
##### POLY 697 ####
 0
SOLID
 5
36
 8
6
 10
-4.41968500686646E-02
 20
-8.04999995880127E-02
 11
-5.42283499313355E-02
 21
-8.04999995880127E-02
 12
-5.42283499313354E-02
 22
-.112311000411987
 13
-5.42283499313354E-02
 23
-.112311000411987
 999
##### POLY 697 ####
 0
SOLID
 5
36
 8
6
 10
-4.41968500686646E-02
 20
-8.04999995880127E-02
 11
-5.42283499313354E-02
 21
-.112311000411987
 12
-4.41968500686645E-02
 22
-.112311000411987
 13
-4.41968500686645E-02
 23
-.112311000411987
 999
##### POLY 698 ####
 0
SOLID
 5
36
 8
3
 10
-4.41968500686646E-02
 20
-8.04999995880127E-02
 11
-5.42283499313355E-02
 21
-8.04999995880127E-02
 12
-5.42283499313354E-02
 22
-.112311000411987
 13
-5.42283499313354E-02
 23
-.112311000411987
 999
##### POLY 698 ####
 0
SOLID
 5
36
 8
3
 10
-4.41968500686646E-02
 20
-8.04999995880127E-02
 11
-5.42283499313354E-02
 21
-.112311000411987
 12
-4.41968500686645E-02
 22
-.112311000411987
 13
-4.41968500686645E-02
 23
-.112311000411987
 999
##### POLY 699 ####
 0
SOLID
 5
36
 8
7
 10
-4.41968500686646E-02
 20
-8.04999995880127E-02
 11
-5.42283499313355E-02
 21
-8.04999995880127E-02
 12
-5.42283499313354E-02
 22
-.112311000411987
 13
-5.42283499313354E-02
 23
-.112311000411987
 999
##### POLY 699 ####
 0
SOLID
 5
36
 8
7
 10
-4.41968500686646E-02
 20
-8.04999995880127E-02
 11
-5.42283499313354E-02
 21
-.112311000411987
 12
-4.41968500686645E-02
 22
-.112311000411987
 13
-4.41968500686645E-02
 23
-.112311000411987
 999
##### POLY 700 ####
 0
SOLID
 5
36
 8
6
 10
-2.45118500686646E-02
 20
-8.04999995880127E-02
 11
-3.45433499313355E-02
 21
-8.04999995880127E-02
 12
-3.45433499313354E-02
 22
-.112311000411987
 13
-3.45433499313354E-02
 23
-.112311000411987
 999
##### POLY 700 ####
 0
SOLID
 5
36
 8
6
 10
-2.45118500686646E-02
 20
-8.04999995880127E-02
 11
-3.45433499313354E-02
 21
-.112311000411987
 12
-2.45118500686645E-02
 22
-.112311000411987
 13
-2.45118500686645E-02
 23
-.112311000411987
 999
##### POLY 701 ####
 0
SOLID
 5
36
 8
3
 10
-2.45118500686646E-02
 20
-8.04999995880127E-02
 11
-3.45433499313355E-02
 21
-8.04999995880127E-02
 12
-3.45433499313354E-02
 22
-.112311000411987
 13
-3.45433499313354E-02
 23
-.112311000411987
 999
##### POLY 701 ####
 0
SOLID
 5
36
 8
3
 10
-2.45118500686646E-02
 20
-8.04999995880127E-02
 11
-3.45433499313354E-02
 21
-.112311000411987
 12
-2.45118500686645E-02
 22
-.112311000411987
 13
-2.45118500686645E-02
 23
-.112311000411987
 999
##### POLY 702 ####
 0
SOLID
 5
36
 8
7
 10
-2.45118500686646E-02
 20
-8.04999995880127E-02
 11
-3.45433499313355E-02
 21
-8.04999995880127E-02
 12
-3.45433499313354E-02
 22
-.112311000411987
 13
-3.45433499313354E-02
 23
-.112311000411987
 999
##### POLY 702 ####
 0
SOLID
 5
36
 8
7
 10
-2.45118500686646E-02
 20
-8.04999995880127E-02
 11
-3.45433499313354E-02
 21
-.112311000411987
 12
-2.45118500686645E-02
 22
-.112311000411987
 13
-2.45118500686645E-02
 23
-.112311000411987
 999
##### POLY 703 ####
 0
SOLID
 5
36
 8
6
 10
-4.82675006866457E-03
 20
-8.04999995880127E-02
 11
-1.48582499313355E-02
 21
-8.04999995880127E-02
 12
-1.48582499313354E-02
 22
-.112311000411987
 13
-1.48582499313354E-02
 23
-.112311000411987
 999
##### POLY 703 ####
 0
SOLID
 5
36
 8
6
 10
-4.82675006866457E-03
 20
-8.04999995880127E-02
 11
-1.48582499313354E-02
 21
-.112311000411987
 12
-4.82675006866452E-03
 22
-.112311000411987
 13
-4.82675006866452E-03
 23
-.112311000411987
 999
##### POLY 704 ####
 0
SOLID
 5
36
 8
3
 10
-4.82675006866457E-03
 20
-8.04999995880127E-02
 11
-1.48582499313355E-02
 21
-8.04999995880127E-02
 12
-1.48582499313354E-02
 22
-.112311000411987
 13
-1.48582499313354E-02
 23
-.112311000411987
 999
##### POLY 704 ####
 0
SOLID
 5
36
 8
3
 10
-4.82675006866457E-03
 20
-8.04999995880127E-02
 11
-1.48582499313354E-02
 21
-.112311000411987
 12
-4.82675006866452E-03
 22
-.112311000411987
 13
-4.82675006866452E-03
 23
-.112311000411987
 999
##### POLY 705 ####
 0
SOLID
 5
36
 8
7
 10
-4.82675006866457E-03
 20
-8.04999995880127E-02
 11
-1.48582499313355E-02
 21
-8.04999995880127E-02
 12
-1.48582499313354E-02
 22
-.112311000411987
 13
-1.48582499313354E-02
 23
-.112311000411987
 999
##### POLY 705 ####
 0
SOLID
 5
36
 8
7
 10
-4.82675006866457E-03
 20
-8.04999995880127E-02
 11
-1.48582499313354E-02
 21
-.112311000411987
 12
-4.82675006866452E-03
 22
-.112311000411987
 13
-4.82675006866452E-03
 23
-.112311000411987
 999
##### POLY 706 ####
 0
SOLID
 5
36
 8
6
 10
1.48582499313354E-02
 20
-8.04999995880127E-02
 11
4.82675006866449E-03
 21
-8.04999995880127E-02
 12
4.82675006866456E-03
 22
-.112311000411987
 13
4.82675006866456E-03
 23
-.112311000411987
 999
##### POLY 706 ####
 0
SOLID
 5
36
 8
6
 10
1.48582499313354E-02
 20
-8.04999995880127E-02
 11
4.82675006866456E-03
 21
-.112311000411987
 12
1.48582499313355E-02
 22
-.112311000411987
 13
1.48582499313355E-02
 23
-.112311000411987
 999
##### POLY 707 ####
 0
SOLID
 5
36
 8
3
 10
1.48582499313354E-02
 20
-8.04999995880127E-02
 11
4.82675006866449E-03
 21
-8.04999995880127E-02
 12
4.82675006866456E-03
 22
-.112311000411987
 13
4.82675006866456E-03
 23
-.112311000411987
 999
##### POLY 707 ####
 0
SOLID
 5
36
 8
3
 10
1.48582499313354E-02
 20
-8.04999995880127E-02
 11
4.82675006866456E-03
 21
-.112311000411987
 12
1.48582499313355E-02
 22
-.112311000411987
 13
1.48582499313355E-02
 23
-.112311000411987
 999
##### POLY 708 ####
 0
SOLID
 5
36
 8
7
 10
1.48582499313354E-02
 20
-8.04999995880127E-02
 11
4.82675006866449E-03
 21
-8.04999995880127E-02
 12
4.82675006866456E-03
 22
-.112311000411987
 13
4.82675006866456E-03
 23
-.112311000411987
 999
##### POLY 708 ####
 0
SOLID
 5
36
 8
7
 10
1.48582499313354E-02
 20
-8.04999995880127E-02
 11
4.82675006866456E-03
 21
-.112311000411987
 12
1.48582499313355E-02
 22
-.112311000411987
 13
1.48582499313355E-02
 23
-.112311000411987
 999
##### POLY 709 ####
 0
SOLID
 5
36
 8
6
 10
3.45433499313354E-02
 20
-8.04999995880127E-02
 11
2.45118500686645E-02
 21
-8.04999995880127E-02
 12
2.45118500686646E-02
 22
-.112311000411987
 13
2.45118500686646E-02
 23
-.112311000411987
 999
##### POLY 709 ####
 0
SOLID
 5
36
 8
6
 10
3.45433499313354E-02
 20
-8.04999995880127E-02
 11
2.45118500686646E-02
 21
-.112311000411987
 12
3.45433499313355E-02
 22
-.112311000411987
 13
3.45433499313355E-02
 23
-.112311000411987
 999
##### POLY 710 ####
 0
SOLID
 5
36
 8
3
 10
3.45433499313354E-02
 20
-8.04999995880127E-02
 11
2.45118500686645E-02
 21
-8.04999995880127E-02
 12
2.45118500686646E-02
 22
-.112311000411987
 13
2.45118500686646E-02
 23
-.112311000411987
 999
##### POLY 710 ####
 0
SOLID
 5
36
 8
3
 10
3.45433499313354E-02
 20
-8.04999995880127E-02
 11
2.45118500686646E-02
 21
-.112311000411987
 12
3.45433499313355E-02
 22
-.112311000411987
 13
3.45433499313355E-02
 23
-.112311000411987
 999
##### POLY 711 ####
 0
SOLID
 5
36
 8
7
 10
3.45433499313354E-02
 20
-8.04999995880127E-02
 11
2.45118500686645E-02
 21
-8.04999995880127E-02
 12
2.45118500686646E-02
 22
-.112311000411987
 13
2.45118500686646E-02
 23
-.112311000411987
 999
##### POLY 711 ####
 0
SOLID
 5
36
 8
7
 10
3.45433499313354E-02
 20
-8.04999995880127E-02
 11
2.45118500686646E-02
 21
-.112311000411987
 12
3.45433499313355E-02
 22
-.112311000411987
 13
3.45433499313355E-02
 23
-.112311000411987
 999
##### POLY 712 ####
 0
SOLID
 5
36
 8
6
 10
5.42283499313354E-02
 20
-8.04999995880127E-02
 11
4.41968500686645E-02
 21
-8.04999995880127E-02
 12
4.41968500686646E-02
 22
-.112311000411987
 13
4.41968500686646E-02
 23
-.112311000411987
 999
##### POLY 712 ####
 0
SOLID
 5
36
 8
6
 10
5.42283499313354E-02
 20
-8.04999995880127E-02
 11
4.41968500686646E-02
 21
-.112311000411987
 12
5.42283499313355E-02
 22
-.112311000411987
 13
5.42283499313355E-02
 23
-.112311000411987
 999
##### POLY 713 ####
 0
SOLID
 5
36
 8
3
 10
5.42283499313354E-02
 20
-8.04999995880127E-02
 11
4.41968500686645E-02
 21
-8.04999995880127E-02
 12
4.41968500686646E-02
 22
-.112311000411987
 13
4.41968500686646E-02
 23
-.112311000411987
 999
##### POLY 713 ####
 0
SOLID
 5
36
 8
3
 10
5.42283499313354E-02
 20
-8.04999995880127E-02
 11
4.41968500686646E-02
 21
-.112311000411987
 12
5.42283499313355E-02
 22
-.112311000411987
 13
5.42283499313355E-02
 23
-.112311000411987
 999
##### POLY 714 ####
 0
SOLID
 5
36
 8
7
 10
5.42283499313354E-02
 20
-8.04999995880127E-02
 11
4.41968500686645E-02
 21
-8.04999995880127E-02
 12
4.41968500686646E-02
 22
-.112311000411987
 13
4.41968500686646E-02
 23
-.112311000411987
 999
##### POLY 714 ####
 0
SOLID
 5
36
 8
7
 10
5.42283499313354E-02
 20
-8.04999995880127E-02
 11
4.41968500686646E-02
 21
-.112311000411987
 12
5.42283499313355E-02
 22
-.112311000411987
 13
5.42283499313355E-02
 23
-.112311000411987
 999
##### POLY 715 ####
 0
SOLID
 5
36
 8
6
 10
7.39133499313354E-02
 20
-8.04999995880127E-02
 11
6.38818500686645E-02
 21
-8.04999995880127E-02
 12
6.38818500686646E-02
 22
-.112311000411987
 13
6.38818500686646E-02
 23
-.112311000411987
 999
##### POLY 715 ####
 0
SOLID
 5
36
 8
6
 10
7.39133499313354E-02
 20
-8.04999995880127E-02
 11
6.38818500686646E-02
 21
-.112311000411987
 12
7.39133499313355E-02
 22
-.112311000411987
 13
7.39133499313355E-02
 23
-.112311000411987
 999
##### POLY 716 ####
 0
SOLID
 5
36
 8
3
 10
7.39133499313354E-02
 20
-8.04999995880127E-02
 11
6.38818500686645E-02
 21
-8.04999995880127E-02
 12
6.38818500686646E-02
 22
-.112311000411987
 13
6.38818500686646E-02
 23
-.112311000411987
 999
##### POLY 716 ####
 0
SOLID
 5
36
 8
3
 10
7.39133499313354E-02
 20
-8.04999995880127E-02
 11
6.38818500686646E-02
 21
-.112311000411987
 12
7.39133499313355E-02
 22
-.112311000411987
 13
7.39133499313355E-02
 23
-.112311000411987
 999
##### POLY 717 ####
 0
SOLID
 5
36
 8
7
 10
7.39133499313354E-02
 20
-8.04999995880127E-02
 11
6.38818500686645E-02
 21
-8.04999995880127E-02
 12
6.38818500686646E-02
 22
-.112311000411987
 13
6.38818500686646E-02
 23
-.112311000411987
 999
##### POLY 717 ####
 0
SOLID
 5
36
 8
7
 10
7.39133499313354E-02
 20
-8.04999995880127E-02
 11
6.38818500686646E-02
 21
-.112311000411987
 12
7.39133499313355E-02
 22
-.112311000411987
 13
7.39133499313355E-02
 23
-.112311000411987
 999
##### POLY 718 ####
 0
SOLID
 5
36
 8
6
 10
8.04999995880127E-02
 20
-6.38818500686646E-02
 11
8.04999995880127E-02
 21
-7.39133499313355E-02
 12
.112311000411987
 22
-7.39133499313354E-02
 13
.112311000411987
 23
-7.39133499313354E-02
 999
##### POLY 718 ####
 0
SOLID
 5
36
 8
6
 10
8.04999995880127E-02
 20
-6.38818500686646E-02
 11
.112311000411987
 21
-7.39133499313354E-02
 12
.112311000411987
 22
-6.38818500686645E-02
 13
.112311000411987
 23
-6.38818500686645E-02
 999
##### POLY 719 ####
 0
SOLID
 5
36
 8
3
 10
8.04999995880127E-02
 20
-6.38818500686646E-02
 11
8.04999995880127E-02
 21
-7.39133499313355E-02
 12
.112311000411987
 22
-7.39133499313354E-02
 13
.112311000411987
 23
-7.39133499313354E-02
 999
##### POLY 719 ####
 0
SOLID
 5
36
 8
3
 10
8.04999995880127E-02
 20
-6.38818500686646E-02
 11
.112311000411987
 21
-7.39133499313354E-02
 12
.112311000411987
 22
-6.38818500686645E-02
 13
.112311000411987
 23
-6.38818500686645E-02
 999
##### POLY 720 ####
 0
SOLID
 5
36
 8
7
 10
8.04999995880127E-02
 20
-6.38818500686646E-02
 11
8.04999995880127E-02
 21
-7.39133499313355E-02
 12
.112311000411987
 22
-7.39133499313354E-02
 13
.112311000411987
 23
-7.39133499313354E-02
 999
##### POLY 720 ####
 0
SOLID
 5
36
 8
7
 10
8.04999995880127E-02
 20
-6.38818500686646E-02
 11
.112311000411987
 21
-7.39133499313354E-02
 12
.112311000411987
 22
-6.38818500686645E-02
 13
.112311000411987
 23
-6.38818500686645E-02
 999
##### POLY 721 ####
 0
SOLID
 5
36
 8
6
 10
8.04999995880127E-02
 20
-4.41968500686646E-02
 11
8.04999995880127E-02
 21
-5.42283499313355E-02
 12
.112311000411987
 22
-5.42283499313354E-02
 13
.112311000411987
 23
-5.42283499313354E-02
 999
##### POLY 721 ####
 0
SOLID
 5
36
 8
6
 10
8.04999995880127E-02
 20
-4.41968500686646E-02
 11
.112311000411987
 21
-5.42283499313354E-02
 12
.112311000411987
 22
-4.41968500686645E-02
 13
.112311000411987
 23
-4.41968500686645E-02
 999
##### POLY 722 ####
 0
SOLID
 5
36
 8
3
 10
8.04999995880127E-02
 20
-4.41968500686646E-02
 11
8.04999995880127E-02
 21
-5.42283499313355E-02
 12
.112311000411987
 22
-5.42283499313354E-02
 13
.112311000411987
 23
-5.42283499313354E-02
 999
##### POLY 722 ####
 0
SOLID
 5
36
 8
3
 10
8.04999995880127E-02
 20
-4.41968500686646E-02
 11
.112311000411987
 21
-5.42283499313354E-02
 12
.112311000411987
 22
-4.41968500686645E-02
 13
.112311000411987
 23
-4.41968500686645E-02
 999
##### POLY 723 ####
 0
SOLID
 5
36
 8
7
 10
8.04999995880127E-02
 20
-4.41968500686646E-02
 11
8.04999995880127E-02
 21
-5.42283499313355E-02
 12
.112311000411987
 22
-5.42283499313354E-02
 13
.112311000411987
 23
-5.42283499313354E-02
 999
##### POLY 723 ####
 0
SOLID
 5
36
 8
7
 10
8.04999995880127E-02
 20
-4.41968500686646E-02
 11
.112311000411987
 21
-5.42283499313354E-02
 12
.112311000411987
 22
-4.41968500686645E-02
 13
.112311000411987
 23
-4.41968500686645E-02
 999
##### POLY 724 ####
 0
SOLID
 5
36
 8
6
 10
8.04999995880127E-02
 20
-2.45118500686646E-02
 11
8.04999995880127E-02
 21
-3.45433499313355E-02
 12
.112311000411987
 22
-3.45433499313354E-02
 13
.112311000411987
 23
-3.45433499313354E-02
 999
##### POLY 724 ####
 0
SOLID
 5
36
 8
6
 10
8.04999995880127E-02
 20
-2.45118500686646E-02
 11
.112311000411987
 21
-3.45433499313354E-02
 12
.112311000411987
 22
-2.45118500686645E-02
 13
.112311000411987
 23
-2.45118500686645E-02
 999
##### POLY 725 ####
 0
SOLID
 5
36
 8
3
 10
8.04999995880127E-02
 20
-2.45118500686646E-02
 11
8.04999995880127E-02
 21
-3.45433499313355E-02
 12
.112311000411987
 22
-3.45433499313354E-02
 13
.112311000411987
 23
-3.45433499313354E-02
 999
##### POLY 725 ####
 0
SOLID
 5
36
 8
3
 10
8.04999995880127E-02
 20
-2.45118500686646E-02
 11
.112311000411987
 21
-3.45433499313354E-02
 12
.112311000411987
 22
-2.45118500686645E-02
 13
.112311000411987
 23
-2.45118500686645E-02
 999
##### POLY 726 ####
 0
SOLID
 5
36
 8
7
 10
8.04999995880127E-02
 20
-2.45118500686646E-02
 11
8.04999995880127E-02
 21
-3.45433499313355E-02
 12
.112311000411987
 22
-3.45433499313354E-02
 13
.112311000411987
 23
-3.45433499313354E-02
 999
##### POLY 726 ####
 0
SOLID
 5
36
 8
7
 10
8.04999995880127E-02
 20
-2.45118500686646E-02
 11
.112311000411987
 21
-3.45433499313354E-02
 12
.112311000411987
 22
-2.45118500686645E-02
 13
.112311000411987
 23
-2.45118500686645E-02
 999
##### POLY 727 ####
 0
SOLID
 5
36
 8
6
 10
8.04999995880127E-02
 20
-4.82675006866457E-03
 11
8.04999995880127E-02
 21
-1.48582499313355E-02
 12
.112311000411987
 22
-1.48582499313354E-02
 13
.112311000411987
 23
-1.48582499313354E-02
 999
##### POLY 727 ####
 0
SOLID
 5
36
 8
6
 10
8.04999995880127E-02
 20
-4.82675006866457E-03
 11
.112311000411987
 21
-1.48582499313354E-02
 12
.112311000411987
 22
-4.82675006866451E-03
 13
.112311000411987
 23
-4.82675006866451E-03
 999
##### POLY 728 ####
 0
SOLID
 5
36
 8
3
 10
8.04999995880127E-02
 20
-4.82675006866457E-03
 11
8.04999995880127E-02
 21
-1.48582499313355E-02
 12
.112311000411987
 22
-1.48582499313354E-02
 13
.112311000411987
 23
-1.48582499313354E-02
 999
##### POLY 728 ####
 0
SOLID
 5
36
 8
3
 10
8.04999995880127E-02
 20
-4.82675006866457E-03
 11
.112311000411987
 21
-1.48582499313354E-02
 12
.112311000411987
 22
-4.82675006866451E-03
 13
.112311000411987
 23
-4.82675006866451E-03
 999
##### POLY 729 ####
 0
SOLID
 5
36
 8
7
 10
8.04999995880127E-02
 20
-4.82675006866457E-03
 11
8.04999995880127E-02
 21
-1.48582499313355E-02
 12
.112311000411987
 22
-1.48582499313354E-02
 13
.112311000411987
 23
-1.48582499313354E-02
 999
##### POLY 729 ####
 0
SOLID
 5
36
 8
7
 10
8.04999995880127E-02
 20
-4.82675006866457E-03
 11
.112311000411987
 21
-1.48582499313354E-02
 12
.112311000411987
 22
-4.82675006866451E-03
 13
.112311000411987
 23
-4.82675006866451E-03
 999
##### POLY 730 ####
 0
SOLID
 5
36
 8
6
 10
8.04999995880127E-02
 20
1.48582499313354E-02
 11
8.04999995880127E-02
 21
4.8267500686645E-03
 12
.112311000411987
 22
4.82675006866456E-03
 13
.112311000411987
 23
4.82675006866456E-03
 999
##### POLY 730 ####
 0
SOLID
 5
36
 8
6
 10
8.04999995880127E-02
 20
1.48582499313354E-02
 11
.112311000411987
 21
4.82675006866456E-03
 12
.112311000411987
 22
1.48582499313355E-02
 13
.112311000411987
 23
1.48582499313355E-02
 999
##### POLY 731 ####
 0
SOLID
 5
36
 8
3
 10
8.04999995880127E-02
 20
1.48582499313354E-02
 11
8.04999995880127E-02
 21
4.8267500686645E-03
 12
.112311000411987
 22
4.82675006866456E-03
 13
.112311000411987
 23
4.82675006866456E-03
 999
##### POLY 731 ####
 0
SOLID
 5
36
 8
3
 10
8.04999995880127E-02
 20
1.48582499313354E-02
 11
.112311000411987
 21
4.82675006866456E-03
 12
.112311000411987
 22
1.48582499313355E-02
 13
.112311000411987
 23
1.48582499313355E-02
 999
##### POLY 732 ####
 0
SOLID
 5
36
 8
7
 10
8.04999995880127E-02
 20
1.48582499313354E-02
 11
8.04999995880127E-02
 21
4.8267500686645E-03
 12
.112311000411987
 22
4.82675006866456E-03
 13
.112311000411987
 23
4.82675006866456E-03
 999
##### POLY 732 ####
 0
SOLID
 5
36
 8
7
 10
8.04999995880127E-02
 20
1.48582499313354E-02
 11
.112311000411987
 21
4.82675006866456E-03
 12
.112311000411987
 22
1.48582499313355E-02
 13
.112311000411987
 23
1.48582499313355E-02
 999
##### POLY 733 ####
 0
SOLID
 5
36
 8
6
 10
8.04999995880127E-02
 20
3.45433499313354E-02
 11
8.04999995880127E-02
 21
2.45118500686645E-02
 12
.112311000411987
 22
2.45118500686646E-02
 13
.112311000411987
 23
2.45118500686646E-02
 999
##### POLY 733 ####
 0
SOLID
 5
36
 8
6
 10
8.04999995880127E-02
 20
3.45433499313354E-02
 11
.112311000411987
 21
2.45118500686646E-02
 12
.112311000411987
 22
3.45433499313355E-02
 13
.112311000411987
 23
3.45433499313355E-02
 999
##### POLY 734 ####
 0
SOLID
 5
36
 8
3
 10
8.04999995880127E-02
 20
3.45433499313354E-02
 11
8.04999995880127E-02
 21
2.45118500686645E-02
 12
.112311000411987
 22
2.45118500686646E-02
 13
.112311000411987
 23
2.45118500686646E-02
 999
##### POLY 734 ####
 0
SOLID
 5
36
 8
3
 10
8.04999995880127E-02
 20
3.45433499313354E-02
 11
.112311000411987
 21
2.45118500686646E-02
 12
.112311000411987
 22
3.45433499313355E-02
 13
.112311000411987
 23
3.45433499313355E-02
 999
##### POLY 735 ####
 0
SOLID
 5
36
 8
7
 10
8.04999995880127E-02
 20
3.45433499313354E-02
 11
8.04999995880127E-02
 21
2.45118500686645E-02
 12
.112311000411987
 22
2.45118500686646E-02
 13
.112311000411987
 23
2.45118500686646E-02
 999
##### POLY 735 ####
 0
SOLID
 5
36
 8
7
 10
8.04999995880127E-02
 20
3.45433499313354E-02
 11
.112311000411987
 21
2.45118500686646E-02
 12
.112311000411987
 22
3.45433499313355E-02
 13
.112311000411987
 23
3.45433499313355E-02
 999
##### POLY 736 ####
 0
SOLID
 5
36
 8
6
 10
8.04999995880127E-02
 20
5.42283499313354E-02
 11
8.04999995880127E-02
 21
4.41968500686645E-02
 12
.112311000411987
 22
4.41968500686646E-02
 13
.112311000411987
 23
4.41968500686646E-02
 999
##### POLY 736 ####
 0
SOLID
 5
36
 8
6
 10
8.04999995880127E-02
 20
5.42283499313354E-02
 11
.112311000411987
 21
4.41968500686646E-02
 12
.112311000411987
 22
5.42283499313355E-02
 13
.112311000411987
 23
5.42283499313355E-02
 999
##### POLY 737 ####
 0
SOLID
 5
36
 8
3
 10
8.04999995880127E-02
 20
5.42283499313354E-02
 11
8.04999995880127E-02
 21
4.41968500686645E-02
 12
.112311000411987
 22
4.41968500686646E-02
 13
.112311000411987
 23
4.41968500686646E-02
 999
##### POLY 737 ####
 0
SOLID
 5
36
 8
3
 10
8.04999995880127E-02
 20
5.42283499313354E-02
 11
.112311000411987
 21
4.41968500686646E-02
 12
.112311000411987
 22
5.42283499313355E-02
 13
.112311000411987
 23
5.42283499313355E-02
 999
##### POLY 738 ####
 0
SOLID
 5
36
 8
7
 10
8.04999995880127E-02
 20
5.42283499313354E-02
 11
8.04999995880127E-02
 21
4.41968500686645E-02
 12
.112311000411987
 22
4.41968500686646E-02
 13
.112311000411987
 23
4.41968500686646E-02
 999
##### POLY 738 ####
 0
SOLID
 5
36
 8
7
 10
8.04999995880127E-02
 20
5.42283499313354E-02
 11
.112311000411987
 21
4.41968500686646E-02
 12
.112311000411987
 22
5.42283499313355E-02
 13
.112311000411987
 23
5.42283499313355E-02
 999
##### POLY 739 ####
 0
SOLID
 5
36
 8
6
 10
8.04999995880127E-02
 20
7.39133499313354E-02
 11
8.04999995880127E-02
 21
6.38818500686645E-02
 12
.112311000411987
 22
6.38818500686646E-02
 13
.112311000411987
 23
6.38818500686646E-02
 999
##### POLY 739 ####
 0
SOLID
 5
36
 8
6
 10
8.04999995880127E-02
 20
7.39133499313354E-02
 11
.112311000411987
 21
6.38818500686646E-02
 12
.112311000411987
 22
7.39133499313355E-02
 13
.112311000411987
 23
7.39133499313355E-02
 999
##### POLY 740 ####
 0
SOLID
 5
36
 8
3
 10
8.04999995880127E-02
 20
7.39133499313354E-02
 11
8.04999995880127E-02
 21
6.38818500686645E-02
 12
.112311000411987
 22
6.38818500686646E-02
 13
.112311000411987
 23
6.38818500686646E-02
 999
##### POLY 740 ####
 0
SOLID
 5
36
 8
3
 10
8.04999995880127E-02
 20
7.39133499313354E-02
 11
.112311000411987
 21
6.38818500686646E-02
 12
.112311000411987
 22
7.39133499313355E-02
 13
.112311000411987
 23
7.39133499313355E-02
 999
##### POLY 741 ####
 0
SOLID
 5
36
 8
7
 10
8.04999995880127E-02
 20
7.39133499313354E-02
 11
8.04999995880127E-02
 21
6.38818500686645E-02
 12
.112311000411987
 22
6.38818500686646E-02
 13
.112311000411987
 23
6.38818500686646E-02
 999
##### POLY 741 ####
 0
SOLID
 5
36
 8
7
 10
8.04999995880127E-02
 20
7.39133499313354E-02
 11
.112311000411987
 21
6.38818500686646E-02
 12
.112311000411987
 22
7.39133499313355E-02
 13
.112311000411987
 23
7.39133499313355E-02
 999
##### POLY 742 ####
 0
SOLID
 5
36
 8
6
 10
7.39133499313354E-02
 20
.112311000411987
 11
6.38818500686645E-02
 21
.112311000411987
 12
6.38818500686646E-02
 22
8.04999995880127E-02
 13
6.38818500686646E-02
 23
8.04999995880127E-02
 999
##### POLY 742 ####
 0
SOLID
 5
36
 8
6
 10
7.39133499313354E-02
 20
.112311000411987
 11
6.38818500686646E-02
 21
8.04999995880127E-02
 12
7.39133499313355E-02
 22
8.04999995880127E-02
 13
7.39133499313355E-02
 23
8.04999995880127E-02
 999
##### POLY 743 ####
 0
SOLID
 5
36
 8
3
 10
7.39133499313354E-02
 20
.112311000411987
 11
6.38818500686645E-02
 21
.112311000411987
 12
6.38818500686646E-02
 22
8.04999995880127E-02
 13
6.38818500686646E-02
 23
8.04999995880127E-02
 999
##### POLY 743 ####
 0
SOLID
 5
36
 8
3
 10
7.39133499313354E-02
 20
.112311000411987
 11
6.38818500686646E-02
 21
8.04999995880127E-02
 12
7.39133499313355E-02
 22
8.04999995880127E-02
 13
7.39133499313355E-02
 23
8.04999995880127E-02
 999
##### POLY 744 ####
 0
SOLID
 5
36
 8
7
 10
7.39133499313354E-02
 20
.112311000411987
 11
6.38818500686645E-02
 21
.112311000411987
 12
6.38818500686646E-02
 22
8.04999995880127E-02
 13
6.38818500686646E-02
 23
8.04999995880127E-02
 999
##### POLY 744 ####
 0
SOLID
 5
36
 8
7
 10
7.39133499313354E-02
 20
.112311000411987
 11
6.38818500686646E-02
 21
8.04999995880127E-02
 12
7.39133499313355E-02
 22
8.04999995880127E-02
 13
7.39133499313355E-02
 23
8.04999995880127E-02
 999
##### POLY 745 ####
 0
SOLID
 5
36
 8
6
 10
5.42283499313354E-02
 20
.112311000411987
 11
4.41968500686645E-02
 21
.112311000411987
 12
4.41968500686646E-02
 22
8.04999995880127E-02
 13
4.41968500686646E-02
 23
8.04999995880127E-02
 999
##### POLY 745 ####
 0
SOLID
 5
36
 8
6
 10
5.42283499313354E-02
 20
.112311000411987
 11
4.41968500686646E-02
 21
8.04999995880127E-02
 12
5.42283499313355E-02
 22
8.04999995880127E-02
 13
5.42283499313355E-02
 23
8.04999995880127E-02
 999
##### POLY 746 ####
 0
SOLID
 5
36
 8
3
 10
5.42283499313354E-02
 20
.112311000411987
 11
4.41968500686645E-02
 21
.112311000411987
 12
4.41968500686646E-02
 22
8.04999995880127E-02
 13
4.41968500686646E-02
 23
8.04999995880127E-02
 999
##### POLY 746 ####
 0
SOLID
 5
36
 8
3
 10
5.42283499313354E-02
 20
.112311000411987
 11
4.41968500686646E-02
 21
8.04999995880127E-02
 12
5.42283499313355E-02
 22
8.04999995880127E-02
 13
5.42283499313355E-02
 23
8.04999995880127E-02
 999
##### POLY 747 ####
 0
SOLID
 5
36
 8
7
 10
5.42283499313354E-02
 20
.112311000411987
 11
4.41968500686645E-02
 21
.112311000411987
 12
4.41968500686646E-02
 22
8.04999995880127E-02
 13
4.41968500686646E-02
 23
8.04999995880127E-02
 999
##### POLY 747 ####
 0
SOLID
 5
36
 8
7
 10
5.42283499313354E-02
 20
.112311000411987
 11
4.41968500686646E-02
 21
8.04999995880127E-02
 12
5.42283499313355E-02
 22
8.04999995880127E-02
 13
5.42283499313355E-02
 23
8.04999995880127E-02
 999
##### POLY 748 ####
 0
SOLID
 5
36
 8
6
 10
3.45433499313354E-02
 20
.112311000411987
 11
2.45118500686645E-02
 21
.112311000411987
 12
2.45118500686646E-02
 22
8.04999995880127E-02
 13
2.45118500686646E-02
 23
8.04999995880127E-02
 999
##### POLY 748 ####
 0
SOLID
 5
36
 8
6
 10
3.45433499313354E-02
 20
.112311000411987
 11
2.45118500686646E-02
 21
8.04999995880127E-02
 12
3.45433499313355E-02
 22
8.04999995880127E-02
 13
3.45433499313355E-02
 23
8.04999995880127E-02
 999
##### POLY 749 ####
 0
SOLID
 5
36
 8
3
 10
3.45433499313354E-02
 20
.112311000411987
 11
2.45118500686645E-02
 21
.112311000411987
 12
2.45118500686646E-02
 22
8.04999995880127E-02
 13
2.45118500686646E-02
 23
8.04999995880127E-02
 999
##### POLY 749 ####
 0
SOLID
 5
36
 8
3
 10
3.45433499313354E-02
 20
.112311000411987
 11
2.45118500686646E-02
 21
8.04999995880127E-02
 12
3.45433499313355E-02
 22
8.04999995880127E-02
 13
3.45433499313355E-02
 23
8.04999995880127E-02
 999
##### POLY 750 ####
 0
SOLID
 5
36
 8
7
 10
3.45433499313354E-02
 20
.112311000411987
 11
2.45118500686645E-02
 21
.112311000411987
 12
2.45118500686646E-02
 22
8.04999995880127E-02
 13
2.45118500686646E-02
 23
8.04999995880127E-02
 999
##### POLY 750 ####
 0
SOLID
 5
36
 8
7
 10
3.45433499313354E-02
 20
.112311000411987
 11
2.45118500686646E-02
 21
8.04999995880127E-02
 12
3.45433499313355E-02
 22
8.04999995880127E-02
 13
3.45433499313355E-02
 23
8.04999995880127E-02
 999
##### POLY 751 ####
 0
SOLID
 5
36
 8
6
 10
1.48582499313354E-02
 20
.112311000411987
 11
4.82675006866449E-03
 21
.112311000411987
 12
4.82675006866456E-03
 22
8.04999995880127E-02
 13
4.82675006866456E-03
 23
8.04999995880127E-02
 999
##### POLY 751 ####
 0
SOLID
 5
36
 8
6
 10
1.48582499313354E-02
 20
.112311000411987
 11
4.82675006866456E-03
 21
8.04999995880127E-02
 12
1.48582499313355E-02
 22
8.04999995880127E-02
 13
1.48582499313355E-02
 23
8.04999995880127E-02
 999
##### POLY 752 ####
 0
SOLID
 5
36
 8
3
 10
1.48582499313354E-02
 20
.112311000411987
 11
4.82675006866449E-03
 21
.112311000411987
 12
4.82675006866456E-03
 22
8.04999995880127E-02
 13
4.82675006866456E-03
 23
8.04999995880127E-02
 999
##### POLY 752 ####
 0
SOLID
 5
36
 8
3
 10
1.48582499313354E-02
 20
.112311000411987
 11
4.82675006866456E-03
 21
8.04999995880127E-02
 12
1.48582499313355E-02
 22
8.04999995880127E-02
 13
1.48582499313355E-02
 23
8.04999995880127E-02
 999
##### POLY 753 ####
 0
SOLID
 5
36
 8
7
 10
1.48582499313354E-02
 20
.112311000411987
 11
4.82675006866449E-03
 21
.112311000411987
 12
4.82675006866456E-03
 22
8.04999995880127E-02
 13
4.82675006866456E-03
 23
8.04999995880127E-02
 999
##### POLY 753 ####
 0
SOLID
 5
36
 8
7
 10
1.48582499313354E-02
 20
.112311000411987
 11
4.82675006866456E-03
 21
8.04999995880127E-02
 12
1.48582499313355E-02
 22
8.04999995880127E-02
 13
1.48582499313355E-02
 23
8.04999995880127E-02
 999
##### POLY 754 ####
 0
SOLID
 5
36
 8
6
 10
-4.82675006866457E-03
 20
.112311000411987
 11
-1.48582499313355E-02
 21
.112311000411987
 12
-1.48582499313354E-02
 22
8.04999995880127E-02
 13
-1.48582499313354E-02
 23
8.04999995880127E-02
 999
##### POLY 754 ####
 0
SOLID
 5
36
 8
6
 10
-4.82675006866457E-03
 20
.112311000411987
 11
-1.48582499313354E-02
 21
8.04999995880127E-02
 12
-4.82675006866452E-03
 22
8.04999995880127E-02
 13
-4.82675006866452E-03
 23
8.04999995880127E-02
 999
##### POLY 755 ####
 0
SOLID
 5
36
 8
3
 10
-4.82675006866457E-03
 20
.112311000411987
 11
-1.48582499313355E-02
 21
.112311000411987
 12
-1.48582499313354E-02
 22
8.04999995880127E-02
 13
-1.48582499313354E-02
 23
8.04999995880127E-02
 999
##### POLY 755 ####
 0
SOLID
 5
36
 8
3
 10
-4.82675006866457E-03
 20
.112311000411987
 11
-1.48582499313354E-02
 21
8.04999995880127E-02
 12
-4.82675006866452E-03
 22
8.04999995880127E-02
 13
-4.82675006866452E-03
 23
8.04999995880127E-02
 999
##### POLY 756 ####
 0
SOLID
 5
36
 8
7
 10
-4.82675006866457E-03
 20
.112311000411987
 11
-1.48582499313355E-02
 21
.112311000411987
 12
-1.48582499313354E-02
 22
8.04999995880127E-02
 13
-1.48582499313354E-02
 23
8.04999995880127E-02
 999
##### POLY 756 ####
 0
SOLID
 5
36
 8
7
 10
-4.82675006866457E-03
 20
.112311000411987
 11
-1.48582499313354E-02
 21
8.04999995880127E-02
 12
-4.82675006866452E-03
 22
8.04999995880127E-02
 13
-4.82675006866452E-03
 23
8.04999995880127E-02
 999
##### POLY 757 ####
 0
SOLID
 5
36
 8
6
 10
-2.45118500686646E-02
 20
.112311000411987
 11
-3.45433499313355E-02
 21
.112311000411987
 12
-3.45433499313354E-02
 22
8.04999995880127E-02
 13
-3.45433499313354E-02
 23
8.04999995880127E-02
 999
##### POLY 757 ####
 0
SOLID
 5
36
 8
6
 10
-2.45118500686646E-02
 20
.112311000411987
 11
-3.45433499313354E-02
 21
8.04999995880127E-02
 12
-2.45118500686645E-02
 22
8.04999995880127E-02
 13
-2.45118500686645E-02
 23
8.04999995880127E-02
 999
##### POLY 758 ####
 0
SOLID
 5
36
 8
3
 10
-2.45118500686646E-02
 20
.112311000411987
 11
-3.45433499313355E-02
 21
.112311000411987
 12
-3.45433499313354E-02
 22
8.04999995880127E-02
 13
-3.45433499313354E-02
 23
8.04999995880127E-02
 999
##### POLY 758 ####
 0
SOLID
 5
36
 8
3
 10
-2.45118500686646E-02
 20
.112311000411987
 11
-3.45433499313354E-02
 21
8.04999995880127E-02
 12
-2.45118500686645E-02
 22
8.04999995880127E-02
 13
-2.45118500686645E-02
 23
8.04999995880127E-02
 999
##### POLY 759 ####
 0
SOLID
 5
36
 8
7
 10
-2.45118500686646E-02
 20
.112311000411987
 11
-3.45433499313355E-02
 21
.112311000411987
 12
-3.45433499313354E-02
 22
8.04999995880127E-02
 13
-3.45433499313354E-02
 23
8.04999995880127E-02
 999
##### POLY 759 ####
 0
SOLID
 5
36
 8
7
 10
-2.45118500686646E-02
 20
.112311000411987
 11
-3.45433499313354E-02
 21
8.04999995880127E-02
 12
-2.45118500686645E-02
 22
8.04999995880127E-02
 13
-2.45118500686645E-02
 23
8.04999995880127E-02
 999
##### POLY 760 ####
 0
SOLID
 5
36
 8
6
 10
-4.41968500686646E-02
 20
.112311000411987
 11
-5.42283499313355E-02
 21
.112311000411987
 12
-5.42283499313354E-02
 22
8.04999995880127E-02
 13
-5.42283499313354E-02
 23
8.04999995880127E-02
 999
##### POLY 760 ####
 0
SOLID
 5
36
 8
6
 10
-4.41968500686646E-02
 20
.112311000411987
 11
-5.42283499313354E-02
 21
8.04999995880127E-02
 12
-4.41968500686645E-02
 22
8.04999995880127E-02
 13
-4.41968500686645E-02
 23
8.04999995880127E-02
 999
##### POLY 761 ####
 0
SOLID
 5
36
 8
3
 10
-4.41968500686646E-02
 20
.112311000411987
 11
-5.42283499313355E-02
 21
.112311000411987
 12
-5.42283499313354E-02
 22
8.04999995880127E-02
 13
-5.42283499313354E-02
 23
8.04999995880127E-02
 999
##### POLY 761 ####
 0
SOLID
 5
36
 8
3
 10
-4.41968500686646E-02
 20
.112311000411987
 11
-5.42283499313354E-02
 21
8.04999995880127E-02
 12
-4.41968500686645E-02
 22
8.04999995880127E-02
 13
-4.41968500686645E-02
 23
8.04999995880127E-02
 999
##### POLY 762 ####
 0
SOLID
 5
36
 8
7
 10
-4.41968500686646E-02
 20
.112311000411987
 11
-5.42283499313355E-02
 21
.112311000411987
 12
-5.42283499313354E-02
 22
8.04999995880127E-02
 13
-5.42283499313354E-02
 23
8.04999995880127E-02
 999
##### POLY 762 ####
 0
SOLID
 5
36
 8
7
 10
-4.41968500686646E-02
 20
.112311000411987
 11
-5.42283499313354E-02
 21
8.04999995880127E-02
 12
-4.41968500686645E-02
 22
8.04999995880127E-02
 13
-4.41968500686645E-02
 23
8.04999995880127E-02
 999
##### POLY 763 ####
 0
SOLID
 5
36
 8
6
 10
-6.38818500686646E-02
 20
.112311000411987
 11
-7.39133499313355E-02
 21
.112311000411987
 12
-7.39133499313354E-02
 22
8.04999995880127E-02
 13
-7.39133499313354E-02
 23
8.04999995880127E-02
 999
##### POLY 763 ####
 0
SOLID
 5
36
 8
6
 10
-6.38818500686646E-02
 20
.112311000411987
 11
-7.39133499313354E-02
 21
8.04999995880127E-02
 12
-6.38818500686645E-02
 22
8.04999995880127E-02
 13
-6.38818500686645E-02
 23
8.04999995880127E-02
 999
##### POLY 764 ####
 0
SOLID
 5
36
 8
3
 10
-6.38818500686646E-02
 20
.112311000411987
 11
-7.39133499313355E-02
 21
.112311000411987
 12
-7.39133499313354E-02
 22
8.04999995880127E-02
 13
-7.39133499313354E-02
 23
8.04999995880127E-02
 999
##### POLY 764 ####
 0
SOLID
 5
36
 8
3
 10
-6.38818500686646E-02
 20
.112311000411987
 11
-7.39133499313354E-02
 21
8.04999995880127E-02
 12
-6.38818500686645E-02
 22
8.04999995880127E-02
 13
-6.38818500686645E-02
 23
8.04999995880127E-02
 999
##### POLY 765 ####
 0
SOLID
 5
36
 8
7
 10
-6.38818500686646E-02
 20
.112311000411987
 11
-7.39133499313355E-02
 21
.112311000411987
 12
-7.39133499313354E-02
 22
8.04999995880127E-02
 13
-7.39133499313354E-02
 23
8.04999995880127E-02
 999
##### POLY 765 ####
 0
SOLID
 5
36
 8
7
 10
-6.38818500686646E-02
 20
.112311000411987
 11
-7.39133499313354E-02
 21
8.04999995880127E-02
 12
-6.38818500686645E-02
 22
8.04999995880127E-02
 13
-6.38818500686645E-02
 23
8.04999995880127E-02
 999
##### POLY 766 ####
 0
SOLID
 5
36
 8
6
 10
-6.29999999999999E-02
 20
-.063
 11
.063
 21
-6.29999999999999E-02
 12
.063
 22
.063
 13
.063
 23
.063
 999
##### POLY 766 ####
 0
SOLID
 5
36
 8
6
 10
-6.29999999999999E-02
 20
-.063
 11
.063
 21
.063
 12
-.063
 22
.063
 13
-.063
 23
.063
 999
##### POLY 767 ####
 0
SOLID
 5
36
 8
3
 10
-.0005
 20
-.0005
 11
.0005
 21
-.0005
 12
.0005
 22
.0005
 13
.0005
 23
.0005
 999
##### POLY 767 ####
 0
SOLID
 5
36
 8
3
 10
-.0005
 20
-.0005
 11
.0005
 21
.0005
 12
-.0005
 22
.0005
 13
-.0005
 23
.0005
 999
##### POLY 768 ####
 0
SOLID
 5
36
 8
7
 10
-6.29999999999999E-02
 20
-.063
 11
.063
 21
-6.29999999999999E-02
 12
.063
 22
.063
 13
.063
 23
.063
 999
##### POLY 768 ####
 0
SOLID
 5
36
 8
7
 10
-6.29999999999999E-02
 20
-.063
 11
.063
 21
.063
 12
-.063
 22
.063
 13
-.063
 23
.063
 0
ENDBLK
 0
ENDSEC
 0
SECTION
 2
ENTITIES
 0
INSERT
 8
0
 2
21-0140L_T3255-5_MXM
 10
0
 20
0
 30
0
 41
1
 42
1
 43
1
 0
ENDSEC
 0
EOF

