 0
SECTION
 2
HEADER
 0
ENDSEC
 0
SECTION
 2
TABLES
 0
ENDSEC
 0
SECTION
 2
BLOCKS
 0
BLOCK
 70
0
 2
21-100232A_F486A6F-1_MXM-M
 10
0
 20
0
 30
0
 999
##### POLY 1 ####
 0
SOLID
 5
36
 8
2
 10
-.153748
 20
-.0476181
 11
-.153748
 21
-.0626181
 12
-.143748
 22
-.0626181
 13
-.143748
 23
-.0626181
 999
##### POLY 1 ####
 0
SOLID
 5
36
 8
2
 10
-.153748
 20
-.0476181
 11
-.143748
 21
-.0626181
 12
-.143748
 22
-.0476181
 13
-.143748
 23
-.0476181
 999
##### POLY 14 ####
 0
SOLID
 5
36
 8
2
 10
.016122
 20
-.143748
 11
.016122
 21
-.153748
 12
.031122
 22
-.153748
 13
.031122
 23
-.153748
 999
##### POLY 14 ####
 0
SOLID
 5
36
 8
2
 10
.016122
 20
-.143748
 11
.031122
 21
-.153748
 12
.031122
 22
-.143748
 13
.031122
 23
-.143748
 999
##### POLY 27 ####
 0
SOLID
 5
36
 8
2
 10
.153748
 20
-.000374
 11
.153748
 21
-.015374
 12
.143748
 22
-.015374
 13
.143748
 23
-.015374
 999
##### POLY 27 ####
 0
SOLID
 5
36
 8
2
 10
.153748
 20
-.000374
 11
.143748
 21
-.015374
 12
.143748
 22
-.000374
 13
.143748
 23
-.000374
 999
##### POLY 40 ####
 0
SOLID
 5
36
 8
2
 10
.0318701
 20
.143748
 11
.0318701
 21
.153748
 12
.0468701
 22
.153748
 13
.0468701
 23
.153748
 999
##### POLY 40 ####
 0
SOLID
 5
36
 8
2
 10
.0318701
 20
.143748
 11
.0468701
 21
.153748
 12
.0468701
 22
.143748
 13
.0468701
 23
.143748
 999
##### POLY 102 ####
 0
SOLID
 5
36
 8
3
 10
-6.33858530883789E-02
 20
5.51180994873047E-02
 11
-6.33858530883789E-02
 21
.003937
 12
-.003937
 22
.003937
 13
-.003937
 23
.003937
 999
##### POLY 102 ####
 0
SOLID
 5
36
 8
3
 10
-6.33858530883789E-02
 20
5.51180994873047E-02
 11
-.003937
 21
.003937
 12
-.003937
 22
5.51180994873047E-02
 13
-.003937
 23
5.51180994873047E-02
 999
##### POLY 103 ####
 0
SOLID
 5
36
 8
3
 10
-6.33858530883789E-02
 20
-.003937
 11
-6.33858530883789E-02
 21
-5.51180994873047E-02
 12
-.003937
 22
-5.51180994873047E-02
 13
-.003937
 23
-5.51180994873047E-02
 999
##### POLY 103 ####
 0
SOLID
 5
36
 8
3
 10
-6.33858530883789E-02
 20
-.003937
 11
-.003937
 21
-5.51180994873047E-02
 12
-.003937
 22
-.003937
 13
-.003937
 23
-.003937
 999
##### POLY 104 ####
 0
SOLID
 5
36
 8
3
 10
.003937
 20
5.51180994873047E-02
 11
.003937
 21
.003937
 12
6.33858530883789E-02
 22
.003937
 13
6.33858530883789E-02
 23
.003937
 999
##### POLY 104 ####
 0
SOLID
 5
36
 8
3
 10
.003937
 20
5.51180994873047E-02
 11
6.33858530883789E-02
 21
.003937
 12
6.33858530883789E-02
 22
5.51180994873047E-02
 13
6.33858530883789E-02
 23
5.51180994873047E-02
 999
##### POLY 105 ####
 0
SOLID
 5
36
 8
3
 10
.003937
 20
-.003937
 11
.003937
 21
-5.51180994873047E-02
 12
6.33858530883789E-02
 22
-5.51180994873047E-02
 13
6.33858530883789E-02
 23
-5.51180994873047E-02
 999
##### POLY 105 ####
 0
SOLID
 5
36
 8
3
 10
.003937
 20
-.003937
 11
6.33858530883789E-02
 21
-5.51180994873047E-02
 12
6.33858530883789E-02
 22
-.003937
 13
6.33858530883789E-02
 23
-.003937
 999
##### LINE 106 ####
 0
SOLID
 5
36
 8
8
 10
-.141
 20
-.138
 11
-.135
 21
-.138
 12
-.141
 22
-.110129913330078
 13
-.135
 23
-.110129913330078
 999
##### LINE 107 ####
 0
SOLID
 5
36
 8
8
 10
-.138
 20
-.113129913330078
 11
-.138
 21
-.107129913330078
 12
-.153748001098633
 22
-.113129913330078
 13
-.153748001098633
 23
-.107129913330078
 999
##### LINE 108 ####
 0
SOLID
 5
36
 8
8
 10
-.156748001098633
 20
-.110129913330078
 11
-.150748001098633
 21
-.110129913330078
 12
-.156748001098633
 22
.110129913330078
 13
-.150748001098633
 23
.110129913330078
 999
##### LINE 109 ####
 0
SOLID
 5
36
 8
8
 10
-.153748001098633
 20
.113129913330078
 11
-.153748001098633
 21
.107129913330078
 12
-.138
 22
.113129913330078
 13
-.138
 23
.107129913330078
 999
##### LINE 110 ####
 0
SOLID
 5
36
 8
8
 10
-.141
 20
.110129913330078
 11
-.135
 21
.110129913330078
 12
-.141
 22
.138
 13
-.135
 23
.138
 999
##### LINE 111 ####
 0
SOLID
 5
36
 8
8
 10
-.138
 20
.141
 11
-.138
 21
.135
 12
-.110129913330078
 22
.141
 13
-.110129913330078
 23
.135
 999
##### LINE 112 ####
 0
SOLID
 5
36
 8
8
 10
-.113129913330078
 20
.138
 11
-.107129913330078
 21
.138
 12
-.113129913330078
 22
.153748001098633
 13
-.107129913330078
 23
.153748001098633
 999
##### LINE 113 ####
 0
SOLID
 5
36
 8
8
 10
-.110129913330078
 20
.156748001098633
 11
-.110129913330078
 21
.150748001098633
 12
.110129913330078
 22
.156748001098633
 13
.110129913330078
 23
.150748001098633
 999
##### LINE 114 ####
 0
SOLID
 5
36
 8
8
 10
.113129913330078
 20
.153748001098633
 11
.107129913330078
 21
.153748001098633
 12
.113129913330078
 22
.138
 13
.107129913330078
 23
.138
 999
##### LINE 115 ####
 0
SOLID
 5
36
 8
8
 10
.110129913330078
 20
.141
 11
.110129913330078
 21
.135
 12
.138
 22
.141
 13
.138
 23
.135
 999
##### LINE 116 ####
 0
SOLID
 5
36
 8
8
 10
.141
 20
.138
 11
.135
 21
.138
 12
.141
 22
.110129913330078
 13
.135
 23
.110129913330078
 999
##### LINE 117 ####
 0
SOLID
 5
36
 8
8
 10
.138
 20
.113129913330078
 11
.138
 21
.107129913330078
 12
.153748001098633
 22
.113129913330078
 13
.153748001098633
 23
.107129913330078
 999
##### LINE 118 ####
 0
SOLID
 5
36
 8
8
 10
.156748001098633
 20
.110129913330078
 11
.150748001098633
 21
.110129913330078
 12
.156748001098633
 22
-.110129913330078
 13
.150748001098633
 23
-.110129913330078
 999
##### LINE 119 ####
 0
SOLID
 5
36
 8
8
 10
.153748001098633
 20
-.113129913330078
 11
.153748001098633
 21
-.107129913330078
 12
.138
 22
-.113129913330078
 13
.138
 23
-.107129913330078
 999
##### LINE 120 ####
 0
SOLID
 5
36
 8
8
 10
.141
 20
-.110129913330078
 11
.135
 21
-.110129913330078
 12
.141
 22
-.138
 13
.135
 23
-.138
 999
##### LINE 121 ####
 0
SOLID
 5
36
 8
8
 10
.138
 20
-.141
 11
.138
 21
-.135
 12
.110129913330078
 22
-.141
 13
.110129913330078
 23
-.135
 999
##### LINE 122 ####
 0
SOLID
 5
36
 8
8
 10
.113129913330078
 20
-.138
 11
.107129913330078
 21
-.138
 12
.113129913330078
 22
-.153748001098633
 13
.107129913330078
 23
-.153748001098633
 999
##### LINE 123 ####
 0
SOLID
 5
36
 8
8
 10
.110129913330078
 20
-.156748001098633
 11
.110129913330078
 21
-.150748001098633
 12
-.110129913330078
 22
-.156748001098633
 13
-.110129913330078
 23
-.150748001098633
 999
##### LINE 124 ####
 0
SOLID
 5
36
 8
8
 10
-.113129913330078
 20
-.153748001098633
 11
-.107129913330078
 21
-.153748001098633
 12
-.113129913330078
 22
-.138
 13
-.107129913330078
 23
-.138
 999
##### LINE 125 ####
 0
SOLID
 5
36
 8
8
 10
-.110129913330078
 20
-.141
 11
-.110129913330078
 21
-.135
 12
-.138
 22
-.141
 13
-.138
 23
-.135
 999
##### POLY 126 ####
 0
SOLID
 5
36
 8
8
 10
-.138
 20
-.138
 11
-.138
 21
-.110129913330078
 12
-.110129913330078
 22
.138
 13
-.110129913330078
 23
.138
 999
##### POLY 126 ####
 0
SOLID
 5
36
 8
8
 10
-.138
 20
-.110129913330078
 11
-.153748001098633
 21
-.110129913330078
 12
-.153748001098633
 22
.110129913330078
 13
-.153748001098633
 23
.110129913330078
 999
##### POLY 126 ####
 0
SOLID
 5
36
 8
8
 10
-.138
 20
-.110129913330078
 11
-.153748001098633
 21
.110129913330078
 12
-.138
 22
.110129913330078
 13
-.138
 23
.110129913330078
 999
##### POLY 126 ####
 0
SOLID
 5
36
 8
8
 10
-.138
 20
-.110129913330078
 11
-.138
 21
.110129913330078
 12
-.110129913330078
 22
.138
 13
-.110129913330078
 23
.138
 999
##### POLY 126 ####
 0
SOLID
 5
36
 8
8
 10
-.138
 20
.110129913330078
 11
-.138
 21
.138
 12
-.110129913330078
 22
.138
 13
-.110129913330078
 23
.138
 999
##### POLY 126 ####
 0
SOLID
 5
36
 8
8
 10
-.138
 20
-.138
 11
-.110129913330078
 21
.138
 12
.110129913330078
 22
.153748001098633
 13
.110129913330078
 23
.153748001098633
 999
##### POLY 126 ####
 0
SOLID
 5
36
 8
8
 10
-.110129913330078
 20
.138
 11
-.110129913330078
 21
.153748001098633
 12
.110129913330078
 22
.153748001098633
 13
.110129913330078
 23
.153748001098633
 999
##### POLY 126 ####
 0
SOLID
 5
36
 8
8
 10
-.138
 20
-.138
 11
.110129913330078
 21
.153748001098633
 12
.110129913330078
 22
.138
 13
.110129913330078
 23
.138
 999
##### POLY 126 ####
 0
SOLID
 5
36
 8
8
 10
-.138
 20
-.138
 11
.110129913330078
 21
.138
 12
.138
 22
.138
 13
.138
 23
.138
 999
##### POLY 126 ####
 0
SOLID
 5
36
 8
8
 10
-.138
 20
-.138
 11
.138
 21
.138
 12
.138
 22
.110129913330078
 13
.138
 23
.110129913330078
 999
##### POLY 126 ####
 0
SOLID
 5
36
 8
8
 10
-.138
 20
-.138
 11
.138
 21
.110129913330078
 12
.153748001098633
 22
.110129913330078
 13
.153748001098633
 23
.110129913330078
 999
##### POLY 126 ####
 0
SOLID
 5
36
 8
8
 10
-.138
 20
-.138
 11
.153748001098633
 21
.110129913330078
 12
.138
 22
-.110129913330078
 13
.138
 23
-.110129913330078
 999
##### POLY 126 ####
 0
SOLID
 5
36
 8
8
 10
.153748001098633
 20
.110129913330078
 11
.153748001098633
 21
-.110129913330078
 12
.138
 22
-.110129913330078
 13
.138
 23
-.110129913330078
 999
##### POLY 126 ####
 0
SOLID
 5
36
 8
8
 10
-.138
 20
-.138
 11
.138
 21
-.110129913330078
 12
-.110129913330078
 22
-.138
 13
-.110129913330078
 23
-.138
 999
##### POLY 126 ####
 0
SOLID
 5
36
 8
8
 10
.138
 20
-.110129913330078
 11
.138
 21
-.138
 12
.110129913330078
 22
-.138
 13
.110129913330078
 23
-.138
 999
##### POLY 126 ####
 0
SOLID
 5
36
 8
8
 10
.138
 20
-.110129913330078
 11
.110129913330078
 21
-.138
 12
-.110129913330078
 22
-.153748001098633
 13
-.110129913330078
 23
-.153748001098633
 999
##### POLY 126 ####
 0
SOLID
 5
36
 8
8
 10
.110129913330078
 20
-.138
 11
.110129913330078
 21
-.153748001098633
 12
-.110129913330078
 22
-.153748001098633
 13
-.110129913330078
 23
-.153748001098633
 999
##### POLY 126 ####
 0
SOLID
 5
36
 8
8
 10
.138
 20
-.110129913330078
 11
-.110129913330078
 21
-.153748001098633
 12
-.110129913330078
 22
-.138
 13
-.110129913330078
 23
-.138
 999
##### POLY 158 ####
 0
SOLID
 5
36
 8
23
 10
-.158748001098633
 20
-.158748001098633
 11
-.158748001098633
 21
.158748001098633
 12
.158748001098633
 22
.158748001098633
 13
.158748001098633
 23
.158748001098633
 999
##### POLY 158 ####
 0
SOLID
 5
36
 8
23
 10
-.158748001098633
 20
-.158748001098633
 11
.158748001098633
 21
.158748001098633
 12
.158748001098633
 22
-.158748001098633
 13
.158748001098633
 23
-.158748001098633
 999
##### LINE 296 ####
 0
LINE
 5
36
 8
18
 6
CONTINUOUS
 10
-.115874000549316
 20
8.66141662597656E-02
 11
-.190873992919922
 21
8.66141662597656E-02
 999
##### LINE 297 ####
 0
LINE
 5
36
 8
18
 6
CONTINUOUS
 10
-.115874000549316
 20
7.08661346435547E-02
 11
-.190873992919922
 21
7.08661346435547E-02
 999
##### LINE 298 ####
 0
LINE
 5
36
 8
18
 6
CONTINUOUS
 10
-.175873992919922
 20
8.66141662597656E-02
 11
-.175873992919922
 21
.136614166259766
 999
##### LINE 299 ####
 0
LINE
 5
36
 8
18
 6
CONTINUOUS
 10
-.175873992919922
 20
7.08661346435547E-02
 11
-.175873992919922
 21
2.08661346435547E-02
 999
##### LINE 300 ####
 0
LINE
 5
36
 8
18
 6
CONTINUOUS
 10
-.175873992919922
 20
8.66141662597656E-02
 11
-.180873992919922
 21
9.66141662597656E-02
 999
##### LINE 301 ####
 0
LINE
 5
36
 8
18
 6
CONTINUOUS
 10
-.175873992919922
 20
8.66141662597656E-02
 11
-.170873992919922
 21
9.66141662597656E-02
 999
##### LINE 302 ####
 0
LINE
 5
36
 8
18
 6
CONTINUOUS
 10
-.180873992919922
 20
9.66141662597656E-02
 11
-.170873992919922
 21
9.66141662597656E-02
 999
##### LINE 303 ####
 0
LINE
 5
36
 8
18
 6
CONTINUOUS
 10
-.175873992919922
 20
7.08661346435547E-02
 11
-.180873992919922
 21
6.08661346435547E-02
 999
##### LINE 304 ####
 0
LINE
 5
36
 8
18
 6
CONTINUOUS
 10
-.175873992919922
 20
7.08661346435547E-02
 11
-.170873992919922
 21
6.08661346435547E-02
 999
##### LINE 305 ####
 0
LINE
 5
36
 8
18
 6
CONTINUOUS
 10
-.180873992919922
 20
6.08661346435547E-02
 11
-.170873992919922
 21
6.08661346435547E-02
 999
##### TEXT 306 ####
 0
TEXT
 5
36
 8
18
 1
0.016in/0.4mm
 10
-.195873992919922
 20
7.87401504516602E-02
 11
-.195873992919922
 21
7.87401504516602E-02
 72
2
 73
2
 39
.001
 40
.025
 50
0
 999
##### LINE 307 ####
 0
LINE
 5
36
 8
18
 6
CONTINUOUS
 10
-.133748001098633
 20
8.66141662597656E-02
 11
-.133748001098633
 21
.230873992919922
 999
##### LINE 308 ####
 0
LINE
 5
36
 8
18
 6
CONTINUOUS
 10
-.098
 20
8.66141662597656E-02
 11
-.098
 21
.230873992919922
 999
##### LINE 309 ####
 0
LINE
 5
36
 8
18
 6
CONTINUOUS
 10
-.133748001098633
 20
.215873992919922
 11
-.183748001098633
 21
.215873992919922
 999
##### LINE 310 ####
 0
LINE
 5
36
 8
18
 6
CONTINUOUS
 10
-.098
 20
.215873992919922
 11
-.048
 21
.215873992919922
 999
##### LINE 311 ####
 0
LINE
 5
36
 8
18
 6
CONTINUOUS
 10
-.133748001098633
 20
.215873992919922
 11
-.143748001098633
 21
.220873992919922
 999
##### LINE 312 ####
 0
LINE
 5
36
 8
18
 6
CONTINUOUS
 10
-.133748001098633
 20
.215873992919922
 11
-.143748001098633
 21
.210873992919922
 999
##### LINE 313 ####
 0
LINE
 5
36
 8
18
 6
CONTINUOUS
 10
-.143748001098633
 20
.220873992919922
 11
-.143748001098633
 21
.210873992919922
 999
##### LINE 314 ####
 0
LINE
 5
36
 8
18
 6
CONTINUOUS
 10
-.098
 20
.215873992919922
 11
-.088
 21
.220873992919922
 999
##### LINE 315 ####
 0
LINE
 5
36
 8
18
 6
CONTINUOUS
 10
-.098
 20
.215873992919922
 11
-.088
 21
.210873992919922
 999
##### LINE 316 ####
 0
LINE
 5
36
 8
18
 6
CONTINUOUS
 10
-.088
 20
.220873992919922
 11
-.088
 21
.210873992919922
 999
##### TEXT 317 ####
 0
TEXT
 5
36
 8
18
 1
0.036in/0.908mm
 10
-.115874000549316
 20
.235873992919922
 11
-.115874000549316
 21
.235873992919922
 72
1
 73
1
 39
.001
 40
.025
 50
0
 999
##### LINE 318 ####
 0
LINE
 5
36
 8
18
 6
CONTINUOUS
 10
-.115874000549316
 20
-8.30984191894531E-02
 11
-.230873992919922
 21
-8.30984191894531E-02
 999
##### LINE 319 ####
 0
LINE
 5
36
 8
18
 6
CONTINUOUS
 10
-.115874000549316
 20
-9.01299133300781E-02
 11
-.230873992919922
 21
-9.01299133300781E-02
 999
##### LINE 320 ####
 0
LINE
 5
36
 8
18
 6
CONTINUOUS
 10
-.215873992919922
 20
-8.30984191894531E-02
 11
-.215873992919922
 21
-3.30984191894531E-02
 999
##### LINE 321 ####
 0
LINE
 5
36
 8
18
 6
CONTINUOUS
 10
-.215873992919922
 20
-9.01299133300781E-02
 11
-.215873992919922
 21
-.140129913330078
 999
##### LINE 322 ####
 0
LINE
 5
36
 8
18
 6
CONTINUOUS
 10
-.215873992919922
 20
-8.30984191894531E-02
 11
-.220873992919922
 21
-7.30984191894531E-02
 999
##### LINE 323 ####
 0
LINE
 5
36
 8
18
 6
CONTINUOUS
 10
-.215873992919922
 20
-8.30984191894531E-02
 11
-.210873992919922
 21
-7.30984191894531E-02
 999
##### LINE 324 ####
 0
LINE
 5
36
 8
18
 6
CONTINUOUS
 10
-.220873992919922
 20
-7.30984191894531E-02
 11
-.210873992919922
 21
-7.30984191894531E-02
 999
##### LINE 325 ####
 0
LINE
 5
36
 8
18
 6
CONTINUOUS
 10
-.215873992919922
 20
-9.01299133300781E-02
 11
-.220873992919922
 21
-.100129913330078
 999
##### LINE 326 ####
 0
LINE
 5
36
 8
18
 6
CONTINUOUS
 10
-.215873992919922
 20
-9.01299133300781E-02
 11
-.210873992919922
 21
-.100129913330078
 999
##### LINE 327 ####
 0
LINE
 5
36
 8
18
 6
CONTINUOUS
 10
-.220873992919922
 20
-.100129913330078
 11
-.210873992919922
 21
-.100129913330078
 999
##### TEXT 328 ####
 0
TEXT
 5
36
 8
18
 1
0.007in/0.179mm
 10
-.235873992919922
 20
-.115874000549316
 11
-.235873992919922
 21
-.115874000549316
 72
2
 73
2
 39
.001
 40
.025
 50
0
 999
##### LINE 329 ####
 0
LINE
 5
36
 8
18
 6
CONTINUOUS
 10
-.115874000549316
 20
-8.66141662597656E-02
 11
-.115874000549316
 21
-.330873992919922
 999
##### LINE 330 ####
 0
LINE
 5
36
 8
18
 6
CONTINUOUS
 10
.115874000549316
 20
-8.66141662597656E-02
 11
.115874000549316
 21
-.330873992919922
 999
##### LINE 331 ####
 0
LINE
 5
36
 8
18
 6
CONTINUOUS
 10
-.115874000549316
 20
-.315873992919922
 11
.115874000549316
 21
-.315873992919922
 999
##### LINE 332 ####
 0
LINE
 5
36
 8
18
 6
CONTINUOUS
 10
-.115874000549316
 20
-.315873992919922
 11
-.105874000549316
 21
-.310873992919922
 999
##### LINE 333 ####
 0
LINE
 5
36
 8
18
 6
CONTINUOUS
 10
-.115874000549316
 20
-.315873992919922
 11
-.105874000549316
 21
-.320873992919922
 999
##### LINE 334 ####
 0
LINE
 5
36
 8
18
 6
CONTINUOUS
 10
-.105874000549316
 20
-.310873992919922
 11
-.105874000549316
 21
-.320873992919922
 999
##### LINE 335 ####
 0
LINE
 5
36
 8
18
 6
CONTINUOUS
 10
.115874000549316
 20
-.315873992919922
 11
.105874000549316
 21
-.310873992919922
 999
##### LINE 336 ####
 0
LINE
 5
36
 8
18
 6
CONTINUOUS
 10
.115874000549316
 20
-.315873992919922
 11
.105874000549316
 21
-.320873992919922
 999
##### LINE 337 ####
 0
LINE
 5
36
 8
18
 6
CONTINUOUS
 10
.105874000549316
 20
-.310873992919922
 11
.105874000549316
 21
-.320873992919922
 999
##### TEXT 338 ####
 0
TEXT
 5
36
 8
18
 1
0.232in/5.886mm
 10
0
 20
-.335873992919922
 11
0
 21
-.335873992919922
 72
1
 73
3
 39
.001
 40
.025
 50
0
 999
##### LINE 339 ####
 0
LINE
 5
36
 8
18
 6
CONTINUOUS
 10
8.66141662597656E-02
 20
.115874000549316
 11
.330873992919922
 21
.115874000549316
 999
##### LINE 340 ####
 0
LINE
 5
36
 8
18
 6
CONTINUOUS
 10
8.66141662597656E-02
 20
-.115874000549316
 11
.330873992919922
 21
-.115874000549316
 999
##### LINE 341 ####
 0
LINE
 5
36
 8
18
 6
CONTINUOUS
 10
.315873992919922
 20
.115874000549316
 11
.315873992919922
 21
-.115874000549316
 999
##### LINE 342 ####
 0
LINE
 5
36
 8
18
 6
CONTINUOUS
 10
.315873992919922
 20
.115874000549316
 11
.310873992919922
 21
.105874000549316
 999
##### LINE 343 ####
 0
LINE
 5
36
 8
18
 6
CONTINUOUS
 10
.315873992919922
 20
.115874000549316
 11
.320873992919922
 21
.105874000549316
 999
##### LINE 344 ####
 0
LINE
 5
36
 8
18
 6
CONTINUOUS
 10
.310873992919922
 20
.105874000549316
 11
.320873992919922
 21
.105874000549316
 999
##### LINE 345 ####
 0
LINE
 5
36
 8
18
 6
CONTINUOUS
 10
.315873992919922
 20
-.115874000549316
 11
.310873992919922
 21
-.105874000549316
 999
##### LINE 346 ####
 0
LINE
 5
36
 8
18
 6
CONTINUOUS
 10
.315873992919922
 20
-.115874000549316
 11
.320873992919922
 21
-.105874000549316
 999
##### LINE 347 ####
 0
LINE
 5
36
 8
18
 6
CONTINUOUS
 10
.310873992919922
 20
-.105874000549316
 11
.320873992919922
 21
-.105874000549316
 999
##### TEXT 348 ####
 0
TEXT
 5
36
 8
18
 1
0.232in/5.886mm
 10
.335873992919922
 20
-.025
 11
.335873992919922
 21
-.025
 72
0
 73
2
 39
.001
 40
.025
 50
0
 999
##### LINE 349 ####
 0
LINE
 5
36
 8
18
 6
CONTINUOUS
 10
-6.73228530883789E-02
 20
-5.90550994873047E-02
 11
-6.73228530883789E-02
 21
-.174055099487305
 999
##### LINE 350 ####
 0
LINE
 5
36
 8
18
 6
CONTINUOUS
 10
6.73228530883789E-02
 20
-5.90550994873047E-02
 11
6.73228530883789E-02
 21
-.174055099487305
 999
##### LINE 351 ####
 0
LINE
 5
36
 8
18
 6
CONTINUOUS
 10
-6.73228530883789E-02
 20
-.159055099487305
 11
-.117322853088379
 21
-.159055099487305
 999
##### LINE 352 ####
 0
LINE
 5
36
 8
18
 6
CONTINUOUS
 10
6.73228530883789E-02
 20
-.159055099487305
 11
.117322853088379
 21
-.159055099487305
 999
##### LINE 353 ####
 0
LINE
 5
36
 8
18
 6
CONTINUOUS
 10
-6.73228530883789E-02
 20
-.159055099487305
 11
-7.73228530883789E-02
 21
-.154055099487305
 999
##### LINE 354 ####
 0
LINE
 5
36
 8
18
 6
CONTINUOUS
 10
-6.73228530883789E-02
 20
-.159055099487305
 11
-7.73228530883789E-02
 21
-.164055099487305
 999
##### LINE 355 ####
 0
LINE
 5
36
 8
18
 6
CONTINUOUS
 10
-7.73228530883789E-02
 20
-.154055099487305
 11
-7.73228530883789E-02
 21
-.164055099487305
 999
##### LINE 356 ####
 0
LINE
 5
36
 8
18
 6
CONTINUOUS
 10
6.73228530883789E-02
 20
-.159055099487305
 11
7.73228530883789E-02
 21
-.154055099487305
 999
##### LINE 357 ####
 0
LINE
 5
36
 8
18
 6
CONTINUOUS
 10
6.73228530883789E-02
 20
-.159055099487305
 11
7.73228530883789E-02
 21
-.164055099487305
 999
##### LINE 358 ####
 0
LINE
 5
36
 8
18
 6
CONTINUOUS
 10
7.73228530883789E-02
 20
-.154055099487305
 11
7.73228530883789E-02
 21
-.164055099487305
 999
##### TEXT 359 ####
 0
TEXT
 5
36
 8
18
 1
0.135in/3.42mm
 10
0
 20
-.179055099487305
 11
0
 21
-.179055099487305
 72
1
 73
3
 39
.001
 40
.025
 50
0
 999
##### LINE 360 ####
 0
LINE
 5
36
 8
18
 6
CONTINUOUS
 10
6.73228530883789E-02
 20
5.90550994873047E-02
 11
.182322845458984
 21
5.90550994873047E-02
 999
##### LINE 361 ####
 0
LINE
 5
36
 8
18
 6
CONTINUOUS
 10
6.73228530883789E-02
 20
-5.90550994873047E-02
 11
.182322845458984
 21
-5.90550994873047E-02
 999
##### LINE 362 ####
 0
LINE
 5
36
 8
18
 6
CONTINUOUS
 10
.167322845458984
 20
5.90550994873047E-02
 11
.167322845458984
 21
.109055099487305
 999
##### LINE 363 ####
 0
LINE
 5
36
 8
18
 6
CONTINUOUS
 10
.167322845458984
 20
-5.90550994873047E-02
 11
.167322845458984
 21
-.109055099487305
 999
##### LINE 364 ####
 0
LINE
 5
36
 8
18
 6
CONTINUOUS
 10
.167322845458984
 20
5.90550994873047E-02
 11
.162322845458984
 21
6.90550994873047E-02
 999
##### LINE 365 ####
 0
LINE
 5
36
 8
18
 6
CONTINUOUS
 10
.167322845458984
 20
5.90550994873047E-02
 11
.172322845458984
 21
6.90550994873047E-02
 999
##### LINE 366 ####
 0
LINE
 5
36
 8
18
 6
CONTINUOUS
 10
.162322845458984
 20
6.90550994873047E-02
 11
.172322845458984
 21
6.90550994873047E-02
 999
##### LINE 367 ####
 0
LINE
 5
36
 8
18
 6
CONTINUOUS
 10
.167322845458984
 20
-5.90550994873047E-02
 11
.162322845458984
 21
-6.90550994873047E-02
 999
##### LINE 368 ####
 0
LINE
 5
36
 8
18
 6
CONTINUOUS
 10
.167322845458984
 20
-5.90550994873047E-02
 11
.172322845458984
 21
-6.90550994873047E-02
 999
##### LINE 369 ####
 0
LINE
 5
36
 8
18
 6
CONTINUOUS
 10
.162322845458984
 20
-6.90550994873047E-02
 11
.172322845458984
 21
-6.90550994873047E-02
 999
##### TEXT 370 ####
 0
TEXT
 5
36
 8
18
 1
0.118in/3mm
 10
.187322845458984
 20
.025
 11
.187322845458984
 21
.025
 72
0
 73
2
 39
.001
 40
.025
 50
0
 999
##### ATTRIBUTE 371 ####
 0
TEXT
 5
36
 8
2
 1
RefDes
 10
0
 20
0
 11
0
 21
0
 72
1
 73
2
 39
.003
 40
.05
 41
.0005
 50
0
 999
##### LINE 373 ####
 0
SOLID
 5
36
 8
2
 10
-.103229948405457
 20
.12
 11
-.103229948405457
 21
.126
 12
-.123
 22
.12
 13
-.123
 23
.126
 999
##### LINE 374 ####
 0
SOLID
 5
36
 8
2
 10
.12
 20
.103229948405457
 11
.126
 21
.103229948405457
 12
.12
 22
.123
 13
.126
 23
.123
 999
##### LINE 375 ####
 0
SOLID
 5
36
 8
2
 10
.103229948405457
 20
-.12
 11
.103229948405457
 21
-.126
 12
.123
 22
-.12
 13
.123
 23
-.126
 999
##### TEXT 455 ####
 0
TEXT
 5
36
 8
2
 1
*
 10
-.158748001098633
 20
9.44881820678711E-02
 11
-.158748001098633
 21
9.44881820678711E-02
 72
1
 73
2
 39
.003
 40
.05
 41
.0005
 50
0
 999
##### TEXT 456 ####
 0
TEXT
 5
36
 8
1
 1
*
 10
-.098
 20
9.44881820678711E-02
 11
-.098
 21
9.44881820678711E-02
 72
1
 73
2
 39
.003
 40
.05
 41
.0005
 50
0
 999
##### LINE 457 ####
 0
LINE
 5
36
 8
1
 6
CONTINUOUS
 10
-.118
 20
.068
 11
-.068
 21
.118
 999
##### LINE 458 ####
 0
LINE
 5
36
 8
1
 6
CONTINUOUS
 10
8.21141662597656E-02
 20
.118
 11
9.11141662597656E-02
 21
.118
 999
##### LINE 459 ####
 0
LINE
 5
36
 8
1
 6
CONTINUOUS
 10
9.11141662597656E-02
 20
.118
 11
9.11141662597656E-02
 21
.118
 999
##### LINE 460 ####
 0
LINE
 5
36
 8
1
 6
CONTINUOUS
 10
9.11141662597656E-02
 20
.118
 11
8.21141662597656E-02
 21
.118
 999
##### LINE 461 ####
 0
LINE
 5
36
 8
1
 6
CONTINUOUS
 10
8.21141662597656E-02
 20
.118
 11
8.21141662597656E-02
 21
.118
 999
##### LINE 463 ####
 0
LINE
 5
36
 8
1
 6
CONTINUOUS
 10
6.63661365509033E-02
 20
.118
 11
7.53661365509033E-02
 21
.118
 999
##### LINE 464 ####
 0
LINE
 5
36
 8
1
 6
CONTINUOUS
 10
7.53661365509033E-02
 20
.118
 11
7.53661365509033E-02
 21
.118
 999
##### LINE 465 ####
 0
LINE
 5
36
 8
1
 6
CONTINUOUS
 10
7.53661365509033E-02
 20
.118
 11
6.63661365509033E-02
 21
.118
 999
##### LINE 466 ####
 0
LINE
 5
36
 8
1
 6
CONTINUOUS
 10
6.63661365509033E-02
 20
.118
 11
6.63661365509033E-02
 21
.118
 999
##### LINE 468 ####
 0
LINE
 5
36
 8
1
 6
CONTINUOUS
 10
.050618106842041
 20
.118
 11
.059618106842041
 21
.118
 999
##### LINE 469 ####
 0
LINE
 5
36
 8
1
 6
CONTINUOUS
 10
.059618106842041
 20
.118
 11
.059618106842041
 21
.118
 999
##### LINE 470 ####
 0
LINE
 5
36
 8
1
 6
CONTINUOUS
 10
.059618106842041
 20
.118
 11
.050618106842041
 21
.118
 999
##### LINE 471 ####
 0
LINE
 5
36
 8
1
 6
CONTINUOUS
 10
.050618106842041
 20
.118
 11
.050618106842041
 21
.118
 999
##### LINE 473 ####
 0
LINE
 5
36
 8
1
 6
CONTINUOUS
 10
3.48700771331787E-02
 20
.118
 11
4.38700771331787E-02
 21
.118
 999
##### LINE 474 ####
 0
LINE
 5
36
 8
1
 6
CONTINUOUS
 10
4.38700771331787E-02
 20
.118
 11
4.38700771331787E-02
 21
.118
 999
##### LINE 475 ####
 0
LINE
 5
36
 8
1
 6
CONTINUOUS
 10
4.38700771331787E-02
 20
.118
 11
3.48700771331787E-02
 21
.118
 999
##### LINE 476 ####
 0
LINE
 5
36
 8
1
 6
CONTINUOUS
 10
3.48700771331787E-02
 20
.118
 11
3.48700771331787E-02
 21
.118
 999
##### LINE 478 ####
 0
LINE
 5
36
 8
1
 6
CONTINUOUS
 10
1.91220474243164E-02
 20
.118
 11
2.81220474243164E-02
 21
.118
 999
##### LINE 479 ####
 0
LINE
 5
36
 8
1
 6
CONTINUOUS
 10
2.81220474243164E-02
 20
.118
 11
2.81220474243164E-02
 21
.118
 999
##### LINE 480 ####
 0
LINE
 5
36
 8
1
 6
CONTINUOUS
 10
2.81220474243164E-02
 20
.118
 11
1.91220474243164E-02
 21
.118
 999
##### LINE 481 ####
 0
LINE
 5
36
 8
1
 6
CONTINUOUS
 10
1.91220474243164E-02
 20
.118
 11
1.91220474243164E-02
 21
.118
 999
##### LINE 483 ####
 0
LINE
 5
36
 8
1
 6
CONTINUOUS
 10
3.3740177154541E-03
 20
.118
 11
1.23740177154541E-02
 21
.118
 999
##### LINE 484 ####
 0
LINE
 5
36
 8
1
 6
CONTINUOUS
 10
1.23740177154541E-02
 20
.118
 11
1.23740177154541E-02
 21
.118
 999
##### LINE 485 ####
 0
LINE
 5
36
 8
1
 6
CONTINUOUS
 10
1.23740177154541E-02
 20
.118
 11
3.3740177154541E-03
 21
.118
 999
##### LINE 486 ####
 0
LINE
 5
36
 8
1
 6
CONTINUOUS
 10
3.3740177154541E-03
 20
.118
 11
3.3740177154541E-03
 21
.118
 999
##### LINE 488 ####
 0
LINE
 5
36
 8
1
 6
CONTINUOUS
 10
-1.23740119934082E-02
 20
.118
 11
-3.3740119934082E-03
 21
.118
 999
##### LINE 489 ####
 0
LINE
 5
36
 8
1
 6
CONTINUOUS
 10
-3.3740119934082E-03
 20
.118
 11
-3.3740119934082E-03
 21
.118
 999
##### LINE 490 ####
 0
LINE
 5
36
 8
1
 6
CONTINUOUS
 10
-3.3740119934082E-03
 20
.118
 11
-1.23740119934082E-02
 21
.118
 999
##### LINE 491 ####
 0
LINE
 5
36
 8
1
 6
CONTINUOUS
 10
-1.23740119934082E-02
 20
.118
 11
-1.23740119934082E-02
 21
.118
 999
##### LINE 493 ####
 0
LINE
 5
36
 8
1
 6
CONTINUOUS
 10
-2.81220417022705E-02
 20
.118
 11
-1.91220417022705E-02
 21
.118
 999
##### LINE 494 ####
 0
LINE
 5
36
 8
1
 6
CONTINUOUS
 10
-1.91220417022705E-02
 20
.118
 11
-1.91220417022705E-02
 21
.118
 999
##### LINE 495 ####
 0
LINE
 5
36
 8
1
 6
CONTINUOUS
 10
-1.91220417022705E-02
 20
.118
 11
-2.81220417022705E-02
 21
.118
 999
##### LINE 496 ####
 0
LINE
 5
36
 8
1
 6
CONTINUOUS
 10
-2.81220417022705E-02
 20
.118
 11
-2.81220417022705E-02
 21
.118
 999
##### LINE 498 ####
 0
LINE
 5
36
 8
1
 6
CONTINUOUS
 10
-4.38700714111328E-02
 20
.118
 11
-3.48700714111328E-02
 21
.118
 999
##### LINE 499 ####
 0
LINE
 5
36
 8
1
 6
CONTINUOUS
 10
-3.48700714111328E-02
 20
.118
 11
-3.48700714111328E-02
 21
.118
 999
##### LINE 500 ####
 0
LINE
 5
36
 8
1
 6
CONTINUOUS
 10
-3.48700714111328E-02
 20
.118
 11
-4.38700714111328E-02
 21
.118
 999
##### LINE 501 ####
 0
LINE
 5
36
 8
1
 6
CONTINUOUS
 10
-4.38700714111328E-02
 20
.118
 11
-4.38700714111328E-02
 21
.118
 999
##### LINE 503 ####
 0
LINE
 5
36
 8
1
 6
CONTINUOUS
 10
-5.96181011199951E-02
 20
.118
 11
-5.06181011199951E-02
 21
.118
 999
##### LINE 504 ####
 0
LINE
 5
36
 8
1
 6
CONTINUOUS
 10
-5.06181011199951E-02
 20
.118
 11
-5.06181011199951E-02
 21
.118
 999
##### LINE 505 ####
 0
LINE
 5
36
 8
1
 6
CONTINUOUS
 10
-5.06181011199951E-02
 20
.118
 11
-5.96181011199951E-02
 21
.118
 999
##### LINE 506 ####
 0
LINE
 5
36
 8
1
 6
CONTINUOUS
 10
-5.96181011199951E-02
 20
.118
 11
-5.96181011199951E-02
 21
.118
 999
##### LINE 508 ####
 0
LINE
 5
36
 8
1
 6
CONTINUOUS
 10
-7.53661308288574E-02
 20
.118
 11
-6.63661308288574E-02
 21
.118
 999
##### LINE 509 ####
 0
LINE
 5
36
 8
1
 6
CONTINUOUS
 10
-6.63661308288574E-02
 20
.118
 11
-6.63661308288574E-02
 21
.118
 999
##### LINE 510 ####
 0
LINE
 5
36
 8
1
 6
CONTINUOUS
 10
-6.63661308288574E-02
 20
.118
 11
-7.53661308288574E-02
 21
.118
 999
##### LINE 511 ####
 0
LINE
 5
36
 8
1
 6
CONTINUOUS
 10
-7.53661308288574E-02
 20
.118
 11
-7.53661308288574E-02
 21
.118
 999
##### LINE 513 ####
 0
LINE
 5
36
 8
1
 6
CONTINUOUS
 10
-9.11141605377197E-02
 20
.118
 11
-8.21141605377197E-02
 21
.118
 999
##### LINE 514 ####
 0
LINE
 5
36
 8
1
 6
CONTINUOUS
 10
-8.21141605377197E-02
 20
.118
 11
-8.21141605377197E-02
 21
.118
 999
##### LINE 515 ####
 0
LINE
 5
36
 8
1
 6
CONTINUOUS
 10
-8.21141605377197E-02
 20
.118
 11
-9.11141605377197E-02
 21
.118
 999
##### LINE 516 ####
 0
LINE
 5
36
 8
1
 6
CONTINUOUS
 10
-9.11141605377197E-02
 20
.118
 11
-9.11141605377197E-02
 21
.118
 999
##### LINE 518 ####
 0
LINE
 5
36
 8
1
 6
CONTINUOUS
 10
-.118
 20
8.21141662597656E-02
 11
-.118
 21
9.11141662597656E-02
 999
##### LINE 519 ####
 0
LINE
 5
36
 8
1
 6
CONTINUOUS
 10
-.118
 20
9.11141662597656E-02
 11
-.118
 21
9.11141662597656E-02
 999
##### LINE 520 ####
 0
LINE
 5
36
 8
1
 6
CONTINUOUS
 10
-.118
 20
9.11141662597656E-02
 11
-.118
 21
8.21141662597656E-02
 999
##### LINE 521 ####
 0
LINE
 5
36
 8
1
 6
CONTINUOUS
 10
-.118
 20
8.21141662597656E-02
 11
-.118
 21
8.21141662597656E-02
 999
##### LINE 523 ####
 0
LINE
 5
36
 8
1
 6
CONTINUOUS
 10
-.118
 20
6.63661365509033E-02
 11
-.118
 21
7.53661365509033E-02
 999
##### LINE 524 ####
 0
LINE
 5
36
 8
1
 6
CONTINUOUS
 10
-.118
 20
7.53661365509033E-02
 11
-.118
 21
7.53661365509033E-02
 999
##### LINE 525 ####
 0
LINE
 5
36
 8
1
 6
CONTINUOUS
 10
-.118
 20
7.53661365509033E-02
 11
-.118
 21
6.63661365509033E-02
 999
##### LINE 526 ####
 0
LINE
 5
36
 8
1
 6
CONTINUOUS
 10
-.118
 20
6.63661365509033E-02
 11
-.118
 21
6.63661365509033E-02
 999
##### LINE 528 ####
 0
LINE
 5
36
 8
1
 6
CONTINUOUS
 10
-.118
 20
.050618106842041
 11
-.118
 21
.059618106842041
 999
##### LINE 529 ####
 0
LINE
 5
36
 8
1
 6
CONTINUOUS
 10
-.118
 20
.059618106842041
 11
-.118
 21
.059618106842041
 999
##### LINE 530 ####
 0
LINE
 5
36
 8
1
 6
CONTINUOUS
 10
-.118
 20
.059618106842041
 11
-.118
 21
.050618106842041
 999
##### LINE 531 ####
 0
LINE
 5
36
 8
1
 6
CONTINUOUS
 10
-.118
 20
.050618106842041
 11
-.118
 21
.050618106842041
 999
##### LINE 533 ####
 0
LINE
 5
36
 8
1
 6
CONTINUOUS
 10
-.118
 20
3.48700771331787E-02
 11
-.118
 21
4.38700771331787E-02
 999
##### LINE 534 ####
 0
LINE
 5
36
 8
1
 6
CONTINUOUS
 10
-.118
 20
4.38700771331787E-02
 11
-.118
 21
4.38700771331787E-02
 999
##### LINE 535 ####
 0
LINE
 5
36
 8
1
 6
CONTINUOUS
 10
-.118
 20
4.38700771331787E-02
 11
-.118
 21
3.48700771331787E-02
 999
##### LINE 536 ####
 0
LINE
 5
36
 8
1
 6
CONTINUOUS
 10
-.118
 20
3.48700771331787E-02
 11
-.118
 21
3.48700771331787E-02
 999
##### LINE 538 ####
 0
LINE
 5
36
 8
1
 6
CONTINUOUS
 10
-.118
 20
1.91220474243164E-02
 11
-.118
 21
2.81220474243164E-02
 999
##### LINE 539 ####
 0
LINE
 5
36
 8
1
 6
CONTINUOUS
 10
-.118
 20
2.81220474243164E-02
 11
-.118
 21
2.81220474243164E-02
 999
##### LINE 540 ####
 0
LINE
 5
36
 8
1
 6
CONTINUOUS
 10
-.118
 20
2.81220474243164E-02
 11
-.118
 21
1.91220474243164E-02
 999
##### LINE 541 ####
 0
LINE
 5
36
 8
1
 6
CONTINUOUS
 10
-.118
 20
1.91220474243164E-02
 11
-.118
 21
1.91220474243164E-02
 999
##### LINE 543 ####
 0
LINE
 5
36
 8
1
 6
CONTINUOUS
 10
-.118
 20
3.3740177154541E-03
 11
-.118
 21
1.23740177154541E-02
 999
##### LINE 544 ####
 0
LINE
 5
36
 8
1
 6
CONTINUOUS
 10
-.118
 20
1.23740177154541E-02
 11
-.118
 21
1.23740177154541E-02
 999
##### LINE 545 ####
 0
LINE
 5
36
 8
1
 6
CONTINUOUS
 10
-.118
 20
1.23740177154541E-02
 11
-.118
 21
3.3740177154541E-03
 999
##### LINE 546 ####
 0
LINE
 5
36
 8
1
 6
CONTINUOUS
 10
-.118
 20
3.3740177154541E-03
 11
-.118
 21
3.3740177154541E-03
 999
##### LINE 548 ####
 0
LINE
 5
36
 8
1
 6
CONTINUOUS
 10
-.118
 20
-1.23740119934082E-02
 11
-.118
 21
-3.3740119934082E-03
 999
##### LINE 549 ####
 0
LINE
 5
36
 8
1
 6
CONTINUOUS
 10
-.118
 20
-3.3740119934082E-03
 11
-.118
 21
-3.3740119934082E-03
 999
##### LINE 550 ####
 0
LINE
 5
36
 8
1
 6
CONTINUOUS
 10
-.118
 20
-3.3740119934082E-03
 11
-.118
 21
-1.23740119934082E-02
 999
##### LINE 551 ####
 0
LINE
 5
36
 8
1
 6
CONTINUOUS
 10
-.118
 20
-1.23740119934082E-02
 11
-.118
 21
-1.23740119934082E-02
 999
##### LINE 553 ####
 0
LINE
 5
36
 8
1
 6
CONTINUOUS
 10
-.118
 20
-2.81220417022705E-02
 11
-.118
 21
-1.91220417022705E-02
 999
##### LINE 554 ####
 0
LINE
 5
36
 8
1
 6
CONTINUOUS
 10
-.118
 20
-1.91220417022705E-02
 11
-.118
 21
-1.91220417022705E-02
 999
##### LINE 555 ####
 0
LINE
 5
36
 8
1
 6
CONTINUOUS
 10
-.118
 20
-1.91220417022705E-02
 11
-.118
 21
-2.81220417022705E-02
 999
##### LINE 556 ####
 0
LINE
 5
36
 8
1
 6
CONTINUOUS
 10
-.118
 20
-2.81220417022705E-02
 11
-.118
 21
-2.81220417022705E-02
 999
##### LINE 558 ####
 0
LINE
 5
36
 8
1
 6
CONTINUOUS
 10
-.118
 20
-4.38700714111328E-02
 11
-.118
 21
-3.48700714111328E-02
 999
##### LINE 559 ####
 0
LINE
 5
36
 8
1
 6
CONTINUOUS
 10
-.118
 20
-3.48700714111328E-02
 11
-.118
 21
-3.48700714111328E-02
 999
##### LINE 560 ####
 0
LINE
 5
36
 8
1
 6
CONTINUOUS
 10
-.118
 20
-3.48700714111328E-02
 11
-.118
 21
-4.38700714111328E-02
 999
##### LINE 561 ####
 0
LINE
 5
36
 8
1
 6
CONTINUOUS
 10
-.118
 20
-4.38700714111328E-02
 11
-.118
 21
-4.38700714111328E-02
 999
##### LINE 563 ####
 0
LINE
 5
36
 8
1
 6
CONTINUOUS
 10
-.118
 20
-5.96181011199951E-02
 11
-.118
 21
-5.06181011199951E-02
 999
##### LINE 564 ####
 0
LINE
 5
36
 8
1
 6
CONTINUOUS
 10
-.118
 20
-5.06181011199951E-02
 11
-.118
 21
-5.06181011199951E-02
 999
##### LINE 565 ####
 0
LINE
 5
36
 8
1
 6
CONTINUOUS
 10
-.118
 20
-5.06181011199951E-02
 11
-.118
 21
-5.96181011199951E-02
 999
##### LINE 566 ####
 0
LINE
 5
36
 8
1
 6
CONTINUOUS
 10
-.118
 20
-5.96181011199951E-02
 11
-.118
 21
-5.96181011199951E-02
 999
##### LINE 568 ####
 0
LINE
 5
36
 8
1
 6
CONTINUOUS
 10
-.118
 20
-7.53661308288574E-02
 11
-.118
 21
-6.63661308288574E-02
 999
##### LINE 569 ####
 0
LINE
 5
36
 8
1
 6
CONTINUOUS
 10
-.118
 20
-6.63661308288574E-02
 11
-.118
 21
-6.63661308288574E-02
 999
##### LINE 570 ####
 0
LINE
 5
36
 8
1
 6
CONTINUOUS
 10
-.118
 20
-6.63661308288574E-02
 11
-.118
 21
-7.53661308288574E-02
 999
##### LINE 571 ####
 0
LINE
 5
36
 8
1
 6
CONTINUOUS
 10
-.118
 20
-7.53661308288574E-02
 11
-.118
 21
-7.53661308288574E-02
 999
##### LINE 573 ####
 0
LINE
 5
36
 8
1
 6
CONTINUOUS
 10
-.118
 20
-9.11141605377197E-02
 11
-.118
 21
-8.21141605377197E-02
 999
##### LINE 574 ####
 0
LINE
 5
36
 8
1
 6
CONTINUOUS
 10
-.118
 20
-8.21141605377197E-02
 11
-.118
 21
-8.21141605377197E-02
 999
##### LINE 575 ####
 0
LINE
 5
36
 8
1
 6
CONTINUOUS
 10
-.118
 20
-8.21141605377197E-02
 11
-.118
 21
-9.11141605377197E-02
 999
##### LINE 576 ####
 0
LINE
 5
36
 8
1
 6
CONTINUOUS
 10
-.118
 20
-9.11141605377197E-02
 11
-.118
 21
-9.11141605377197E-02
 999
##### LINE 578 ####
 0
LINE
 5
36
 8
1
 6
CONTINUOUS
 10
-8.21141662597656E-02
 20
-.118
 11
-9.11141662597656E-02
 21
-.118
 999
##### LINE 579 ####
 0
LINE
 5
36
 8
1
 6
CONTINUOUS
 10
-9.11141662597656E-02
 20
-.118
 11
-9.11141662597656E-02
 21
-.118
 999
##### LINE 580 ####
 0
LINE
 5
36
 8
1
 6
CONTINUOUS
 10
-9.11141662597656E-02
 20
-.118
 11
-8.21141662597656E-02
 21
-.118
 999
##### LINE 581 ####
 0
LINE
 5
36
 8
1
 6
CONTINUOUS
 10
-8.21141662597656E-02
 20
-.118
 11
-8.21141662597656E-02
 21
-.118
 999
##### LINE 583 ####
 0
LINE
 5
36
 8
1
 6
CONTINUOUS
 10
-6.63661365509033E-02
 20
-.118
 11
-7.53661365509033E-02
 21
-.118
 999
##### LINE 584 ####
 0
LINE
 5
36
 8
1
 6
CONTINUOUS
 10
-7.53661365509033E-02
 20
-.118
 11
-7.53661365509033E-02
 21
-.118
 999
##### LINE 585 ####
 0
LINE
 5
36
 8
1
 6
CONTINUOUS
 10
-7.53661365509033E-02
 20
-.118
 11
-6.63661365509033E-02
 21
-.118
 999
##### LINE 586 ####
 0
LINE
 5
36
 8
1
 6
CONTINUOUS
 10
-6.63661365509033E-02
 20
-.118
 11
-6.63661365509033E-02
 21
-.118
 999
##### LINE 588 ####
 0
LINE
 5
36
 8
1
 6
CONTINUOUS
 10
-.050618106842041
 20
-.118
 11
-.059618106842041
 21
-.118
 999
##### LINE 589 ####
 0
LINE
 5
36
 8
1
 6
CONTINUOUS
 10
-.059618106842041
 20
-.118
 11
-.059618106842041
 21
-.118
 999
##### LINE 590 ####
 0
LINE
 5
36
 8
1
 6
CONTINUOUS
 10
-.059618106842041
 20
-.118
 11
-.050618106842041
 21
-.118
 999
##### LINE 591 ####
 0
LINE
 5
36
 8
1
 6
CONTINUOUS
 10
-.050618106842041
 20
-.118
 11
-.050618106842041
 21
-.118
 999
##### LINE 593 ####
 0
LINE
 5
36
 8
1
 6
CONTINUOUS
 10
-3.48700771331787E-02
 20
-.118
 11
-4.38700771331787E-02
 21
-.118
 999
##### LINE 594 ####
 0
LINE
 5
36
 8
1
 6
CONTINUOUS
 10
-4.38700771331787E-02
 20
-.118
 11
-4.38700771331787E-02
 21
-.118
 999
##### LINE 595 ####
 0
LINE
 5
36
 8
1
 6
CONTINUOUS
 10
-4.38700771331787E-02
 20
-.118
 11
-3.48700771331787E-02
 21
-.118
 999
##### LINE 596 ####
 0
LINE
 5
36
 8
1
 6
CONTINUOUS
 10
-3.48700771331787E-02
 20
-.118
 11
-3.48700771331787E-02
 21
-.118
 999
##### LINE 598 ####
 0
LINE
 5
36
 8
1
 6
CONTINUOUS
 10
-1.91220474243164E-02
 20
-.118
 11
-2.81220474243164E-02
 21
-.118
 999
##### LINE 599 ####
 0
LINE
 5
36
 8
1
 6
CONTINUOUS
 10
-2.81220474243164E-02
 20
-.118
 11
-2.81220474243164E-02
 21
-.118
 999
##### LINE 600 ####
 0
LINE
 5
36
 8
1
 6
CONTINUOUS
 10
-2.81220474243164E-02
 20
-.118
 11
-1.91220474243164E-02
 21
-.118
 999
##### LINE 601 ####
 0
LINE
 5
36
 8
1
 6
CONTINUOUS
 10
-1.91220474243164E-02
 20
-.118
 11
-1.91220474243164E-02
 21
-.118
 999
##### LINE 603 ####
 0
LINE
 5
36
 8
1
 6
CONTINUOUS
 10
-3.3740177154541E-03
 20
-.118
 11
-1.23740177154541E-02
 21
-.118
 999
##### LINE 604 ####
 0
LINE
 5
36
 8
1
 6
CONTINUOUS
 10
-1.23740177154541E-02
 20
-.118
 11
-1.23740177154541E-02
 21
-.118
 999
##### LINE 605 ####
 0
LINE
 5
36
 8
1
 6
CONTINUOUS
 10
-1.23740177154541E-02
 20
-.118
 11
-3.3740177154541E-03
 21
-.118
 999
##### LINE 606 ####
 0
LINE
 5
36
 8
1
 6
CONTINUOUS
 10
-3.3740177154541E-03
 20
-.118
 11
-3.3740177154541E-03
 21
-.118
 999
##### LINE 608 ####
 0
LINE
 5
36
 8
1
 6
CONTINUOUS
 10
1.23740119934082E-02
 20
-.118
 11
3.3740119934082E-03
 21
-.118
 999
##### LINE 609 ####
 0
LINE
 5
36
 8
1
 6
CONTINUOUS
 10
3.3740119934082E-03
 20
-.118
 11
3.3740119934082E-03
 21
-.118
 999
##### LINE 610 ####
 0
LINE
 5
36
 8
1
 6
CONTINUOUS
 10
3.3740119934082E-03
 20
-.118
 11
1.23740119934082E-02
 21
-.118
 999
##### LINE 611 ####
 0
LINE
 5
36
 8
1
 6
CONTINUOUS
 10
1.23740119934082E-02
 20
-.118
 11
1.23740119934082E-02
 21
-.118
 999
##### LINE 613 ####
 0
LINE
 5
36
 8
1
 6
CONTINUOUS
 10
2.81220417022705E-02
 20
-.118
 11
1.91220417022705E-02
 21
-.118
 999
##### LINE 614 ####
 0
LINE
 5
36
 8
1
 6
CONTINUOUS
 10
1.91220417022705E-02
 20
-.118
 11
1.91220417022705E-02
 21
-.118
 999
##### LINE 615 ####
 0
LINE
 5
36
 8
1
 6
CONTINUOUS
 10
1.91220417022705E-02
 20
-.118
 11
2.81220417022705E-02
 21
-.118
 999
##### LINE 616 ####
 0
LINE
 5
36
 8
1
 6
CONTINUOUS
 10
2.81220417022705E-02
 20
-.118
 11
2.81220417022705E-02
 21
-.118
 999
##### LINE 618 ####
 0
LINE
 5
36
 8
1
 6
CONTINUOUS
 10
4.38700714111328E-02
 20
-.118
 11
3.48700714111328E-02
 21
-.118
 999
##### LINE 619 ####
 0
LINE
 5
36
 8
1
 6
CONTINUOUS
 10
3.48700714111328E-02
 20
-.118
 11
3.48700714111328E-02
 21
-.118
 999
##### LINE 620 ####
 0
LINE
 5
36
 8
1
 6
CONTINUOUS
 10
3.48700714111328E-02
 20
-.118
 11
4.38700714111328E-02
 21
-.118
 999
##### LINE 621 ####
 0
LINE
 5
36
 8
1
 6
CONTINUOUS
 10
4.38700714111328E-02
 20
-.118
 11
4.38700714111328E-02
 21
-.118
 999
##### LINE 623 ####
 0
LINE
 5
36
 8
1
 6
CONTINUOUS
 10
5.96181011199951E-02
 20
-.118
 11
5.06181011199951E-02
 21
-.118
 999
##### LINE 624 ####
 0
LINE
 5
36
 8
1
 6
CONTINUOUS
 10
5.06181011199951E-02
 20
-.118
 11
5.06181011199951E-02
 21
-.118
 999
##### LINE 625 ####
 0
LINE
 5
36
 8
1
 6
CONTINUOUS
 10
5.06181011199951E-02
 20
-.118
 11
5.96181011199951E-02
 21
-.118
 999
##### LINE 626 ####
 0
LINE
 5
36
 8
1
 6
CONTINUOUS
 10
5.96181011199951E-02
 20
-.118
 11
5.96181011199951E-02
 21
-.118
 999
##### LINE 628 ####
 0
LINE
 5
36
 8
1
 6
CONTINUOUS
 10
7.53661308288574E-02
 20
-.118
 11
6.63661308288574E-02
 21
-.118
 999
##### LINE 629 ####
 0
LINE
 5
36
 8
1
 6
CONTINUOUS
 10
6.63661308288574E-02
 20
-.118
 11
6.63661308288574E-02
 21
-.118
 999
##### LINE 630 ####
 0
LINE
 5
36
 8
1
 6
CONTINUOUS
 10
6.63661308288574E-02
 20
-.118
 11
7.53661308288574E-02
 21
-.118
 999
##### LINE 631 ####
 0
LINE
 5
36
 8
1
 6
CONTINUOUS
 10
7.53661308288574E-02
 20
-.118
 11
7.53661308288574E-02
 21
-.118
 999
##### LINE 633 ####
 0
LINE
 5
36
 8
1
 6
CONTINUOUS
 10
9.11141605377197E-02
 20
-.118
 11
8.21141605377197E-02
 21
-.118
 999
##### LINE 634 ####
 0
LINE
 5
36
 8
1
 6
CONTINUOUS
 10
8.21141605377197E-02
 20
-.118
 11
8.21141605377197E-02
 21
-.118
 999
##### LINE 635 ####
 0
LINE
 5
36
 8
1
 6
CONTINUOUS
 10
8.21141605377197E-02
 20
-.118
 11
9.11141605377197E-02
 21
-.118
 999
##### LINE 636 ####
 0
LINE
 5
36
 8
1
 6
CONTINUOUS
 10
9.11141605377197E-02
 20
-.118
 11
9.11141605377197E-02
 21
-.118
 999
##### LINE 638 ####
 0
LINE
 5
36
 8
1
 6
CONTINUOUS
 10
.118
 20
-8.21141662597656E-02
 11
.118
 21
-9.11141662597656E-02
 999
##### LINE 639 ####
 0
LINE
 5
36
 8
1
 6
CONTINUOUS
 10
.118
 20
-9.11141662597656E-02
 11
.118
 21
-9.11141662597656E-02
 999
##### LINE 640 ####
 0
LINE
 5
36
 8
1
 6
CONTINUOUS
 10
.118
 20
-9.11141662597656E-02
 11
.118
 21
-8.21141662597656E-02
 999
##### LINE 641 ####
 0
LINE
 5
36
 8
1
 6
CONTINUOUS
 10
.118
 20
-8.21141662597656E-02
 11
.118
 21
-8.21141662597656E-02
 999
##### LINE 643 ####
 0
LINE
 5
36
 8
1
 6
CONTINUOUS
 10
.118
 20
-6.63661365509033E-02
 11
.118
 21
-7.53661365509033E-02
 999
##### LINE 644 ####
 0
LINE
 5
36
 8
1
 6
CONTINUOUS
 10
.118
 20
-7.53661365509033E-02
 11
.118
 21
-7.53661365509033E-02
 999
##### LINE 645 ####
 0
LINE
 5
36
 8
1
 6
CONTINUOUS
 10
.118
 20
-7.53661365509033E-02
 11
.118
 21
-6.63661365509033E-02
 999
##### LINE 646 ####
 0
LINE
 5
36
 8
1
 6
CONTINUOUS
 10
.118
 20
-6.63661365509033E-02
 11
.118
 21
-6.63661365509033E-02
 999
##### LINE 648 ####
 0
LINE
 5
36
 8
1
 6
CONTINUOUS
 10
.118
 20
-.050618106842041
 11
.118
 21
-.059618106842041
 999
##### LINE 649 ####
 0
LINE
 5
36
 8
1
 6
CONTINUOUS
 10
.118
 20
-.059618106842041
 11
.118
 21
-.059618106842041
 999
##### LINE 650 ####
 0
LINE
 5
36
 8
1
 6
CONTINUOUS
 10
.118
 20
-.059618106842041
 11
.118
 21
-.050618106842041
 999
##### LINE 651 ####
 0
LINE
 5
36
 8
1
 6
CONTINUOUS
 10
.118
 20
-.050618106842041
 11
.118
 21
-.050618106842041
 999
##### LINE 653 ####
 0
LINE
 5
36
 8
1
 6
CONTINUOUS
 10
.118
 20
-3.48700771331787E-02
 11
.118
 21
-4.38700771331787E-02
 999
##### LINE 654 ####
 0
LINE
 5
36
 8
1
 6
CONTINUOUS
 10
.118
 20
-4.38700771331787E-02
 11
.118
 21
-4.38700771331787E-02
 999
##### LINE 655 ####
 0
LINE
 5
36
 8
1
 6
CONTINUOUS
 10
.118
 20
-4.38700771331787E-02
 11
.118
 21
-3.48700771331787E-02
 999
##### LINE 656 ####
 0
LINE
 5
36
 8
1
 6
CONTINUOUS
 10
.118
 20
-3.48700771331787E-02
 11
.118
 21
-3.48700771331787E-02
 999
##### LINE 658 ####
 0
LINE
 5
36
 8
1
 6
CONTINUOUS
 10
.118
 20
-1.91220474243164E-02
 11
.118
 21
-2.81220474243164E-02
 999
##### LINE 659 ####
 0
LINE
 5
36
 8
1
 6
CONTINUOUS
 10
.118
 20
-2.81220474243164E-02
 11
.118
 21
-2.81220474243164E-02
 999
##### LINE 660 ####
 0
LINE
 5
36
 8
1
 6
CONTINUOUS
 10
.118
 20
-2.81220474243164E-02
 11
.118
 21
-1.91220474243164E-02
 999
##### LINE 661 ####
 0
LINE
 5
36
 8
1
 6
CONTINUOUS
 10
.118
 20
-1.91220474243164E-02
 11
.118
 21
-1.91220474243164E-02
 999
##### LINE 663 ####
 0
LINE
 5
36
 8
1
 6
CONTINUOUS
 10
.118
 20
-3.3740177154541E-03
 11
.118
 21
-1.23740177154541E-02
 999
##### LINE 664 ####
 0
LINE
 5
36
 8
1
 6
CONTINUOUS
 10
.118
 20
-1.23740177154541E-02
 11
.118
 21
-1.23740177154541E-02
 999
##### LINE 665 ####
 0
LINE
 5
36
 8
1
 6
CONTINUOUS
 10
.118
 20
-1.23740177154541E-02
 11
.118
 21
-3.3740177154541E-03
 999
##### LINE 666 ####
 0
LINE
 5
36
 8
1
 6
CONTINUOUS
 10
.118
 20
-3.3740177154541E-03
 11
.118
 21
-3.3740177154541E-03
 999
##### LINE 668 ####
 0
LINE
 5
36
 8
1
 6
CONTINUOUS
 10
.118
 20
1.23740119934082E-02
 11
.118
 21
3.3740119934082E-03
 999
##### LINE 669 ####
 0
LINE
 5
36
 8
1
 6
CONTINUOUS
 10
.118
 20
3.3740119934082E-03
 11
.118
 21
3.3740119934082E-03
 999
##### LINE 670 ####
 0
LINE
 5
36
 8
1
 6
CONTINUOUS
 10
.118
 20
3.3740119934082E-03
 11
.118
 21
1.23740119934082E-02
 999
##### LINE 671 ####
 0
LINE
 5
36
 8
1
 6
CONTINUOUS
 10
.118
 20
1.23740119934082E-02
 11
.118
 21
1.23740119934082E-02
 999
##### LINE 673 ####
 0
LINE
 5
36
 8
1
 6
CONTINUOUS
 10
.118
 20
2.81220417022705E-02
 11
.118
 21
1.91220417022705E-02
 999
##### LINE 674 ####
 0
LINE
 5
36
 8
1
 6
CONTINUOUS
 10
.118
 20
1.91220417022705E-02
 11
.118
 21
1.91220417022705E-02
 999
##### LINE 675 ####
 0
LINE
 5
36
 8
1
 6
CONTINUOUS
 10
.118
 20
1.91220417022705E-02
 11
.118
 21
2.81220417022705E-02
 999
##### LINE 676 ####
 0
LINE
 5
36
 8
1
 6
CONTINUOUS
 10
.118
 20
2.81220417022705E-02
 11
.118
 21
2.81220417022705E-02
 999
##### LINE 678 ####
 0
LINE
 5
36
 8
1
 6
CONTINUOUS
 10
.118
 20
4.38700714111328E-02
 11
.118
 21
3.48700714111328E-02
 999
##### LINE 679 ####
 0
LINE
 5
36
 8
1
 6
CONTINUOUS
 10
.118
 20
3.48700714111328E-02
 11
.118
 21
3.48700714111328E-02
 999
##### LINE 680 ####
 0
LINE
 5
36
 8
1
 6
CONTINUOUS
 10
.118
 20
3.48700714111328E-02
 11
.118
 21
4.38700714111328E-02
 999
##### LINE 681 ####
 0
LINE
 5
36
 8
1
 6
CONTINUOUS
 10
.118
 20
4.38700714111328E-02
 11
.118
 21
4.38700714111328E-02
 999
##### LINE 683 ####
 0
LINE
 5
36
 8
1
 6
CONTINUOUS
 10
.118
 20
5.96181011199951E-02
 11
.118
 21
5.06181011199951E-02
 999
##### LINE 684 ####
 0
LINE
 5
36
 8
1
 6
CONTINUOUS
 10
.118
 20
5.06181011199951E-02
 11
.118
 21
5.06181011199951E-02
 999
##### LINE 685 ####
 0
LINE
 5
36
 8
1
 6
CONTINUOUS
 10
.118
 20
5.06181011199951E-02
 11
.118
 21
5.96181011199951E-02
 999
##### LINE 686 ####
 0
LINE
 5
36
 8
1
 6
CONTINUOUS
 10
.118
 20
5.96181011199951E-02
 11
.118
 21
5.96181011199951E-02
 999
##### LINE 688 ####
 0
LINE
 5
36
 8
1
 6
CONTINUOUS
 10
.118
 20
7.53661308288574E-02
 11
.118
 21
6.63661308288574E-02
 999
##### LINE 689 ####
 0
LINE
 5
36
 8
1
 6
CONTINUOUS
 10
.118
 20
6.63661308288574E-02
 11
.118
 21
6.63661308288574E-02
 999
##### LINE 690 ####
 0
LINE
 5
36
 8
1
 6
CONTINUOUS
 10
.118
 20
6.63661308288574E-02
 11
.118
 21
7.53661308288574E-02
 999
##### LINE 691 ####
 0
LINE
 5
36
 8
1
 6
CONTINUOUS
 10
.118
 20
7.53661308288574E-02
 11
.118
 21
7.53661308288574E-02
 999
##### LINE 693 ####
 0
LINE
 5
36
 8
1
 6
CONTINUOUS
 10
.118
 20
9.11141605377197E-02
 11
.118
 21
8.21141605377197E-02
 999
##### LINE 694 ####
 0
LINE
 5
36
 8
1
 6
CONTINUOUS
 10
.118
 20
8.21141605377197E-02
 11
.118
 21
8.21141605377197E-02
 999
##### LINE 695 ####
 0
LINE
 5
36
 8
1
 6
CONTINUOUS
 10
.118
 20
8.21141605377197E-02
 11
.118
 21
9.11141605377197E-02
 999
##### LINE 696 ####
 0
LINE
 5
36
 8
1
 6
CONTINUOUS
 10
.118
 20
9.11141605377197E-02
 11
.118
 21
9.11141605377197E-02
 999
##### LINE 698 ####
 0
SOLID
 5
36
 8
2
 10
-.123
 20
-.12
 11
-.123
 21
-.126
 12
-.103229948405457
 22
-.12
 13
-.103229948405457
 23
-.126
 999
##### LINE 700 ####
 0
SOLID
 5
36
 8
2
 10
.12
 20
-.123
 11
.126
 21
-.123
 12
.12
 22
-.103229948405457
 13
.126
 23
-.103229948405457
 999
##### LINE 702 ####
 0
SOLID
 5
36
 8
2
 10
.123
 20
.12
 11
.123
 21
.126
 12
.103229948405457
 22
.12
 13
.103229948405457
 23
.126
 999
##### LINE 704 ####
 0
SOLID
 5
36
 8
2
 10
-.12
 20
.123
 11
-.126
 21
.123
 12
-.12
 22
.103229948405457
 13
-.126
 23
.103229948405457
 999
##### LINE 705 ####
 0
SOLID
 5
36
 8
2
 10
-.12
 20
-.103229948405457
 11
-.126
 21
-.103229948405457
 12
-.12
 22
-.123
 13
-.126
 23
-.123
 999
##### LINE 706 ####
 0
LINE
 5
36
 8
1
 6
CONTINUOUS
 10
-.118
 20
-.118
 11
.118
 21
-.118
 999
##### LINE 707 ####
 0
LINE
 5
36
 8
1
 6
CONTINUOUS
 10
.118
 20
-.118
 11
.118
 21
-.118
 999
##### LINE 708 ####
 0
LINE
 5
36
 8
1
 6
CONTINUOUS
 10
.118
 20
-.118
 11
.118
 21
.118
 999
##### LINE 709 ####
 0
LINE
 5
36
 8
1
 6
CONTINUOUS
 10
.118
 20
.118
 11
.118
 21
.118
 999
##### LINE 710 ####
 0
LINE
 5
36
 8
1
 6
CONTINUOUS
 10
.118
 20
.118
 11
-.118
 21
.118
 999
##### LINE 711 ####
 0
LINE
 5
36
 8
1
 6
CONTINUOUS
 10
-.118
 20
.118
 11
-.118
 21
.118
 999
##### LINE 712 ####
 0
LINE
 5
36
 8
1
 6
CONTINUOUS
 10
-.118
 20
.118
 11
-.118
 21
-.118
 999
##### LINE 713 ####
 0
LINE
 5
36
 8
1
 6
CONTINUOUS
 10
-.118
 20
-.118
 11
-.118
 21
-.118
 999
##### POLY 783 ####
 0
SOLID
 5
36
 8
6
 10
-.133748000549316
 20
9.01299480239868E-02
 11
-.133748000549316
 21
8.30984519760131E-02
 12
-9.79999994506836E-02
 22
8.30984519760132E-02
 13
-9.79999994506836E-02
 23
8.30984519760132E-02
 999
##### POLY 783 ####
 0
SOLID
 5
36
 8
6
 10
-.133748000549316
 20
9.01299480239868E-02
 11
-9.79999994506836E-02
 21
8.30984519760132E-02
 12
-9.79999994506836E-02
 22
9.01299480239869E-02
 13
-9.79999994506836E-02
 23
9.01299480239869E-02
 999
##### POLY 784 ####
 0
SOLID
 5
36
 8
3
 10
-.133748000549316
 20
9.01299480239868E-02
 11
-.133748000549316
 21
8.30984519760131E-02
 12
-9.79999994506836E-02
 22
8.30984519760132E-02
 13
-9.79999994506836E-02
 23
8.30984519760132E-02
 999
##### POLY 784 ####
 0
SOLID
 5
36
 8
3
 10
-.133748000549316
 20
9.01299480239868E-02
 11
-9.79999994506836E-02
 21
8.30984519760132E-02
 12
-9.79999994506836E-02
 22
9.01299480239869E-02
 13
-9.79999994506836E-02
 23
9.01299480239869E-02
 999
##### POLY 785 ####
 0
SOLID
 5
36
 8
7
 10
-.133748000549316
 20
9.01299480239868E-02
 11
-.133748000549316
 21
8.30984519760131E-02
 12
-9.79999994506836E-02
 22
8.30984519760132E-02
 13
-9.79999994506836E-02
 23
8.30984519760132E-02
 999
##### POLY 785 ####
 0
SOLID
 5
36
 8
7
 10
-.133748000549316
 20
9.01299480239868E-02
 11
-9.79999994506836E-02
 21
8.30984519760132E-02
 12
-9.79999994506836E-02
 22
9.01299480239869E-02
 13
-9.79999994506836E-02
 23
9.01299480239869E-02
 999
##### POLY 786 ####
 0
SOLID
 5
36
 8
6
 10
-.133748000549316
 20
7.43818480239868E-02
 11
-.133748000549316
 21
6.73503519760131E-02
 12
-9.79999994506836E-02
 22
6.73503519760132E-02
 13
-9.79999994506836E-02
 23
6.73503519760132E-02
 999
##### POLY 786 ####
 0
SOLID
 5
36
 8
6
 10
-.133748000549316
 20
7.43818480239868E-02
 11
-9.79999994506836E-02
 21
6.73503519760132E-02
 12
-9.79999994506836E-02
 22
7.43818480239869E-02
 13
-9.79999994506836E-02
 23
7.43818480239869E-02
 999
##### POLY 787 ####
 0
SOLID
 5
36
 8
3
 10
-.133748000549316
 20
7.43818480239868E-02
 11
-.133748000549316
 21
6.73503519760131E-02
 12
-9.79999994506836E-02
 22
6.73503519760132E-02
 13
-9.79999994506836E-02
 23
6.73503519760132E-02
 999
##### POLY 787 ####
 0
SOLID
 5
36
 8
3
 10
-.133748000549316
 20
7.43818480239868E-02
 11
-9.79999994506836E-02
 21
6.73503519760132E-02
 12
-9.79999994506836E-02
 22
7.43818480239869E-02
 13
-9.79999994506836E-02
 23
7.43818480239869E-02
 999
##### POLY 788 ####
 0
SOLID
 5
36
 8
7
 10
-.133748000549316
 20
7.43818480239868E-02
 11
-.133748000549316
 21
6.73503519760131E-02
 12
-9.79999994506836E-02
 22
6.73503519760132E-02
 13
-9.79999994506836E-02
 23
6.73503519760132E-02
 999
##### POLY 788 ####
 0
SOLID
 5
36
 8
7
 10
-.133748000549316
 20
7.43818480239868E-02
 11
-9.79999994506836E-02
 21
6.73503519760132E-02
 12
-9.79999994506836E-02
 22
7.43818480239869E-02
 13
-9.79999994506836E-02
 23
7.43818480239869E-02
 999
##### POLY 789 ####
 0
SOLID
 5
36
 8
6
 10
-.133748000549316
 20
5.86338480239868E-02
 11
-.133748000549316
 21
5.16023519760131E-02
 12
-9.79999994506836E-02
 22
5.16023519760132E-02
 13
-9.79999994506836E-02
 23
5.16023519760132E-02
 999
##### POLY 789 ####
 0
SOLID
 5
36
 8
6
 10
-.133748000549316
 20
5.86338480239868E-02
 11
-9.79999994506836E-02
 21
5.16023519760132E-02
 12
-9.79999994506836E-02
 22
5.86338480239869E-02
 13
-9.79999994506836E-02
 23
5.86338480239869E-02
 999
##### POLY 790 ####
 0
SOLID
 5
36
 8
3
 10
-.133748000549316
 20
5.86338480239868E-02
 11
-.133748000549316
 21
5.16023519760131E-02
 12
-9.79999994506836E-02
 22
5.16023519760132E-02
 13
-9.79999994506836E-02
 23
5.16023519760132E-02
 999
##### POLY 790 ####
 0
SOLID
 5
36
 8
3
 10
-.133748000549316
 20
5.86338480239868E-02
 11
-9.79999994506836E-02
 21
5.16023519760132E-02
 12
-9.79999994506836E-02
 22
5.86338480239869E-02
 13
-9.79999994506836E-02
 23
5.86338480239869E-02
 999
##### POLY 791 ####
 0
SOLID
 5
36
 8
7
 10
-.133748000549316
 20
5.86338480239868E-02
 11
-.133748000549316
 21
5.16023519760131E-02
 12
-9.79999994506836E-02
 22
5.16023519760132E-02
 13
-9.79999994506836E-02
 23
5.16023519760132E-02
 999
##### POLY 791 ####
 0
SOLID
 5
36
 8
7
 10
-.133748000549316
 20
5.86338480239868E-02
 11
-9.79999994506836E-02
 21
5.16023519760132E-02
 12
-9.79999994506836E-02
 22
5.86338480239869E-02
 13
-9.79999994506836E-02
 23
5.86338480239869E-02
 999
##### POLY 792 ####
 0
SOLID
 5
36
 8
6
 10
-.133748000549316
 20
4.28858480239868E-02
 11
-.133748000549316
 21
3.58543519760131E-02
 12
-9.79999994506836E-02
 22
3.58543519760132E-02
 13
-9.79999994506836E-02
 23
3.58543519760132E-02
 999
##### POLY 792 ####
 0
SOLID
 5
36
 8
6
 10
-.133748000549316
 20
4.28858480239868E-02
 11
-9.79999994506836E-02
 21
3.58543519760132E-02
 12
-9.79999994506836E-02
 22
4.28858480239869E-02
 13
-9.79999994506836E-02
 23
4.28858480239869E-02
 999
##### POLY 793 ####
 0
SOLID
 5
36
 8
3
 10
-.133748000549316
 20
4.28858480239868E-02
 11
-.133748000549316
 21
3.58543519760131E-02
 12
-9.79999994506836E-02
 22
3.58543519760132E-02
 13
-9.79999994506836E-02
 23
3.58543519760132E-02
 999
##### POLY 793 ####
 0
SOLID
 5
36
 8
3
 10
-.133748000549316
 20
4.28858480239868E-02
 11
-9.79999994506836E-02
 21
3.58543519760132E-02
 12
-9.79999994506836E-02
 22
4.28858480239869E-02
 13
-9.79999994506836E-02
 23
4.28858480239869E-02
 999
##### POLY 794 ####
 0
SOLID
 5
36
 8
7
 10
-.133748000549316
 20
4.28858480239868E-02
 11
-.133748000549316
 21
3.58543519760131E-02
 12
-9.79999994506836E-02
 22
3.58543519760132E-02
 13
-9.79999994506836E-02
 23
3.58543519760132E-02
 999
##### POLY 794 ####
 0
SOLID
 5
36
 8
7
 10
-.133748000549316
 20
4.28858480239868E-02
 11
-9.79999994506836E-02
 21
3.58543519760132E-02
 12
-9.79999994506836E-02
 22
4.28858480239869E-02
 13
-9.79999994506836E-02
 23
4.28858480239869E-02
 999
##### POLY 795 ####
 0
SOLID
 5
36
 8
6
 10
-.133748000549316
 20
2.71377480239868E-02
 11
-.133748000549316
 21
2.01062519760131E-02
 12
-9.79999994506836E-02
 22
2.01062519760132E-02
 13
-9.79999994506836E-02
 23
2.01062519760132E-02
 999
##### POLY 795 ####
 0
SOLID
 5
36
 8
6
 10
-.133748000549316
 20
2.71377480239868E-02
 11
-9.79999994506836E-02
 21
2.01062519760132E-02
 12
-9.79999994506836E-02
 22
2.71377480239869E-02
 13
-9.79999994506836E-02
 23
2.71377480239869E-02
 999
##### POLY 796 ####
 0
SOLID
 5
36
 8
3
 10
-.133748000549316
 20
2.71377480239868E-02
 11
-.133748000549316
 21
2.01062519760131E-02
 12
-9.79999994506836E-02
 22
2.01062519760132E-02
 13
-9.79999994506836E-02
 23
2.01062519760132E-02
 999
##### POLY 796 ####
 0
SOLID
 5
36
 8
3
 10
-.133748000549316
 20
2.71377480239868E-02
 11
-9.79999994506836E-02
 21
2.01062519760132E-02
 12
-9.79999994506836E-02
 22
2.71377480239869E-02
 13
-9.79999994506836E-02
 23
2.71377480239869E-02
 999
##### POLY 797 ####
 0
SOLID
 5
36
 8
7
 10
-.133748000549316
 20
2.71377480239868E-02
 11
-.133748000549316
 21
2.01062519760131E-02
 12
-9.79999994506836E-02
 22
2.01062519760132E-02
 13
-9.79999994506836E-02
 23
2.01062519760132E-02
 999
##### POLY 797 ####
 0
SOLID
 5
36
 8
7
 10
-.133748000549316
 20
2.71377480239868E-02
 11
-9.79999994506836E-02
 21
2.01062519760132E-02
 12
-9.79999994506836E-02
 22
2.71377480239869E-02
 13
-9.79999994506836E-02
 23
2.71377480239869E-02
 999
##### POLY 798 ####
 0
SOLID
 5
36
 8
6
 10
-.133748000549316
 20
1.13897480239868E-02
 11
-.133748000549316
 21
4.35825197601311E-03
 12
-9.79999994506836E-02
 22
4.3582519760132E-03
 13
-9.79999994506836E-02
 23
4.3582519760132E-03
 999
##### POLY 798 ####
 0
SOLID
 5
36
 8
6
 10
-.133748000549316
 20
1.13897480239868E-02
 11
-9.79999994506836E-02
 21
4.3582519760132E-03
 12
-9.79999994506836E-02
 22
1.13897480239869E-02
 13
-9.79999994506836E-02
 23
1.13897480239869E-02
 999
##### POLY 799 ####
 0
SOLID
 5
36
 8
3
 10
-.133748000549316
 20
1.13897480239868E-02
 11
-.133748000549316
 21
4.35825197601311E-03
 12
-9.79999994506836E-02
 22
4.3582519760132E-03
 13
-9.79999994506836E-02
 23
4.3582519760132E-03
 999
##### POLY 799 ####
 0
SOLID
 5
36
 8
3
 10
-.133748000549316
 20
1.13897480239868E-02
 11
-9.79999994506836E-02
 21
4.3582519760132E-03
 12
-9.79999994506836E-02
 22
1.13897480239869E-02
 13
-9.79999994506836E-02
 23
1.13897480239869E-02
 999
##### POLY 800 ####
 0
SOLID
 5
36
 8
7
 10
-.133748000549316
 20
1.13897480239868E-02
 11
-.133748000549316
 21
4.35825197601311E-03
 12
-9.79999994506836E-02
 22
4.3582519760132E-03
 13
-9.79999994506836E-02
 23
4.3582519760132E-03
 999
##### POLY 800 ####
 0
SOLID
 5
36
 8
7
 10
-.133748000549316
 20
1.13897480239868E-02
 11
-9.79999994506836E-02
 21
4.3582519760132E-03
 12
-9.79999994506836E-02
 22
1.13897480239869E-02
 13
-9.79999994506836E-02
 23
1.13897480239869E-02
 999
##### POLY 801 ####
 0
SOLID
 5
36
 8
6
 10
-.133748000549316
 20
-4.35825197601323E-03
 11
-.133748000549316
 21
-1.13897480239869E-02
 12
-9.79999994506836E-02
 22
-1.13897480239868E-02
 13
-9.79999994506836E-02
 23
-1.13897480239868E-02
 999
##### POLY 801 ####
 0
SOLID
 5
36
 8
6
 10
-.133748000549316
 20
-4.35825197601323E-03
 11
-9.79999994506836E-02
 21
-1.13897480239868E-02
 12
-9.79999994506836E-02
 22
-4.35825197601314E-03
 13
-9.79999994506836E-02
 23
-4.35825197601314E-03
 999
##### POLY 802 ####
 0
SOLID
 5
36
 8
3
 10
-.133748000549316
 20
-4.35825197601323E-03
 11
-.133748000549316
 21
-1.13897480239869E-02
 12
-9.79999994506836E-02
 22
-1.13897480239868E-02
 13
-9.79999994506836E-02
 23
-1.13897480239868E-02
 999
##### POLY 802 ####
 0
SOLID
 5
36
 8
3
 10
-.133748000549316
 20
-4.35825197601323E-03
 11
-9.79999994506836E-02
 21
-1.13897480239868E-02
 12
-9.79999994506836E-02
 22
-4.35825197601314E-03
 13
-9.79999994506836E-02
 23
-4.35825197601314E-03
 999
##### POLY 803 ####
 0
SOLID
 5
36
 8
7
 10
-.133748000549316
 20
-4.35825197601323E-03
 11
-.133748000549316
 21
-1.13897480239869E-02
 12
-9.79999994506836E-02
 22
-1.13897480239868E-02
 13
-9.79999994506836E-02
 23
-1.13897480239868E-02
 999
##### POLY 803 ####
 0
SOLID
 5
36
 8
7
 10
-.133748000549316
 20
-4.35825197601323E-03
 11
-9.79999994506836E-02
 21
-1.13897480239868E-02
 12
-9.79999994506836E-02
 22
-4.35825197601314E-03
 13
-9.79999994506836E-02
 23
-4.35825197601314E-03
 999
##### POLY 804 ####
 0
SOLID
 5
36
 8
6
 10
-.133748000549316
 20
-2.01062519760132E-02
 11
-.133748000549316
 21
-2.71377480239869E-02
 12
-9.79999994506836E-02
 22
-2.71377480239868E-02
 13
-9.79999994506836E-02
 23
-2.71377480239868E-02
 999
##### POLY 804 ####
 0
SOLID
 5
36
 8
6
 10
-.133748000549316
 20
-2.01062519760132E-02
 11
-9.79999994506836E-02
 21
-2.71377480239868E-02
 12
-9.79999994506836E-02
 22
-2.01062519760131E-02
 13
-9.79999994506836E-02
 23
-2.01062519760131E-02
 999
##### POLY 805 ####
 0
SOLID
 5
36
 8
3
 10
-.133748000549316
 20
-2.01062519760132E-02
 11
-.133748000549316
 21
-2.71377480239869E-02
 12
-9.79999994506836E-02
 22
-2.71377480239868E-02
 13
-9.79999994506836E-02
 23
-2.71377480239868E-02
 999
##### POLY 805 ####
 0
SOLID
 5
36
 8
3
 10
-.133748000549316
 20
-2.01062519760132E-02
 11
-9.79999994506836E-02
 21
-2.71377480239868E-02
 12
-9.79999994506836E-02
 22
-2.01062519760131E-02
 13
-9.79999994506836E-02
 23
-2.01062519760131E-02
 999
##### POLY 806 ####
 0
SOLID
 5
36
 8
7
 10
-.133748000549316
 20
-2.01062519760132E-02
 11
-.133748000549316
 21
-2.71377480239869E-02
 12
-9.79999994506836E-02
 22
-2.71377480239868E-02
 13
-9.79999994506836E-02
 23
-2.71377480239868E-02
 999
##### POLY 806 ####
 0
SOLID
 5
36
 8
7
 10
-.133748000549316
 20
-2.01062519760132E-02
 11
-9.79999994506836E-02
 21
-2.71377480239868E-02
 12
-9.79999994506836E-02
 22
-2.01062519760131E-02
 13
-9.79999994506836E-02
 23
-2.01062519760131E-02
 999
##### POLY 807 ####
 0
SOLID
 5
36
 8
6
 10
-.133748000549316
 20
-3.58543519760132E-02
 11
-.133748000549316
 21
-4.28858480239869E-02
 12
-9.79999994506836E-02
 22
-4.28858480239868E-02
 13
-9.79999994506836E-02
 23
-4.28858480239868E-02
 999
##### POLY 807 ####
 0
SOLID
 5
36
 8
6
 10
-.133748000549316
 20
-3.58543519760132E-02
 11
-9.79999994506836E-02
 21
-4.28858480239868E-02
 12
-9.79999994506836E-02
 22
-3.58543519760131E-02
 13
-9.79999994506836E-02
 23
-3.58543519760131E-02
 999
##### POLY 808 ####
 0
SOLID
 5
36
 8
3
 10
-.133748000549316
 20
-3.58543519760132E-02
 11
-.133748000549316
 21
-4.28858480239869E-02
 12
-9.79999994506836E-02
 22
-4.28858480239868E-02
 13
-9.79999994506836E-02
 23
-4.28858480239868E-02
 999
##### POLY 808 ####
 0
SOLID
 5
36
 8
3
 10
-.133748000549316
 20
-3.58543519760132E-02
 11
-9.79999994506836E-02
 21
-4.28858480239868E-02
 12
-9.79999994506836E-02
 22
-3.58543519760131E-02
 13
-9.79999994506836E-02
 23
-3.58543519760131E-02
 999
##### POLY 809 ####
 0
SOLID
 5
36
 8
7
 10
-.133748000549316
 20
-3.58543519760132E-02
 11
-.133748000549316
 21
-4.28858480239869E-02
 12
-9.79999994506836E-02
 22
-4.28858480239868E-02
 13
-9.79999994506836E-02
 23
-4.28858480239868E-02
 999
##### POLY 809 ####
 0
SOLID
 5
36
 8
7
 10
-.133748000549316
 20
-3.58543519760132E-02
 11
-9.79999994506836E-02
 21
-4.28858480239868E-02
 12
-9.79999994506836E-02
 22
-3.58543519760131E-02
 13
-9.79999994506836E-02
 23
-3.58543519760131E-02
 999
##### POLY 810 ####
 0
SOLID
 5
36
 8
6
 10
-.133748000549316
 20
-5.16023519760132E-02
 11
-.133748000549316
 21
-5.86338480239869E-02
 12
-9.79999994506836E-02
 22
-5.86338480239868E-02
 13
-9.79999994506836E-02
 23
-5.86338480239868E-02
 999
##### POLY 810 ####
 0
SOLID
 5
36
 8
6
 10
-.133748000549316
 20
-5.16023519760132E-02
 11
-9.79999994506836E-02
 21
-5.86338480239868E-02
 12
-9.79999994506836E-02
 22
-5.16023519760131E-02
 13
-9.79999994506836E-02
 23
-5.16023519760131E-02
 999
##### POLY 811 ####
 0
SOLID
 5
36
 8
3
 10
-.133748000549316
 20
-5.16023519760132E-02
 11
-.133748000549316
 21
-5.86338480239869E-02
 12
-9.79999994506836E-02
 22
-5.86338480239868E-02
 13
-9.79999994506836E-02
 23
-5.86338480239868E-02
 999
##### POLY 811 ####
 0
SOLID
 5
36
 8
3
 10
-.133748000549316
 20
-5.16023519760132E-02
 11
-9.79999994506836E-02
 21
-5.86338480239868E-02
 12
-9.79999994506836E-02
 22
-5.16023519760131E-02
 13
-9.79999994506836E-02
 23
-5.16023519760131E-02
 999
##### POLY 812 ####
 0
SOLID
 5
36
 8
7
 10
-.133748000549316
 20
-5.16023519760132E-02
 11
-.133748000549316
 21
-5.86338480239869E-02
 12
-9.79999994506836E-02
 22
-5.86338480239868E-02
 13
-9.79999994506836E-02
 23
-5.86338480239868E-02
 999
##### POLY 812 ####
 0
SOLID
 5
36
 8
7
 10
-.133748000549316
 20
-5.16023519760132E-02
 11
-9.79999994506836E-02
 21
-5.86338480239868E-02
 12
-9.79999994506836E-02
 22
-5.16023519760131E-02
 13
-9.79999994506836E-02
 23
-5.16023519760131E-02
 999
##### POLY 813 ####
 0
SOLID
 5
36
 8
6
 10
-.133748000549316
 20
-6.73503519760132E-02
 11
-.133748000549316
 21
-7.43818480239869E-02
 12
-9.79999994506836E-02
 22
-7.43818480239868E-02
 13
-9.79999994506836E-02
 23
-7.43818480239868E-02
 999
##### POLY 813 ####
 0
SOLID
 5
36
 8
6
 10
-.133748000549316
 20
-6.73503519760132E-02
 11
-9.79999994506836E-02
 21
-7.43818480239868E-02
 12
-9.79999994506836E-02
 22
-6.73503519760131E-02
 13
-9.79999994506836E-02
 23
-6.73503519760131E-02
 999
##### POLY 814 ####
 0
SOLID
 5
36
 8
3
 10
-.133748000549316
 20
-6.73503519760132E-02
 11
-.133748000549316
 21
-7.43818480239869E-02
 12
-9.79999994506836E-02
 22
-7.43818480239868E-02
 13
-9.79999994506836E-02
 23
-7.43818480239868E-02
 999
##### POLY 814 ####
 0
SOLID
 5
36
 8
3
 10
-.133748000549316
 20
-6.73503519760132E-02
 11
-9.79999994506836E-02
 21
-7.43818480239868E-02
 12
-9.79999994506836E-02
 22
-6.73503519760131E-02
 13
-9.79999994506836E-02
 23
-6.73503519760131E-02
 999
##### POLY 815 ####
 0
SOLID
 5
36
 8
7
 10
-.133748000549316
 20
-6.73503519760132E-02
 11
-.133748000549316
 21
-7.43818480239869E-02
 12
-9.79999994506836E-02
 22
-7.43818480239868E-02
 13
-9.79999994506836E-02
 23
-7.43818480239868E-02
 999
##### POLY 815 ####
 0
SOLID
 5
36
 8
7
 10
-.133748000549316
 20
-6.73503519760132E-02
 11
-9.79999994506836E-02
 21
-7.43818480239868E-02
 12
-9.79999994506836E-02
 22
-6.73503519760131E-02
 13
-9.79999994506836E-02
 23
-6.73503519760131E-02
 999
##### POLY 816 ####
 0
SOLID
 5
36
 8
6
 10
-.133748000549316
 20
-8.30984519760132E-02
 11
-.133748000549316
 21
-9.01299480239869E-02
 12
-9.79999994506836E-02
 22
-9.01299480239868E-02
 13
-9.79999994506836E-02
 23
-9.01299480239868E-02
 999
##### POLY 816 ####
 0
SOLID
 5
36
 8
6
 10
-.133748000549316
 20
-8.30984519760132E-02
 11
-9.79999994506836E-02
 21
-9.01299480239868E-02
 12
-9.79999994506836E-02
 22
-8.30984519760131E-02
 13
-9.79999994506836E-02
 23
-8.30984519760131E-02
 999
##### POLY 817 ####
 0
SOLID
 5
36
 8
3
 10
-.133748000549316
 20
-8.30984519760132E-02
 11
-.133748000549316
 21
-9.01299480239869E-02
 12
-9.79999994506836E-02
 22
-9.01299480239868E-02
 13
-9.79999994506836E-02
 23
-9.01299480239868E-02
 999
##### POLY 817 ####
 0
SOLID
 5
36
 8
3
 10
-.133748000549316
 20
-8.30984519760132E-02
 11
-9.79999994506836E-02
 21
-9.01299480239868E-02
 12
-9.79999994506836E-02
 22
-8.30984519760131E-02
 13
-9.79999994506836E-02
 23
-8.30984519760131E-02
 999
##### POLY 818 ####
 0
SOLID
 5
36
 8
7
 10
-.133748000549316
 20
-8.30984519760132E-02
 11
-.133748000549316
 21
-9.01299480239869E-02
 12
-9.79999994506836E-02
 22
-9.01299480239868E-02
 13
-9.79999994506836E-02
 23
-9.01299480239868E-02
 999
##### POLY 818 ####
 0
SOLID
 5
36
 8
7
 10
-.133748000549316
 20
-8.30984519760132E-02
 11
-9.79999994506836E-02
 21
-9.01299480239868E-02
 12
-9.79999994506836E-02
 22
-8.30984519760131E-02
 13
-9.79999994506836E-02
 23
-8.30984519760131E-02
 999
##### POLY 819 ####
 0
SOLID
 5
36
 8
6
 10
-8.30984519760132E-02
 20
-9.79999994506836E-02
 11
-9.01299480239869E-02
 21
-9.79999994506836E-02
 12
-9.01299480239868E-02
 22
-.133748000549316
 13
-9.01299480239868E-02
 23
-.133748000549316
 999
##### POLY 819 ####
 0
SOLID
 5
36
 8
6
 10
-8.30984519760132E-02
 20
-9.79999994506836E-02
 11
-9.01299480239868E-02
 21
-.133748000549316
 12
-8.30984519760131E-02
 22
-.133748000549316
 13
-8.30984519760131E-02
 23
-.133748000549316
 999
##### POLY 820 ####
 0
SOLID
 5
36
 8
3
 10
-8.30984519760132E-02
 20
-9.79999994506836E-02
 11
-9.01299480239869E-02
 21
-9.79999994506836E-02
 12
-9.01299480239868E-02
 22
-.133748000549316
 13
-9.01299480239868E-02
 23
-.133748000549316
 999
##### POLY 820 ####
 0
SOLID
 5
36
 8
3
 10
-8.30984519760132E-02
 20
-9.79999994506836E-02
 11
-9.01299480239868E-02
 21
-.133748000549316
 12
-8.30984519760131E-02
 22
-.133748000549316
 13
-8.30984519760131E-02
 23
-.133748000549316
 999
##### POLY 821 ####
 0
SOLID
 5
36
 8
7
 10
-8.30984519760132E-02
 20
-9.79999994506836E-02
 11
-9.01299480239869E-02
 21
-9.79999994506836E-02
 12
-9.01299480239868E-02
 22
-.133748000549316
 13
-9.01299480239868E-02
 23
-.133748000549316
 999
##### POLY 821 ####
 0
SOLID
 5
36
 8
7
 10
-8.30984519760132E-02
 20
-9.79999994506836E-02
 11
-9.01299480239868E-02
 21
-.133748000549316
 12
-8.30984519760131E-02
 22
-.133748000549316
 13
-8.30984519760131E-02
 23
-.133748000549316
 999
##### POLY 822 ####
 0
SOLID
 5
36
 8
6
 10
-6.73503519760132E-02
 20
-9.79999994506836E-02
 11
-7.43818480239869E-02
 21
-9.79999994506836E-02
 12
-7.43818480239868E-02
 22
-.133748000549316
 13
-7.43818480239868E-02
 23
-.133748000549316
 999
##### POLY 822 ####
 0
SOLID
 5
36
 8
6
 10
-6.73503519760132E-02
 20
-9.79999994506836E-02
 11
-7.43818480239868E-02
 21
-.133748000549316
 12
-6.73503519760131E-02
 22
-.133748000549316
 13
-6.73503519760131E-02
 23
-.133748000549316
 999
##### POLY 823 ####
 0
SOLID
 5
36
 8
3
 10
-6.73503519760132E-02
 20
-9.79999994506836E-02
 11
-7.43818480239869E-02
 21
-9.79999994506836E-02
 12
-7.43818480239868E-02
 22
-.133748000549316
 13
-7.43818480239868E-02
 23
-.133748000549316
 999
##### POLY 823 ####
 0
SOLID
 5
36
 8
3
 10
-6.73503519760132E-02
 20
-9.79999994506836E-02
 11
-7.43818480239868E-02
 21
-.133748000549316
 12
-6.73503519760131E-02
 22
-.133748000549316
 13
-6.73503519760131E-02
 23
-.133748000549316
 999
##### POLY 824 ####
 0
SOLID
 5
36
 8
7
 10
-6.73503519760132E-02
 20
-9.79999994506836E-02
 11
-7.43818480239869E-02
 21
-9.79999994506836E-02
 12
-7.43818480239868E-02
 22
-.133748000549316
 13
-7.43818480239868E-02
 23
-.133748000549316
 999
##### POLY 824 ####
 0
SOLID
 5
36
 8
7
 10
-6.73503519760132E-02
 20
-9.79999994506836E-02
 11
-7.43818480239868E-02
 21
-.133748000549316
 12
-6.73503519760131E-02
 22
-.133748000549316
 13
-6.73503519760131E-02
 23
-.133748000549316
 999
##### POLY 825 ####
 0
SOLID
 5
36
 8
6
 10
-5.16023519760132E-02
 20
-9.79999994506836E-02
 11
-5.86338480239869E-02
 21
-9.79999994506836E-02
 12
-5.86338480239868E-02
 22
-.133748000549316
 13
-5.86338480239868E-02
 23
-.133748000549316
 999
##### POLY 825 ####
 0
SOLID
 5
36
 8
6
 10
-5.16023519760132E-02
 20
-9.79999994506836E-02
 11
-5.86338480239868E-02
 21
-.133748000549316
 12
-5.16023519760131E-02
 22
-.133748000549316
 13
-5.16023519760131E-02
 23
-.133748000549316
 999
##### POLY 826 ####
 0
SOLID
 5
36
 8
3
 10
-5.16023519760132E-02
 20
-9.79999994506836E-02
 11
-5.86338480239869E-02
 21
-9.79999994506836E-02
 12
-5.86338480239868E-02
 22
-.133748000549316
 13
-5.86338480239868E-02
 23
-.133748000549316
 999
##### POLY 826 ####
 0
SOLID
 5
36
 8
3
 10
-5.16023519760132E-02
 20
-9.79999994506836E-02
 11
-5.86338480239868E-02
 21
-.133748000549316
 12
-5.16023519760131E-02
 22
-.133748000549316
 13
-5.16023519760131E-02
 23
-.133748000549316
 999
##### POLY 827 ####
 0
SOLID
 5
36
 8
7
 10
-5.16023519760132E-02
 20
-9.79999994506836E-02
 11
-5.86338480239869E-02
 21
-9.79999994506836E-02
 12
-5.86338480239868E-02
 22
-.133748000549316
 13
-5.86338480239868E-02
 23
-.133748000549316
 999
##### POLY 827 ####
 0
SOLID
 5
36
 8
7
 10
-5.16023519760132E-02
 20
-9.79999994506836E-02
 11
-5.86338480239868E-02
 21
-.133748000549316
 12
-5.16023519760131E-02
 22
-.133748000549316
 13
-5.16023519760131E-02
 23
-.133748000549316
 999
##### POLY 828 ####
 0
SOLID
 5
36
 8
6
 10
-3.58543519760132E-02
 20
-9.79999994506836E-02
 11
-4.28858480239869E-02
 21
-9.79999994506836E-02
 12
-4.28858480239868E-02
 22
-.133748000549316
 13
-4.28858480239868E-02
 23
-.133748000549316
 999
##### POLY 828 ####
 0
SOLID
 5
36
 8
6
 10
-3.58543519760132E-02
 20
-9.79999994506836E-02
 11
-4.28858480239868E-02
 21
-.133748000549316
 12
-3.58543519760131E-02
 22
-.133748000549316
 13
-3.58543519760131E-02
 23
-.133748000549316
 999
##### POLY 829 ####
 0
SOLID
 5
36
 8
3
 10
-3.58543519760132E-02
 20
-9.79999994506836E-02
 11
-4.28858480239869E-02
 21
-9.79999994506836E-02
 12
-4.28858480239868E-02
 22
-.133748000549316
 13
-4.28858480239868E-02
 23
-.133748000549316
 999
##### POLY 829 ####
 0
SOLID
 5
36
 8
3
 10
-3.58543519760132E-02
 20
-9.79999994506836E-02
 11
-4.28858480239868E-02
 21
-.133748000549316
 12
-3.58543519760131E-02
 22
-.133748000549316
 13
-3.58543519760131E-02
 23
-.133748000549316
 999
##### POLY 830 ####
 0
SOLID
 5
36
 8
7
 10
-3.58543519760132E-02
 20
-9.79999994506836E-02
 11
-4.28858480239869E-02
 21
-9.79999994506836E-02
 12
-4.28858480239868E-02
 22
-.133748000549316
 13
-4.28858480239868E-02
 23
-.133748000549316
 999
##### POLY 830 ####
 0
SOLID
 5
36
 8
7
 10
-3.58543519760132E-02
 20
-9.79999994506836E-02
 11
-4.28858480239868E-02
 21
-.133748000549316
 12
-3.58543519760131E-02
 22
-.133748000549316
 13
-3.58543519760131E-02
 23
-.133748000549316
 999
##### POLY 831 ####
 0
SOLID
 5
36
 8
6
 10
-2.01062519760132E-02
 20
-9.79999994506836E-02
 11
-2.71377480239869E-02
 21
-9.79999994506836E-02
 12
-2.71377480239868E-02
 22
-.133748000549316
 13
-2.71377480239868E-02
 23
-.133748000549316
 999
##### POLY 831 ####
 0
SOLID
 5
36
 8
6
 10
-2.01062519760132E-02
 20
-9.79999994506836E-02
 11
-2.71377480239868E-02
 21
-.133748000549316
 12
-2.01062519760131E-02
 22
-.133748000549316
 13
-2.01062519760131E-02
 23
-.133748000549316
 999
##### POLY 832 ####
 0
SOLID
 5
36
 8
3
 10
-2.01062519760132E-02
 20
-9.79999994506836E-02
 11
-2.71377480239869E-02
 21
-9.79999994506836E-02
 12
-2.71377480239868E-02
 22
-.133748000549316
 13
-2.71377480239868E-02
 23
-.133748000549316
 999
##### POLY 832 ####
 0
SOLID
 5
36
 8
3
 10
-2.01062519760132E-02
 20
-9.79999994506836E-02
 11
-2.71377480239868E-02
 21
-.133748000549316
 12
-2.01062519760131E-02
 22
-.133748000549316
 13
-2.01062519760131E-02
 23
-.133748000549316
 999
##### POLY 833 ####
 0
SOLID
 5
36
 8
7
 10
-2.01062519760132E-02
 20
-9.79999994506836E-02
 11
-2.71377480239869E-02
 21
-9.79999994506836E-02
 12
-2.71377480239868E-02
 22
-.133748000549316
 13
-2.71377480239868E-02
 23
-.133748000549316
 999
##### POLY 833 ####
 0
SOLID
 5
36
 8
7
 10
-2.01062519760132E-02
 20
-9.79999994506836E-02
 11
-2.71377480239868E-02
 21
-.133748000549316
 12
-2.01062519760131E-02
 22
-.133748000549316
 13
-2.01062519760131E-02
 23
-.133748000549316
 999
##### POLY 834 ####
 0
SOLID
 5
36
 8
6
 10
-4.35825197601323E-03
 20
-9.79999994506836E-02
 11
-1.13897480239869E-02
 21
-9.79999994506836E-02
 12
-1.13897480239868E-02
 22
-.133748000549316
 13
-1.13897480239868E-02
 23
-.133748000549316
 999
##### POLY 834 ####
 0
SOLID
 5
36
 8
6
 10
-4.35825197601323E-03
 20
-9.79999994506836E-02
 11
-1.13897480239868E-02
 21
-.133748000549316
 12
-4.35825197601314E-03
 22
-.133748000549316
 13
-4.35825197601314E-03
 23
-.133748000549316
 999
##### POLY 835 ####
 0
SOLID
 5
36
 8
3
 10
-4.35825197601323E-03
 20
-9.79999994506836E-02
 11
-1.13897480239869E-02
 21
-9.79999994506836E-02
 12
-1.13897480239868E-02
 22
-.133748000549316
 13
-1.13897480239868E-02
 23
-.133748000549316
 999
##### POLY 835 ####
 0
SOLID
 5
36
 8
3
 10
-4.35825197601323E-03
 20
-9.79999994506836E-02
 11
-1.13897480239868E-02
 21
-.133748000549316
 12
-4.35825197601314E-03
 22
-.133748000549316
 13
-4.35825197601314E-03
 23
-.133748000549316
 999
##### POLY 836 ####
 0
SOLID
 5
36
 8
7
 10
-4.35825197601323E-03
 20
-9.79999994506836E-02
 11
-1.13897480239869E-02
 21
-9.79999994506836E-02
 12
-1.13897480239868E-02
 22
-.133748000549316
 13
-1.13897480239868E-02
 23
-.133748000549316
 999
##### POLY 836 ####
 0
SOLID
 5
36
 8
7
 10
-4.35825197601323E-03
 20
-9.79999994506836E-02
 11
-1.13897480239868E-02
 21
-.133748000549316
 12
-4.35825197601314E-03
 22
-.133748000549316
 13
-4.35825197601314E-03
 23
-.133748000549316
 999
##### POLY 837 ####
 0
SOLID
 5
36
 8
6
 10
1.13897480239868E-02
 20
-9.79999994506836E-02
 11
4.35825197601311E-03
 21
-9.79999994506836E-02
 12
4.35825197601318E-03
 22
-.133748000549316
 13
4.35825197601318E-03
 23
-.133748000549316
 999
##### POLY 837 ####
 0
SOLID
 5
36
 8
6
 10
1.13897480239868E-02
 20
-9.79999994506836E-02
 11
4.35825197601318E-03
 21
-.133748000549316
 12
1.13897480239869E-02
 22
-.133748000549316
 13
1.13897480239869E-02
 23
-.133748000549316
 999
##### POLY 838 ####
 0
SOLID
 5
36
 8
3
 10
1.13897480239868E-02
 20
-9.79999994506836E-02
 11
4.35825197601311E-03
 21
-9.79999994506836E-02
 12
4.35825197601318E-03
 22
-.133748000549316
 13
4.35825197601318E-03
 23
-.133748000549316
 999
##### POLY 838 ####
 0
SOLID
 5
36
 8
3
 10
1.13897480239868E-02
 20
-9.79999994506836E-02
 11
4.35825197601318E-03
 21
-.133748000549316
 12
1.13897480239869E-02
 22
-.133748000549316
 13
1.13897480239869E-02
 23
-.133748000549316
 999
##### POLY 839 ####
 0
SOLID
 5
36
 8
7
 10
1.13897480239868E-02
 20
-9.79999994506836E-02
 11
4.35825197601311E-03
 21
-9.79999994506836E-02
 12
4.35825197601318E-03
 22
-.133748000549316
 13
4.35825197601318E-03
 23
-.133748000549316
 999
##### POLY 839 ####
 0
SOLID
 5
36
 8
7
 10
1.13897480239868E-02
 20
-9.79999994506836E-02
 11
4.35825197601318E-03
 21
-.133748000549316
 12
1.13897480239869E-02
 22
-.133748000549316
 13
1.13897480239869E-02
 23
-.133748000549316
 999
##### POLY 840 ####
 0
SOLID
 5
36
 8
6
 10
2.71377480239868E-02
 20
-9.79999994506836E-02
 11
2.01062519760131E-02
 21
-9.79999994506836E-02
 12
2.01062519760132E-02
 22
-.133748000549316
 13
2.01062519760132E-02
 23
-.133748000549316
 999
##### POLY 840 ####
 0
SOLID
 5
36
 8
6
 10
2.71377480239868E-02
 20
-9.79999994506836E-02
 11
2.01062519760132E-02
 21
-.133748000549316
 12
2.71377480239869E-02
 22
-.133748000549316
 13
2.71377480239869E-02
 23
-.133748000549316
 999
##### POLY 841 ####
 0
SOLID
 5
36
 8
3
 10
2.71377480239868E-02
 20
-9.79999994506836E-02
 11
2.01062519760131E-02
 21
-9.79999994506836E-02
 12
2.01062519760132E-02
 22
-.133748000549316
 13
2.01062519760132E-02
 23
-.133748000549316
 999
##### POLY 841 ####
 0
SOLID
 5
36
 8
3
 10
2.71377480239868E-02
 20
-9.79999994506836E-02
 11
2.01062519760132E-02
 21
-.133748000549316
 12
2.71377480239869E-02
 22
-.133748000549316
 13
2.71377480239869E-02
 23
-.133748000549316
 999
##### POLY 842 ####
 0
SOLID
 5
36
 8
7
 10
2.71377480239868E-02
 20
-9.79999994506836E-02
 11
2.01062519760131E-02
 21
-9.79999994506836E-02
 12
2.01062519760132E-02
 22
-.133748000549316
 13
2.01062519760132E-02
 23
-.133748000549316
 999
##### POLY 842 ####
 0
SOLID
 5
36
 8
7
 10
2.71377480239868E-02
 20
-9.79999994506836E-02
 11
2.01062519760132E-02
 21
-.133748000549316
 12
2.71377480239869E-02
 22
-.133748000549316
 13
2.71377480239869E-02
 23
-.133748000549316
 999
##### POLY 843 ####
 0
SOLID
 5
36
 8
6
 10
4.28858480239868E-02
 20
-9.79999994506836E-02
 11
3.58543519760131E-02
 21
-9.79999994506836E-02
 12
3.58543519760132E-02
 22
-.133748000549316
 13
3.58543519760132E-02
 23
-.133748000549316
 999
##### POLY 843 ####
 0
SOLID
 5
36
 8
6
 10
4.28858480239868E-02
 20
-9.79999994506836E-02
 11
3.58543519760132E-02
 21
-.133748000549316
 12
4.28858480239869E-02
 22
-.133748000549316
 13
4.28858480239869E-02
 23
-.133748000549316
 999
##### POLY 844 ####
 0
SOLID
 5
36
 8
3
 10
4.28858480239868E-02
 20
-9.79999994506836E-02
 11
3.58543519760131E-02
 21
-9.79999994506836E-02
 12
3.58543519760132E-02
 22
-.133748000549316
 13
3.58543519760132E-02
 23
-.133748000549316
 999
##### POLY 844 ####
 0
SOLID
 5
36
 8
3
 10
4.28858480239868E-02
 20
-9.79999994506836E-02
 11
3.58543519760132E-02
 21
-.133748000549316
 12
4.28858480239869E-02
 22
-.133748000549316
 13
4.28858480239869E-02
 23
-.133748000549316
 999
##### POLY 845 ####
 0
SOLID
 5
36
 8
7
 10
4.28858480239868E-02
 20
-9.79999994506836E-02
 11
3.58543519760131E-02
 21
-9.79999994506836E-02
 12
3.58543519760132E-02
 22
-.133748000549316
 13
3.58543519760132E-02
 23
-.133748000549316
 999
##### POLY 845 ####
 0
SOLID
 5
36
 8
7
 10
4.28858480239868E-02
 20
-9.79999994506836E-02
 11
3.58543519760132E-02
 21
-.133748000549316
 12
4.28858480239869E-02
 22
-.133748000549316
 13
4.28858480239869E-02
 23
-.133748000549316
 999
##### POLY 846 ####
 0
SOLID
 5
36
 8
6
 10
5.86338480239868E-02
 20
-9.79999994506836E-02
 11
5.16023519760131E-02
 21
-9.79999994506836E-02
 12
5.16023519760132E-02
 22
-.133748000549316
 13
5.16023519760132E-02
 23
-.133748000549316
 999
##### POLY 846 ####
 0
SOLID
 5
36
 8
6
 10
5.86338480239868E-02
 20
-9.79999994506836E-02
 11
5.16023519760132E-02
 21
-.133748000549316
 12
5.86338480239869E-02
 22
-.133748000549316
 13
5.86338480239869E-02
 23
-.133748000549316
 999
##### POLY 847 ####
 0
SOLID
 5
36
 8
3
 10
5.86338480239868E-02
 20
-9.79999994506836E-02
 11
5.16023519760131E-02
 21
-9.79999994506836E-02
 12
5.16023519760132E-02
 22
-.133748000549316
 13
5.16023519760132E-02
 23
-.133748000549316
 999
##### POLY 847 ####
 0
SOLID
 5
36
 8
3
 10
5.86338480239868E-02
 20
-9.79999994506836E-02
 11
5.16023519760132E-02
 21
-.133748000549316
 12
5.86338480239869E-02
 22
-.133748000549316
 13
5.86338480239869E-02
 23
-.133748000549316
 999
##### POLY 848 ####
 0
SOLID
 5
36
 8
7
 10
5.86338480239868E-02
 20
-9.79999994506836E-02
 11
5.16023519760131E-02
 21
-9.79999994506836E-02
 12
5.16023519760132E-02
 22
-.133748000549316
 13
5.16023519760132E-02
 23
-.133748000549316
 999
##### POLY 848 ####
 0
SOLID
 5
36
 8
7
 10
5.86338480239868E-02
 20
-9.79999994506836E-02
 11
5.16023519760132E-02
 21
-.133748000549316
 12
5.86338480239869E-02
 22
-.133748000549316
 13
5.86338480239869E-02
 23
-.133748000549316
 999
##### POLY 849 ####
 0
SOLID
 5
36
 8
6
 10
7.43818480239868E-02
 20
-9.79999994506836E-02
 11
6.73503519760131E-02
 21
-9.79999994506836E-02
 12
6.73503519760132E-02
 22
-.133748000549316
 13
6.73503519760132E-02
 23
-.133748000549316
 999
##### POLY 849 ####
 0
SOLID
 5
36
 8
6
 10
7.43818480239868E-02
 20
-9.79999994506836E-02
 11
6.73503519760132E-02
 21
-.133748000549316
 12
7.43818480239869E-02
 22
-.133748000549316
 13
7.43818480239869E-02
 23
-.133748000549316
 999
##### POLY 850 ####
 0
SOLID
 5
36
 8
3
 10
7.43818480239868E-02
 20
-9.79999994506836E-02
 11
6.73503519760131E-02
 21
-9.79999994506836E-02
 12
6.73503519760132E-02
 22
-.133748000549316
 13
6.73503519760132E-02
 23
-.133748000549316
 999
##### POLY 850 ####
 0
SOLID
 5
36
 8
3
 10
7.43818480239868E-02
 20
-9.79999994506836E-02
 11
6.73503519760132E-02
 21
-.133748000549316
 12
7.43818480239869E-02
 22
-.133748000549316
 13
7.43818480239869E-02
 23
-.133748000549316
 999
##### POLY 851 ####
 0
SOLID
 5
36
 8
7
 10
7.43818480239868E-02
 20
-9.79999994506836E-02
 11
6.73503519760131E-02
 21
-9.79999994506836E-02
 12
6.73503519760132E-02
 22
-.133748000549316
 13
6.73503519760132E-02
 23
-.133748000549316
 999
##### POLY 851 ####
 0
SOLID
 5
36
 8
7
 10
7.43818480239868E-02
 20
-9.79999994506836E-02
 11
6.73503519760132E-02
 21
-.133748000549316
 12
7.43818480239869E-02
 22
-.133748000549316
 13
7.43818480239869E-02
 23
-.133748000549316
 999
##### POLY 852 ####
 0
SOLID
 5
36
 8
6
 10
9.01299480239868E-02
 20
-9.79999994506836E-02
 11
8.30984519760131E-02
 21
-9.79999994506836E-02
 12
8.30984519760132E-02
 22
-.133748000549316
 13
8.30984519760132E-02
 23
-.133748000549316
 999
##### POLY 852 ####
 0
SOLID
 5
36
 8
6
 10
9.01299480239868E-02
 20
-9.79999994506836E-02
 11
8.30984519760132E-02
 21
-.133748000549316
 12
9.01299480239869E-02
 22
-.133748000549316
 13
9.01299480239869E-02
 23
-.133748000549316
 999
##### POLY 853 ####
 0
SOLID
 5
36
 8
3
 10
9.01299480239868E-02
 20
-9.79999994506836E-02
 11
8.30984519760131E-02
 21
-9.79999994506836E-02
 12
8.30984519760132E-02
 22
-.133748000549316
 13
8.30984519760132E-02
 23
-.133748000549316
 999
##### POLY 853 ####
 0
SOLID
 5
36
 8
3
 10
9.01299480239868E-02
 20
-9.79999994506836E-02
 11
8.30984519760132E-02
 21
-.133748000549316
 12
9.01299480239869E-02
 22
-.133748000549316
 13
9.01299480239869E-02
 23
-.133748000549316
 999
##### POLY 854 ####
 0
SOLID
 5
36
 8
7
 10
9.01299480239868E-02
 20
-9.79999994506836E-02
 11
8.30984519760131E-02
 21
-9.79999994506836E-02
 12
8.30984519760132E-02
 22
-.133748000549316
 13
8.30984519760132E-02
 23
-.133748000549316
 999
##### POLY 854 ####
 0
SOLID
 5
36
 8
7
 10
9.01299480239868E-02
 20
-9.79999994506836E-02
 11
8.30984519760132E-02
 21
-.133748000549316
 12
9.01299480239869E-02
 22
-.133748000549316
 13
9.01299480239869E-02
 23
-.133748000549316
 999
##### POLY 855 ####
 0
SOLID
 5
36
 8
6
 10
9.79999994506836E-02
 20
-8.30984519760132E-02
 11
9.79999994506836E-02
 21
-9.01299480239869E-02
 12
.133748000549316
 22
-9.01299480239868E-02
 13
.133748000549316
 23
-9.01299480239868E-02
 999
##### POLY 855 ####
 0
SOLID
 5
36
 8
6
 10
9.79999994506836E-02
 20
-8.30984519760132E-02
 11
.133748000549316
 21
-9.01299480239868E-02
 12
.133748000549316
 22
-8.30984519760131E-02
 13
.133748000549316
 23
-8.30984519760131E-02
 999
##### POLY 856 ####
 0
SOLID
 5
36
 8
3
 10
9.79999994506836E-02
 20
-8.30984519760132E-02
 11
9.79999994506836E-02
 21
-9.01299480239869E-02
 12
.133748000549316
 22
-9.01299480239868E-02
 13
.133748000549316
 23
-9.01299480239868E-02
 999
##### POLY 856 ####
 0
SOLID
 5
36
 8
3
 10
9.79999994506836E-02
 20
-8.30984519760132E-02
 11
.133748000549316
 21
-9.01299480239868E-02
 12
.133748000549316
 22
-8.30984519760131E-02
 13
.133748000549316
 23
-8.30984519760131E-02
 999
##### POLY 857 ####
 0
SOLID
 5
36
 8
7
 10
9.79999994506836E-02
 20
-8.30984519760132E-02
 11
9.79999994506836E-02
 21
-9.01299480239869E-02
 12
.133748000549316
 22
-9.01299480239868E-02
 13
.133748000549316
 23
-9.01299480239868E-02
 999
##### POLY 857 ####
 0
SOLID
 5
36
 8
7
 10
9.79999994506836E-02
 20
-8.30984519760132E-02
 11
.133748000549316
 21
-9.01299480239868E-02
 12
.133748000549316
 22
-8.30984519760131E-02
 13
.133748000549316
 23
-8.30984519760131E-02
 999
##### POLY 858 ####
 0
SOLID
 5
36
 8
6
 10
9.79999994506836E-02
 20
-6.73503519760132E-02
 11
9.79999994506836E-02
 21
-7.43818480239869E-02
 12
.133748000549316
 22
-7.43818480239868E-02
 13
.133748000549316
 23
-7.43818480239868E-02
 999
##### POLY 858 ####
 0
SOLID
 5
36
 8
6
 10
9.79999994506836E-02
 20
-6.73503519760132E-02
 11
.133748000549316
 21
-7.43818480239868E-02
 12
.133748000549316
 22
-6.73503519760131E-02
 13
.133748000549316
 23
-6.73503519760131E-02
 999
##### POLY 859 ####
 0
SOLID
 5
36
 8
3
 10
9.79999994506836E-02
 20
-6.73503519760132E-02
 11
9.79999994506836E-02
 21
-7.43818480239869E-02
 12
.133748000549316
 22
-7.43818480239868E-02
 13
.133748000549316
 23
-7.43818480239868E-02
 999
##### POLY 859 ####
 0
SOLID
 5
36
 8
3
 10
9.79999994506836E-02
 20
-6.73503519760132E-02
 11
.133748000549316
 21
-7.43818480239868E-02
 12
.133748000549316
 22
-6.73503519760131E-02
 13
.133748000549316
 23
-6.73503519760131E-02
 999
##### POLY 860 ####
 0
SOLID
 5
36
 8
7
 10
9.79999994506836E-02
 20
-6.73503519760132E-02
 11
9.79999994506836E-02
 21
-7.43818480239869E-02
 12
.133748000549316
 22
-7.43818480239868E-02
 13
.133748000549316
 23
-7.43818480239868E-02
 999
##### POLY 860 ####
 0
SOLID
 5
36
 8
7
 10
9.79999994506836E-02
 20
-6.73503519760132E-02
 11
.133748000549316
 21
-7.43818480239868E-02
 12
.133748000549316
 22
-6.73503519760131E-02
 13
.133748000549316
 23
-6.73503519760131E-02
 999
##### POLY 861 ####
 0
SOLID
 5
36
 8
6
 10
9.79999994506836E-02
 20
-5.16023519760132E-02
 11
9.79999994506836E-02
 21
-5.86338480239869E-02
 12
.133748000549316
 22
-5.86338480239868E-02
 13
.133748000549316
 23
-5.86338480239868E-02
 999
##### POLY 861 ####
 0
SOLID
 5
36
 8
6
 10
9.79999994506836E-02
 20
-5.16023519760132E-02
 11
.133748000549316
 21
-5.86338480239868E-02
 12
.133748000549316
 22
-5.16023519760131E-02
 13
.133748000549316
 23
-5.16023519760131E-02
 999
##### POLY 862 ####
 0
SOLID
 5
36
 8
3
 10
9.79999994506836E-02
 20
-5.16023519760132E-02
 11
9.79999994506836E-02
 21
-5.86338480239869E-02
 12
.133748000549316
 22
-5.86338480239868E-02
 13
.133748000549316
 23
-5.86338480239868E-02
 999
##### POLY 862 ####
 0
SOLID
 5
36
 8
3
 10
9.79999994506836E-02
 20
-5.16023519760132E-02
 11
.133748000549316
 21
-5.86338480239868E-02
 12
.133748000549316
 22
-5.16023519760131E-02
 13
.133748000549316
 23
-5.16023519760131E-02
 999
##### POLY 863 ####
 0
SOLID
 5
36
 8
7
 10
9.79999994506836E-02
 20
-5.16023519760132E-02
 11
9.79999994506836E-02
 21
-5.86338480239869E-02
 12
.133748000549316
 22
-5.86338480239868E-02
 13
.133748000549316
 23
-5.86338480239868E-02
 999
##### POLY 863 ####
 0
SOLID
 5
36
 8
7
 10
9.79999994506836E-02
 20
-5.16023519760132E-02
 11
.133748000549316
 21
-5.86338480239868E-02
 12
.133748000549316
 22
-5.16023519760131E-02
 13
.133748000549316
 23
-5.16023519760131E-02
 999
##### POLY 864 ####
 0
SOLID
 5
36
 8
6
 10
9.79999994506836E-02
 20
-3.58543519760132E-02
 11
9.79999994506836E-02
 21
-4.28858480239869E-02
 12
.133748000549316
 22
-4.28858480239868E-02
 13
.133748000549316
 23
-4.28858480239868E-02
 999
##### POLY 864 ####
 0
SOLID
 5
36
 8
6
 10
9.79999994506836E-02
 20
-3.58543519760132E-02
 11
.133748000549316
 21
-4.28858480239868E-02
 12
.133748000549316
 22
-3.58543519760131E-02
 13
.133748000549316
 23
-3.58543519760131E-02
 999
##### POLY 865 ####
 0
SOLID
 5
36
 8
3
 10
9.79999994506836E-02
 20
-3.58543519760132E-02
 11
9.79999994506836E-02
 21
-4.28858480239869E-02
 12
.133748000549316
 22
-4.28858480239868E-02
 13
.133748000549316
 23
-4.28858480239868E-02
 999
##### POLY 865 ####
 0
SOLID
 5
36
 8
3
 10
9.79999994506836E-02
 20
-3.58543519760132E-02
 11
.133748000549316
 21
-4.28858480239868E-02
 12
.133748000549316
 22
-3.58543519760131E-02
 13
.133748000549316
 23
-3.58543519760131E-02
 999
##### POLY 866 ####
 0
SOLID
 5
36
 8
7
 10
9.79999994506836E-02
 20
-3.58543519760132E-02
 11
9.79999994506836E-02
 21
-4.28858480239869E-02
 12
.133748000549316
 22
-4.28858480239868E-02
 13
.133748000549316
 23
-4.28858480239868E-02
 999
##### POLY 866 ####
 0
SOLID
 5
36
 8
7
 10
9.79999994506836E-02
 20
-3.58543519760132E-02
 11
.133748000549316
 21
-4.28858480239868E-02
 12
.133748000549316
 22
-3.58543519760131E-02
 13
.133748000549316
 23
-3.58543519760131E-02
 999
##### POLY 867 ####
 0
SOLID
 5
36
 8
6
 10
9.79999994506836E-02
 20
-2.01062519760132E-02
 11
9.79999994506836E-02
 21
-2.71377480239869E-02
 12
.133748000549316
 22
-2.71377480239868E-02
 13
.133748000549316
 23
-2.71377480239868E-02
 999
##### POLY 867 ####
 0
SOLID
 5
36
 8
6
 10
9.79999994506836E-02
 20
-2.01062519760132E-02
 11
.133748000549316
 21
-2.71377480239868E-02
 12
.133748000549316
 22
-2.01062519760131E-02
 13
.133748000549316
 23
-2.01062519760131E-02
 999
##### POLY 868 ####
 0
SOLID
 5
36
 8
3
 10
9.79999994506836E-02
 20
-2.01062519760132E-02
 11
9.79999994506836E-02
 21
-2.71377480239869E-02
 12
.133748000549316
 22
-2.71377480239868E-02
 13
.133748000549316
 23
-2.71377480239868E-02
 999
##### POLY 868 ####
 0
SOLID
 5
36
 8
3
 10
9.79999994506836E-02
 20
-2.01062519760132E-02
 11
.133748000549316
 21
-2.71377480239868E-02
 12
.133748000549316
 22
-2.01062519760131E-02
 13
.133748000549316
 23
-2.01062519760131E-02
 999
##### POLY 869 ####
 0
SOLID
 5
36
 8
7
 10
9.79999994506836E-02
 20
-2.01062519760132E-02
 11
9.79999994506836E-02
 21
-2.71377480239869E-02
 12
.133748000549316
 22
-2.71377480239868E-02
 13
.133748000549316
 23
-2.71377480239868E-02
 999
##### POLY 869 ####
 0
SOLID
 5
36
 8
7
 10
9.79999994506836E-02
 20
-2.01062519760132E-02
 11
.133748000549316
 21
-2.71377480239868E-02
 12
.133748000549316
 22
-2.01062519760131E-02
 13
.133748000549316
 23
-2.01062519760131E-02
 999
##### POLY 870 ####
 0
SOLID
 5
36
 8
6
 10
9.79999994506836E-02
 20
-4.35825197601323E-03
 11
9.79999994506836E-02
 21
-1.13897480239869E-02
 12
.133748000549316
 22
-1.13897480239868E-02
 13
.133748000549316
 23
-1.13897480239868E-02
 999
##### POLY 870 ####
 0
SOLID
 5
36
 8
6
 10
9.79999994506836E-02
 20
-4.35825197601323E-03
 11
.133748000549316
 21
-1.13897480239868E-02
 12
.133748000549316
 22
-4.35825197601314E-03
 13
.133748000549316
 23
-4.35825197601314E-03
 999
##### POLY 871 ####
 0
SOLID
 5
36
 8
3
 10
9.79999994506836E-02
 20
-4.35825197601323E-03
 11
9.79999994506836E-02
 21
-1.13897480239869E-02
 12
.133748000549316
 22
-1.13897480239868E-02
 13
.133748000549316
 23
-1.13897480239868E-02
 999
##### POLY 871 ####
 0
SOLID
 5
36
 8
3
 10
9.79999994506836E-02
 20
-4.35825197601323E-03
 11
.133748000549316
 21
-1.13897480239868E-02
 12
.133748000549316
 22
-4.35825197601314E-03
 13
.133748000549316
 23
-4.35825197601314E-03
 999
##### POLY 872 ####
 0
SOLID
 5
36
 8
7
 10
9.79999994506836E-02
 20
-4.35825197601323E-03
 11
9.79999994506836E-02
 21
-1.13897480239869E-02
 12
.133748000549316
 22
-1.13897480239868E-02
 13
.133748000549316
 23
-1.13897480239868E-02
 999
##### POLY 872 ####
 0
SOLID
 5
36
 8
7
 10
9.79999994506836E-02
 20
-4.35825197601323E-03
 11
.133748000549316
 21
-1.13897480239868E-02
 12
.133748000549316
 22
-4.35825197601314E-03
 13
.133748000549316
 23
-4.35825197601314E-03
 999
##### POLY 873 ####
 0
SOLID
 5
36
 8
6
 10
9.79999994506836E-02
 20
1.13897480239868E-02
 11
9.79999994506836E-02
 21
4.35825197601311E-03
 12
.133748000549316
 22
4.3582519760132E-03
 13
.133748000549316
 23
4.3582519760132E-03
 999
##### POLY 873 ####
 0
SOLID
 5
36
 8
6
 10
9.79999994506836E-02
 20
1.13897480239868E-02
 11
.133748000549316
 21
4.3582519760132E-03
 12
.133748000549316
 22
1.13897480239869E-02
 13
.133748000549316
 23
1.13897480239869E-02
 999
##### POLY 874 ####
 0
SOLID
 5
36
 8
3
 10
9.79999994506836E-02
 20
1.13897480239868E-02
 11
9.79999994506836E-02
 21
4.35825197601311E-03
 12
.133748000549316
 22
4.3582519760132E-03
 13
.133748000549316
 23
4.3582519760132E-03
 999
##### POLY 874 ####
 0
SOLID
 5
36
 8
3
 10
9.79999994506836E-02
 20
1.13897480239868E-02
 11
.133748000549316
 21
4.3582519760132E-03
 12
.133748000549316
 22
1.13897480239869E-02
 13
.133748000549316
 23
1.13897480239869E-02
 999
##### POLY 875 ####
 0
SOLID
 5
36
 8
7
 10
9.79999994506836E-02
 20
1.13897480239868E-02
 11
9.79999994506836E-02
 21
4.35825197601311E-03
 12
.133748000549316
 22
4.3582519760132E-03
 13
.133748000549316
 23
4.3582519760132E-03
 999
##### POLY 875 ####
 0
SOLID
 5
36
 8
7
 10
9.79999994506836E-02
 20
1.13897480239868E-02
 11
.133748000549316
 21
4.3582519760132E-03
 12
.133748000549316
 22
1.13897480239869E-02
 13
.133748000549316
 23
1.13897480239869E-02
 999
##### POLY 876 ####
 0
SOLID
 5
36
 8
6
 10
9.79999994506836E-02
 20
2.71377480239868E-02
 11
9.79999994506836E-02
 21
2.01062519760131E-02
 12
.133748000549316
 22
2.01062519760132E-02
 13
.133748000549316
 23
2.01062519760132E-02
 999
##### POLY 876 ####
 0
SOLID
 5
36
 8
6
 10
9.79999994506836E-02
 20
2.71377480239868E-02
 11
.133748000549316
 21
2.01062519760132E-02
 12
.133748000549316
 22
2.71377480239869E-02
 13
.133748000549316
 23
2.71377480239869E-02
 999
##### POLY 877 ####
 0
SOLID
 5
36
 8
3
 10
9.79999994506836E-02
 20
2.71377480239868E-02
 11
9.79999994506836E-02
 21
2.01062519760131E-02
 12
.133748000549316
 22
2.01062519760132E-02
 13
.133748000549316
 23
2.01062519760132E-02
 999
##### POLY 877 ####
 0
SOLID
 5
36
 8
3
 10
9.79999994506836E-02
 20
2.71377480239868E-02
 11
.133748000549316
 21
2.01062519760132E-02
 12
.133748000549316
 22
2.71377480239869E-02
 13
.133748000549316
 23
2.71377480239869E-02
 999
##### POLY 878 ####
 0
SOLID
 5
36
 8
7
 10
9.79999994506836E-02
 20
2.71377480239868E-02
 11
9.79999994506836E-02
 21
2.01062519760131E-02
 12
.133748000549316
 22
2.01062519760132E-02
 13
.133748000549316
 23
2.01062519760132E-02
 999
##### POLY 878 ####
 0
SOLID
 5
36
 8
7
 10
9.79999994506836E-02
 20
2.71377480239868E-02
 11
.133748000549316
 21
2.01062519760132E-02
 12
.133748000549316
 22
2.71377480239869E-02
 13
.133748000549316
 23
2.71377480239869E-02
 999
##### POLY 879 ####
 0
SOLID
 5
36
 8
6
 10
9.79999994506836E-02
 20
4.28858480239868E-02
 11
9.79999994506836E-02
 21
3.58543519760131E-02
 12
.133748000549316
 22
3.58543519760132E-02
 13
.133748000549316
 23
3.58543519760132E-02
 999
##### POLY 879 ####
 0
SOLID
 5
36
 8
6
 10
9.79999994506836E-02
 20
4.28858480239868E-02
 11
.133748000549316
 21
3.58543519760132E-02
 12
.133748000549316
 22
4.28858480239869E-02
 13
.133748000549316
 23
4.28858480239869E-02
 999
##### POLY 880 ####
 0
SOLID
 5
36
 8
3
 10
9.79999994506836E-02
 20
4.28858480239868E-02
 11
9.79999994506836E-02
 21
3.58543519760131E-02
 12
.133748000549316
 22
3.58543519760132E-02
 13
.133748000549316
 23
3.58543519760132E-02
 999
##### POLY 880 ####
 0
SOLID
 5
36
 8
3
 10
9.79999994506836E-02
 20
4.28858480239868E-02
 11
.133748000549316
 21
3.58543519760132E-02
 12
.133748000549316
 22
4.28858480239869E-02
 13
.133748000549316
 23
4.28858480239869E-02
 999
##### POLY 881 ####
 0
SOLID
 5
36
 8
7
 10
9.79999994506836E-02
 20
4.28858480239868E-02
 11
9.79999994506836E-02
 21
3.58543519760131E-02
 12
.133748000549316
 22
3.58543519760132E-02
 13
.133748000549316
 23
3.58543519760132E-02
 999
##### POLY 881 ####
 0
SOLID
 5
36
 8
7
 10
9.79999994506836E-02
 20
4.28858480239868E-02
 11
.133748000549316
 21
3.58543519760132E-02
 12
.133748000549316
 22
4.28858480239869E-02
 13
.133748000549316
 23
4.28858480239869E-02
 999
##### POLY 882 ####
 0
SOLID
 5
36
 8
6
 10
9.79999994506836E-02
 20
5.86338480239868E-02
 11
9.79999994506836E-02
 21
5.16023519760131E-02
 12
.133748000549316
 22
5.16023519760132E-02
 13
.133748000549316
 23
5.16023519760132E-02
 999
##### POLY 882 ####
 0
SOLID
 5
36
 8
6
 10
9.79999994506836E-02
 20
5.86338480239868E-02
 11
.133748000549316
 21
5.16023519760132E-02
 12
.133748000549316
 22
5.86338480239869E-02
 13
.133748000549316
 23
5.86338480239869E-02
 999
##### POLY 883 ####
 0
SOLID
 5
36
 8
3
 10
9.79999994506836E-02
 20
5.86338480239868E-02
 11
9.79999994506836E-02
 21
5.16023519760131E-02
 12
.133748000549316
 22
5.16023519760132E-02
 13
.133748000549316
 23
5.16023519760132E-02
 999
##### POLY 883 ####
 0
SOLID
 5
36
 8
3
 10
9.79999994506836E-02
 20
5.86338480239868E-02
 11
.133748000549316
 21
5.16023519760132E-02
 12
.133748000549316
 22
5.86338480239869E-02
 13
.133748000549316
 23
5.86338480239869E-02
 999
##### POLY 884 ####
 0
SOLID
 5
36
 8
7
 10
9.79999994506836E-02
 20
5.86338480239868E-02
 11
9.79999994506836E-02
 21
5.16023519760131E-02
 12
.133748000549316
 22
5.16023519760132E-02
 13
.133748000549316
 23
5.16023519760132E-02
 999
##### POLY 884 ####
 0
SOLID
 5
36
 8
7
 10
9.79999994506836E-02
 20
5.86338480239868E-02
 11
.133748000549316
 21
5.16023519760132E-02
 12
.133748000549316
 22
5.86338480239869E-02
 13
.133748000549316
 23
5.86338480239869E-02
 999
##### POLY 885 ####
 0
SOLID
 5
36
 8
6
 10
9.79999994506836E-02
 20
7.43818480239868E-02
 11
9.79999994506836E-02
 21
6.73503519760131E-02
 12
.133748000549316
 22
6.73503519760132E-02
 13
.133748000549316
 23
6.73503519760132E-02
 999
##### POLY 885 ####
 0
SOLID
 5
36
 8
6
 10
9.79999994506836E-02
 20
7.43818480239868E-02
 11
.133748000549316
 21
6.73503519760132E-02
 12
.133748000549316
 22
7.43818480239869E-02
 13
.133748000549316
 23
7.43818480239869E-02
 999
##### POLY 886 ####
 0
SOLID
 5
36
 8
3
 10
9.79999994506836E-02
 20
7.43818480239868E-02
 11
9.79999994506836E-02
 21
6.73503519760131E-02
 12
.133748000549316
 22
6.73503519760132E-02
 13
.133748000549316
 23
6.73503519760132E-02
 999
##### POLY 886 ####
 0
SOLID
 5
36
 8
3
 10
9.79999994506836E-02
 20
7.43818480239868E-02
 11
.133748000549316
 21
6.73503519760132E-02
 12
.133748000549316
 22
7.43818480239869E-02
 13
.133748000549316
 23
7.43818480239869E-02
 999
##### POLY 887 ####
 0
SOLID
 5
36
 8
7
 10
9.79999994506836E-02
 20
7.43818480239868E-02
 11
9.79999994506836E-02
 21
6.73503519760131E-02
 12
.133748000549316
 22
6.73503519760132E-02
 13
.133748000549316
 23
6.73503519760132E-02
 999
##### POLY 887 ####
 0
SOLID
 5
36
 8
7
 10
9.79999994506836E-02
 20
7.43818480239868E-02
 11
.133748000549316
 21
6.73503519760132E-02
 12
.133748000549316
 22
7.43818480239869E-02
 13
.133748000549316
 23
7.43818480239869E-02
 999
##### POLY 888 ####
 0
SOLID
 5
36
 8
6
 10
9.79999994506836E-02
 20
9.01299480239868E-02
 11
9.79999994506836E-02
 21
8.30984519760131E-02
 12
.133748000549316
 22
8.30984519760132E-02
 13
.133748000549316
 23
8.30984519760132E-02
 999
##### POLY 888 ####
 0
SOLID
 5
36
 8
6
 10
9.79999994506836E-02
 20
9.01299480239868E-02
 11
.133748000549316
 21
8.30984519760132E-02
 12
.133748000549316
 22
9.01299480239869E-02
 13
.133748000549316
 23
9.01299480239869E-02
 999
##### POLY 889 ####
 0
SOLID
 5
36
 8
3
 10
9.79999994506836E-02
 20
9.01299480239868E-02
 11
9.79999994506836E-02
 21
8.30984519760131E-02
 12
.133748000549316
 22
8.30984519760132E-02
 13
.133748000549316
 23
8.30984519760132E-02
 999
##### POLY 889 ####
 0
SOLID
 5
36
 8
3
 10
9.79999994506836E-02
 20
9.01299480239868E-02
 11
.133748000549316
 21
8.30984519760132E-02
 12
.133748000549316
 22
9.01299480239869E-02
 13
.133748000549316
 23
9.01299480239869E-02
 999
##### POLY 890 ####
 0
SOLID
 5
36
 8
7
 10
9.79999994506836E-02
 20
9.01299480239868E-02
 11
9.79999994506836E-02
 21
8.30984519760131E-02
 12
.133748000549316
 22
8.30984519760132E-02
 13
.133748000549316
 23
8.30984519760132E-02
 999
##### POLY 890 ####
 0
SOLID
 5
36
 8
7
 10
9.79999994506836E-02
 20
9.01299480239868E-02
 11
.133748000549316
 21
8.30984519760132E-02
 12
.133748000549316
 22
9.01299480239869E-02
 13
.133748000549316
 23
9.01299480239869E-02
 999
##### POLY 891 ####
 0
SOLID
 5
36
 8
6
 10
9.01299480239868E-02
 20
.133748000549316
 11
8.30984519760131E-02
 21
.133748000549316
 12
8.30984519760132E-02
 22
9.79999994506836E-02
 13
8.30984519760132E-02
 23
9.79999994506836E-02
 999
##### POLY 891 ####
 0
SOLID
 5
36
 8
6
 10
9.01299480239868E-02
 20
.133748000549316
 11
8.30984519760132E-02
 21
9.79999994506836E-02
 12
9.01299480239869E-02
 22
9.79999994506836E-02
 13
9.01299480239869E-02
 23
9.79999994506836E-02
 999
##### POLY 892 ####
 0
SOLID
 5
36
 8
3
 10
9.01299480239868E-02
 20
.133748000549316
 11
8.30984519760131E-02
 21
.133748000549316
 12
8.30984519760132E-02
 22
9.79999994506836E-02
 13
8.30984519760132E-02
 23
9.79999994506836E-02
 999
##### POLY 892 ####
 0
SOLID
 5
36
 8
3
 10
9.01299480239868E-02
 20
.133748000549316
 11
8.30984519760132E-02
 21
9.79999994506836E-02
 12
9.01299480239869E-02
 22
9.79999994506836E-02
 13
9.01299480239869E-02
 23
9.79999994506836E-02
 999
##### POLY 893 ####
 0
SOLID
 5
36
 8
7
 10
9.01299480239868E-02
 20
.133748000549316
 11
8.30984519760131E-02
 21
.133748000549316
 12
8.30984519760132E-02
 22
9.79999994506836E-02
 13
8.30984519760132E-02
 23
9.79999994506836E-02
 999
##### POLY 893 ####
 0
SOLID
 5
36
 8
7
 10
9.01299480239868E-02
 20
.133748000549316
 11
8.30984519760132E-02
 21
9.79999994506836E-02
 12
9.01299480239869E-02
 22
9.79999994506836E-02
 13
9.01299480239869E-02
 23
9.79999994506836E-02
 999
##### POLY 894 ####
 0
SOLID
 5
36
 8
6
 10
7.43818480239868E-02
 20
.133748000549316
 11
6.73503519760131E-02
 21
.133748000549316
 12
6.73503519760132E-02
 22
9.79999994506836E-02
 13
6.73503519760132E-02
 23
9.79999994506836E-02
 999
##### POLY 894 ####
 0
SOLID
 5
36
 8
6
 10
7.43818480239868E-02
 20
.133748000549316
 11
6.73503519760132E-02
 21
9.79999994506836E-02
 12
7.43818480239869E-02
 22
9.79999994506836E-02
 13
7.43818480239869E-02
 23
9.79999994506836E-02
 999
##### POLY 895 ####
 0
SOLID
 5
36
 8
3
 10
7.43818480239868E-02
 20
.133748000549316
 11
6.73503519760131E-02
 21
.133748000549316
 12
6.73503519760132E-02
 22
9.79999994506836E-02
 13
6.73503519760132E-02
 23
9.79999994506836E-02
 999
##### POLY 895 ####
 0
SOLID
 5
36
 8
3
 10
7.43818480239868E-02
 20
.133748000549316
 11
6.73503519760132E-02
 21
9.79999994506836E-02
 12
7.43818480239869E-02
 22
9.79999994506836E-02
 13
7.43818480239869E-02
 23
9.79999994506836E-02
 999
##### POLY 896 ####
 0
SOLID
 5
36
 8
7
 10
7.43818480239868E-02
 20
.133748000549316
 11
6.73503519760131E-02
 21
.133748000549316
 12
6.73503519760132E-02
 22
9.79999994506836E-02
 13
6.73503519760132E-02
 23
9.79999994506836E-02
 999
##### POLY 896 ####
 0
SOLID
 5
36
 8
7
 10
7.43818480239868E-02
 20
.133748000549316
 11
6.73503519760132E-02
 21
9.79999994506836E-02
 12
7.43818480239869E-02
 22
9.79999994506836E-02
 13
7.43818480239869E-02
 23
9.79999994506836E-02
 999
##### POLY 897 ####
 0
SOLID
 5
36
 8
6
 10
5.86338480239868E-02
 20
.133748000549316
 11
5.16023519760131E-02
 21
.133748000549316
 12
5.16023519760132E-02
 22
9.79999994506836E-02
 13
5.16023519760132E-02
 23
9.79999994506836E-02
 999
##### POLY 897 ####
 0
SOLID
 5
36
 8
6
 10
5.86338480239868E-02
 20
.133748000549316
 11
5.16023519760132E-02
 21
9.79999994506836E-02
 12
5.86338480239869E-02
 22
9.79999994506836E-02
 13
5.86338480239869E-02
 23
9.79999994506836E-02
 999
##### POLY 898 ####
 0
SOLID
 5
36
 8
3
 10
5.86338480239868E-02
 20
.133748000549316
 11
5.16023519760131E-02
 21
.133748000549316
 12
5.16023519760132E-02
 22
9.79999994506836E-02
 13
5.16023519760132E-02
 23
9.79999994506836E-02
 999
##### POLY 898 ####
 0
SOLID
 5
36
 8
3
 10
5.86338480239868E-02
 20
.133748000549316
 11
5.16023519760132E-02
 21
9.79999994506836E-02
 12
5.86338480239869E-02
 22
9.79999994506836E-02
 13
5.86338480239869E-02
 23
9.79999994506836E-02
 999
##### POLY 899 ####
 0
SOLID
 5
36
 8
7
 10
5.86338480239868E-02
 20
.133748000549316
 11
5.16023519760131E-02
 21
.133748000549316
 12
5.16023519760132E-02
 22
9.79999994506836E-02
 13
5.16023519760132E-02
 23
9.79999994506836E-02
 999
##### POLY 899 ####
 0
SOLID
 5
36
 8
7
 10
5.86338480239868E-02
 20
.133748000549316
 11
5.16023519760132E-02
 21
9.79999994506836E-02
 12
5.86338480239869E-02
 22
9.79999994506836E-02
 13
5.86338480239869E-02
 23
9.79999994506836E-02
 999
##### POLY 900 ####
 0
SOLID
 5
36
 8
6
 10
4.28858480239868E-02
 20
.133748000549316
 11
3.58543519760131E-02
 21
.133748000549316
 12
3.58543519760132E-02
 22
9.79999994506836E-02
 13
3.58543519760132E-02
 23
9.79999994506836E-02
 999
##### POLY 900 ####
 0
SOLID
 5
36
 8
6
 10
4.28858480239868E-02
 20
.133748000549316
 11
3.58543519760132E-02
 21
9.79999994506836E-02
 12
4.28858480239869E-02
 22
9.79999994506836E-02
 13
4.28858480239869E-02
 23
9.79999994506836E-02
 999
##### POLY 901 ####
 0
SOLID
 5
36
 8
3
 10
4.28858480239868E-02
 20
.133748000549316
 11
3.58543519760131E-02
 21
.133748000549316
 12
3.58543519760132E-02
 22
9.79999994506836E-02
 13
3.58543519760132E-02
 23
9.79999994506836E-02
 999
##### POLY 901 ####
 0
SOLID
 5
36
 8
3
 10
4.28858480239868E-02
 20
.133748000549316
 11
3.58543519760132E-02
 21
9.79999994506836E-02
 12
4.28858480239869E-02
 22
9.79999994506836E-02
 13
4.28858480239869E-02
 23
9.79999994506836E-02
 999
##### POLY 902 ####
 0
SOLID
 5
36
 8
7
 10
4.28858480239868E-02
 20
.133748000549316
 11
3.58543519760131E-02
 21
.133748000549316
 12
3.58543519760132E-02
 22
9.79999994506836E-02
 13
3.58543519760132E-02
 23
9.79999994506836E-02
 999
##### POLY 902 ####
 0
SOLID
 5
36
 8
7
 10
4.28858480239868E-02
 20
.133748000549316
 11
3.58543519760132E-02
 21
9.79999994506836E-02
 12
4.28858480239869E-02
 22
9.79999994506836E-02
 13
4.28858480239869E-02
 23
9.79999994506836E-02
 999
##### POLY 903 ####
 0
SOLID
 5
36
 8
6
 10
2.71377480239868E-02
 20
.133748000549316
 11
2.01062519760131E-02
 21
.133748000549316
 12
2.01062519760132E-02
 22
9.79999994506836E-02
 13
2.01062519760132E-02
 23
9.79999994506836E-02
 999
##### POLY 903 ####
 0
SOLID
 5
36
 8
6
 10
2.71377480239868E-02
 20
.133748000549316
 11
2.01062519760132E-02
 21
9.79999994506836E-02
 12
2.71377480239869E-02
 22
9.79999994506836E-02
 13
2.71377480239869E-02
 23
9.79999994506836E-02
 999
##### POLY 904 ####
 0
SOLID
 5
36
 8
3
 10
2.71377480239868E-02
 20
.133748000549316
 11
2.01062519760131E-02
 21
.133748000549316
 12
2.01062519760132E-02
 22
9.79999994506836E-02
 13
2.01062519760132E-02
 23
9.79999994506836E-02
 999
##### POLY 904 ####
 0
SOLID
 5
36
 8
3
 10
2.71377480239868E-02
 20
.133748000549316
 11
2.01062519760132E-02
 21
9.79999994506836E-02
 12
2.71377480239869E-02
 22
9.79999994506836E-02
 13
2.71377480239869E-02
 23
9.79999994506836E-02
 999
##### POLY 905 ####
 0
SOLID
 5
36
 8
7
 10
2.71377480239868E-02
 20
.133748000549316
 11
2.01062519760131E-02
 21
.133748000549316
 12
2.01062519760132E-02
 22
9.79999994506836E-02
 13
2.01062519760132E-02
 23
9.79999994506836E-02
 999
##### POLY 905 ####
 0
SOLID
 5
36
 8
7
 10
2.71377480239868E-02
 20
.133748000549316
 11
2.01062519760132E-02
 21
9.79999994506836E-02
 12
2.71377480239869E-02
 22
9.79999994506836E-02
 13
2.71377480239869E-02
 23
9.79999994506836E-02
 999
##### POLY 906 ####
 0
SOLID
 5
36
 8
6
 10
1.13897480239868E-02
 20
.133748000549316
 11
4.35825197601311E-03
 21
.133748000549316
 12
4.35825197601318E-03
 22
9.79999994506836E-02
 13
4.35825197601318E-03
 23
9.79999994506836E-02
 999
##### POLY 906 ####
 0
SOLID
 5
36
 8
6
 10
1.13897480239868E-02
 20
.133748000549316
 11
4.35825197601318E-03
 21
9.79999994506836E-02
 12
1.13897480239869E-02
 22
9.79999994506836E-02
 13
1.13897480239869E-02
 23
9.79999994506836E-02
 999
##### POLY 907 ####
 0
SOLID
 5
36
 8
3
 10
1.13897480239868E-02
 20
.133748000549316
 11
4.35825197601311E-03
 21
.133748000549316
 12
4.35825197601318E-03
 22
9.79999994506836E-02
 13
4.35825197601318E-03
 23
9.79999994506836E-02
 999
##### POLY 907 ####
 0
SOLID
 5
36
 8
3
 10
1.13897480239868E-02
 20
.133748000549316
 11
4.35825197601318E-03
 21
9.79999994506836E-02
 12
1.13897480239869E-02
 22
9.79999994506836E-02
 13
1.13897480239869E-02
 23
9.79999994506836E-02
 999
##### POLY 908 ####
 0
SOLID
 5
36
 8
7
 10
1.13897480239868E-02
 20
.133748000549316
 11
4.35825197601311E-03
 21
.133748000549316
 12
4.35825197601318E-03
 22
9.79999994506836E-02
 13
4.35825197601318E-03
 23
9.79999994506836E-02
 999
##### POLY 908 ####
 0
SOLID
 5
36
 8
7
 10
1.13897480239868E-02
 20
.133748000549316
 11
4.35825197601318E-03
 21
9.79999994506836E-02
 12
1.13897480239869E-02
 22
9.79999994506836E-02
 13
1.13897480239869E-02
 23
9.79999994506836E-02
 999
##### POLY 909 ####
 0
SOLID
 5
36
 8
6
 10
-4.35825197601323E-03
 20
.133748000549316
 11
-1.13897480239869E-02
 21
.133748000549316
 12
-1.13897480239868E-02
 22
9.79999994506836E-02
 13
-1.13897480239868E-02
 23
9.79999994506836E-02
 999
##### POLY 909 ####
 0
SOLID
 5
36
 8
6
 10
-4.35825197601323E-03
 20
.133748000549316
 11
-1.13897480239868E-02
 21
9.79999994506836E-02
 12
-4.35825197601314E-03
 22
9.79999994506836E-02
 13
-4.35825197601314E-03
 23
9.79999994506836E-02
 999
##### POLY 910 ####
 0
SOLID
 5
36
 8
3
 10
-4.35825197601323E-03
 20
.133748000549316
 11
-1.13897480239869E-02
 21
.133748000549316
 12
-1.13897480239868E-02
 22
9.79999994506836E-02
 13
-1.13897480239868E-02
 23
9.79999994506836E-02
 999
##### POLY 910 ####
 0
SOLID
 5
36
 8
3
 10
-4.35825197601323E-03
 20
.133748000549316
 11
-1.13897480239868E-02
 21
9.79999994506836E-02
 12
-4.35825197601314E-03
 22
9.79999994506836E-02
 13
-4.35825197601314E-03
 23
9.79999994506836E-02
 999
##### POLY 911 ####
 0
SOLID
 5
36
 8
7
 10
-4.35825197601323E-03
 20
.133748000549316
 11
-1.13897480239869E-02
 21
.133748000549316
 12
-1.13897480239868E-02
 22
9.79999994506836E-02
 13
-1.13897480239868E-02
 23
9.79999994506836E-02
 999
##### POLY 911 ####
 0
SOLID
 5
36
 8
7
 10
-4.35825197601323E-03
 20
.133748000549316
 11
-1.13897480239868E-02
 21
9.79999994506836E-02
 12
-4.35825197601314E-03
 22
9.79999994506836E-02
 13
-4.35825197601314E-03
 23
9.79999994506836E-02
 999
##### POLY 912 ####
 0
SOLID
 5
36
 8
6
 10
-2.01062519760132E-02
 20
.133748000549316
 11
-2.71377480239869E-02
 21
.133748000549316
 12
-2.71377480239868E-02
 22
9.79999994506836E-02
 13
-2.71377480239868E-02
 23
9.79999994506836E-02
 999
##### POLY 912 ####
 0
SOLID
 5
36
 8
6
 10
-2.01062519760132E-02
 20
.133748000549316
 11
-2.71377480239868E-02
 21
9.79999994506836E-02
 12
-2.01062519760131E-02
 22
9.79999994506836E-02
 13
-2.01062519760131E-02
 23
9.79999994506836E-02
 999
##### POLY 913 ####
 0
SOLID
 5
36
 8
3
 10
-2.01062519760132E-02
 20
.133748000549316
 11
-2.71377480239869E-02
 21
.133748000549316
 12
-2.71377480239868E-02
 22
9.79999994506836E-02
 13
-2.71377480239868E-02
 23
9.79999994506836E-02
 999
##### POLY 913 ####
 0
SOLID
 5
36
 8
3
 10
-2.01062519760132E-02
 20
.133748000549316
 11
-2.71377480239868E-02
 21
9.79999994506836E-02
 12
-2.01062519760131E-02
 22
9.79999994506836E-02
 13
-2.01062519760131E-02
 23
9.79999994506836E-02
 999
##### POLY 914 ####
 0
SOLID
 5
36
 8
7
 10
-2.01062519760132E-02
 20
.133748000549316
 11
-2.71377480239869E-02
 21
.133748000549316
 12
-2.71377480239868E-02
 22
9.79999994506836E-02
 13
-2.71377480239868E-02
 23
9.79999994506836E-02
 999
##### POLY 914 ####
 0
SOLID
 5
36
 8
7
 10
-2.01062519760132E-02
 20
.133748000549316
 11
-2.71377480239868E-02
 21
9.79999994506836E-02
 12
-2.01062519760131E-02
 22
9.79999994506836E-02
 13
-2.01062519760131E-02
 23
9.79999994506836E-02
 999
##### POLY 915 ####
 0
SOLID
 5
36
 8
6
 10
-3.58543519760132E-02
 20
.133748000549316
 11
-4.28858480239869E-02
 21
.133748000549316
 12
-4.28858480239868E-02
 22
9.79999994506836E-02
 13
-4.28858480239868E-02
 23
9.79999994506836E-02
 999
##### POLY 915 ####
 0
SOLID
 5
36
 8
6
 10
-3.58543519760132E-02
 20
.133748000549316
 11
-4.28858480239868E-02
 21
9.79999994506836E-02
 12
-3.58543519760131E-02
 22
9.79999994506836E-02
 13
-3.58543519760131E-02
 23
9.79999994506836E-02
 999
##### POLY 916 ####
 0
SOLID
 5
36
 8
3
 10
-3.58543519760132E-02
 20
.133748000549316
 11
-4.28858480239869E-02
 21
.133748000549316
 12
-4.28858480239868E-02
 22
9.79999994506836E-02
 13
-4.28858480239868E-02
 23
9.79999994506836E-02
 999
##### POLY 916 ####
 0
SOLID
 5
36
 8
3
 10
-3.58543519760132E-02
 20
.133748000549316
 11
-4.28858480239868E-02
 21
9.79999994506836E-02
 12
-3.58543519760131E-02
 22
9.79999994506836E-02
 13
-3.58543519760131E-02
 23
9.79999994506836E-02
 999
##### POLY 917 ####
 0
SOLID
 5
36
 8
7
 10
-3.58543519760132E-02
 20
.133748000549316
 11
-4.28858480239869E-02
 21
.133748000549316
 12
-4.28858480239868E-02
 22
9.79999994506836E-02
 13
-4.28858480239868E-02
 23
9.79999994506836E-02
 999
##### POLY 917 ####
 0
SOLID
 5
36
 8
7
 10
-3.58543519760132E-02
 20
.133748000549316
 11
-4.28858480239868E-02
 21
9.79999994506836E-02
 12
-3.58543519760131E-02
 22
9.79999994506836E-02
 13
-3.58543519760131E-02
 23
9.79999994506836E-02
 999
##### POLY 918 ####
 0
SOLID
 5
36
 8
6
 10
-5.16023519760132E-02
 20
.133748000549316
 11
-5.86338480239869E-02
 21
.133748000549316
 12
-5.86338480239868E-02
 22
9.79999994506836E-02
 13
-5.86338480239868E-02
 23
9.79999994506836E-02
 999
##### POLY 918 ####
 0
SOLID
 5
36
 8
6
 10
-5.16023519760132E-02
 20
.133748000549316
 11
-5.86338480239868E-02
 21
9.79999994506836E-02
 12
-5.16023519760131E-02
 22
9.79999994506836E-02
 13
-5.16023519760131E-02
 23
9.79999994506836E-02
 999
##### POLY 919 ####
 0
SOLID
 5
36
 8
3
 10
-5.16023519760132E-02
 20
.133748000549316
 11
-5.86338480239869E-02
 21
.133748000549316
 12
-5.86338480239868E-02
 22
9.79999994506836E-02
 13
-5.86338480239868E-02
 23
9.79999994506836E-02
 999
##### POLY 919 ####
 0
SOLID
 5
36
 8
3
 10
-5.16023519760132E-02
 20
.133748000549316
 11
-5.86338480239868E-02
 21
9.79999994506836E-02
 12
-5.16023519760131E-02
 22
9.79999994506836E-02
 13
-5.16023519760131E-02
 23
9.79999994506836E-02
 999
##### POLY 920 ####
 0
SOLID
 5
36
 8
7
 10
-5.16023519760132E-02
 20
.133748000549316
 11
-5.86338480239869E-02
 21
.133748000549316
 12
-5.86338480239868E-02
 22
9.79999994506836E-02
 13
-5.86338480239868E-02
 23
9.79999994506836E-02
 999
##### POLY 920 ####
 0
SOLID
 5
36
 8
7
 10
-5.16023519760132E-02
 20
.133748000549316
 11
-5.86338480239868E-02
 21
9.79999994506836E-02
 12
-5.16023519760131E-02
 22
9.79999994506836E-02
 13
-5.16023519760131E-02
 23
9.79999994506836E-02
 999
##### POLY 921 ####
 0
SOLID
 5
36
 8
6
 10
-6.73503519760132E-02
 20
.133748000549316
 11
-7.43818480239869E-02
 21
.133748000549316
 12
-7.43818480239868E-02
 22
9.79999994506836E-02
 13
-7.43818480239868E-02
 23
9.79999994506836E-02
 999
##### POLY 921 ####
 0
SOLID
 5
36
 8
6
 10
-6.73503519760132E-02
 20
.133748000549316
 11
-7.43818480239868E-02
 21
9.79999994506836E-02
 12
-6.73503519760131E-02
 22
9.79999994506836E-02
 13
-6.73503519760131E-02
 23
9.79999994506836E-02
 999
##### POLY 922 ####
 0
SOLID
 5
36
 8
3
 10
-6.73503519760132E-02
 20
.133748000549316
 11
-7.43818480239869E-02
 21
.133748000549316
 12
-7.43818480239868E-02
 22
9.79999994506836E-02
 13
-7.43818480239868E-02
 23
9.79999994506836E-02
 999
##### POLY 922 ####
 0
SOLID
 5
36
 8
3
 10
-6.73503519760132E-02
 20
.133748000549316
 11
-7.43818480239868E-02
 21
9.79999994506836E-02
 12
-6.73503519760131E-02
 22
9.79999994506836E-02
 13
-6.73503519760131E-02
 23
9.79999994506836E-02
 999
##### POLY 923 ####
 0
SOLID
 5
36
 8
7
 10
-6.73503519760132E-02
 20
.133748000549316
 11
-7.43818480239869E-02
 21
.133748000549316
 12
-7.43818480239868E-02
 22
9.79999994506836E-02
 13
-7.43818480239868E-02
 23
9.79999994506836E-02
 999
##### POLY 923 ####
 0
SOLID
 5
36
 8
7
 10
-6.73503519760132E-02
 20
.133748000549316
 11
-7.43818480239868E-02
 21
9.79999994506836E-02
 12
-6.73503519760131E-02
 22
9.79999994506836E-02
 13
-6.73503519760131E-02
 23
9.79999994506836E-02
 999
##### POLY 924 ####
 0
SOLID
 5
36
 8
6
 10
-8.30984519760132E-02
 20
.133748000549316
 11
-9.01299480239869E-02
 21
.133748000549316
 12
-9.01299480239868E-02
 22
9.79999994506836E-02
 13
-9.01299480239868E-02
 23
9.79999994506836E-02
 999
##### POLY 924 ####
 0
SOLID
 5
36
 8
6
 10
-8.30984519760132E-02
 20
.133748000549316
 11
-9.01299480239868E-02
 21
9.79999994506836E-02
 12
-8.30984519760131E-02
 22
9.79999994506836E-02
 13
-8.30984519760131E-02
 23
9.79999994506836E-02
 999
##### POLY 925 ####
 0
SOLID
 5
36
 8
3
 10
-8.30984519760132E-02
 20
.133748000549316
 11
-9.01299480239869E-02
 21
.133748000549316
 12
-9.01299480239868E-02
 22
9.79999994506836E-02
 13
-9.01299480239868E-02
 23
9.79999994506836E-02
 999
##### POLY 925 ####
 0
SOLID
 5
36
 8
3
 10
-8.30984519760132E-02
 20
.133748000549316
 11
-9.01299480239868E-02
 21
9.79999994506836E-02
 12
-8.30984519760131E-02
 22
9.79999994506836E-02
 13
-8.30984519760131E-02
 23
9.79999994506836E-02
 999
##### POLY 926 ####
 0
SOLID
 5
36
 8
7
 10
-8.30984519760132E-02
 20
.133748000549316
 11
-9.01299480239869E-02
 21
.133748000549316
 12
-9.01299480239868E-02
 22
9.79999994506836E-02
 13
-9.01299480239868E-02
 23
9.79999994506836E-02
 999
##### POLY 926 ####
 0
SOLID
 5
36
 8
7
 10
-8.30984519760132E-02
 20
.133748000549316
 11
-9.01299480239868E-02
 21
9.79999994506836E-02
 12
-8.30984519760131E-02
 22
9.79999994506836E-02
 13
-8.30984519760131E-02
 23
9.79999994506836E-02
 999
##### POLY 927 ####
 0
SOLID
 5
36
 8
6
 10
-6.73228530883789E-02
 20
-5.90550994873047E-02
 11
.067322853088379
 21
-5.90550994873046E-02
 12
6.73228530883789E-02
 22
5.90550994873047E-02
 13
6.73228530883789E-02
 23
5.90550994873047E-02
 999
##### POLY 927 ####
 0
SOLID
 5
36
 8
6
 10
-6.73228530883789E-02
 20
-5.90550994873047E-02
 11
6.73228530883789E-02
 21
5.90550994873047E-02
 12
-6.73228530883789E-02
 22
5.90550994873047E-02
 13
-6.73228530883789E-02
 23
5.90550994873047E-02
 999
##### POLY 928 ####
 0
SOLID
 5
36
 8
3
 10
-.0005
 20
-.0005
 11
.0005
 21
-.0005
 12
.0005
 22
.0005
 13
.0005
 23
.0005
 999
##### POLY 928 ####
 0
SOLID
 5
36
 8
3
 10
-.0005
 20
-.0005
 11
.0005
 21
.0005
 12
-.0005
 22
.0005
 13
-.0005
 23
.0005
 999
##### POLY 929 ####
 0
SOLID
 5
36
 8
7
 10
-6.73228530883789E-02
 20
-5.90550994873047E-02
 11
.067322853088379
 21
-5.90550994873046E-02
 12
6.73228530883789E-02
 22
5.90550994873047E-02
 13
6.73228530883789E-02
 23
5.90550994873047E-02
 999
##### POLY 929 ####
 0
SOLID
 5
36
 8
7
 10
-6.73228530883789E-02
 20
-5.90550994873047E-02
 11
6.73228530883789E-02
 21
5.90550994873047E-02
 12
-6.73228530883789E-02
 22
5.90550994873047E-02
 13
-6.73228530883789E-02
 23
5.90550994873047E-02
 0
ENDBLK
 0
ENDSEC
 0
SECTION
 2
ENTITIES
 0
INSERT
 8
0
 2
21-100232A_F486A6F-1_MXM-M
 10
0
 20
0
 30
0
 41
1
 42
1
 43
1
 0
ENDSEC
 0
EOF

