999
dxflib 3.17.0.0
  0
SECTION
  2
HEADER
  9
$ACADVER
  1
AC1015
  9
$HANDSEED
  5
FFFF
  9
$DIMADEC
 70
0
  9
$DIMASZ
 40
2.5
  9
$DIMAUNIT
 70
0
  9
$DIMAZIN
 70
2
  9
$DIMDEC
 70
4
  9
$DIMDLI
 40
5.0
  9
$DIMDSEP
 70
46
  9
$DIMEXE
 40
1.25
  9
$DIMEXO
 40
0.625
  9
$DIMGAP
 40
0.625
  9
$DIMLUNIT
 70
2
  9
$DIMSCALE
 40
1.0
  9
$DIMTSZ
 40
0.0
  9
$DIMTXT
 40
2.5
  9
$DIMZIN
 70
8
  9
$DWGCODEPAGE
  3
ANSI_1252
  9
$INSUNITS
 70
4
  9
$LTSCALE
 40
1.0
  9
$MAXACTVP
 70
64
  9
$MEASUREMENT
 70
1
  9
$MIRRTEXT
 70
0
  9
$PDMODE
 70
0
  9
$PDSIZE
 40
0.0
  0
ENDSEC
  0
SECTION
  2
TABLES
  0
TABLE
  2
VPORT
  5
8
100
AcDbSymbolTable
 70
1
  0
VPORT
  5
30
100
AcDbSymbolTableRecord
100
AcDbViewportTableRecord
  2
*Active
 70
0
 10
0.0
 20
0.0
 11
1.0
 21
1.0
 12
286.3055555555554861
 22
148.5
 13
0.0
 23
0.0
 14
10.0
 24
10.0
 15
10.0
 25
10.0
 16
0.0
 26
0.0
 36
1.0
 17
0.0
 27
0.0
 37
0.0
 40
297.0
 41
1.92798353909465
 42
50.0
 43
0.0
 44
0.0
 50
0.0
 51
0.0
 71
0
 72
100
 73
1
 74
3
 75
1
 76
1
 77
0
 78
0
281
0
 65
1
110
0.0
120
0.0
130
0.0
111
1.0
121
0.0
131
0.0
112
0.0
122
1.0
132
0.0
 79
0
146
0.0
  0
ENDTAB
  0
TABLE
  2
LTYPE
  5
5
100
AcDbSymbolTable
 70
41
  0
LTYPE
  5
16
100
AcDbSymbolTableRecord
100
AcDbLinetypeTableRecord
  2
Continuous
 70
0
  3
Solid line
 72
65
 73
0
 40
0.0
  0
LTYPE
  5
31
100
AcDbSymbolTableRecord
100
AcDbLinetypeTableRecord
  2
DASHED2
 70
0
  3
Dashed (.5x) _ _ _ _ _ _ _ _ _ _ _ _ _ _ _ _ _ 
 72
65
 73
2
 40
9.5249999999999986
 49
6.3499999999999996
 74
0
 49
-3.1749999999999998
 74
0
  0
LTYPE
  5
32
100
AcDbSymbolTableRecord
100
AcDbLinetypeTableRecord
  2
CENTER2
 70
0
  3
Center (.5x) ___ _ ___ _ ___ _ ___ _ ___ _ ___
 72
65
 73
4
 40
28.5750000000000028
 49
19.0500000000000007
 74
0
 49
-3.1749999999999998
 74
0
 49
3.1749999999999998
 74
0
 49
-3.1749999999999998
 74
0
  0
LTYPE
  5
33
100
AcDbSymbolTableRecord
100
AcDbLinetypeTableRecord
  2
ACAD_ISO09W100
 70
0
  3
ISO long-dash double-short-dash ____ __ __ ____
 72
65
 73
6
 40
45.0
 49
24.0
 74
0
 49
-3.0
 74
0
 49
6.0
 74
0
 49
-3.0
 74
0
 49
6.0
 74
0
 49
-3.0
 74
0
  0
LTYPE
  5
34
100
AcDbSymbolTableRecord
100
AcDbLinetypeTableRecord
  2
CENTERX2
 70
0
  3
Center (2x) ________  __  ________  __  _____
 72
65
 73
4
 40
101.6000000000000085
 49
63.5
 74
0
 49
-12.6999999999999993
 74
0
 49
12.6999999999999993
 74
0
 49
-12.6999999999999993
 74
0
  0
LTYPE
  5
35
100
AcDbSymbolTableRecord
100
AcDbLinetypeTableRecord
  2
DASHED
 70
0
  3
Dashed __ __ __ __ __ __ __ __ __ __ __ __ __ _
 72
65
 73
2
 40
19.0499999999999972
 49
12.6999999999999993
 74
0
 49
-6.3499999999999996
 74
0
  0
LTYPE
  5
36
100
AcDbSymbolTableRecord
100
AcDbLinetypeTableRecord
  2
PHANTOMX2
 70
0
  3
Phantom (2x) ____________    ____    ____   _
 72
65
 73
6
 40
127.0000000000000142
 49
63.5
 74
0
 49
-12.6999999999999993
 74
0
 49
12.6999999999999993
 74
0
 49
-12.6999999999999993
 74
0
 49
12.6999999999999993
 74
0
 49
-12.6999999999999993
 74
0
  0
LTYPE
  5
37
100
AcDbSymbolTableRecord
100
AcDbLinetypeTableRecord
  2
BORDERX2
 70
0
  3
Border (2x) ____  ____  .  ____  ____  .  ___
 72
65
 73
6
 40
88.8999999999999915
 49
25.3999999999999986
 74
0
 49
-12.6999999999999993
 74
0
 49
25.3999999999999986
 74
0
 49
-12.6999999999999993
 74
0
 49
0.0
 74
0
 49
-12.6999999999999993
 74
0
  0
LTYPE
  5
38
100
AcDbSymbolTableRecord
100
AcDbLinetypeTableRecord
  2
ACAD_ISO10W100
 70
0
  3
ISO dash dot __ . __ . __ . __ . __ . __ . __ . 
 72
65
 73
4
 40
18.0
 49
12.0
 74
0
 49
-3.0
 74
0
 49
0.0
 74
0
 49
-3.0
 74
0
  0
LTYPE
  5
39
100
AcDbSymbolTableRecord
100
AcDbLinetypeTableRecord
  2
DASHDOT2
 70
0
  3
Dash dot (.5x) _._._._._._._._._._._._._._._.
 72
65
 73
4
 40
12.6999999999999993
 49
6.3499999999999996
 74
0
 49
-3.1749999999999998
 74
0
 49
0.0
 74
0
 49
-3.1749999999999998
 74
0
  0
LTYPE
  5
3A
100
AcDbSymbolTableRecord
100
AcDbLinetypeTableRecord
  2
ACAD_ISO08W100
 70
0
  3
ISO long-dash short-dash ____ __ ____ __ ____ _
 72
65
 73
4
 40
36.0
 49
24.0
 74
0
 49
-3.0
 74
0
 49
6.0
 74
0
 49
-3.0
 74
0
  0
LTYPE
  5
3B
100
AcDbSymbolTableRecord
100
AcDbLinetypeTableRecord
  2
HIDDEN2
 70
0
  3
Hidden (.5x) _ _ _ _ _ _ _ _ _ _ _ _ _ _ _ _ _ 
 72
65
 73
2
 40
4.7624999999999993
 49
3.1749999999999998
 74
0
 49
-1.5874999999999999
 74
0
  0
LTYPE
  5
3C
100
AcDbSymbolTableRecord
100
AcDbLinetypeTableRecord
  2
HIDDEN
 70
0
  3
Hidden __ __ __ __ __ __ __ __ __ __ __ __ __ __
 72
65
 73
2
 40
9.5249999999999986
 49
6.3499999999999996
 74
0
 49
-3.1749999999999998
 74
0
  0
LTYPE
  5
3D
100
AcDbSymbolTableRecord
100
AcDbLinetypeTableRecord
  2
ACAD_ISO07W100
 70
0
  3
ISO dot . . . . . . . . . . . . . . . . . . . . 
 72
65
 73
2
 40
3.0
 49
0.0
 74
0
 49
-3.0
 74
0
  0
LTYPE
  5
3E
100
AcDbSymbolTableRecord
100
AcDbLinetypeTableRecord
  2
BORDER
 70
0
  3
Border __ __ . __ __ . __ __ . __ __ . __ __ .
 72
65
 73
6
 40
44.4499999999999957
 49
12.6999999999999993
 74
0
 49
-6.3499999999999996
 74
0
 49
12.6999999999999993
 74
0
 49
-6.3499999999999996
 74
0
 49
0.0
 74
0
 49
-6.3499999999999996
 74
0
  0
LTYPE
  5
3F
100
AcDbSymbolTableRecord
100
AcDbLinetypeTableRecord
  2
DASHDOTX2
 70
0
  3
Dash dot (2x) ____  .  ____  .  ____  .  ___
 72
65
 73
4
 40
50.7999999999999972
 49
25.3999999999999986
 74
0
 49
-12.6999999999999993
 74
0
 49
0.0
 74
0
 49
-12.6999999999999993
 74
0
  0
LTYPE
  5
40
100
AcDbSymbolTableRecord
100
AcDbLinetypeTableRecord
  2
ACAD_ISO04W100
 70
0
  3
ISO long-dash dot ____ . ____ . ____ . ____ . _
 72
65
 73
4
 40
30.0
 49
24.0
 74
0
 49
-3.0
 74
0
 49
0.0
 74
0
 49
-3.0
 74
0
  0
LTYPE
  5
41
100
AcDbSymbolTableRecord
100
AcDbLinetypeTableRecord
  2
ACAD_ISO15W100
 70
0
  3
ISO double-dash triple-dot __ __ . . . __ __ . .
 72
65
 73
10
 40
39.0
 49
12.0
 74
0
 49
-3.0
 74
0
 49
12.0
 74
0
 49
-3.0
 74
0
 49
0.0
 74
0
 49
-3.0
 74
0
 49
0.0
 74
0
 49
-3.0
 74
0
 49
0.0
 74
0
 49
-3.0
 74
0
  0
LTYPE
  5
42
100
AcDbSymbolTableRecord
100
AcDbLinetypeTableRecord
  2
ACAD_ISO11W100
 70
0
  3
ISO double-dash dot __ __ . __ __ . __ __ . __ _
 72
65
 73
6
 40
33.0
 49
12.0
 74
0
 49
-3.0
 74
0
 49
12.0
 74
0
 49
-3.0
 74
0
 49
0.0
 74
0
 49
-3.0
 74
0
  0
LTYPE
  5
43
100
AcDbSymbolTableRecord
100
AcDbLinetypeTableRecord
  2
DIVIDE
 70
0
  3
Divide ____ . . ____ . . ____ . . ____ . . ____
 72
65
 73
6
 40
31.75
 49
12.6999999999999993
 74
0
 49
-6.3499999999999996
 74
0
 49
0.0
 74
0
 49
-6.3499999999999996
 74
0
 49
0.0
 74
0
 49
-6.3499999999999996
 74
0
  0
LTYPE
  5
44
100
AcDbSymbolTableRecord
100
AcDbLinetypeTableRecord
  2
DASHEDX2
 70
0
  3
Dashed (2x) ____  ____  ____  ____  ____  ___
 72
65
 73
2
 40
38.0999999999999943
 49
25.3999999999999986
 74
0
 49
-12.6999999999999993
 74
0
  0
LTYPE
  5
45
100
AcDbSymbolTableRecord
100
AcDbLinetypeTableRecord
  2
BORDER2
 70
0
  3
Border (.5x) __.__.__.__.__.__.__.__.__.__.__.
 72
65
 73
6
 40
22.2249999999999979
 49
6.3499999999999996
 74
0
 49
-3.1749999999999998
 74
0
 49
6.3499999999999996
 74
0
 49
-3.1749999999999998
 74
0
 49
0.0
 74
0
 49
-3.1749999999999998
 74
0
  0
LTYPE
  5
46
100
AcDbSymbolTableRecord
100
AcDbLinetypeTableRecord
  2
ACAD_ISO12W100
 70
0
  3
ISO dash double-dot __ . . __ . . __ . . __ . . 
 72
65
 73
6
 40
21.0
 49
12.0
 74
0
 49
-3.0
 74
0
 49
0.0
 74
0
 49
-3.0
 74
0
 49
0.0
 74
0
 49
-3.0
 74
0
  0
LTYPE
  5
15
100
AcDbSymbolTableRecord
100
AcDbLinetypeTableRecord
  2
BYLAYER
 70
0
  3

 72
65
 73
0
 40
0.0
  0
LTYPE
  5
47
100
AcDbSymbolTableRecord
100
AcDbLinetypeTableRecord
  2
DOT2
 70
0
  3
Dot (.5x) ........................................
 72
65
 73
2
 40
3.1749999999999998
 49
0.0
 74
0
 49
-3.1749999999999998
 74
0
  0
LTYPE
  5
48
100
AcDbSymbolTableRecord
100
AcDbLinetypeTableRecord
  2
ACAD_ISO03W100
 70
0
  3
ISO dash space __    __    __    __    __    __
 72
65
 73
2
 40
30.0
 49
12.0
 74
0
 49
-18.0
 74
0
  0
LTYPE
  5
49
100
AcDbSymbolTableRecord
100
AcDbLinetypeTableRecord
  2
ACAD_ISO05W100
 70
0
  3
ISO long-dash double-dot ____ .. ____ .. ____ . 
 72
65
 73
6
 40
33.0
 49
24.0
 74
0
 49
-3.0
 74
0
 49
0.0
 74
0
 49
-3.0
 74
0
 49
0.0
 74
0
 49
-3.0
 74
0
  0
LTYPE
  5
4A
100
AcDbSymbolTableRecord
100
AcDbLinetypeTableRecord
  2
DIVIDEX2
 70
0
  3
Divide (2x) ________  .  .  ________  .  .  _
 72
65
 73
6
 40
63.5
 49
25.3999999999999986
 74
0
 49
-12.6999999999999993
 74
0
 49
0.0
 74
0
 49
-12.6999999999999993
 74
0
 49
0.0
 74
0
 49
-12.6999999999999993
 74
0
  0
LTYPE
  5
4B
100
AcDbSymbolTableRecord
100
AcDbLinetypeTableRecord
  2
DIVIDE2
 70
0
  3
Divide (.5x) __..__..__..__..__..__..__..__.._
 72
65
 73
6
 40
15.875
 49
6.3499999999999996
 74
0
 49
-3.1749999999999998
 74
0
 49
0.0
 74
0
 49
-3.1749999999999998
 74
0
 49
0.0
 74
0
 49
-3.1749999999999998
 74
0
  0
LTYPE
  5
4C
100
AcDbSymbolTableRecord
100
AcDbLinetypeTableRecord
  2
DOTX2
 70
0
  3
Dot (2x) .  .  .  .  .  .  .  .  .  .  .  .  .  .
 72
65
 73
2
 40
12.6999999999999993
 49
0.0
 74
0
 49
-12.6999999999999993
 74
0
  0
LTYPE
  5
4D
100
AcDbSymbolTableRecord
100
AcDbLinetypeTableRecord
  2
ACAD_ISO06W100
 70
0
  3
ISO long-dash triple-dot ____ ... ____ ... ____
 72
65
 73
8
 40
36.0
 49
24.0
 74
0
 49
-3.0
 74
0
 49
0.0
 74
0
 49
-3.0
 74
0
 49
0.0
 74
0
 49
-3.0
 74
0
 49
0.0
 74
0
 49
-3.0
 74
0
  0
LTYPE
  5
4E
100
AcDbSymbolTableRecord
100
AcDbLinetypeTableRecord
  2
ACAD_ISO13W100
 70
0
  3
ISO double-dash double-dot __ __ . . __ __ . . _
 72
65
 73
8
 40
36.0
 49
12.0
 74
0
 49
-3.0
 74
0
 49
12.0
 74
0
 49
-3.0
 74
0
 49
0.0
 74
0
 49
-3.0
 74
0
 49
0.0
 74
0
 49
-3.0
 74
0
  0
LTYPE
  5
4F
100
AcDbSymbolTableRecord
100
AcDbLinetypeTableRecord
  2
HIDDENX2
 70
0
  3
Hidden (2x) ____ ____ ____ ____ ____ ____ ____ 
 72
65
 73
2
 40
19.0499999999999972
 49
12.6999999999999993
 74
0
 49
-6.3499999999999996
 74
0
  0
LTYPE
  5
50
100
AcDbSymbolTableRecord
100
AcDbLinetypeTableRecord
  2
ACAD_ISO14W100
 70
0
  3
ISO dash triple-dot __ . . . __ . . . __ . . . _
 72
65
 73
8
 40
24.0
 49
12.0
 74
0
 49
-3.0
 74
0
 49
0.0
 74
0
 49
-3.0
 74
0
 49
0.0
 74
0
 49
-3.0
 74
0
 49
0.0
 74
0
 49
-3.0
 74
0
  0
LTYPE
  5
51
100
AcDbSymbolTableRecord
100
AcDbLinetypeTableRecord
  2
PHANTOM
 70
0
  3
Phantom ______  __  __  ______  __  __  ______ 
 72
65
 73
6
 40
63.5000000000000071
 49
31.75
 74
0
 49
-6.3499999999999996
 74
0
 49
6.3499999999999996
 74
0
 49
-6.3499999999999996
 74
0
 49
6.3499999999999996
 74
0
 49
-6.3499999999999996
 74
0
  0
LTYPE
  5
52
100
AcDbSymbolTableRecord
100
AcDbLinetypeTableRecord
  2
DASHDOT
 70
0
  3
Dash dot __ . __ . __ . __ . __ . __ . __ . __
 72
65
 73
4
 40
25.3999999999999986
 49
12.6999999999999993
 74
0
 49
-6.3499999999999996
 74
0
 49
0.0
 74
0
 49
-6.3499999999999996
 74
0
  0
LTYPE
  5
53
100
AcDbSymbolTableRecord
100
AcDbLinetypeTableRecord
  2
ACAD_ISO02W100
 70
0
  3
ISO dash __ __ __ __ __ __ __ __ __ __ __ __ __
 72
65
 73
2
 40
15.0
 49
12.0
 74
0
 49
-3.0
 74
0
  0
LTYPE
  5
54
100
AcDbSymbolTableRecord
100
AcDbLinetypeTableRecord
  2
PHANTOM2
 70
0
  3
Phantom (.5x) ___ _ _ ___ _ _ ___ _ _ ___ _ _
 72
65
 73
6
 40
31.7500000000000036
 49
15.875
 74
0
 49
-3.1749999999999998
 74
0
 49
3.1749999999999998
 74
0
 49
-3.1749999999999998
 74
0
 49
3.1749999999999998
 74
0
 49
-3.1749999999999998
 74
0
  0
LTYPE
  5
55
100
AcDbSymbolTableRecord
100
AcDbLinetypeTableRecord
  2
DOT
 70
0
  3
Dot . . . . . . . . . . . . . . . . . . . . . . . .
 72
65
 73
2
 40
6.3499999999999996
 49
0.0
 74
0
 49
-6.3499999999999996
 74
0
  0
LTYPE
  5
14
100
AcDbSymbolTableRecord
100
AcDbLinetypeTableRecord
  2
BYBLOCK
 70
0
  3

 72
65
 73
0
 40
0.0
  0
LTYPE
  5
56
100
AcDbSymbolTableRecord
100
AcDbLinetypeTableRecord
  2
CENTER
 70
0
  3
Center ____ _ ____ _ ____ _ ____ _ ____ _ ____
 72
65
 73
4
 40
50.8000000000000043
 49
31.75
 74
0
 49
-6.3499999999999996
 74
0
 49
6.3499999999999996
 74
0
 49
-6.3499999999999996
 74
0
  0
ENDTAB
  0
TABLE
  2
LAYER
  5
2
100
AcDbSymbolTable
 70
5
  0
LAYER
  5
57
100
AcDbSymbolTableRecord
100
AcDbLayerTableRecord
  2
F.SilkS
 70
1
 62
134
420
32896
  6
Continuous
370
-3
390
F
  0
LAYER
  5
58
100
AcDbSymbolTableRecord
100
AcDbLayerTableRecord
  2
F.Fab
 70
0
 62
252
420
10526884
  6
Continuous
370
-3
390
F
  0
LAYER
  5
59
100
AcDbSymbolTableRecord
100
AcDbLayerTableRecord
  2
F.Cu
 70
0
 62
14
420
8388608
  6
Continuous
370
-3
390
F
  0
LAYER
  5
5A
100
AcDbSymbolTableRecord
100
AcDbLayerTableRecord
  2
F.CrtYd
 70
0
 62
9
420
12632256
  6
Continuous
370
-3
390
F
  0
LAYER
  5
10
100
AcDbSymbolTableRecord
100
AcDbLayerTableRecord
  2
0
 70
0
 62
7
420
16777215
  6
Continuous
370
-3
390
F
  0
ENDTAB
  0
TABLE
  2
STYLE
  5
3
100
AcDbSymbolTable
 70
1
  0
STYLE
  5
5B
100
AcDbSymbolTableRecord
100
AcDbTextStyleTableRecord
  2
Standard
 70
0
 40
0.0
 41
1.0
 50
0.0
 71
0
 42
2.5
  3

  4

1001
ACAD
1000
txt
1071
0
  0
ENDTAB
  0
TABLE
  2
VIEW
  5
6
100
AcDbSymbolTable
 70
0
  0
ENDTAB
  0
TABLE
  2
UCS
  5
7
100
AcDbSymbolTable
 70
0
  0
ENDTAB
  0
TABLE
  2
APPID
  5
9
100
AcDbSymbolTable
 70
1
  0
APPID
  5
12
100
AcDbSymbolTableRecord
100
AcDbRegAppTableRecord
  2
ACAD
 70
0
  0
APPID
  5
5C
100
AcDbSymbolTableRecord
100
AcDbRegAppTableRecord
  2
QCAD
 70
0
  0
ENDTAB
  0
TABLE
  2
DIMSTYLE
  5
A
100
AcDbSymbolTable
 70
1
100
AcDbDimStyleTable
 71
0
  0
DIMSTYLE
105
27
100
AcDbSymbolTableRecord
100
AcDbDimStyleTableRecord
  2
Standard
 41
2.5
 42
0.625
 43
3.75
 44
1.25
 70
0
 73
0
 74
0
 77
1
 78
8
140
2.5
141
2.5
143
0.03937007874016
147
0.625
171
3
172
1
271
2
272
2
274
3
278
44
283
0
284
8
340
5B
  0
ENDTAB
  0
TABLE
  2
BLOCK_RECORD
  5
1
100
AcDbSymbolTable
 70
1
  0
BLOCK_RECORD
  5
1F
100
AcDbSymbolTableRecord
100
AcDbBlockTableRecord
  2
*Model_Space
340
22
  0
BLOCK_RECORD
  5
1B
100
AcDbSymbolTableRecord
100
AcDbBlockTableRecord
  2
*Paper_Space
340
1E
  0
BLOCK_RECORD
  5
23
100
AcDbSymbolTableRecord
100
AcDbBlockTableRecord
  2
*Paper_Space0
340
26
  0
ENDTAB
  0
ENDSEC
  0
SECTION
  2
BLOCKS
  0
BLOCK
  5
20
100
AcDbEntity
  8
0
100
AcDbBlockBegin
  2
*Model_Space
 70
0
 10
0.0
 20
0.0
 30
0.0
  3
*Model_Space
  1

  0
ENDBLK
  5
21
100
AcDbEntity
  8
0
100
AcDbBlockEnd
  0
BLOCK
  5
1C
100
AcDbEntity
 67
1
  8
0
100
AcDbBlockBegin
  2
*Paper_Space
 70
0
 10
0.0
 20
0.0
 30
0.0
  3
*Paper_Space
  1

  0
ENDBLK
  5
1D
100
AcDbEntity
 67
1
  8
0
100
AcDbBlockEnd
  0
BLOCK
  5
24
100
AcDbEntity
  8
0
100
AcDbBlockBegin
  2
*Paper_Space0
 70
0
 10
0.0
 20
0.0
 30
0.0
  3
*Paper_Space0
  1

  0
ENDBLK
  5
25
100
AcDbEntity
  8
0
100
AcDbBlockEnd
  0
ENDSEC
  0
SECTION
  2
ENTITIES
  0
ARC
  5
5D
100
AcDbEntity
  8
F.Fab
 62
256
370
-1
 48
1.0
  6
ACAD_ISO03W100
100
AcDbCircle
 10
3.8693129154711663
 20
-2.4450879515612551
 30
0.0
 40
0.0999515459983584
100
AcDbArc
 50
359.9255810472437247
 51
90.0744189527466546
  0
ARC
  5
5E
100
AcDbEntity
  8
F.Fab
 62
256
370
-1
 48
1.0
  6
ACAD_ISO03W100
100
AcDbCircle
 10
3.8691863681712437
 20
-2.4450518449200853
 30
0.0
 40
0.0999153551004466
100
AcDbArc
 50
90.0018782007300473
 51
180.0951510385949064
  0
ARC
  5
5F
100
AcDbEntity
  8
F.Fab
 62
256
370
-1
 48
1.0
  6
ACAD_ISO03W100
100
AcDbCircle
 10
3.869150150773482
 20
-2.4452507162589479
 30
0.0
 40
0.0998790053558783
100
AcDbArc
 50
179.9811027055045543
 51
270.0188972944950478
  0
ARC
  5
60
100
AcDbEntity
  8
F.Fab
 62
256
370
-1
 48
1.0
  6
ACAD_ISO03W100
100
AcDbCircle
 10
3.8693490221123499
 20
-2.4452144988612003
 30
0.0
 40
0.0999153551004398
100
AcDbArc
 50
269.9048489614053778
 51
359.9981217992694837
  0
ARC
  5
61
100
AcDbEntity
  8
F.Fab
 62
256
370
-1
 48
1.0
  6
ACAD_ISO03W100
100
AcDbCircle
 10
-3.6088006680893336
 20
-2.4743767515133976
 30
0.0
 40
0.0999440722843673
100
AcDbArc
 50
0.0184057437300318
 51
90.0398315334970505
  0
ARC
  5
62
100
AcDbEntity
  8
F.Fab
 62
256
370
-1
 48
1.0
  6
ACAD_ISO03W100
100
AcDbCircle
 10
-3.608939628598332
 20
-2.4743767515134039
 30
0.0
 40
0.0999440722843676
100
AcDbArc
 50
89.9601684665045838
 51
179.9815942562700002
  0
ARC
  5
63
100
AcDbEntity
  8
F.Fab
 62
256
370
-1
 48
1.0
  6
ACAD_ISO03W100
100
AcDbCircle
 10
-3.608795086898871
 20
-2.4743373487423623
 30
0.0
 40
0.1000886090928929
100
AcDbArc
 50
180.0041769741125393
 51
269.9570310303774932
  0
ARC
  5
64
100
AcDbEntity
  8
F.Fab
 62
256
370
-1
 48
1.0
  6
ACAD_ISO03W100
100
AcDbCircle
 10
-3.6089452097887946
 20
-2.4743373487423561
 30
0.0
 40
0.1000886090928978
100
AcDbArc
 50
270.0429689696208584
 51
359.9958230258874323
  0
LINE
  5
65
100
AcDbEntity
  8
F.Fab
 62
256
370
-1
 48
1.0
  6
ACAD_ISO03W100
100
AcDbLine
 10
4.8503522319311712
 20
-1.8501490212016516
 30
0.0
 11
4.0503793266950892
 21
-1.8501490212016516
 31
0.0
  0
LINE
  5
66
100
AcDbEntity
  8
F.Fab
 62
256
370
-1
 48
1.0
  6
ACAD_ISO03W100
100
AcDbLine
 10
5.3502506265664067
 20
-1.3500812842918113
 30
0.0
 11
4.850182889656546
 21
-1.8501490212016514
 31
0.0
  0
LINE
  5
67
100
AcDbEntity
  8
F.Fab
 62
256
370
-1
 48
1.0
  6
BYLAYER
100
AcDbLine
 10
6.1503928740770704
 20
-1.3500812842918113
 30
0.0
 11
5.3502506265664174
 21
-1.3500812842918113
 31
0.0
  0
LINE
  5
68
100
AcDbEntity
  8
F.Fab
 62
256
370
-1
 48
1.0
  6
BYLAYER
100
AcDbLine
 10
6.1503928740770704
 20
-3.3501828896565695
 30
0.0
 11
6.1503928740770704
 21
-1.3500812842918113
 31
0.0
  0
LINE
  5
69
100
AcDbEntity
  8
F.Fab
 62
256
370
-1
 48
1.0
  6
BYLAYER
100
AcDbLine
 10
5.3502506265664174
 20
-3.3501828896565695
 30
0.0
 11
6.1503928740770704
 21
-3.3501828896565695
 31
0.0
  0
LINE
  5
6A
100
AcDbEntity
  8
F.Fab
 62
256
370
-1
 48
1.0
  6
ACAD_ISO03W100
100
AcDbLine
 10
4.8501828896565815
 20
-2.8501151527467297
 30
0.0
 11
5.3502506265664067
 21
-3.3501828896565753
 31
0.0
  0
LINE
  5
6B
100
AcDbEntity
  8
F.Fab
 62
256
370
-1
 48
1.0
  6
ACAD_ISO03W100
100
AcDbLine
 10
4.050379326695106
 20
-2.8501151527467297
 30
0.0
 11
4.8503522319311712
 21
-2.8501151527467297
 31
0.0
  0
LINE
  5
6C
100
AcDbEntity
  8
F.Fab
 62
256
370
-1
 48
1.0
  6
ACAD_ISO03W100
100
AcDbLine
 10
3.9496764195194789
 20
-2.7500338684549108
 30
0.0
 11
4.0503793266951007
 21
-2.8501151527467239
 31
0.0
  0
LINE
  5
6D
100
AcDbEntity
  8
F.Fab
 62
256
370
-1
 48
1.0
  6
ACAD_ISO03W100
100
AcDbLine
 10
3.2502370791844308
 20
-2.7500338684549108
 30
0.0
 11
3.9502980424032872
 21
-2.7500338684549108
 31
0.0
  0
LINE
  5
6E
100
AcDbEntity
  8
F.Fab
 62
256
370
-1
 48
1.0
  6
ACAD_ISO03W100
100
AcDbLine
 10
3.2502370791844308
 20
-1.9500609632188457
 30
0.0
 11
3.2502370791844308
 21
-2.7500338684549099
 31
0.0
  0
LINE
  5
6F
100
AcDbEntity
  8
F.Fab
 62
256
370
-1
 48
1.0
  6
ACAD_ISO03W100
100
AcDbLine
 10
3.9502980424032872
 20
-1.9500609632188457
 30
0.0
 11
3.2502370791844308
 21
-1.9500609632188457
 31
0.0
  0
LINE
  5
70
100
AcDbEntity
  8
F.Fab
 62
256
370
-1
 48
1.0
  6
ACAD_ISO03W100
100
AcDbLine
 10
4.0503793266951007
 20
-1.8501490212016403
 30
0.0
 11
3.9492184854026844
 21
-1.9500609632188455
 31
0.0
  0
LINE
  5
71
100
AcDbEntity
  8
F.Fab
 62
256
370
-1
 48
1.0
  6
ACAD_ISO03W100
100
AcDbLine
 10
-3.9501287001287047
 20
-2.7500338684549046
 30
0.0
 11
-3.2500846711373104
 21
-2.7500338684549046
 31
0.0
  0
LINE
  5
72
100
AcDbEntity
  8
F.Fab
 62
256
370
-1
 48
1.0
  6
ACAD_ISO03W100
100
AcDbLine
 10
-4.0501591817381311
 20
-2.8501151527467128
 30
0.0
 11
-3.9500778974462918
 21
-2.7500338684549046
 31
0.0
  0
LINE
  5
73
100
AcDbEntity
  8
F.Fab
 62
256
370
-1
 48
1.0
  6
ACAD_ISO03W100
100
AcDbLine
 10
-4.8501659554291159
 20
-2.8501151527467239
 30
0.0
 11
-4.0501591817381417
 21
-2.8501151527467239
 31
0.0
  0
LINE
  5
74
100
AcDbEntity
  8
F.Fab
 62
256
370
-1
 48
1.0
  6
ACAD_ISO03W100
100
AcDbLine
 10
-5.3505442934177943
 20
-3.3501828896565646
 30
0.0
 11
-4.8501659554291159
 21
-2.8501151527467181
 31
0.0
  0
LINE
  5
75
100
AcDbEntity
  8
F.Fab
 62
256
370
-1
 48
1.0
  6
BYLAYER
100
AcDbLine
 10
-6.1502574002574022
 20
-3.3501828896565642
 30
0.0
 11
-5.3502506265664209
 21
-3.3501828896565642
 31
0.0
  0
LINE
  5
76
100
AcDbEntity
  8
F.Fab
 62
256
370
-1
 48
1.0
  6
BYLAYER
100
AcDbLine
 10
-6.1502574002574022
 20
-1.3500812842918002
 30
0.0
 11
-6.1502574002574022
 21
-3.3501828896565642
 31
0.0
  0
LINE
  5
77
100
AcDbEntity
  8
F.Fab
 62
256
370
-1
 48
1.0
  6
BYLAYER
100
AcDbLine
 10
-5.3502506265664209
 20
-1.3500812842918002
 30
0.0
 11
-6.1502574002574022
 21
-1.3500812842918002
 31
0.0
  0
LINE
  5
78
100
AcDbEntity
  8
F.Fab
 62
256
370
-1
 48
1.0
  6
ACAD_ISO03W100
100
AcDbLine
 10
-4.850165955429123
 20
-1.8501490212016403
 30
0.0
 11
-5.3502506265664174
 21
-1.3500812842918002
 31
0.0
  0
LINE
  5
79
100
AcDbEntity
  8
F.Fab
 62
256
370
-1
 48
1.0
  6
ACAD_ISO03W100
100
AcDbLine
 10
-4.0501591817381417
 20
-1.8501490212016403
 30
0.0
 11
-4.8501659554291159
 21
-1.8501490212016403
 31
0.0
  0
LINE
  5
7A
100
AcDbEntity
  8
F.Fab
 62
256
370
-1
 48
1.0
  6
ACAD_ISO03W100
100
AcDbLine
 10
-3.9496227900832981
 20
-1.9500609632188568
 30
0.0
 11
-4.0501591817381311
 21
-1.8501490212016516
 31
0.0
  0
LINE
  5
7B
100
AcDbEntity
  8
F.Fab
 62
256
370
-1
 48
1.0
  6
ACAD_ISO03W100
100
AcDbLine
 10
-3.2500846711373104
 20
-1.9500609632188572
 30
0.0
 11
-3.9501287001287047
 21
-1.9500609632188572
 31
0.0
  0
LINE
  5
7C
100
AcDbEntity
  8
F.Fab
 62
256
370
-1
 48
1.0
  6
ACAD_ISO03W100
100
AcDbLine
 10
-3.2500846711373104
 20
-2.7500338684549219
 30
0.0
 11
-3.2500846711373104
 21
-1.9500609632188572
 31
0.0
  0
LINE
  5
7D
100
AcDbEntity
  8
F.Fab
 62
256
370
-1
 48
1.0
  6
BYLAYER
100
AcDbLine
 10
-2.6600961864119839
 20
-1.2499999999999982
 30
0.0
 11
-2.3400562216351695
 21
-1.2499999999999982
 31
0.0
  0
LINE
  5
7E
100
AcDbEntity
  8
F.Fab
 62
256
370
-1
 48
1.0
  6
BYLAYER
100
AcDbLine
 10
-2.3400562216351695
 20
-1.0999627446995874
 30
0.0
 11
-2.6600961864119839
 21
-1.0999627446995874
 31
0.0
  0
LINE
  5
7F
100
AcDbEntity
  8
F.Fab
 62
256
370
-1
 48
1.0
  6
BYLAYER
100
AcDbLine
 10
-1.6600115152746842
 20
-1.2499999999999982
 30
0.0
 11
-1.3399546162704112
 21
-1.2499999999999982
 31
0.0
  0
LINE
  5
80
100
AcDbEntity
  8
F.Fab
 62
256
370
-1
 48
1.0
  6
BYLAYER
100
AcDbLine
 10
-1.3399546162704112
 20
-1.0999627446995874
 30
0.0
 11
-1.6600115152746842
 21
-1.0999627446995874
 31
0.0
  0
LINE
  5
81
100
AcDbEntity
  8
F.Fab
 62
256
370
-1
 48
1.0
  6
BYLAYER
100
AcDbLine
 10
-0.3399884847253336
 20
-1.2499999999999982
 30
0.0
 11
-0.6600453837296083
 21
-1.2499999999999982
 31
0.0
  0
LINE
  5
82
100
AcDbEntity
  8
F.Fab
 62
256
370
-1
 48
1.0
  6
BYLAYER
100
AcDbLine
 10
-0.6600453837296083
 20
-1.0999627446995874
 30
0.0
 11
-0.3399884847253336
 21
-1.0999627446995874
 31
0.0
  0
LINE
  5
83
100
AcDbEntity
  8
F.Fab
 62
256
370
-1
 48
1.0
  6
BYLAYER
100
AcDbLine
 10
0.3400900900900794
 20
-1.2499999999999982
 30
0.0
 11
0.6601469890943505
 21
-1.2499999999999982
 31
0.0
  0
LINE
  5
84
100
AcDbEntity
  8
F.Fab
 62
256
370
-1
 48
1.0
  6
BYLAYER
100
AcDbLine
 10
0.6601469890943505
 20
-1.0999627446995874
 30
0.0
 11
0.3400900900900794
 21
-1.0999627446995874
 31
0.0
  0
LINE
  5
85
100
AcDbEntity
  8
F.Fab
 62
256
370
-1
 48
1.0
  6
BYLAYER
100
AcDbLine
 10
1.3402255639097636
 20
-1.2499999999999982
 30
0.0
 11
1.6601131206394282
 21
-1.2499999999999982
 31
0.0
  0
LINE
  5
86
100
AcDbEntity
  8
F.Fab
 62
256
370
-1
 48
1.0
  6
BYLAYER
100
AcDbLine
 10
1.6601131206394282
 20
-1.0999627446995874
 30
0.0
 11
1.3402255639097636
 21
-1.0999627446995874
 31
0.0
  0
LINE
  5
87
100
AcDbEntity
  8
F.Fab
 62
256
370
-1
 48
1.0
  6
BYLAYER
100
AcDbLine
 10
2.3401916954548412
 20
-1.2499999999999982
 30
0.0
 11
2.6602485944591123
 21
-1.2499999999999982
 31
0.0
  0
LINE
  5
88
100
AcDbEntity
  8
F.Fab
 62
256
370
-1
 48
1.0
  6
BYLAYER
100
AcDbLine
 10
2.6602485944591123
 20
-1.0999627446995874
 30
0.0
 11
2.3401916954548412
 21
-1.0999627446995874
 31
0.0
  0
LINE
  5
89
100
AcDbEntity
  8
F.Fab
 62
256
370
-1
 48
1.0
  6
BYLAYER
100
AcDbLine
 10
2.6602485944591123
 20
0.6500203210729465
 30
0.0
 11
2.6602485944591123
 21
-1.3500812842918171
 31
0.0
  0
LINE
  5
8A
100
AcDbEntity
  8
F.Fab
 62
256
370
-1
 48
1.0
  6
BYLAYER
100
AcDbLine
 10
2.3401916954548412
 20
0.6500203210729465
 30
0.0
 11
2.6602485944591123
 21
0.6500203210729465
 31
0.0
  0
LINE
  5
8B
100
AcDbEntity
  8
F.Fab
 62
256
370
-1
 48
1.0
  6
BYLAYER
100
AcDbLine
 10
2.3401916954548483
 20
-1.3500812842918171
 30
0.0
 11
2.3401916954548483
 21
0.6500203210729474
 31
0.0
  0
LINE
  5
8C
100
AcDbEntity
  8
F.Fab
 62
256
370
-1
 48
1.0
  6
BYLAYER
100
AcDbLine
 10
1.6601131206394282
 20
0.6500203210729465
 30
0.0
 11
1.6601131206394282
 21
-1.3500812842918171
 31
0.0
  0
LINE
  5
8D
100
AcDbEntity
  8
F.Fab
 62
256
370
-1
 48
1.0
  6
BYLAYER
100
AcDbLine
 10
1.3402255639097636
 20
0.6500203210729465
 30
0.0
 11
1.6601131206394282
 21
0.6500203210729465
 31
0.0
  0
LINE
  5
8E
100
AcDbEntity
  8
F.Fab
 62
256
370
-1
 48
1.0
  6
BYLAYER
100
AcDbLine
 10
1.3402255639097689
 20
-1.3500812842918171
 30
0.0
 11
1.3402255639097689
 21
0.6500203210729474
 31
0.0
  0
LINE
  5
8F
100
AcDbEntity
  8
F.Fab
 62
256
370
-1
 48
1.0
  6
BYLAYER
100
AcDbLine
 10
0.6601469890943505
 20
0.6500203210729465
 30
0.0
 11
0.6601469890943505
 21
-1.3500812842918171
 31
0.0
  0
LINE
  5
90
100
AcDbEntity
  8
F.Fab
 62
256
370
-1
 48
1.0
  6
BYLAYER
100
AcDbLine
 10
0.3400900900900794
 20
0.6500203210729465
 30
0.0
 11
0.6601469890943505
 21
0.6500203210729465
 31
0.0
  0
LINE
  5
91
100
AcDbEntity
  8
F.Fab
 62
256
370
-1
 48
1.0
  6
BYLAYER
100
AcDbLine
 10
0.3400900900900865
 20
-1.3500812842918171
 30
0.0
 11
0.3400900900900865
 21
0.6500203210729474
 31
0.0
  0
LINE
  5
92
100
AcDbEntity
  8
F.Fab
 62
256
370
-1
 48
1.0
  6
BYLAYER
100
AcDbLine
 10
-0.3399884847253336
 20
0.6500203210729465
 30
0.0
 11
-0.3399884847253336
 21
-1.3500812842918171
 31
0.0
  0
LINE
  5
93
100
AcDbEntity
  8
F.Fab
 62
256
370
-1
 48
1.0
  6
BYLAYER
100
AcDbLine
 10
-0.6600453837295994
 20
0.6500203210729465
 30
0.0
 11
-0.3399884847253336
 21
0.6500203210729465
 31
0.0
  0
LINE
  5
94
100
AcDbEntity
  8
F.Fab
 62
256
370
-1
 48
1.0
  6
BYLAYER
100
AcDbLine
 10
-0.6600453837295959
 20
-1.3500812842918171
 30
0.0
 11
-0.6600453837295959
 21
0.6500203210729474
 31
0.0
  0
LINE
  5
95
100
AcDbEntity
  8
F.Fab
 62
256
370
-1
 48
1.0
  6
BYLAYER
100
AcDbLine
 10
-1.3399546162704112
 20
0.6500203210729465
 30
0.0
 11
-1.3399546162704112
 21
-1.3500812842918171
 31
0.0
  0
LINE
  5
96
100
AcDbEntity
  8
F.Fab
 62
256
370
-1
 48
1.0
  6
BYLAYER
100
AcDbLine
 10
-1.6600115152746771
 20
0.6500203210729465
 30
0.0
 11
-1.3399546162704112
 21
0.6500203210729465
 31
0.0
  0
LINE
  5
97
100
AcDbEntity
  8
F.Fab
 62
256
370
-1
 48
1.0
  6
BYLAYER
100
AcDbLine
 10
-1.6600115152746753
 20
-1.3500812842918171
 30
0.0
 11
-1.6600115152746753
 21
0.6500203210729474
 31
0.0
  0
LINE
  5
98
100
AcDbEntity
  8
F.Fab
 62
256
370
-1
 48
1.0
  6
BYLAYER
100
AcDbLine
 10
-2.3400562216351695
 20
0.6500203210729465
 30
0.0
 11
-2.3400562216351695
 21
-1.3500812842918171
 31
0.0
  0
LINE
  5
99
100
AcDbEntity
  8
F.Fab
 62
256
370
-1
 48
1.0
  6
BYLAYER
100
AcDbLine
 10
-2.660096186411975
 20
0.6500203210729465
 30
0.0
 11
-2.3400562216351695
 21
0.6500203210729465
 31
0.0
  0
LINE
  5
9A
100
AcDbEntity
  8
F.Fab
 62
256
370
-1
 48
1.0
  6
BYLAYER
100
AcDbLine
 10
-2.6600961864119732
 20
-1.3500812842918171
 30
0.0
 11
-2.6600961864119732
 21
0.6500203210729465
 31
0.0
  0
LINE
  5
9B
100
AcDbEntity
  8
F.Fab
 62
256
370
-1
 48
1.0
  6
BYLAYER
100
AcDbLine
 10
-3.6001320869741882
 20
-5.6503590056221604
 30
0.0
 11
-3.6001320869741882
 21
-6.9503996477680658
 31
0.0
  0
LINE
  5
9C
100
AcDbEntity
  8
F.Fab
 62
256
370
-1
 48
1.0
  6
BYLAYER
100
AcDbLine
 10
3.600267560793875
 20
-5.6503590056221658
 30
0.0
 11
3.600267560793875
 21
-6.9503996477680658
 31
0.0
  0
LINE
  5
9D
100
AcDbEntity
  8
F.Fab
 62
256
370
-1
 48
1.0
  6
BYLAYER
100
AcDbLine
 10
-5.9002235318024745
 20
-5.7502709476393665
 30
0.0
 11
-5.9002235318024745
 21
-6.6503251371672434
 31
0.0
  0
LINE
  5
9E
100
AcDbEntity
  8
F.Fab
 62
256
370
-1
 48
1.0
  6
BYLAYER
100
AcDbLine
 10
-5.8003115897852489
 20
-5.6503590056221498
 30
0.0
 11
-5.9002235318024745
 21
-5.7502709476393665
 31
0.0
  0
LINE
  5
9F
100
AcDbEntity
  8
F.Fab
 62
256
370
-1
 48
1.0
  6
BYLAYER
100
AcDbLine
 10
5.9004436767594601
 20
-5.7502709476393612
 30
0.0
 11
5.9004436767594601
 21
-6.6503251371672327
 31
0.0
  0
LINE
  5
A0
100
AcDbEntity
  8
F.Fab
 62
256
370
-1
 48
1.0
  6
BYLAYER
100
AcDbLine
 10
5.800531734742238
 20
-5.6503590056221498
 30
0.0
 11
5.9004436767594548
 21
-5.7502709476393541
 31
0.0
  0
LINE
  5
A1
100
AcDbEntity
  8
F.Fab
 62
256
370
-1
 48
1.0
  6
BYLAYER
100
AcDbLine
 10
3.600267560793875
 20
-5.6503590056221498
 30
0.0
 11
5.8003623924676404
 21
-5.6503590056221498
 31
0.0
  0
LINE
  5
A2
100
AcDbEntity
  8
F.Fab
 62
256
370
-1
 48
1.0
  6
BYLAYER
100
AcDbLine
 10
-5.8002607871028999
 20
-5.6503590056221498
 30
0.0
 11
-3.6001320869741882
 21
-5.6503590056221498
 31
0.0
  0
LINE
  5
A3
100
AcDbEntity
  8
F.Fab
 62
256
370
-1
 48
1.0
  6
BYLAYER
100
AcDbLine
 10
-5.3502506265664174
 20
-1.3500812842918002
 30
0.0
 11
-5.3502506265664103
 21
-5.6503590056221551
 31
0.0
  0
LINE
  5
A4
100
AcDbEntity
  8
F.Fab
 62
256
370
-1
 48
1.0
  6
BYLAYER
100
AcDbLine
 10
-4.1636015714962991
 20
-1.3500812842918002
 30
0.0
 11
-4.026256727562556
 21
-1.3500812842918002
 31
0.0
  0
LINE
  5
A5
100
AcDbEntity
  8
F.Fab
 62
256
370
-1
 48
1.0
  6
BYLAYER
100
AcDbLine
 10
5.3502506265664174
 20
-1.3500812842918002
 30
0.0
 11
-5.3502506265664174
 21
-1.3500812842918002
 31
0.0
  0
LINE
  5
A6
100
AcDbEntity
  8
F.Fab
 62
256
370
-1
 48
1.0
  6
BYLAYER
100
AcDbLine
 10
5.3502506265664174
 20
-5.6503590056221498
 30
0.0
 11
5.3502506265664174
 21
-1.3500812842918113
 31
0.0
  0
LINE
  5
A7
100
AcDbEntity
  8
F.Fab
 62
256
370
-1
 48
1.0
  6
BYLAYER
100
AcDbLine
 10
-5.6002336923389358
 20
-6.9503996477680765
 30
0.0
 11
5.6003691661586501
 21
-6.9503996477680658
 31
0.0
  0
LINE
  5
A8
100
AcDbEntity
  8
F.Cu
 62
256
370
-1
 48
1.0
  6
BYLAYER
100
AcDbLine
 10
2.7814976630766104
 20
-0.9500948316737792
 30
0.0
 11
2.8001253132832051
 21
-0.9311284969179745
 31
0.0
  0
LINE
  5
A9
100
AcDbEntity
  8
F.Cu
 62
256
370
-1
 48
1.0
  6
BYLAYER
100
AcDbLine
 10
7.4924304003251248
 20
-3.7501693422745905
 30
0.0
 11
7.5003894872315833
 21
-3.7422102553681387
 31
0.0
  0
LINE
  5
AA
100
AcDbEntity
  8
F.Cu
 62
256
370
-1
 48
1.0
  6
BYLAYER
100
AcDbLine
 10
-4.6081927792454138
 20
-3.7501693422745905
 30
0.0
 11
-4.6001828896565797
 21
-3.7422102553681387
 31
0.0
  0
LINE
  5
AB
100
AcDbEntity
  8
F.Cu
 62
256
370
-1
 48
1.0
  6
BYLAYER
100
AcDbLine
 10
-7.5003048160942924
 20
-0.9851486825170843
 30
0.0
 11
-7.4652509652509664
 21
-0.9500948316737619
 31
0.0
  0
LINE
  5
AC
100
AcDbEntity
  8
F.Cu
 62
256
370
-1
 48
1.0
  6
BYLAYER
100
AcDbLine
 10
2.2001456343561543
 20
0.9500948316737787
 30
0.0
 11
2.8001253132832034
 21
0.9500948316737787
 31
0.0
  0
LINE
  5
AD
100
AcDbEntity
  8
F.Cu
 62
256
370
-1
 48
1.0
  6
BYLAYER
100
AcDbLine
 10
1.2001795028110749
 20
0.9500948316737787
 30
0.0
 11
1.8001591817381239
 21
0.9500948316737787
 31
0.0
  0
LINE
  5
AE
100
AcDbEntity
  8
F.Cu
 62
256
370
-1
 48
1.0
  6
BYLAYER
100
AcDbLine
 10
0.2000440289913925
 20
0.9500948316737787
 30
0.0
 11
0.8001930501930463
 21
0.9500948316737787
 31
0.0
  0
LINE
  5
AF
100
AcDbEntity
  8
F.Cu
 62
256
370
-1
 48
1.0
  6
BYLAYER
100
AcDbLine
 10
-0.7999221025536851
 20
0.9500948316737787
 30
0.0
 11
-0.1999424236266378
 21
0.9500948316737787
 31
0.0
  0
LINE
  5
B0
100
AcDbEntity
  8
F.Cu
 62
256
370
-1
 48
1.0
  6
BYLAYER
100
AcDbLine
 10
-1.8000575763733657
 20
0.9500948316737787
 30
0.0
 11
-1.1999085551717155
 21
0.9500948316737787
 31
0.0
  0
LINE
  5
B1
100
AcDbEntity
  8
F.Cu
 62
256
370
-1
 48
1.0
  6
BYLAYER
100
AcDbLine
 10
-2.8000575763733657
 20
0.9500948316737787
 30
0.0
 11
-2.2000440289913943
 21
0.9500948316737787
 31
0.0
  0
LINE
  5
B2
100
AcDbEntity
  8
F.Cu
 62
256
370
-1
 48
1.0
  6
BYLAYER
100
AcDbLine
 10
2.8001253132832051
 20
0.9500948316737787
 30
0.0
 11
2.8001253132832051
 21
-0.9500948316737792
 31
0.0
  0
LINE
  5
B3
100
AcDbEntity
  8
F.Cu
 62
256
370
-1
 48
1.0
  6
BYLAYER
100
AcDbLine
 10
2.8001253132832051
 20
-0.9500948316737792
 30
0.0
 11
2.2001456343561578
 21
-0.9500948316737792
 31
0.0
  0
LINE
  5
B4
100
AcDbEntity
  8
F.Cu
 62
256
370
-1
 48
1.0
  6
BYLAYER
100
AcDbLine
 10
2.2001456343561578
 20
-0.9500948316737792
 30
0.0
 11
2.2001456343561578
 21
0.9500948316737787
 31
0.0
  0
LINE
  5
B5
100
AcDbEntity
  8
F.Cu
 62
256
370
-1
 48
1.0
  6
BYLAYER
100
AcDbLine
 10
1.8001591817381275
 20
0.9500948316737787
 30
0.0
 11
1.8001591817381275
 21
-0.9500948316737792
 31
0.0
  0
LINE
  5
B6
100
AcDbEntity
  8
F.Cu
 62
256
370
-1
 48
1.0
  6
BYLAYER
100
AcDbLine
 10
1.8001591817381275
 20
-0.9500948316737792
 30
0.0
 11
1.200179502811082
 21
-0.9500948316737792
 31
0.0
  0
LINE
  5
B7
100
AcDbEntity
  8
F.Cu
 62
256
370
-1
 48
1.0
  6
BYLAYER
100
AcDbLine
 10
1.200179502811082
 20
-0.9500948316737792
 30
0.0
 11
1.200179502811082
 21
0.9500948316737787
 31
0.0
  0
LINE
  5
B8
100
AcDbEntity
  8
F.Cu
 62
256
370
-1
 48
1.0
  6
BYLAYER
100
AcDbLine
 10
0.8001930501930516
 20
0.9500948316737787
 30
0.0
 11
0.8001930501930516
 21
-0.9500948316737792
 31
0.0
  0
LINE
  5
B9
100
AcDbEntity
  8
F.Cu
 62
256
370
-1
 48
1.0
  6
BYLAYER
100
AcDbLine
 10
0.8001930501930516
 20
-0.9500948316737792
 30
0.0
 11
0.2000440289913978
 21
-0.9500948316737792
 31
0.0
  0
LINE
  5
BA
100
AcDbEntity
  8
F.Cu
 62
256
370
-1
 48
1.0
  6
BYLAYER
100
AcDbLine
 10
0.2000440289913978
 20
-0.9500948316737792
 30
0.0
 11
0.2000440289913978
 21
0.9500948316737787
 31
0.0
  0
LINE
  5
BB
100
AcDbEntity
  8
F.Cu
 62
256
370
-1
 48
1.0
  6
BYLAYER
100
AcDbLine
 10
-0.1999424236266307
 20
0.9500948316737787
 30
0.0
 11
-0.1999424236266307
 21
-0.9500948316737792
 31
0.0
  0
LINE
  5
BC
100
AcDbEntity
  8
F.Cu
 62
256
370
-1
 48
1.0
  6
BYLAYER
100
AcDbLine
 10
-0.1999424236266307
 20
-0.9500948316737792
 30
0.0
 11
-0.7999221025536798
 21
-0.9500948316737792
 31
0.0
  0
LINE
  5
BD
100
AcDbEntity
  8
F.Cu
 62
256
370
-1
 48
1.0
  6
BYLAYER
100
AcDbLine
 10
-0.7999221025536798
 20
-0.9500948316737792
 30
0.0
 11
-0.7999221025536798
 21
0.9500948316737787
 31
0.0
  0
LINE
  5
BE
100
AcDbEntity
  8
F.Cu
 62
256
370
-1
 48
1.0
  6
BYLAYER
100
AcDbLine
 10
-1.1999085551717084
 20
0.9500948316737787
 30
0.0
 11
-1.1999085551717084
 21
-0.9500948316737792
 31
0.0
  0
LINE
  5
BF
100
AcDbEntity
  8
F.Cu
 62
256
370
-1
 48
1.0
  6
BYLAYER
100
AcDbLine
 10
-1.1999085551717084
 20
-0.9500948316737792
 30
0.0
 11
-1.8000575763733622
 21
-0.9500948316737792
 31
0.0
  0
LINE
  5
C0
100
AcDbEntity
  8
F.Cu
 62
256
370
-1
 48
1.0
  6
BYLAYER
100
AcDbLine
 10
-1.8000575763733622
 20
-0.9500948316737792
 30
0.0
 11
-1.8000575763733622
 21
0.9500948316737787
 31
0.0
  0
LINE
  5
C1
100
AcDbEntity
  8
F.Cu
 62
256
370
-1
 48
1.0
  6
BYLAYER
100
AcDbLine
 10
-2.2000440289913943
 20
0.9500948316737787
 30
0.0
 11
-2.2000440289913943
 21
-0.9500948316737792
 31
0.0
  0
LINE
  5
C2
100
AcDbEntity
  8
F.Cu
 62
256
370
-1
 48
1.0
  6
BYLAYER
100
AcDbLine
 10
-2.2000440289913943
 20
-0.9500948316737792
 30
0.0
 11
-2.8000575763733622
 21
-0.9500948316737792
 31
0.0
  0
LINE
  5
C3
100
AcDbEntity
  8
F.Cu
 62
256
370
-1
 48
1.0
  6
BYLAYER
100
AcDbLine
 10
-2.8000575763733622
 20
-0.9500948316737792
 30
0.0
 11
-2.8000575763733622
 21
0.9500948316737787
 31
0.0
  0
LINE
  5
C4
100
AcDbEntity
  8
F.Cu
 62
256
370
-1
 48
1.0
  6
BYLAYER
100
AcDbLine
 10
-4.6001828896565726
 20
-0.9500948316737734
 30
0.0
 11
-4.6001828896565726
 21
-3.7501693422746021
 31
0.0
  0
LINE
  5
C5
100
AcDbEntity
  8
F.Cu
 62
256
370
-1
 48
1.0
  6
BYLAYER
100
AcDbLine
 10
-4.6001828896565726
 20
-3.7501693422746021
 30
0.0
 11
-7.5003048160942889
 21
-3.7501693422746021
 31
0.0
  0
LINE
  5
C6
100
AcDbEntity
  8
F.Cu
 62
256
370
-1
 48
1.0
  6
BYLAYER
100
AcDbLine
 10
-7.5003048160942889
 20
-3.7501693422746021
 30
0.0
 11
-7.5003048160942889
 21
-0.9500948316737734
 31
0.0
  0
LINE
  5
C7
100
AcDbEntity
  8
F.Cu
 62
256
370
-1
 48
1.0
  6
BYLAYER
100
AcDbLine
 10
-7.5003048160942889
 20
-0.9500948316737734
 30
0.0
 11
-4.6001828896565726
 21
-0.9500948316737734
 31
0.0
  0
LINE
  5
C8
100
AcDbEntity
  8
F.Cu
 62
256
370
-1
 48
1.0
  6
BYLAYER
100
AcDbLine
 10
4.6004030346135547
 20
-0.9500948316737734
 30
0.0
 11
4.6004030346135547
 21
-3.7501693422746021
 31
0.0
  0
LINE
  5
C9
100
AcDbEntity
  8
F.Cu
 62
256
370
-1
 48
1.0
  6
BYLAYER
100
AcDbLine
 10
4.6004030346135547
 20
-3.7501693422746021
 30
0.0
 11
7.5003894872315833
 21
-3.7501693422746021
 31
0.0
  0
LINE
  5
CA
100
AcDbEntity
  8
F.Cu
 62
256
370
-1
 48
1.0
  6
BYLAYER
100
AcDbLine
 10
7.5003894872315833
 20
-3.7501693422746021
 30
0.0
 11
7.5003894872315833
 21
-0.9500948316737734
 31
0.0
  0
LINE
  5
CB
100
AcDbEntity
  8
F.Cu
 62
256
370
-1
 48
1.0
  6
BYLAYER
100
AcDbLine
 10
7.5003894872315833
 20
-0.9500948316737734
 30
0.0
 11
4.600403034613552
 21
-0.9500948316737734
 31
0.0
  0
ARC
  5
CC
100
AcDbEntity
  8
0
 62
256
370
-1
 48
1.0
  6
BYLAYER
100
AcDbCircle
 10
5.6003708451343357
 20
-6.6503268161429414
 30
0.0
 40
0.3000728316298212
100
AcDbArc
 50
269.9996794170929775
 51
0.0003205837619062
  0
ARC
  5
CD
100
AcDbEntity
  8
F.Fab
 62
256
370
-1
 48
1.0
  6
BYLAYER
100
AcDbCircle
 10
-5.6002336923389358
 20
-6.6503251371672434
 30
0.0
 40
0.2999898394635392
100
AcDbArc
 50
179.9993586699231969
 51
270.0
  0
ENDSEC
  0
SECTION
  2
OBJECTS
  0
DICTIONARY
  5
C
100
AcDbDictionary
280
0
281
1
  3
ACAD_GROUP
350
D
  3
ACAD_LAYOUT
350
1A
  3
ACAD_MLINESTYLE
350
17
  3
ACAD_PLOTSETTINGS
350
19
  3
ACAD_PLOTSTYLENAME
350
E
  3
AcDbVariableDictionary
350
CE
  3
QCAD_OBJECTS
350
CF
  0
DICTIONARY
  5
D
100
AcDbDictionary
280
0
281
1
  0
ACDBDICTIONARYWDFLT
  5
E
100
AcDbDictionary
281
1
  3
Normal
350
F
100
AcDbDictionaryWithDefault
340
F
  0
ACDBPLACEHOLDER
  5
F
  0
DICTIONARY
  5
17
100
AcDbDictionary
280
0
281
1
  3
Standard
350
18
  0
MLINESTYLE
  5
18
100
AcDbMlineStyle
  2
STANDARD
 70
0
  3

 62
256
 51
90.0
 52
90.0
 71
2
 49
0.5
 62
256
  6
BYLAYER
 49
-0.5
 62
256
  6
BYLAYER
  0
DICTIONARY
  5
19
100
AcDbDictionary
280
0
281
1
  0
DICTIONARY
  5
1A
100
AcDbDictionary
281
1
  3
Layout1
350
1E
  3
Layout2
350
26
  3
Model
350
22
  0
LAYOUT
  5
1E
100
AcDbPlotSettings
  1

  2
none_device
  4

  6

 40
0.0
 41
0.0
 42
0.0
 43
0.0
 44
0.0
 45
0.0
 46
0.0
 47
0.0
 48
0.0
 49
0.0
140
0.0
141
0.0
142
1.0
143
1.0
 70
688
 72
0
 73
0
 74
5
  7

 75
16
147
1.0
148
0.0
149
0.0
100
AcDbLayout
  1
Layout1
 70
1
 71
1
 10
0.0
 20
0.0
 11
420.0
 21
297.0
 12
0.0
 22
0.0
 32
0.0
 14
100000000000000000000.0
 24
100000000000000000000.0
 34
100000000000000000000.0
 15
-100000000000000000000.0
 25
-100000000000000000000.0
 35
-100000000000000000000.0
146
0.0
 13
0.0
 23
0.0
 33
0.0
 16
1.0
 26
0.0
 36
0.0
 17
0.0
 27
1.0
 37
0.0
 76
0
330
1B
  0
LAYOUT
  5
22
100
AcDbPlotSettings
  1

  2
none_device
  4

  6

 40
0.0
 41
0.0
 42
0.0
 43
0.0
 44
0.0
 45
0.0
 46
0.0
 47
0.0
 48
0.0
 49
0.0
140
0.0
141
0.0
142
1.0
143
1.0
 70
1712
 72
0
 73
0
 74
0
  7

 75
0
147
1.0
148
0.0
149
0.0
100
AcDbLayout
  1
Model
 70
1
 71
0
 10
0.0
 20
0.0
 11
12.0
 21
9.0
 12
0.0
 22
0.0
 32
0.0
 14
0.0
 24
0.0
 34
0.0
 15
0.0
 25
0.0
 35
0.0
146
0.0
 13
0.0
 23
0.0
 33
0.0
 16
1.0
 26
0.0
 36
0.0
 17
0.0
 27
1.0
 37
0.0
 76
0
330
1F
  0
LAYOUT
  5
26
100
AcDbPlotSettings
  1

  2
none_device
  4

  6

 40
0.0
 41
0.0
 42
0.0
 43
0.0
 44
0.0
 45
0.0
 46
0.0
 47
0.0
 48
0.0
 49
0.0
140
0.0
141
0.0
142
1.0
143
1.0
 70
688
 72
0
 73
0
 74
5
  7

 75
16
147
1.0
148
0.0
149
0.0
100
AcDbLayout
  1
Layout2
 70
1
 71
2
 10
0.0
 20
0.0
 11
12.0
 21
9.0
 12
0.0
 22
0.0
 32
0.0
 14
0.0
 24
0.0
 34
0.0
 15
0.0
 25
0.0
 35
0.0
146
0.0
 13
0.0
 23
0.0
 33
0.0
 16
1.0
 26
0.0
 36
0.0
 17
0.0
 27
1.0
 37
0.0
 76
0
330
23
  0
DICTIONARY
  5
CE
100
AcDbDictionary
281
1
  3
DIMASSOC
350
D1
  3
HIDETEXT
350
D0
  0
DICTIONARYVAR
  5
D0
100
DictionaryVariables
280
0
  1
2
  0
DICTIONARYVAR
  5
D1
100
DictionaryVariables
280
0
  1
1
  0
DICTIONARY
  5
CF
100
AcDbDictionary
281
1
  3
ColorSettings/BackgroundColor
350
D2
  3
ColorSettings/ColorMode
350
D3
  3
Grid/DisplayGrid00
350
D4
  3
Grid/DisplayGrid01
350
D5
  3
Grid/DisplayGrid02
350
D6
  3
Grid/DisplayGrid03
350
D7
  3
Grid/GridSpacingX00
350
D8
  3
Grid/GridSpacingX01
350
D9
  3
Grid/GridSpacingX02
350
DA
  3
Grid/GridSpacingX03
350
DB
  3
Grid/GridSpacingY00
350
DC
  3
Grid/GridSpacingY01
350
DD
  3
Grid/GridSpacingY02
350
DE
  3
Grid/GridSpacingY03
350
DF
  3
Grid/IsometricGrid00
350
E0
  3
Grid/IsometricGrid01
350
E1
  3
Grid/IsometricGrid02
350
E2
  3
Grid/IsometricGrid03
350
E3
  3
Grid/IsometricProjection00
350
E4
  3
Grid/IsometricProjection01
350
E5
  3
Grid/IsometricProjection02
350
E6
  3
Grid/IsometricProjection03
350
E7
  3
Grid/MetaGridSpacingX00
350
E8
  3
Grid/MetaGridSpacingX01
350
E9
  3
Grid/MetaGridSpacingX02
350
EA
  3
Grid/MetaGridSpacingX03
350
EB
  3
Grid/MetaGridSpacingY00
350
EC
  3
Grid/MetaGridSpacingY01
350
ED
  3
Grid/MetaGridSpacingY02
350
EE
  3
Grid/MetaGridSpacingY03
350
EF
  3
MultiPageSettings/Columns
350
F0
  3
MultiPageSettings/GlueMarginsBottom
350
F1
  3
MultiPageSettings/GlueMarginsLeft
350
F2
  3
MultiPageSettings/GlueMarginsRight
350
F3
  3
MultiPageSettings/GlueMarginsTop
350
F4
  3
MultiPageSettings/PrintCropMarks
350
F5
  3
MultiPageSettings/Rows
350
F6
  3
PageSettings/OffsetX
350
F7
  3
PageSettings/OffsetY
350
F8
  3
PageSettings/PageOrientation
350
F9
  3
PageSettings/PaperHeight
350
FA
  3
PageSettings/PaperWidth
350
FB
  3
PageSettings/Scale
350
FC
  3
PageSettings/ShowPaperBorders
350
FD
  3
PageTagSettings/EnablePageTags
350
FE
  3
PageTagSettings/TagAlignment
350
FF
  3
PageTagSettings/TagFont
350
100
  3
PageTagSettings/TagPosition
350
101
  3
QCADVersion
350
102
  3
UnitSettings/PaperUnit
350
103
  3
ViewportCenter
350
104
  3
ViewportHeight
350
105
  3
ViewportWidth
350
106
  0
XRECORD
  5
D2
330
CF
100
AcDbXrecord
280
1
1000
White
  0
XRECORD
  5
D3
330
CF
100
AcDbXrecord
280
1
1000
FullColor
  0
XRECORD
  5
D4
330
CF
100
AcDbXrecord
280
1
290
1
  0
XRECORD
  5
D5
330
CF
100
AcDbXrecord
280
1
290
1
  0
XRECORD
  5
D6
330
CF
100
AcDbXrecord
280
1
290
1
  0
XRECORD
  5
D7
330
CF
100
AcDbXrecord
280
1
290
1
  0
XRECORD
  5
D8
330
CF
100
AcDbXrecord
280
1
1000
auto
  0
XRECORD
  5
D9
330
CF
100
AcDbXrecord
280
1
1000
auto
  0
XRECORD
  5
DA
330
CF
100
AcDbXrecord
280
1
1000
auto
  0
XRECORD
  5
DB
330
CF
100
AcDbXrecord
280
1
1000
auto
  0
XRECORD
  5
DC
330
CF
100
AcDbXrecord
280
1
1000
auto
  0
XRECORD
  5
DD
330
CF
100
AcDbXrecord
280
1
1000
auto
  0
XRECORD
  5
DE
330
CF
100
AcDbXrecord
280
1
1000
auto
  0
XRECORD
  5
DF
330
CF
100
AcDbXrecord
280
1
1000
auto
  0
XRECORD
  5
E0
330
CF
100
AcDbXrecord
280
1
290
0
  0
XRECORD
  5
E1
330
CF
100
AcDbXrecord
280
1
290
0
  0
XRECORD
  5
E2
330
CF
100
AcDbXrecord
280
1
290
0
  0
XRECORD
  5
E3
330
CF
100
AcDbXrecord
280
1
290
0
  0
XRECORD
  5
E4
330
CF
100
AcDbXrecord
280
1
 90
65537
  0
XRECORD
  5
E5
330
CF
100
AcDbXrecord
280
1
 90
65537
  0
XRECORD
  5
E6
330
CF
100
AcDbXrecord
280
1
 90
65537
  0
XRECORD
  5
E7
330
CF
100
AcDbXrecord
280
1
 90
65537
  0
XRECORD
  5
E8
330
CF
100
AcDbXrecord
280
1
1000
auto
  0
XRECORD
  5
E9
330
CF
100
AcDbXrecord
280
1
1000
auto
  0
XRECORD
  5
EA
330
CF
100
AcDbXrecord
280
1
1000
auto
  0
XRECORD
  5
EB
330
CF
100
AcDbXrecord
280
1
1000
auto
  0
XRECORD
  5
EC
330
CF
100
AcDbXrecord
280
1
1000
auto
  0
XRECORD
  5
ED
330
CF
100
AcDbXrecord
280
1
1000
auto
  0
XRECORD
  5
EE
330
CF
100
AcDbXrecord
280
1
1000
auto
  0
XRECORD
  5
EF
330
CF
100
AcDbXrecord
280
1
1000
auto
  0
XRECORD
  5
F0
330
CF
100
AcDbXrecord
280
1
 90
1
  0
XRECORD
  5
F1
330
CF
100
AcDbXrecord
280
1
 40
10.0
  0
XRECORD
  5
F2
330
CF
100
AcDbXrecord
280
1
 40
10.0
  0
XRECORD
  5
F3
330
CF
100
AcDbXrecord
280
1
 40
10.0
  0
XRECORD
  5
F4
330
CF
100
AcDbXrecord
280
1
 40
10.0
  0
XRECORD
  5
F5
330
CF
100
AcDbXrecord
280
1
290
0
  0
XRECORD
  5
F6
330
CF
100
AcDbXrecord
280
1
 90
1
  0
XRECORD
  5
F7
330
CF
100
AcDbXrecord
280
1
 40
0.0
  0
XRECORD
  5
F8
330
CF
100
AcDbXrecord
280
1
 40
0.0
  0
XRECORD
  5
F9
330
CF
100
AcDbXrecord
280
1
1000
Portrait
  0
XRECORD
  5
FA
330
CF
100
AcDbXrecord
280
1
 40
420.0
  0
XRECORD
  5
FB
330
CF
100
AcDbXrecord
280
1
 40
297.0
  0
XRECORD
  5
FC
330
CF
100
AcDbXrecord
280
1
1000
1:1
  0
XRECORD
  5
FD
330
CF
100
AcDbXrecord
280
1
290
1
  0
XRECORD
  5
FE
330
CF
100
AcDbXrecord
280
1
290
0
  0
XRECORD
  5
FF
330
CF
100
AcDbXrecord
280
1
1000
Inside
  0
XRECORD
  5
100
330
CF
100
AcDbXrecord
280
1
1000
Arial,10,-1,5,50,0,0,0,0,0
  0
XRECORD
  5
101
330
CF
100
AcDbXrecord
280
1
1000
TopLeft
  0
XRECORD
  5
102
330
CF
100
AcDbXrecord
280
1
1000
3.26.1
  0
XRECORD
  5
103
330
CF
100
AcDbXrecord
280
1
 90
4
  0
XRECORD
  5
105
330
CF
100
AcDbXrecord
280
1
 40
38.1356261398404683
  0
XRECORD
  5
106
330
CF
100
AcDbXrecord
280
1
 40
27.6198935520397733
  0
ENDSEC
  0
EOF
